G04 #@! TF.FileFunction,Legend,Top*
%FSLAX46Y46*%
G04 Gerber Fmt 4.6, Leading zero omitted, Abs format (unit mm)*
G04 Created by KiCad (PCBNEW 4.0.6) date 11/05/17 12:45:19*
%MOMM*%
%LPD*%
G01*
G04 APERTURE LIST*
%ADD10C,0.100000*%
%ADD11C,0.300000*%
%ADD12C,0.120000*%
%ADD13C,0.010000*%
%ADD14C,0.150000*%
G04 APERTURE END LIST*
D10*
D11*
X127341428Y-122358571D02*
X127627142Y-122358571D01*
X127770000Y-122430000D01*
X127912857Y-122572857D01*
X127984285Y-122858571D01*
X127984285Y-123358571D01*
X127912857Y-123644286D01*
X127770000Y-123787143D01*
X127627142Y-123858571D01*
X127341428Y-123858571D01*
X127198571Y-123787143D01*
X127055714Y-123644286D01*
X126984285Y-123358571D01*
X126984285Y-122858571D01*
X127055714Y-122572857D01*
X127198571Y-122430000D01*
X127341428Y-122358571D01*
X128627143Y-123858571D02*
X128627143Y-122358571D01*
X129484286Y-123858571D01*
X129484286Y-122358571D01*
X124912857Y-125837143D02*
X126055714Y-125837143D01*
X126770000Y-125837143D02*
X127912857Y-125837143D01*
X128627143Y-125837143D02*
X129770000Y-125837143D01*
X130484286Y-125837143D02*
X131627143Y-125837143D01*
X126841429Y-127458571D02*
X127127143Y-127458571D01*
X127270001Y-127530000D01*
X127412858Y-127672857D01*
X127484286Y-127958571D01*
X127484286Y-128458571D01*
X127412858Y-128744286D01*
X127270001Y-128887143D01*
X127127143Y-128958571D01*
X126841429Y-128958571D01*
X126698572Y-128887143D01*
X126555715Y-128744286D01*
X126484286Y-128458571D01*
X126484286Y-127958571D01*
X126555715Y-127672857D01*
X126698572Y-127530000D01*
X126841429Y-127458571D01*
X128627144Y-128172857D02*
X128127144Y-128172857D01*
X128127144Y-128958571D02*
X128127144Y-127458571D01*
X128841430Y-127458571D01*
X129912858Y-128172857D02*
X129412858Y-128172857D01*
X129412858Y-128958571D02*
X129412858Y-127458571D01*
X130127144Y-127458571D01*
X119848572Y-128377143D02*
X120991429Y-128377143D01*
X122848572Y-128377143D02*
X123991429Y-128377143D01*
X123420000Y-128948571D02*
X123420000Y-127805714D01*
X197441429Y-121552858D02*
X198155714Y-121052858D01*
X197441429Y-120695715D02*
X198941429Y-120695715D01*
X198941429Y-121267143D01*
X198870000Y-121410001D01*
X198798571Y-121481429D01*
X198655714Y-121552858D01*
X198441429Y-121552858D01*
X198298571Y-121481429D01*
X198227143Y-121410001D01*
X198155714Y-121267143D01*
X198155714Y-120695715D01*
X198227143Y-122195715D02*
X198227143Y-122695715D01*
X197441429Y-122910001D02*
X197441429Y-122195715D01*
X198941429Y-122195715D01*
X198941429Y-122910001D01*
X198227143Y-123552858D02*
X198227143Y-124052858D01*
X197441429Y-124267144D02*
X197441429Y-123552858D01*
X198941429Y-123552858D01*
X198941429Y-124267144D01*
X197441429Y-124910001D02*
X198941429Y-124910001D01*
X198941429Y-125267144D01*
X198870000Y-125481429D01*
X198727143Y-125624287D01*
X198584286Y-125695715D01*
X198298571Y-125767144D01*
X198084286Y-125767144D01*
X197798571Y-125695715D01*
X197655714Y-125624287D01*
X197512857Y-125481429D01*
X197441429Y-125267144D01*
X197441429Y-124910001D01*
X198227143Y-127552858D02*
X198227143Y-128052858D01*
X197441429Y-128267144D02*
X197441429Y-127552858D01*
X198941429Y-127552858D01*
X198941429Y-128267144D01*
X197512857Y-128838572D02*
X197441429Y-129052858D01*
X197441429Y-129410001D01*
X197512857Y-129552858D01*
X197584286Y-129624287D01*
X197727143Y-129695715D01*
X197870000Y-129695715D01*
X198012857Y-129624287D01*
X198084286Y-129552858D01*
X198155714Y-129410001D01*
X198227143Y-129124287D01*
X198298571Y-128981429D01*
X198370000Y-128910001D01*
X198512857Y-128838572D01*
X198655714Y-128838572D01*
X198798571Y-128910001D01*
X198870000Y-128981429D01*
X198941429Y-129124287D01*
X198941429Y-129481429D01*
X198870000Y-129695715D01*
X197298571Y-131338572D02*
X197370000Y-131195715D01*
X197512857Y-131052858D01*
X197727143Y-130838572D01*
X197798571Y-130695715D01*
X197798571Y-130552858D01*
X197441429Y-130624286D02*
X197512857Y-130481429D01*
X197655714Y-130338572D01*
X197941429Y-130267143D01*
X198441429Y-130267143D01*
X198727143Y-130338572D01*
X198870000Y-130481429D01*
X198941429Y-130624286D01*
X198941429Y-130910000D01*
X198870000Y-131052858D01*
X198727143Y-131195715D01*
X198441429Y-131267143D01*
X197941429Y-131267143D01*
X197655714Y-131195715D01*
X197512857Y-131052858D01*
X197441429Y-130910000D01*
X197441429Y-130624286D01*
X198941429Y-131910001D02*
X197727143Y-131910001D01*
X197584286Y-131981429D01*
X197512857Y-132052858D01*
X197441429Y-132195715D01*
X197441429Y-132481429D01*
X197512857Y-132624287D01*
X197584286Y-132695715D01*
X197727143Y-132767144D01*
X198941429Y-132767144D01*
X197441429Y-133481430D02*
X198941429Y-133481430D01*
X197441429Y-135052859D02*
X198155714Y-134552859D01*
X197441429Y-134195716D02*
X198941429Y-134195716D01*
X198941429Y-134767144D01*
X198870000Y-134910002D01*
X198798571Y-134981430D01*
X198655714Y-135052859D01*
X198441429Y-135052859D01*
X198298571Y-134981430D01*
X198227143Y-134910002D01*
X198155714Y-134767144D01*
X198155714Y-134195716D01*
X198227143Y-135695716D02*
X198227143Y-136195716D01*
X197441429Y-136410002D02*
X197441429Y-135695716D01*
X198941429Y-135695716D01*
X198941429Y-136410002D01*
X197441429Y-137767145D02*
X197441429Y-137052859D01*
X198941429Y-137052859D01*
X197441429Y-138981431D02*
X197441429Y-138267145D01*
X198941429Y-138267145D01*
X198941429Y-140481431D02*
X198941429Y-141481431D01*
X197441429Y-140838574D01*
X198012857Y-142052859D02*
X198012857Y-143195716D01*
X197441429Y-144695716D02*
X197441429Y-143838573D01*
X197441429Y-144267145D02*
X198941429Y-144267145D01*
X198727143Y-144124288D01*
X198584286Y-143981430D01*
X198512857Y-143838573D01*
X198941429Y-145195716D02*
X198941429Y-146124287D01*
X198370000Y-145624287D01*
X198370000Y-145838573D01*
X198298571Y-145981430D01*
X198227143Y-146052859D01*
X198084286Y-146124287D01*
X197727143Y-146124287D01*
X197584286Y-146052859D01*
X197512857Y-145981430D01*
X197441429Y-145838573D01*
X197441429Y-145410001D01*
X197512857Y-145267144D01*
X197584286Y-145195716D01*
X198012857Y-146767144D02*
X198012857Y-147910001D01*
X198798571Y-148552858D02*
X198870000Y-148624287D01*
X198941429Y-148767144D01*
X198941429Y-149124287D01*
X198870000Y-149267144D01*
X198798571Y-149338573D01*
X198655714Y-149410001D01*
X198512857Y-149410001D01*
X198298571Y-149338573D01*
X197441429Y-148481430D01*
X197441429Y-149410001D01*
X198941429Y-150338572D02*
X198941429Y-150481429D01*
X198870000Y-150624286D01*
X198798571Y-150695715D01*
X198655714Y-150767144D01*
X198370000Y-150838572D01*
X198012857Y-150838572D01*
X197727143Y-150767144D01*
X197584286Y-150695715D01*
X197512857Y-150624286D01*
X197441429Y-150481429D01*
X197441429Y-150338572D01*
X197512857Y-150195715D01*
X197584286Y-150124286D01*
X197727143Y-150052858D01*
X198012857Y-149981429D01*
X198370000Y-149981429D01*
X198655714Y-150052858D01*
X198798571Y-150124286D01*
X198870000Y-150195715D01*
X198941429Y-150338572D01*
X197441429Y-152267143D02*
X197441429Y-151410000D01*
X197441429Y-151838572D02*
X198941429Y-151838572D01*
X198727143Y-151695715D01*
X198584286Y-151552857D01*
X198512857Y-151410000D01*
X198941429Y-152767143D02*
X198941429Y-153767143D01*
X197441429Y-153124286D01*
D12*
X118420000Y-110430000D02*
X125420000Y-110430000D01*
X118420000Y-115630000D02*
X125420000Y-115630000D01*
X125420000Y-115630000D02*
X125420000Y-114630000D01*
X146320000Y-119260000D02*
X144950000Y-119260000D01*
X144950000Y-119260000D02*
X144950000Y-155060000D01*
X144950000Y-155060000D02*
X149690000Y-155060000D01*
X149690000Y-155060000D02*
X149690000Y-119260000D01*
X149690000Y-119260000D02*
X148320000Y-119260000D01*
X148320000Y-119260000D02*
G75*
G02X146320000Y-119260000I-1000000J0D01*
G01*
X98100000Y-69790000D02*
X105100000Y-69790000D01*
X98100000Y-74990000D02*
X105100000Y-74990000D01*
X105100000Y-74990000D02*
X105100000Y-73990000D01*
X98100000Y-18990000D02*
X105100000Y-18990000D01*
X98100000Y-24190000D02*
X105100000Y-24190000D01*
X105100000Y-24190000D02*
X105100000Y-23190000D01*
X98100000Y-29150000D02*
X105100000Y-29150000D01*
X98100000Y-34350000D02*
X105100000Y-34350000D01*
X105100000Y-34350000D02*
X105100000Y-33350000D01*
X108260000Y-29150000D02*
X115260000Y-29150000D01*
X108260000Y-34350000D02*
X115260000Y-34350000D01*
X115260000Y-34350000D02*
X115260000Y-33350000D01*
X108260000Y-18990000D02*
X115260000Y-18990000D01*
X108260000Y-24190000D02*
X115260000Y-24190000D01*
X115260000Y-24190000D02*
X115260000Y-23190000D01*
X118420000Y-18990000D02*
X125420000Y-18990000D01*
X118420000Y-24190000D02*
X125420000Y-24190000D01*
X125420000Y-24190000D02*
X125420000Y-23190000D01*
X128580000Y-18990000D02*
X135580000Y-18990000D01*
X128580000Y-24190000D02*
X135580000Y-24190000D01*
X135580000Y-24190000D02*
X135580000Y-23190000D01*
X138740000Y-18990000D02*
X145740000Y-18990000D01*
X138740000Y-24190000D02*
X145740000Y-24190000D01*
X145740000Y-24190000D02*
X145740000Y-23190000D01*
X148900000Y-18990000D02*
X155900000Y-18990000D01*
X148900000Y-24190000D02*
X155900000Y-24190000D01*
X155900000Y-24190000D02*
X155900000Y-23190000D01*
X159060000Y-18990000D02*
X166060000Y-18990000D01*
X159060000Y-24190000D02*
X166060000Y-24190000D01*
X166060000Y-24190000D02*
X166060000Y-23190000D01*
X169220000Y-18990000D02*
X176220000Y-18990000D01*
X169220000Y-24190000D02*
X176220000Y-24190000D01*
X176220000Y-24190000D02*
X176220000Y-23190000D01*
X179380000Y-18990000D02*
X186380000Y-18990000D01*
X179380000Y-24190000D02*
X186380000Y-24190000D01*
X186380000Y-24190000D02*
X186380000Y-23190000D01*
X189540000Y-18990000D02*
X196540000Y-18990000D01*
X189540000Y-24190000D02*
X196540000Y-24190000D01*
X196540000Y-24190000D02*
X196540000Y-23190000D01*
X118420000Y-29150000D02*
X125420000Y-29150000D01*
X118420000Y-34350000D02*
X125420000Y-34350000D01*
X125420000Y-34350000D02*
X125420000Y-33350000D01*
X128580000Y-29150000D02*
X135580000Y-29150000D01*
X128580000Y-34350000D02*
X135580000Y-34350000D01*
X135580000Y-34350000D02*
X135580000Y-33350000D01*
X138740000Y-29150000D02*
X145740000Y-29150000D01*
X138740000Y-34350000D02*
X145740000Y-34350000D01*
X145740000Y-34350000D02*
X145740000Y-33350000D01*
X148900000Y-29150000D02*
X155900000Y-29150000D01*
X148900000Y-34350000D02*
X155900000Y-34350000D01*
X155900000Y-34350000D02*
X155900000Y-33350000D01*
X159060000Y-29150000D02*
X166060000Y-29150000D01*
X159060000Y-34350000D02*
X166060000Y-34350000D01*
X166060000Y-34350000D02*
X166060000Y-33350000D01*
X169220000Y-29150000D02*
X176220000Y-29150000D01*
X169220000Y-34350000D02*
X176220000Y-34350000D01*
X176220000Y-34350000D02*
X176220000Y-33350000D01*
X179380000Y-29150000D02*
X186380000Y-29150000D01*
X179380000Y-34350000D02*
X186380000Y-34350000D01*
X186380000Y-34350000D02*
X186380000Y-33350000D01*
X189540000Y-29150000D02*
X196540000Y-29150000D01*
X189540000Y-34350000D02*
X196540000Y-34350000D01*
X196540000Y-34350000D02*
X196540000Y-33350000D01*
X98100000Y-39310000D02*
X105100000Y-39310000D01*
X98100000Y-44510000D02*
X105100000Y-44510000D01*
X105100000Y-44510000D02*
X105100000Y-43510000D01*
X108260000Y-39310000D02*
X115260000Y-39310000D01*
X108260000Y-44510000D02*
X115260000Y-44510000D01*
X115260000Y-44510000D02*
X115260000Y-43510000D01*
X98100000Y-49470000D02*
X105100000Y-49470000D01*
X98100000Y-54670000D02*
X105100000Y-54670000D01*
X105100000Y-54670000D02*
X105100000Y-53670000D01*
X98100000Y-59630000D02*
X105100000Y-59630000D01*
X98100000Y-64830000D02*
X105100000Y-64830000D01*
X105100000Y-64830000D02*
X105100000Y-63830000D01*
X98100000Y-79950000D02*
X105100000Y-79950000D01*
X98100000Y-85150000D02*
X105100000Y-85150000D01*
X105100000Y-85150000D02*
X105100000Y-84150000D01*
X98100000Y-90110000D02*
X105100000Y-90110000D01*
X98100000Y-95310000D02*
X105100000Y-95310000D01*
X105100000Y-95310000D02*
X105100000Y-94310000D01*
X98100000Y-100270000D02*
X105100000Y-100270000D01*
X98100000Y-105470000D02*
X105100000Y-105470000D01*
X105100000Y-105470000D02*
X105100000Y-104470000D01*
X98100000Y-110430000D02*
X105100000Y-110430000D01*
X98100000Y-115630000D02*
X105100000Y-115630000D01*
X105100000Y-115630000D02*
X105100000Y-114630000D01*
X108260000Y-49470000D02*
X115260000Y-49470000D01*
X108260000Y-54670000D02*
X115260000Y-54670000D01*
X115260000Y-54670000D02*
X115260000Y-53670000D01*
X108260000Y-59630000D02*
X115260000Y-59630000D01*
X108260000Y-64830000D02*
X115260000Y-64830000D01*
X115260000Y-64830000D02*
X115260000Y-63830000D01*
X118420000Y-39310000D02*
X125420000Y-39310000D01*
X118420000Y-44510000D02*
X125420000Y-44510000D01*
X125420000Y-44510000D02*
X125420000Y-43510000D01*
X128580000Y-39310000D02*
X135580000Y-39310000D01*
X128580000Y-44510000D02*
X135580000Y-44510000D01*
X135580000Y-44510000D02*
X135580000Y-43510000D01*
X118420000Y-49470000D02*
X125420000Y-49470000D01*
X118420000Y-54670000D02*
X125420000Y-54670000D01*
X125420000Y-54670000D02*
X125420000Y-53670000D01*
X128580000Y-49470000D02*
X135580000Y-49470000D01*
X128580000Y-54670000D02*
X135580000Y-54670000D01*
X135580000Y-54670000D02*
X135580000Y-53670000D01*
X118420000Y-59630000D02*
X125420000Y-59630000D01*
X118420000Y-64830000D02*
X125420000Y-64830000D01*
X125420000Y-64830000D02*
X125420000Y-63830000D01*
X128580000Y-59630000D02*
X135580000Y-59630000D01*
X128580000Y-64830000D02*
X135580000Y-64830000D01*
X135580000Y-64830000D02*
X135580000Y-63830000D01*
X108260000Y-69790000D02*
X115260000Y-69790000D01*
X108260000Y-74990000D02*
X115260000Y-74990000D01*
X115260000Y-74990000D02*
X115260000Y-73990000D01*
X118420000Y-69790000D02*
X125420000Y-69790000D01*
X118420000Y-74990000D02*
X125420000Y-74990000D01*
X125420000Y-74990000D02*
X125420000Y-73990000D01*
X128580000Y-69790000D02*
X135580000Y-69790000D01*
X128580000Y-74990000D02*
X135580000Y-74990000D01*
X135580000Y-74990000D02*
X135580000Y-73990000D01*
X138740000Y-39310000D02*
X145740000Y-39310000D01*
X138740000Y-44510000D02*
X145740000Y-44510000D01*
X145740000Y-44510000D02*
X145740000Y-43510000D01*
X148900000Y-39310000D02*
X155900000Y-39310000D01*
X148900000Y-44510000D02*
X155900000Y-44510000D01*
X155900000Y-44510000D02*
X155900000Y-43510000D01*
X159060000Y-39310000D02*
X166060000Y-39310000D01*
X159060000Y-44510000D02*
X166060000Y-44510000D01*
X166060000Y-44510000D02*
X166060000Y-43510000D01*
X169220000Y-39310000D02*
X176220000Y-39310000D01*
X169220000Y-44510000D02*
X176220000Y-44510000D01*
X176220000Y-44510000D02*
X176220000Y-43510000D01*
X179380000Y-39310000D02*
X186380000Y-39310000D01*
X179380000Y-44510000D02*
X186380000Y-44510000D01*
X186380000Y-44510000D02*
X186380000Y-43510000D01*
X189540000Y-39310000D02*
X196540000Y-39310000D01*
X189540000Y-44510000D02*
X196540000Y-44510000D01*
X196540000Y-44510000D02*
X196540000Y-43510000D01*
X138740000Y-49470000D02*
X145740000Y-49470000D01*
X138740000Y-54670000D02*
X145740000Y-54670000D01*
X145740000Y-54670000D02*
X145740000Y-53670000D01*
X148900000Y-49470000D02*
X155900000Y-49470000D01*
X148900000Y-54670000D02*
X155900000Y-54670000D01*
X155900000Y-54670000D02*
X155900000Y-53670000D01*
X159060000Y-49470000D02*
X166060000Y-49470000D01*
X159060000Y-54670000D02*
X166060000Y-54670000D01*
X166060000Y-54670000D02*
X166060000Y-53670000D01*
X169220000Y-49470000D02*
X176220000Y-49470000D01*
X169220000Y-54670000D02*
X176220000Y-54670000D01*
X176220000Y-54670000D02*
X176220000Y-53670000D01*
X179380000Y-49470000D02*
X186380000Y-49470000D01*
X179380000Y-54670000D02*
X186380000Y-54670000D01*
X186380000Y-54670000D02*
X186380000Y-53670000D01*
X189540000Y-49470000D02*
X196540000Y-49470000D01*
X189540000Y-54670000D02*
X196540000Y-54670000D01*
X196540000Y-54670000D02*
X196540000Y-53670000D01*
X138740000Y-59630000D02*
X145740000Y-59630000D01*
X138740000Y-64830000D02*
X145740000Y-64830000D01*
X145740000Y-64830000D02*
X145740000Y-63830000D01*
X148900000Y-59630000D02*
X155900000Y-59630000D01*
X148900000Y-64830000D02*
X155900000Y-64830000D01*
X155900000Y-64830000D02*
X155900000Y-63830000D01*
X159060000Y-59630000D02*
X166060000Y-59630000D01*
X159060000Y-64830000D02*
X166060000Y-64830000D01*
X166060000Y-64830000D02*
X166060000Y-63830000D01*
X169220000Y-59630000D02*
X176220000Y-59630000D01*
X169220000Y-64830000D02*
X176220000Y-64830000D01*
X176220000Y-64830000D02*
X176220000Y-63830000D01*
X179380000Y-59630000D02*
X186380000Y-59630000D01*
X179380000Y-64830000D02*
X186380000Y-64830000D01*
X186380000Y-64830000D02*
X186380000Y-63830000D01*
X189540000Y-59630000D02*
X196540000Y-59630000D01*
X189540000Y-64830000D02*
X196540000Y-64830000D01*
X196540000Y-64830000D02*
X196540000Y-63830000D01*
X108260000Y-79950000D02*
X115260000Y-79950000D01*
X108260000Y-85150000D02*
X115260000Y-85150000D01*
X115260000Y-85150000D02*
X115260000Y-84150000D01*
X108260000Y-90110000D02*
X115260000Y-90110000D01*
X108260000Y-95310000D02*
X115260000Y-95310000D01*
X115260000Y-95310000D02*
X115260000Y-94310000D01*
X108260000Y-100270000D02*
X115260000Y-100270000D01*
X108260000Y-105470000D02*
X115260000Y-105470000D01*
X115260000Y-105470000D02*
X115260000Y-104470000D01*
X108260000Y-110430000D02*
X115260000Y-110430000D01*
X108260000Y-115630000D02*
X115260000Y-115630000D01*
X115260000Y-115630000D02*
X115260000Y-114630000D01*
X138740000Y-69790000D02*
X145740000Y-69790000D01*
X138740000Y-74990000D02*
X145740000Y-74990000D01*
X145740000Y-74990000D02*
X145740000Y-73990000D01*
X148900000Y-69790000D02*
X155900000Y-69790000D01*
X148900000Y-74990000D02*
X155900000Y-74990000D01*
X155900000Y-74990000D02*
X155900000Y-73990000D01*
X118420000Y-79950000D02*
X125420000Y-79950000D01*
X118420000Y-85150000D02*
X125420000Y-85150000D01*
X125420000Y-85150000D02*
X125420000Y-84150000D01*
X128580000Y-79950000D02*
X135580000Y-79950000D01*
X128580000Y-85150000D02*
X135580000Y-85150000D01*
X135580000Y-85150000D02*
X135580000Y-84150000D01*
X138740000Y-79950000D02*
X145740000Y-79950000D01*
X138740000Y-85150000D02*
X145740000Y-85150000D01*
X145740000Y-85150000D02*
X145740000Y-84150000D01*
X148900000Y-79950000D02*
X155900000Y-79950000D01*
X148900000Y-85150000D02*
X155900000Y-85150000D01*
X155900000Y-85150000D02*
X155900000Y-84150000D01*
X159060000Y-69790000D02*
X166060000Y-69790000D01*
X159060000Y-74990000D02*
X166060000Y-74990000D01*
X166060000Y-74990000D02*
X166060000Y-73990000D01*
X169220000Y-69790000D02*
X176220000Y-69790000D01*
X169220000Y-74990000D02*
X176220000Y-74990000D01*
X176220000Y-74990000D02*
X176220000Y-73990000D01*
X179380000Y-69790000D02*
X186380000Y-69790000D01*
X179380000Y-74990000D02*
X186380000Y-74990000D01*
X186380000Y-74990000D02*
X186380000Y-73990000D01*
X189540000Y-69790000D02*
X196540000Y-69790000D01*
X189540000Y-74990000D02*
X196540000Y-74990000D01*
X196540000Y-74990000D02*
X196540000Y-73990000D01*
X159060000Y-79950000D02*
X166060000Y-79950000D01*
X159060000Y-85150000D02*
X166060000Y-85150000D01*
X166060000Y-85150000D02*
X166060000Y-84150000D01*
X169220000Y-79950000D02*
X176220000Y-79950000D01*
X169220000Y-85150000D02*
X176220000Y-85150000D01*
X176220000Y-85150000D02*
X176220000Y-84150000D01*
X179380000Y-79950000D02*
X186380000Y-79950000D01*
X179380000Y-85150000D02*
X186380000Y-85150000D01*
X186380000Y-85150000D02*
X186380000Y-84150000D01*
X189540000Y-79950000D02*
X196540000Y-79950000D01*
X189540000Y-85150000D02*
X196540000Y-85150000D01*
X196540000Y-85150000D02*
X196540000Y-84150000D01*
X118420000Y-90110000D02*
X125420000Y-90110000D01*
X118420000Y-95310000D02*
X125420000Y-95310000D01*
X125420000Y-95310000D02*
X125420000Y-94310000D01*
X128580000Y-90110000D02*
X135580000Y-90110000D01*
X128580000Y-95310000D02*
X135580000Y-95310000D01*
X135580000Y-95310000D02*
X135580000Y-94310000D01*
X138740000Y-90110000D02*
X145740000Y-90110000D01*
X138740000Y-95310000D02*
X145740000Y-95310000D01*
X145740000Y-95310000D02*
X145740000Y-94310000D01*
X148900000Y-90110000D02*
X155900000Y-90110000D01*
X148900000Y-95310000D02*
X155900000Y-95310000D01*
X155900000Y-95310000D02*
X155900000Y-94310000D01*
X118420000Y-100270000D02*
X125420000Y-100270000D01*
X118420000Y-105470000D02*
X125420000Y-105470000D01*
X125420000Y-105470000D02*
X125420000Y-104470000D01*
X128580000Y-100270000D02*
X135580000Y-100270000D01*
X128580000Y-105470000D02*
X135580000Y-105470000D01*
X135580000Y-105470000D02*
X135580000Y-104470000D01*
X128580000Y-110430000D02*
X135580000Y-110430000D01*
X128580000Y-115630000D02*
X135580000Y-115630000D01*
X135580000Y-115630000D02*
X135580000Y-114630000D01*
X138740000Y-100270000D02*
X145740000Y-100270000D01*
X138740000Y-105470000D02*
X145740000Y-105470000D01*
X145740000Y-105470000D02*
X145740000Y-104470000D01*
X138740000Y-110430000D02*
X145740000Y-110430000D01*
X138740000Y-115630000D02*
X145740000Y-115630000D01*
X145740000Y-115630000D02*
X145740000Y-114630000D01*
X159060000Y-90110000D02*
X166060000Y-90110000D01*
X159060000Y-95310000D02*
X166060000Y-95310000D01*
X166060000Y-95310000D02*
X166060000Y-94310000D01*
X169220000Y-90110000D02*
X176220000Y-90110000D01*
X169220000Y-95310000D02*
X176220000Y-95310000D01*
X176220000Y-95310000D02*
X176220000Y-94310000D01*
X179380000Y-90110000D02*
X186380000Y-90110000D01*
X179380000Y-95310000D02*
X186380000Y-95310000D01*
X186380000Y-95310000D02*
X186380000Y-94310000D01*
X189540000Y-90110000D02*
X196540000Y-90110000D01*
X189540000Y-95310000D02*
X196540000Y-95310000D01*
X196540000Y-95310000D02*
X196540000Y-94310000D01*
X148900000Y-100270000D02*
X155900000Y-100270000D01*
X148900000Y-105470000D02*
X155900000Y-105470000D01*
X155900000Y-105470000D02*
X155900000Y-104470000D01*
X159060000Y-100270000D02*
X166060000Y-100270000D01*
X159060000Y-105470000D02*
X166060000Y-105470000D01*
X166060000Y-105470000D02*
X166060000Y-104470000D01*
X169220000Y-100270000D02*
X176220000Y-100270000D01*
X169220000Y-105470000D02*
X176220000Y-105470000D01*
X176220000Y-105470000D02*
X176220000Y-104470000D01*
X179380000Y-100270000D02*
X186380000Y-100270000D01*
X179380000Y-105470000D02*
X186380000Y-105470000D01*
X186380000Y-105470000D02*
X186380000Y-104470000D01*
X189540000Y-100270000D02*
X196540000Y-100270000D01*
X189540000Y-105470000D02*
X196540000Y-105470000D01*
X196540000Y-105470000D02*
X196540000Y-104470000D01*
X148900000Y-110430000D02*
X155900000Y-110430000D01*
X148900000Y-115630000D02*
X155900000Y-115630000D01*
X155900000Y-115630000D02*
X155900000Y-114630000D01*
X159060000Y-110430000D02*
X166060000Y-110430000D01*
X159060000Y-115630000D02*
X166060000Y-115630000D01*
X166060000Y-115630000D02*
X166060000Y-114630000D01*
X169220000Y-110430000D02*
X176220000Y-110430000D01*
X169220000Y-115630000D02*
X176220000Y-115630000D01*
X176220000Y-115630000D02*
X176220000Y-114630000D01*
X179380000Y-110430000D02*
X186380000Y-110430000D01*
X179380000Y-115630000D02*
X186380000Y-115630000D01*
X186380000Y-115630000D02*
X186380000Y-114630000D01*
X189540000Y-110430000D02*
X196540000Y-110430000D01*
X189540000Y-115630000D02*
X196540000Y-115630000D01*
X196540000Y-115630000D02*
X196540000Y-114630000D01*
X155540000Y-126610000D02*
X154340000Y-126610000D01*
X154340000Y-124850000D02*
X155540000Y-124850000D01*
X155540000Y-129150000D02*
X154340000Y-129150000D01*
X154340000Y-127390000D02*
X155540000Y-127390000D01*
X155540000Y-131690000D02*
X154340000Y-131690000D01*
X154340000Y-129930000D02*
X155540000Y-129930000D01*
X159750000Y-126480000D02*
X156550000Y-126480000D01*
X156550000Y-124980000D02*
X159750000Y-124980000D01*
X156550000Y-124980000D02*
X156550000Y-126480000D01*
X159750000Y-129020000D02*
X156550000Y-129020000D01*
X156550000Y-127520000D02*
X159750000Y-127520000D01*
X156550000Y-127520000D02*
X156550000Y-129020000D01*
X159750000Y-131560000D02*
X156550000Y-131560000D01*
X156550000Y-130060000D02*
X159750000Y-130060000D01*
X156550000Y-130060000D02*
X156550000Y-131560000D01*
X178800000Y-152820000D02*
X183300000Y-152820000D01*
X177550000Y-148820000D02*
X177550000Y-150320000D01*
X183300000Y-146320000D02*
X178800000Y-146320000D01*
X184550000Y-150320000D02*
X184550000Y-148820000D01*
X174990000Y-145200000D02*
X179490000Y-145200000D01*
X173740000Y-141200000D02*
X173740000Y-142700000D01*
X179490000Y-138700000D02*
X174990000Y-138700000D01*
X180740000Y-142700000D02*
X180740000Y-141200000D01*
X185150000Y-145200000D02*
X189650000Y-145200000D01*
X183900000Y-141200000D02*
X183900000Y-142700000D01*
X189650000Y-138700000D02*
X185150000Y-138700000D01*
X190900000Y-142700000D02*
X190900000Y-141200000D01*
X105140000Y-145200000D02*
X109640000Y-145200000D01*
X103890000Y-141200000D02*
X103890000Y-142700000D01*
X109640000Y-138700000D02*
X105140000Y-138700000D01*
X110890000Y-142700000D02*
X110890000Y-141200000D01*
X115300000Y-145200000D02*
X119800000Y-145200000D01*
X114050000Y-141200000D02*
X114050000Y-142700000D01*
X119800000Y-138700000D02*
X115300000Y-138700000D01*
X121050000Y-142700000D02*
X121050000Y-141200000D01*
X155540000Y-121530000D02*
X154340000Y-121530000D01*
X154340000Y-119770000D02*
X155540000Y-119770000D01*
X165115000Y-144270000D02*
X165115000Y-137870000D01*
X170165000Y-144270000D02*
X170165000Y-137870000D01*
X170165000Y-144270000D02*
G75*
G02X165115000Y-144270000I-2525000J0D01*
G01*
X170165000Y-137870000D02*
G75*
G03X165115000Y-137870000I-2525000J0D01*
G01*
X156470000Y-140680000D02*
X156470000Y-136260000D01*
X158490000Y-140680000D02*
X158490000Y-136260000D01*
X156470000Y-140680000D02*
X156484000Y-140680000D01*
X158476000Y-140680000D02*
X158490000Y-140680000D01*
X156470000Y-136260000D02*
X156484000Y-136260000D01*
X158476000Y-136260000D02*
X158490000Y-136260000D01*
X159010000Y-143220000D02*
X159010000Y-138800000D01*
X161030000Y-143220000D02*
X161030000Y-138800000D01*
X159010000Y-143220000D02*
X159024000Y-143220000D01*
X161016000Y-143220000D02*
X161030000Y-143220000D01*
X159010000Y-138800000D02*
X159024000Y-138800000D01*
X161016000Y-138800000D02*
X161030000Y-138800000D01*
X164330000Y-119800000D02*
X163330000Y-119800000D01*
X163330000Y-121500000D02*
X164330000Y-121500000D01*
X164330000Y-122340000D02*
X163330000Y-122340000D01*
X163330000Y-124040000D02*
X164330000Y-124040000D01*
X130540000Y-149010000D02*
X135040000Y-149010000D01*
X129290000Y-145010000D02*
X129290000Y-146510000D01*
X135040000Y-142510000D02*
X130540000Y-142510000D01*
X136290000Y-146510000D02*
X136290000Y-145010000D01*
X156810000Y-146930000D02*
X155610000Y-146930000D01*
X155610000Y-145170000D02*
X156810000Y-145170000D01*
X168640000Y-134100000D02*
X165440000Y-134100000D01*
X165440000Y-132600000D02*
X168640000Y-132600000D01*
X165440000Y-132600000D02*
X165440000Y-134100000D01*
X138490000Y-121860000D02*
X135830000Y-121860000D01*
X138490000Y-127000000D02*
X138490000Y-121860000D01*
X135830000Y-127000000D02*
X135830000Y-121860000D01*
X138490000Y-127000000D02*
X135830000Y-127000000D01*
X138490000Y-128270000D02*
X138490000Y-129600000D01*
X138490000Y-129600000D02*
X137160000Y-129600000D01*
D13*
G36*
X186156600Y-132613400D02*
X179844106Y-132613400D01*
X179875594Y-132422900D01*
X179894639Y-132254405D01*
X179906151Y-132050258D01*
X179907640Y-131965700D01*
X179908200Y-131699000D01*
X186156600Y-131699000D01*
X186156600Y-132613400D01*
X186156600Y-132613400D01*
G37*
X186156600Y-132613400D02*
X179844106Y-132613400D01*
X179875594Y-132422900D01*
X179894639Y-132254405D01*
X179906151Y-132050258D01*
X179907640Y-131965700D01*
X179908200Y-131699000D01*
X186156600Y-131699000D01*
X186156600Y-132613400D01*
G36*
X182449350Y-121615200D02*
X182449316Y-130635782D01*
X181173905Y-130646691D01*
X180825304Y-130648701D01*
X180512212Y-130648645D01*
X180248349Y-130646678D01*
X180047433Y-130642955D01*
X179923183Y-130637630D01*
X179888138Y-130632200D01*
X179884324Y-130573311D01*
X179882924Y-130437461D01*
X179884080Y-130249261D01*
X179885415Y-130157410D01*
X179893047Y-129708020D01*
X180688023Y-129715145D01*
X181483000Y-129722270D01*
X181483000Y-122555000D01*
X180416200Y-122555000D01*
X180416200Y-124129800D01*
X179451000Y-124129800D01*
X179451000Y-121588288D01*
X182449350Y-121615200D01*
X182449350Y-121615200D01*
G37*
X182449350Y-121615200D02*
X182449316Y-130635782D01*
X181173905Y-130646691D01*
X180825304Y-130648701D01*
X180512212Y-130648645D01*
X180248349Y-130646678D01*
X180047433Y-130642955D01*
X179923183Y-130637630D01*
X179888138Y-130632200D01*
X179884324Y-130573311D01*
X179882924Y-130437461D01*
X179884080Y-130249261D01*
X179885415Y-130157410D01*
X179893047Y-129708020D01*
X180688023Y-129715145D01*
X181483000Y-129722270D01*
X181483000Y-122555000D01*
X180416200Y-122555000D01*
X180416200Y-124129800D01*
X179451000Y-124129800D01*
X179451000Y-121588288D01*
X182449350Y-121615200D01*
G36*
X186551187Y-122847099D02*
X186537600Y-124104400D01*
X185623200Y-124104400D01*
X185609176Y-123329700D01*
X185595153Y-122555000D01*
X184531000Y-122555000D01*
X184531000Y-129664420D01*
X186131200Y-129692400D01*
X186160412Y-130632200D01*
X183565800Y-130632200D01*
X183565800Y-121589800D01*
X185065287Y-121589799D01*
X186564774Y-121589799D01*
X186551187Y-122847099D01*
X186551187Y-122847099D01*
G37*
X186551187Y-122847099D02*
X186537600Y-124104400D01*
X185623200Y-124104400D01*
X185609176Y-123329700D01*
X185595153Y-122555000D01*
X184531000Y-122555000D01*
X184531000Y-129664420D01*
X186131200Y-129692400D01*
X186160412Y-130632200D01*
X183565800Y-130632200D01*
X183565800Y-121589800D01*
X185065287Y-121589799D01*
X186564774Y-121589799D01*
X186551187Y-122847099D01*
G36*
X188569600Y-119583200D02*
X188569600Y-124053600D01*
X188100351Y-124068197D01*
X187631103Y-124082795D01*
X187617751Y-122290197D01*
X187604400Y-120497600D01*
X178409600Y-120497600D01*
X178382916Y-124129800D01*
X177419000Y-124129800D01*
X177419000Y-119557352D01*
X188569600Y-119583200D01*
X188569600Y-119583200D01*
G37*
X188569600Y-119583200D02*
X188569600Y-124053600D01*
X188100351Y-124068197D01*
X187631103Y-124082795D01*
X187617751Y-122290197D01*
X187604400Y-120497600D01*
X178409600Y-120497600D01*
X178382916Y-124129800D01*
X177419000Y-124129800D01*
X177419000Y-119557352D01*
X188569600Y-119583200D01*
D14*
X120586667Y-109982381D02*
X120253333Y-109506190D01*
X120015238Y-109982381D02*
X120015238Y-108982381D01*
X120396191Y-108982381D01*
X120491429Y-109030000D01*
X120539048Y-109077619D01*
X120586667Y-109172857D01*
X120586667Y-109315714D01*
X120539048Y-109410952D01*
X120491429Y-109458571D01*
X120396191Y-109506190D01*
X120015238Y-109506190D01*
X121015238Y-109458571D02*
X121348572Y-109458571D01*
X121491429Y-109982381D02*
X121015238Y-109982381D01*
X121015238Y-108982381D01*
X121491429Y-108982381D01*
X122253334Y-109458571D02*
X121920000Y-109458571D01*
X121920000Y-109982381D02*
X121920000Y-108982381D01*
X122396191Y-108982381D01*
X122920000Y-108982381D02*
X122920000Y-109220476D01*
X122681905Y-109125238D02*
X122920000Y-109220476D01*
X123158096Y-109125238D01*
X122777143Y-109410952D02*
X122920000Y-109220476D01*
X123062858Y-109410952D01*
X123681905Y-108982381D02*
X123681905Y-109220476D01*
X123443810Y-109125238D02*
X123681905Y-109220476D01*
X123920001Y-109125238D01*
X123539048Y-109410952D02*
X123681905Y-109220476D01*
X123824763Y-109410952D01*
X142867619Y-118426667D02*
X143343810Y-118426667D01*
X142772381Y-118712381D02*
X143105714Y-117712381D01*
X143439048Y-118712381D01*
X143629524Y-117712381D02*
X144200953Y-117712381D01*
X143915238Y-118712381D02*
X143915238Y-117712381D01*
X144534286Y-118712381D02*
X144534286Y-117712381D01*
X144867620Y-118426667D01*
X145200953Y-117712381D01*
X145200953Y-118712381D01*
X146058096Y-118664762D02*
X145962858Y-118712381D01*
X145772381Y-118712381D01*
X145677143Y-118664762D01*
X145629524Y-118569524D01*
X145629524Y-118188571D01*
X145677143Y-118093333D01*
X145772381Y-118045714D01*
X145962858Y-118045714D01*
X146058096Y-118093333D01*
X146105715Y-118188571D01*
X146105715Y-118283810D01*
X145629524Y-118379048D01*
X146962858Y-118045714D02*
X146962858Y-118855238D01*
X146915239Y-118950476D01*
X146867620Y-118998095D01*
X146772381Y-119045714D01*
X146629524Y-119045714D01*
X146534286Y-118998095D01*
X146962858Y-118664762D02*
X146867620Y-118712381D01*
X146677143Y-118712381D01*
X146581905Y-118664762D01*
X146534286Y-118617143D01*
X146486667Y-118521905D01*
X146486667Y-118236190D01*
X146534286Y-118140952D01*
X146581905Y-118093333D01*
X146677143Y-118045714D01*
X146867620Y-118045714D01*
X146962858Y-118093333D01*
X147867620Y-118712381D02*
X147867620Y-118188571D01*
X147820001Y-118093333D01*
X147724763Y-118045714D01*
X147534286Y-118045714D01*
X147439048Y-118093333D01*
X147867620Y-118664762D02*
X147772382Y-118712381D01*
X147534286Y-118712381D01*
X147439048Y-118664762D01*
X147391429Y-118569524D01*
X147391429Y-118474286D01*
X147439048Y-118379048D01*
X147534286Y-118331429D01*
X147772382Y-118331429D01*
X147867620Y-118283810D01*
X148248572Y-117712381D02*
X148867620Y-117712381D01*
X148534286Y-118093333D01*
X148677144Y-118093333D01*
X148772382Y-118140952D01*
X148820001Y-118188571D01*
X148867620Y-118283810D01*
X148867620Y-118521905D01*
X148820001Y-118617143D01*
X148772382Y-118664762D01*
X148677144Y-118712381D01*
X148391429Y-118712381D01*
X148296191Y-118664762D01*
X148248572Y-118617143D01*
X149248572Y-117807619D02*
X149296191Y-117760000D01*
X149391429Y-117712381D01*
X149629525Y-117712381D01*
X149724763Y-117760000D01*
X149772382Y-117807619D01*
X149820001Y-117902857D01*
X149820001Y-117998095D01*
X149772382Y-118140952D01*
X149200953Y-118712381D01*
X149820001Y-118712381D01*
X150296191Y-118712381D02*
X150486667Y-118712381D01*
X150581906Y-118664762D01*
X150629525Y-118617143D01*
X150724763Y-118474286D01*
X150772382Y-118283810D01*
X150772382Y-117902857D01*
X150724763Y-117807619D01*
X150677144Y-117760000D01*
X150581906Y-117712381D01*
X150391429Y-117712381D01*
X150296191Y-117760000D01*
X150248572Y-117807619D01*
X150200953Y-117902857D01*
X150200953Y-118140952D01*
X150248572Y-118236190D01*
X150296191Y-118283810D01*
X150391429Y-118331429D01*
X150581906Y-118331429D01*
X150677144Y-118283810D01*
X150724763Y-118236190D01*
X150772382Y-118140952D01*
X151200953Y-118712381D02*
X151200953Y-117712381D01*
X151581906Y-117712381D01*
X151677144Y-117760000D01*
X151724763Y-117807619D01*
X151772382Y-117902857D01*
X151772382Y-118045714D01*
X151724763Y-118140952D01*
X151677144Y-118188571D01*
X151581906Y-118236190D01*
X151200953Y-118236190D01*
X100266667Y-69342381D02*
X99933333Y-68866190D01*
X99695238Y-69342381D02*
X99695238Y-68342381D01*
X100076191Y-68342381D01*
X100171429Y-68390000D01*
X100219048Y-68437619D01*
X100266667Y-68532857D01*
X100266667Y-68675714D01*
X100219048Y-68770952D01*
X100171429Y-68818571D01*
X100076191Y-68866190D01*
X99695238Y-68866190D01*
X100695238Y-68818571D02*
X101028572Y-68818571D01*
X101171429Y-69342381D02*
X100695238Y-69342381D01*
X100695238Y-68342381D01*
X101171429Y-68342381D01*
X101933334Y-68818571D02*
X101600000Y-68818571D01*
X101600000Y-69342381D02*
X101600000Y-68342381D01*
X102076191Y-68342381D01*
X102600000Y-68342381D02*
X102600000Y-68580476D01*
X102361905Y-68485238D02*
X102600000Y-68580476D01*
X102838096Y-68485238D01*
X102457143Y-68770952D02*
X102600000Y-68580476D01*
X102742858Y-68770952D01*
X103361905Y-68342381D02*
X103361905Y-68580476D01*
X103123810Y-68485238D02*
X103361905Y-68580476D01*
X103600001Y-68485238D01*
X103219048Y-68770952D02*
X103361905Y-68580476D01*
X103504763Y-68770952D01*
X100266667Y-18542381D02*
X99933333Y-18066190D01*
X99695238Y-18542381D02*
X99695238Y-17542381D01*
X100076191Y-17542381D01*
X100171429Y-17590000D01*
X100219048Y-17637619D01*
X100266667Y-17732857D01*
X100266667Y-17875714D01*
X100219048Y-17970952D01*
X100171429Y-18018571D01*
X100076191Y-18066190D01*
X99695238Y-18066190D01*
X100695238Y-18018571D02*
X101028572Y-18018571D01*
X101171429Y-18542381D02*
X100695238Y-18542381D01*
X100695238Y-17542381D01*
X101171429Y-17542381D01*
X101933334Y-18018571D02*
X101600000Y-18018571D01*
X101600000Y-18542381D02*
X101600000Y-17542381D01*
X102076191Y-17542381D01*
X102600000Y-17542381D02*
X102600000Y-17780476D01*
X102361905Y-17685238D02*
X102600000Y-17780476D01*
X102838096Y-17685238D01*
X102457143Y-17970952D02*
X102600000Y-17780476D01*
X102742858Y-17970952D01*
X103361905Y-17542381D02*
X103361905Y-17780476D01*
X103123810Y-17685238D02*
X103361905Y-17780476D01*
X103600001Y-17685238D01*
X103219048Y-17970952D02*
X103361905Y-17780476D01*
X103504763Y-17970952D01*
X100266667Y-28702381D02*
X99933333Y-28226190D01*
X99695238Y-28702381D02*
X99695238Y-27702381D01*
X100076191Y-27702381D01*
X100171429Y-27750000D01*
X100219048Y-27797619D01*
X100266667Y-27892857D01*
X100266667Y-28035714D01*
X100219048Y-28130952D01*
X100171429Y-28178571D01*
X100076191Y-28226190D01*
X99695238Y-28226190D01*
X100695238Y-28178571D02*
X101028572Y-28178571D01*
X101171429Y-28702381D02*
X100695238Y-28702381D01*
X100695238Y-27702381D01*
X101171429Y-27702381D01*
X101933334Y-28178571D02*
X101600000Y-28178571D01*
X101600000Y-28702381D02*
X101600000Y-27702381D01*
X102076191Y-27702381D01*
X102600000Y-27702381D02*
X102600000Y-27940476D01*
X102361905Y-27845238D02*
X102600000Y-27940476D01*
X102838096Y-27845238D01*
X102457143Y-28130952D02*
X102600000Y-27940476D01*
X102742858Y-28130952D01*
X103361905Y-27702381D02*
X103361905Y-27940476D01*
X103123810Y-27845238D02*
X103361905Y-27940476D01*
X103600001Y-27845238D01*
X103219048Y-28130952D02*
X103361905Y-27940476D01*
X103504763Y-28130952D01*
X110426667Y-28702381D02*
X110093333Y-28226190D01*
X109855238Y-28702381D02*
X109855238Y-27702381D01*
X110236191Y-27702381D01*
X110331429Y-27750000D01*
X110379048Y-27797619D01*
X110426667Y-27892857D01*
X110426667Y-28035714D01*
X110379048Y-28130952D01*
X110331429Y-28178571D01*
X110236191Y-28226190D01*
X109855238Y-28226190D01*
X110855238Y-28178571D02*
X111188572Y-28178571D01*
X111331429Y-28702381D02*
X110855238Y-28702381D01*
X110855238Y-27702381D01*
X111331429Y-27702381D01*
X112093334Y-28178571D02*
X111760000Y-28178571D01*
X111760000Y-28702381D02*
X111760000Y-27702381D01*
X112236191Y-27702381D01*
X112760000Y-27702381D02*
X112760000Y-27940476D01*
X112521905Y-27845238D02*
X112760000Y-27940476D01*
X112998096Y-27845238D01*
X112617143Y-28130952D02*
X112760000Y-27940476D01*
X112902858Y-28130952D01*
X113521905Y-27702381D02*
X113521905Y-27940476D01*
X113283810Y-27845238D02*
X113521905Y-27940476D01*
X113760001Y-27845238D01*
X113379048Y-28130952D02*
X113521905Y-27940476D01*
X113664763Y-28130952D01*
X110426667Y-18542381D02*
X110093333Y-18066190D01*
X109855238Y-18542381D02*
X109855238Y-17542381D01*
X110236191Y-17542381D01*
X110331429Y-17590000D01*
X110379048Y-17637619D01*
X110426667Y-17732857D01*
X110426667Y-17875714D01*
X110379048Y-17970952D01*
X110331429Y-18018571D01*
X110236191Y-18066190D01*
X109855238Y-18066190D01*
X110855238Y-18018571D02*
X111188572Y-18018571D01*
X111331429Y-18542381D02*
X110855238Y-18542381D01*
X110855238Y-17542381D01*
X111331429Y-17542381D01*
X112093334Y-18018571D02*
X111760000Y-18018571D01*
X111760000Y-18542381D02*
X111760000Y-17542381D01*
X112236191Y-17542381D01*
X112760000Y-17542381D02*
X112760000Y-17780476D01*
X112521905Y-17685238D02*
X112760000Y-17780476D01*
X112998096Y-17685238D01*
X112617143Y-17970952D02*
X112760000Y-17780476D01*
X112902858Y-17970952D01*
X113521905Y-17542381D02*
X113521905Y-17780476D01*
X113283810Y-17685238D02*
X113521905Y-17780476D01*
X113760001Y-17685238D01*
X113379048Y-17970952D02*
X113521905Y-17780476D01*
X113664763Y-17970952D01*
X120586667Y-18542381D02*
X120253333Y-18066190D01*
X120015238Y-18542381D02*
X120015238Y-17542381D01*
X120396191Y-17542381D01*
X120491429Y-17590000D01*
X120539048Y-17637619D01*
X120586667Y-17732857D01*
X120586667Y-17875714D01*
X120539048Y-17970952D01*
X120491429Y-18018571D01*
X120396191Y-18066190D01*
X120015238Y-18066190D01*
X121015238Y-18018571D02*
X121348572Y-18018571D01*
X121491429Y-18542381D02*
X121015238Y-18542381D01*
X121015238Y-17542381D01*
X121491429Y-17542381D01*
X122253334Y-18018571D02*
X121920000Y-18018571D01*
X121920000Y-18542381D02*
X121920000Y-17542381D01*
X122396191Y-17542381D01*
X122920000Y-17542381D02*
X122920000Y-17780476D01*
X122681905Y-17685238D02*
X122920000Y-17780476D01*
X123158096Y-17685238D01*
X122777143Y-17970952D02*
X122920000Y-17780476D01*
X123062858Y-17970952D01*
X123681905Y-17542381D02*
X123681905Y-17780476D01*
X123443810Y-17685238D02*
X123681905Y-17780476D01*
X123920001Y-17685238D01*
X123539048Y-17970952D02*
X123681905Y-17780476D01*
X123824763Y-17970952D01*
X130746667Y-18542381D02*
X130413333Y-18066190D01*
X130175238Y-18542381D02*
X130175238Y-17542381D01*
X130556191Y-17542381D01*
X130651429Y-17590000D01*
X130699048Y-17637619D01*
X130746667Y-17732857D01*
X130746667Y-17875714D01*
X130699048Y-17970952D01*
X130651429Y-18018571D01*
X130556191Y-18066190D01*
X130175238Y-18066190D01*
X131175238Y-18018571D02*
X131508572Y-18018571D01*
X131651429Y-18542381D02*
X131175238Y-18542381D01*
X131175238Y-17542381D01*
X131651429Y-17542381D01*
X132413334Y-18018571D02*
X132080000Y-18018571D01*
X132080000Y-18542381D02*
X132080000Y-17542381D01*
X132556191Y-17542381D01*
X133080000Y-17542381D02*
X133080000Y-17780476D01*
X132841905Y-17685238D02*
X133080000Y-17780476D01*
X133318096Y-17685238D01*
X132937143Y-17970952D02*
X133080000Y-17780476D01*
X133222858Y-17970952D01*
X133841905Y-17542381D02*
X133841905Y-17780476D01*
X133603810Y-17685238D02*
X133841905Y-17780476D01*
X134080001Y-17685238D01*
X133699048Y-17970952D02*
X133841905Y-17780476D01*
X133984763Y-17970952D01*
X140906667Y-18542381D02*
X140573333Y-18066190D01*
X140335238Y-18542381D02*
X140335238Y-17542381D01*
X140716191Y-17542381D01*
X140811429Y-17590000D01*
X140859048Y-17637619D01*
X140906667Y-17732857D01*
X140906667Y-17875714D01*
X140859048Y-17970952D01*
X140811429Y-18018571D01*
X140716191Y-18066190D01*
X140335238Y-18066190D01*
X141335238Y-18018571D02*
X141668572Y-18018571D01*
X141811429Y-18542381D02*
X141335238Y-18542381D01*
X141335238Y-17542381D01*
X141811429Y-17542381D01*
X142573334Y-18018571D02*
X142240000Y-18018571D01*
X142240000Y-18542381D02*
X142240000Y-17542381D01*
X142716191Y-17542381D01*
X143240000Y-17542381D02*
X143240000Y-17780476D01*
X143001905Y-17685238D02*
X143240000Y-17780476D01*
X143478096Y-17685238D01*
X143097143Y-17970952D02*
X143240000Y-17780476D01*
X143382858Y-17970952D01*
X144001905Y-17542381D02*
X144001905Y-17780476D01*
X143763810Y-17685238D02*
X144001905Y-17780476D01*
X144240001Y-17685238D01*
X143859048Y-17970952D02*
X144001905Y-17780476D01*
X144144763Y-17970952D01*
X151066667Y-18542381D02*
X150733333Y-18066190D01*
X150495238Y-18542381D02*
X150495238Y-17542381D01*
X150876191Y-17542381D01*
X150971429Y-17590000D01*
X151019048Y-17637619D01*
X151066667Y-17732857D01*
X151066667Y-17875714D01*
X151019048Y-17970952D01*
X150971429Y-18018571D01*
X150876191Y-18066190D01*
X150495238Y-18066190D01*
X151495238Y-18018571D02*
X151828572Y-18018571D01*
X151971429Y-18542381D02*
X151495238Y-18542381D01*
X151495238Y-17542381D01*
X151971429Y-17542381D01*
X152733334Y-18018571D02*
X152400000Y-18018571D01*
X152400000Y-18542381D02*
X152400000Y-17542381D01*
X152876191Y-17542381D01*
X153400000Y-17542381D02*
X153400000Y-17780476D01*
X153161905Y-17685238D02*
X153400000Y-17780476D01*
X153638096Y-17685238D01*
X153257143Y-17970952D02*
X153400000Y-17780476D01*
X153542858Y-17970952D01*
X154161905Y-17542381D02*
X154161905Y-17780476D01*
X153923810Y-17685238D02*
X154161905Y-17780476D01*
X154400001Y-17685238D01*
X154019048Y-17970952D02*
X154161905Y-17780476D01*
X154304763Y-17970952D01*
X161226667Y-18542381D02*
X160893333Y-18066190D01*
X160655238Y-18542381D02*
X160655238Y-17542381D01*
X161036191Y-17542381D01*
X161131429Y-17590000D01*
X161179048Y-17637619D01*
X161226667Y-17732857D01*
X161226667Y-17875714D01*
X161179048Y-17970952D01*
X161131429Y-18018571D01*
X161036191Y-18066190D01*
X160655238Y-18066190D01*
X161655238Y-18018571D02*
X161988572Y-18018571D01*
X162131429Y-18542381D02*
X161655238Y-18542381D01*
X161655238Y-17542381D01*
X162131429Y-17542381D01*
X162893334Y-18018571D02*
X162560000Y-18018571D01*
X162560000Y-18542381D02*
X162560000Y-17542381D01*
X163036191Y-17542381D01*
X163560000Y-17542381D02*
X163560000Y-17780476D01*
X163321905Y-17685238D02*
X163560000Y-17780476D01*
X163798096Y-17685238D01*
X163417143Y-17970952D02*
X163560000Y-17780476D01*
X163702858Y-17970952D01*
X164321905Y-17542381D02*
X164321905Y-17780476D01*
X164083810Y-17685238D02*
X164321905Y-17780476D01*
X164560001Y-17685238D01*
X164179048Y-17970952D02*
X164321905Y-17780476D01*
X164464763Y-17970952D01*
X171386667Y-18542381D02*
X171053333Y-18066190D01*
X170815238Y-18542381D02*
X170815238Y-17542381D01*
X171196191Y-17542381D01*
X171291429Y-17590000D01*
X171339048Y-17637619D01*
X171386667Y-17732857D01*
X171386667Y-17875714D01*
X171339048Y-17970952D01*
X171291429Y-18018571D01*
X171196191Y-18066190D01*
X170815238Y-18066190D01*
X171815238Y-18018571D02*
X172148572Y-18018571D01*
X172291429Y-18542381D02*
X171815238Y-18542381D01*
X171815238Y-17542381D01*
X172291429Y-17542381D01*
X173053334Y-18018571D02*
X172720000Y-18018571D01*
X172720000Y-18542381D02*
X172720000Y-17542381D01*
X173196191Y-17542381D01*
X173720000Y-17542381D02*
X173720000Y-17780476D01*
X173481905Y-17685238D02*
X173720000Y-17780476D01*
X173958096Y-17685238D01*
X173577143Y-17970952D02*
X173720000Y-17780476D01*
X173862858Y-17970952D01*
X174481905Y-17542381D02*
X174481905Y-17780476D01*
X174243810Y-17685238D02*
X174481905Y-17780476D01*
X174720001Y-17685238D01*
X174339048Y-17970952D02*
X174481905Y-17780476D01*
X174624763Y-17970952D01*
X181546667Y-18542381D02*
X181213333Y-18066190D01*
X180975238Y-18542381D02*
X180975238Y-17542381D01*
X181356191Y-17542381D01*
X181451429Y-17590000D01*
X181499048Y-17637619D01*
X181546667Y-17732857D01*
X181546667Y-17875714D01*
X181499048Y-17970952D01*
X181451429Y-18018571D01*
X181356191Y-18066190D01*
X180975238Y-18066190D01*
X181975238Y-18018571D02*
X182308572Y-18018571D01*
X182451429Y-18542381D02*
X181975238Y-18542381D01*
X181975238Y-17542381D01*
X182451429Y-17542381D01*
X183213334Y-18018571D02*
X182880000Y-18018571D01*
X182880000Y-18542381D02*
X182880000Y-17542381D01*
X183356191Y-17542381D01*
X183880000Y-17542381D02*
X183880000Y-17780476D01*
X183641905Y-17685238D02*
X183880000Y-17780476D01*
X184118096Y-17685238D01*
X183737143Y-17970952D02*
X183880000Y-17780476D01*
X184022858Y-17970952D01*
X184641905Y-17542381D02*
X184641905Y-17780476D01*
X184403810Y-17685238D02*
X184641905Y-17780476D01*
X184880001Y-17685238D01*
X184499048Y-17970952D02*
X184641905Y-17780476D01*
X184784763Y-17970952D01*
X191706667Y-18542381D02*
X191373333Y-18066190D01*
X191135238Y-18542381D02*
X191135238Y-17542381D01*
X191516191Y-17542381D01*
X191611429Y-17590000D01*
X191659048Y-17637619D01*
X191706667Y-17732857D01*
X191706667Y-17875714D01*
X191659048Y-17970952D01*
X191611429Y-18018571D01*
X191516191Y-18066190D01*
X191135238Y-18066190D01*
X192135238Y-18018571D02*
X192468572Y-18018571D01*
X192611429Y-18542381D02*
X192135238Y-18542381D01*
X192135238Y-17542381D01*
X192611429Y-17542381D01*
X193373334Y-18018571D02*
X193040000Y-18018571D01*
X193040000Y-18542381D02*
X193040000Y-17542381D01*
X193516191Y-17542381D01*
X194040000Y-17542381D02*
X194040000Y-17780476D01*
X193801905Y-17685238D02*
X194040000Y-17780476D01*
X194278096Y-17685238D01*
X193897143Y-17970952D02*
X194040000Y-17780476D01*
X194182858Y-17970952D01*
X194801905Y-17542381D02*
X194801905Y-17780476D01*
X194563810Y-17685238D02*
X194801905Y-17780476D01*
X195040001Y-17685238D01*
X194659048Y-17970952D02*
X194801905Y-17780476D01*
X194944763Y-17970952D01*
X120586667Y-28702381D02*
X120253333Y-28226190D01*
X120015238Y-28702381D02*
X120015238Y-27702381D01*
X120396191Y-27702381D01*
X120491429Y-27750000D01*
X120539048Y-27797619D01*
X120586667Y-27892857D01*
X120586667Y-28035714D01*
X120539048Y-28130952D01*
X120491429Y-28178571D01*
X120396191Y-28226190D01*
X120015238Y-28226190D01*
X121015238Y-28178571D02*
X121348572Y-28178571D01*
X121491429Y-28702381D02*
X121015238Y-28702381D01*
X121015238Y-27702381D01*
X121491429Y-27702381D01*
X122253334Y-28178571D02*
X121920000Y-28178571D01*
X121920000Y-28702381D02*
X121920000Y-27702381D01*
X122396191Y-27702381D01*
X122920000Y-27702381D02*
X122920000Y-27940476D01*
X122681905Y-27845238D02*
X122920000Y-27940476D01*
X123158096Y-27845238D01*
X122777143Y-28130952D02*
X122920000Y-27940476D01*
X123062858Y-28130952D01*
X123681905Y-27702381D02*
X123681905Y-27940476D01*
X123443810Y-27845238D02*
X123681905Y-27940476D01*
X123920001Y-27845238D01*
X123539048Y-28130952D02*
X123681905Y-27940476D01*
X123824763Y-28130952D01*
X130746667Y-28702381D02*
X130413333Y-28226190D01*
X130175238Y-28702381D02*
X130175238Y-27702381D01*
X130556191Y-27702381D01*
X130651429Y-27750000D01*
X130699048Y-27797619D01*
X130746667Y-27892857D01*
X130746667Y-28035714D01*
X130699048Y-28130952D01*
X130651429Y-28178571D01*
X130556191Y-28226190D01*
X130175238Y-28226190D01*
X131175238Y-28178571D02*
X131508572Y-28178571D01*
X131651429Y-28702381D02*
X131175238Y-28702381D01*
X131175238Y-27702381D01*
X131651429Y-27702381D01*
X132413334Y-28178571D02*
X132080000Y-28178571D01*
X132080000Y-28702381D02*
X132080000Y-27702381D01*
X132556191Y-27702381D01*
X133080000Y-27702381D02*
X133080000Y-27940476D01*
X132841905Y-27845238D02*
X133080000Y-27940476D01*
X133318096Y-27845238D01*
X132937143Y-28130952D02*
X133080000Y-27940476D01*
X133222858Y-28130952D01*
X133841905Y-27702381D02*
X133841905Y-27940476D01*
X133603810Y-27845238D02*
X133841905Y-27940476D01*
X134080001Y-27845238D01*
X133699048Y-28130952D02*
X133841905Y-27940476D01*
X133984763Y-28130952D01*
X140906667Y-28702381D02*
X140573333Y-28226190D01*
X140335238Y-28702381D02*
X140335238Y-27702381D01*
X140716191Y-27702381D01*
X140811429Y-27750000D01*
X140859048Y-27797619D01*
X140906667Y-27892857D01*
X140906667Y-28035714D01*
X140859048Y-28130952D01*
X140811429Y-28178571D01*
X140716191Y-28226190D01*
X140335238Y-28226190D01*
X141335238Y-28178571D02*
X141668572Y-28178571D01*
X141811429Y-28702381D02*
X141335238Y-28702381D01*
X141335238Y-27702381D01*
X141811429Y-27702381D01*
X142573334Y-28178571D02*
X142240000Y-28178571D01*
X142240000Y-28702381D02*
X142240000Y-27702381D01*
X142716191Y-27702381D01*
X143240000Y-27702381D02*
X143240000Y-27940476D01*
X143001905Y-27845238D02*
X143240000Y-27940476D01*
X143478096Y-27845238D01*
X143097143Y-28130952D02*
X143240000Y-27940476D01*
X143382858Y-28130952D01*
X144001905Y-27702381D02*
X144001905Y-27940476D01*
X143763810Y-27845238D02*
X144001905Y-27940476D01*
X144240001Y-27845238D01*
X143859048Y-28130952D02*
X144001905Y-27940476D01*
X144144763Y-28130952D01*
X151066667Y-28702381D02*
X150733333Y-28226190D01*
X150495238Y-28702381D02*
X150495238Y-27702381D01*
X150876191Y-27702381D01*
X150971429Y-27750000D01*
X151019048Y-27797619D01*
X151066667Y-27892857D01*
X151066667Y-28035714D01*
X151019048Y-28130952D01*
X150971429Y-28178571D01*
X150876191Y-28226190D01*
X150495238Y-28226190D01*
X151495238Y-28178571D02*
X151828572Y-28178571D01*
X151971429Y-28702381D02*
X151495238Y-28702381D01*
X151495238Y-27702381D01*
X151971429Y-27702381D01*
X152733334Y-28178571D02*
X152400000Y-28178571D01*
X152400000Y-28702381D02*
X152400000Y-27702381D01*
X152876191Y-27702381D01*
X153400000Y-27702381D02*
X153400000Y-27940476D01*
X153161905Y-27845238D02*
X153400000Y-27940476D01*
X153638096Y-27845238D01*
X153257143Y-28130952D02*
X153400000Y-27940476D01*
X153542858Y-28130952D01*
X154161905Y-27702381D02*
X154161905Y-27940476D01*
X153923810Y-27845238D02*
X154161905Y-27940476D01*
X154400001Y-27845238D01*
X154019048Y-28130952D02*
X154161905Y-27940476D01*
X154304763Y-28130952D01*
X161226667Y-28702381D02*
X160893333Y-28226190D01*
X160655238Y-28702381D02*
X160655238Y-27702381D01*
X161036191Y-27702381D01*
X161131429Y-27750000D01*
X161179048Y-27797619D01*
X161226667Y-27892857D01*
X161226667Y-28035714D01*
X161179048Y-28130952D01*
X161131429Y-28178571D01*
X161036191Y-28226190D01*
X160655238Y-28226190D01*
X161655238Y-28178571D02*
X161988572Y-28178571D01*
X162131429Y-28702381D02*
X161655238Y-28702381D01*
X161655238Y-27702381D01*
X162131429Y-27702381D01*
X162893334Y-28178571D02*
X162560000Y-28178571D01*
X162560000Y-28702381D02*
X162560000Y-27702381D01*
X163036191Y-27702381D01*
X163560000Y-27702381D02*
X163560000Y-27940476D01*
X163321905Y-27845238D02*
X163560000Y-27940476D01*
X163798096Y-27845238D01*
X163417143Y-28130952D02*
X163560000Y-27940476D01*
X163702858Y-28130952D01*
X164321905Y-27702381D02*
X164321905Y-27940476D01*
X164083810Y-27845238D02*
X164321905Y-27940476D01*
X164560001Y-27845238D01*
X164179048Y-28130952D02*
X164321905Y-27940476D01*
X164464763Y-28130952D01*
X171386667Y-28702381D02*
X171053333Y-28226190D01*
X170815238Y-28702381D02*
X170815238Y-27702381D01*
X171196191Y-27702381D01*
X171291429Y-27750000D01*
X171339048Y-27797619D01*
X171386667Y-27892857D01*
X171386667Y-28035714D01*
X171339048Y-28130952D01*
X171291429Y-28178571D01*
X171196191Y-28226190D01*
X170815238Y-28226190D01*
X171815238Y-28178571D02*
X172148572Y-28178571D01*
X172291429Y-28702381D02*
X171815238Y-28702381D01*
X171815238Y-27702381D01*
X172291429Y-27702381D01*
X173053334Y-28178571D02*
X172720000Y-28178571D01*
X172720000Y-28702381D02*
X172720000Y-27702381D01*
X173196191Y-27702381D01*
X173720000Y-27702381D02*
X173720000Y-27940476D01*
X173481905Y-27845238D02*
X173720000Y-27940476D01*
X173958096Y-27845238D01*
X173577143Y-28130952D02*
X173720000Y-27940476D01*
X173862858Y-28130952D01*
X174481905Y-27702381D02*
X174481905Y-27940476D01*
X174243810Y-27845238D02*
X174481905Y-27940476D01*
X174720001Y-27845238D01*
X174339048Y-28130952D02*
X174481905Y-27940476D01*
X174624763Y-28130952D01*
X181546667Y-28702381D02*
X181213333Y-28226190D01*
X180975238Y-28702381D02*
X180975238Y-27702381D01*
X181356191Y-27702381D01*
X181451429Y-27750000D01*
X181499048Y-27797619D01*
X181546667Y-27892857D01*
X181546667Y-28035714D01*
X181499048Y-28130952D01*
X181451429Y-28178571D01*
X181356191Y-28226190D01*
X180975238Y-28226190D01*
X181975238Y-28178571D02*
X182308572Y-28178571D01*
X182451429Y-28702381D02*
X181975238Y-28702381D01*
X181975238Y-27702381D01*
X182451429Y-27702381D01*
X183213334Y-28178571D02*
X182880000Y-28178571D01*
X182880000Y-28702381D02*
X182880000Y-27702381D01*
X183356191Y-27702381D01*
X183880000Y-27702381D02*
X183880000Y-27940476D01*
X183641905Y-27845238D02*
X183880000Y-27940476D01*
X184118096Y-27845238D01*
X183737143Y-28130952D02*
X183880000Y-27940476D01*
X184022858Y-28130952D01*
X184641905Y-27702381D02*
X184641905Y-27940476D01*
X184403810Y-27845238D02*
X184641905Y-27940476D01*
X184880001Y-27845238D01*
X184499048Y-28130952D02*
X184641905Y-27940476D01*
X184784763Y-28130952D01*
X191706667Y-28702381D02*
X191373333Y-28226190D01*
X191135238Y-28702381D02*
X191135238Y-27702381D01*
X191516191Y-27702381D01*
X191611429Y-27750000D01*
X191659048Y-27797619D01*
X191706667Y-27892857D01*
X191706667Y-28035714D01*
X191659048Y-28130952D01*
X191611429Y-28178571D01*
X191516191Y-28226190D01*
X191135238Y-28226190D01*
X192135238Y-28178571D02*
X192468572Y-28178571D01*
X192611429Y-28702381D02*
X192135238Y-28702381D01*
X192135238Y-27702381D01*
X192611429Y-27702381D01*
X193373334Y-28178571D02*
X193040000Y-28178571D01*
X193040000Y-28702381D02*
X193040000Y-27702381D01*
X193516191Y-27702381D01*
X194040000Y-27702381D02*
X194040000Y-27940476D01*
X193801905Y-27845238D02*
X194040000Y-27940476D01*
X194278096Y-27845238D01*
X193897143Y-28130952D02*
X194040000Y-27940476D01*
X194182858Y-28130952D01*
X194801905Y-27702381D02*
X194801905Y-27940476D01*
X194563810Y-27845238D02*
X194801905Y-27940476D01*
X195040001Y-27845238D01*
X194659048Y-28130952D02*
X194801905Y-27940476D01*
X194944763Y-28130952D01*
X100266667Y-38862381D02*
X99933333Y-38386190D01*
X99695238Y-38862381D02*
X99695238Y-37862381D01*
X100076191Y-37862381D01*
X100171429Y-37910000D01*
X100219048Y-37957619D01*
X100266667Y-38052857D01*
X100266667Y-38195714D01*
X100219048Y-38290952D01*
X100171429Y-38338571D01*
X100076191Y-38386190D01*
X99695238Y-38386190D01*
X100695238Y-38338571D02*
X101028572Y-38338571D01*
X101171429Y-38862381D02*
X100695238Y-38862381D01*
X100695238Y-37862381D01*
X101171429Y-37862381D01*
X101933334Y-38338571D02*
X101600000Y-38338571D01*
X101600000Y-38862381D02*
X101600000Y-37862381D01*
X102076191Y-37862381D01*
X102600000Y-37862381D02*
X102600000Y-38100476D01*
X102361905Y-38005238D02*
X102600000Y-38100476D01*
X102838096Y-38005238D01*
X102457143Y-38290952D02*
X102600000Y-38100476D01*
X102742858Y-38290952D01*
X103361905Y-37862381D02*
X103361905Y-38100476D01*
X103123810Y-38005238D02*
X103361905Y-38100476D01*
X103600001Y-38005238D01*
X103219048Y-38290952D02*
X103361905Y-38100476D01*
X103504763Y-38290952D01*
X110426667Y-38862381D02*
X110093333Y-38386190D01*
X109855238Y-38862381D02*
X109855238Y-37862381D01*
X110236191Y-37862381D01*
X110331429Y-37910000D01*
X110379048Y-37957619D01*
X110426667Y-38052857D01*
X110426667Y-38195714D01*
X110379048Y-38290952D01*
X110331429Y-38338571D01*
X110236191Y-38386190D01*
X109855238Y-38386190D01*
X110855238Y-38338571D02*
X111188572Y-38338571D01*
X111331429Y-38862381D02*
X110855238Y-38862381D01*
X110855238Y-37862381D01*
X111331429Y-37862381D01*
X112093334Y-38338571D02*
X111760000Y-38338571D01*
X111760000Y-38862381D02*
X111760000Y-37862381D01*
X112236191Y-37862381D01*
X112760000Y-37862381D02*
X112760000Y-38100476D01*
X112521905Y-38005238D02*
X112760000Y-38100476D01*
X112998096Y-38005238D01*
X112617143Y-38290952D02*
X112760000Y-38100476D01*
X112902858Y-38290952D01*
X113521905Y-37862381D02*
X113521905Y-38100476D01*
X113283810Y-38005238D02*
X113521905Y-38100476D01*
X113760001Y-38005238D01*
X113379048Y-38290952D02*
X113521905Y-38100476D01*
X113664763Y-38290952D01*
X100266667Y-49022381D02*
X99933333Y-48546190D01*
X99695238Y-49022381D02*
X99695238Y-48022381D01*
X100076191Y-48022381D01*
X100171429Y-48070000D01*
X100219048Y-48117619D01*
X100266667Y-48212857D01*
X100266667Y-48355714D01*
X100219048Y-48450952D01*
X100171429Y-48498571D01*
X100076191Y-48546190D01*
X99695238Y-48546190D01*
X100695238Y-48498571D02*
X101028572Y-48498571D01*
X101171429Y-49022381D02*
X100695238Y-49022381D01*
X100695238Y-48022381D01*
X101171429Y-48022381D01*
X101933334Y-48498571D02*
X101600000Y-48498571D01*
X101600000Y-49022381D02*
X101600000Y-48022381D01*
X102076191Y-48022381D01*
X102600000Y-48022381D02*
X102600000Y-48260476D01*
X102361905Y-48165238D02*
X102600000Y-48260476D01*
X102838096Y-48165238D01*
X102457143Y-48450952D02*
X102600000Y-48260476D01*
X102742858Y-48450952D01*
X103361905Y-48022381D02*
X103361905Y-48260476D01*
X103123810Y-48165238D02*
X103361905Y-48260476D01*
X103600001Y-48165238D01*
X103219048Y-48450952D02*
X103361905Y-48260476D01*
X103504763Y-48450952D01*
X100266667Y-59182381D02*
X99933333Y-58706190D01*
X99695238Y-59182381D02*
X99695238Y-58182381D01*
X100076191Y-58182381D01*
X100171429Y-58230000D01*
X100219048Y-58277619D01*
X100266667Y-58372857D01*
X100266667Y-58515714D01*
X100219048Y-58610952D01*
X100171429Y-58658571D01*
X100076191Y-58706190D01*
X99695238Y-58706190D01*
X100695238Y-58658571D02*
X101028572Y-58658571D01*
X101171429Y-59182381D02*
X100695238Y-59182381D01*
X100695238Y-58182381D01*
X101171429Y-58182381D01*
X101933334Y-58658571D02*
X101600000Y-58658571D01*
X101600000Y-59182381D02*
X101600000Y-58182381D01*
X102076191Y-58182381D01*
X102600000Y-58182381D02*
X102600000Y-58420476D01*
X102361905Y-58325238D02*
X102600000Y-58420476D01*
X102838096Y-58325238D01*
X102457143Y-58610952D02*
X102600000Y-58420476D01*
X102742858Y-58610952D01*
X103361905Y-58182381D02*
X103361905Y-58420476D01*
X103123810Y-58325238D02*
X103361905Y-58420476D01*
X103600001Y-58325238D01*
X103219048Y-58610952D02*
X103361905Y-58420476D01*
X103504763Y-58610952D01*
X100266667Y-79502381D02*
X99933333Y-79026190D01*
X99695238Y-79502381D02*
X99695238Y-78502381D01*
X100076191Y-78502381D01*
X100171429Y-78550000D01*
X100219048Y-78597619D01*
X100266667Y-78692857D01*
X100266667Y-78835714D01*
X100219048Y-78930952D01*
X100171429Y-78978571D01*
X100076191Y-79026190D01*
X99695238Y-79026190D01*
X100695238Y-78978571D02*
X101028572Y-78978571D01*
X101171429Y-79502381D02*
X100695238Y-79502381D01*
X100695238Y-78502381D01*
X101171429Y-78502381D01*
X101933334Y-78978571D02*
X101600000Y-78978571D01*
X101600000Y-79502381D02*
X101600000Y-78502381D01*
X102076191Y-78502381D01*
X102600000Y-78502381D02*
X102600000Y-78740476D01*
X102361905Y-78645238D02*
X102600000Y-78740476D01*
X102838096Y-78645238D01*
X102457143Y-78930952D02*
X102600000Y-78740476D01*
X102742858Y-78930952D01*
X103361905Y-78502381D02*
X103361905Y-78740476D01*
X103123810Y-78645238D02*
X103361905Y-78740476D01*
X103600001Y-78645238D01*
X103219048Y-78930952D02*
X103361905Y-78740476D01*
X103504763Y-78930952D01*
X100266667Y-89662381D02*
X99933333Y-89186190D01*
X99695238Y-89662381D02*
X99695238Y-88662381D01*
X100076191Y-88662381D01*
X100171429Y-88710000D01*
X100219048Y-88757619D01*
X100266667Y-88852857D01*
X100266667Y-88995714D01*
X100219048Y-89090952D01*
X100171429Y-89138571D01*
X100076191Y-89186190D01*
X99695238Y-89186190D01*
X100695238Y-89138571D02*
X101028572Y-89138571D01*
X101171429Y-89662381D02*
X100695238Y-89662381D01*
X100695238Y-88662381D01*
X101171429Y-88662381D01*
X101933334Y-89138571D02*
X101600000Y-89138571D01*
X101600000Y-89662381D02*
X101600000Y-88662381D01*
X102076191Y-88662381D01*
X102600000Y-88662381D02*
X102600000Y-88900476D01*
X102361905Y-88805238D02*
X102600000Y-88900476D01*
X102838096Y-88805238D01*
X102457143Y-89090952D02*
X102600000Y-88900476D01*
X102742858Y-89090952D01*
X103361905Y-88662381D02*
X103361905Y-88900476D01*
X103123810Y-88805238D02*
X103361905Y-88900476D01*
X103600001Y-88805238D01*
X103219048Y-89090952D02*
X103361905Y-88900476D01*
X103504763Y-89090952D01*
X100266667Y-99822381D02*
X99933333Y-99346190D01*
X99695238Y-99822381D02*
X99695238Y-98822381D01*
X100076191Y-98822381D01*
X100171429Y-98870000D01*
X100219048Y-98917619D01*
X100266667Y-99012857D01*
X100266667Y-99155714D01*
X100219048Y-99250952D01*
X100171429Y-99298571D01*
X100076191Y-99346190D01*
X99695238Y-99346190D01*
X100695238Y-99298571D02*
X101028572Y-99298571D01*
X101171429Y-99822381D02*
X100695238Y-99822381D01*
X100695238Y-98822381D01*
X101171429Y-98822381D01*
X101933334Y-99298571D02*
X101600000Y-99298571D01*
X101600000Y-99822381D02*
X101600000Y-98822381D01*
X102076191Y-98822381D01*
X102600000Y-98822381D02*
X102600000Y-99060476D01*
X102361905Y-98965238D02*
X102600000Y-99060476D01*
X102838096Y-98965238D01*
X102457143Y-99250952D02*
X102600000Y-99060476D01*
X102742858Y-99250952D01*
X103361905Y-98822381D02*
X103361905Y-99060476D01*
X103123810Y-98965238D02*
X103361905Y-99060476D01*
X103600001Y-98965238D01*
X103219048Y-99250952D02*
X103361905Y-99060476D01*
X103504763Y-99250952D01*
X100266667Y-109982381D02*
X99933333Y-109506190D01*
X99695238Y-109982381D02*
X99695238Y-108982381D01*
X100076191Y-108982381D01*
X100171429Y-109030000D01*
X100219048Y-109077619D01*
X100266667Y-109172857D01*
X100266667Y-109315714D01*
X100219048Y-109410952D01*
X100171429Y-109458571D01*
X100076191Y-109506190D01*
X99695238Y-109506190D01*
X100695238Y-109458571D02*
X101028572Y-109458571D01*
X101171429Y-109982381D02*
X100695238Y-109982381D01*
X100695238Y-108982381D01*
X101171429Y-108982381D01*
X101933334Y-109458571D02*
X101600000Y-109458571D01*
X101600000Y-109982381D02*
X101600000Y-108982381D01*
X102076191Y-108982381D01*
X102600000Y-108982381D02*
X102600000Y-109220476D01*
X102361905Y-109125238D02*
X102600000Y-109220476D01*
X102838096Y-109125238D01*
X102457143Y-109410952D02*
X102600000Y-109220476D01*
X102742858Y-109410952D01*
X103361905Y-108982381D02*
X103361905Y-109220476D01*
X103123810Y-109125238D02*
X103361905Y-109220476D01*
X103600001Y-109125238D01*
X103219048Y-109410952D02*
X103361905Y-109220476D01*
X103504763Y-109410952D01*
X110426667Y-49022381D02*
X110093333Y-48546190D01*
X109855238Y-49022381D02*
X109855238Y-48022381D01*
X110236191Y-48022381D01*
X110331429Y-48070000D01*
X110379048Y-48117619D01*
X110426667Y-48212857D01*
X110426667Y-48355714D01*
X110379048Y-48450952D01*
X110331429Y-48498571D01*
X110236191Y-48546190D01*
X109855238Y-48546190D01*
X110855238Y-48498571D02*
X111188572Y-48498571D01*
X111331429Y-49022381D02*
X110855238Y-49022381D01*
X110855238Y-48022381D01*
X111331429Y-48022381D01*
X112093334Y-48498571D02*
X111760000Y-48498571D01*
X111760000Y-49022381D02*
X111760000Y-48022381D01*
X112236191Y-48022381D01*
X112760000Y-48022381D02*
X112760000Y-48260476D01*
X112521905Y-48165238D02*
X112760000Y-48260476D01*
X112998096Y-48165238D01*
X112617143Y-48450952D02*
X112760000Y-48260476D01*
X112902858Y-48450952D01*
X113521905Y-48022381D02*
X113521905Y-48260476D01*
X113283810Y-48165238D02*
X113521905Y-48260476D01*
X113760001Y-48165238D01*
X113379048Y-48450952D02*
X113521905Y-48260476D01*
X113664763Y-48450952D01*
X110426667Y-59182381D02*
X110093333Y-58706190D01*
X109855238Y-59182381D02*
X109855238Y-58182381D01*
X110236191Y-58182381D01*
X110331429Y-58230000D01*
X110379048Y-58277619D01*
X110426667Y-58372857D01*
X110426667Y-58515714D01*
X110379048Y-58610952D01*
X110331429Y-58658571D01*
X110236191Y-58706190D01*
X109855238Y-58706190D01*
X110855238Y-58658571D02*
X111188572Y-58658571D01*
X111331429Y-59182381D02*
X110855238Y-59182381D01*
X110855238Y-58182381D01*
X111331429Y-58182381D01*
X112093334Y-58658571D02*
X111760000Y-58658571D01*
X111760000Y-59182381D02*
X111760000Y-58182381D01*
X112236191Y-58182381D01*
X112760000Y-58182381D02*
X112760000Y-58420476D01*
X112521905Y-58325238D02*
X112760000Y-58420476D01*
X112998096Y-58325238D01*
X112617143Y-58610952D02*
X112760000Y-58420476D01*
X112902858Y-58610952D01*
X113521905Y-58182381D02*
X113521905Y-58420476D01*
X113283810Y-58325238D02*
X113521905Y-58420476D01*
X113760001Y-58325238D01*
X113379048Y-58610952D02*
X113521905Y-58420476D01*
X113664763Y-58610952D01*
X120586667Y-38862381D02*
X120253333Y-38386190D01*
X120015238Y-38862381D02*
X120015238Y-37862381D01*
X120396191Y-37862381D01*
X120491429Y-37910000D01*
X120539048Y-37957619D01*
X120586667Y-38052857D01*
X120586667Y-38195714D01*
X120539048Y-38290952D01*
X120491429Y-38338571D01*
X120396191Y-38386190D01*
X120015238Y-38386190D01*
X121015238Y-38338571D02*
X121348572Y-38338571D01*
X121491429Y-38862381D02*
X121015238Y-38862381D01*
X121015238Y-37862381D01*
X121491429Y-37862381D01*
X122253334Y-38338571D02*
X121920000Y-38338571D01*
X121920000Y-38862381D02*
X121920000Y-37862381D01*
X122396191Y-37862381D01*
X122920000Y-37862381D02*
X122920000Y-38100476D01*
X122681905Y-38005238D02*
X122920000Y-38100476D01*
X123158096Y-38005238D01*
X122777143Y-38290952D02*
X122920000Y-38100476D01*
X123062858Y-38290952D01*
X123681905Y-37862381D02*
X123681905Y-38100476D01*
X123443810Y-38005238D02*
X123681905Y-38100476D01*
X123920001Y-38005238D01*
X123539048Y-38290952D02*
X123681905Y-38100476D01*
X123824763Y-38290952D01*
X130746667Y-38862381D02*
X130413333Y-38386190D01*
X130175238Y-38862381D02*
X130175238Y-37862381D01*
X130556191Y-37862381D01*
X130651429Y-37910000D01*
X130699048Y-37957619D01*
X130746667Y-38052857D01*
X130746667Y-38195714D01*
X130699048Y-38290952D01*
X130651429Y-38338571D01*
X130556191Y-38386190D01*
X130175238Y-38386190D01*
X131175238Y-38338571D02*
X131508572Y-38338571D01*
X131651429Y-38862381D02*
X131175238Y-38862381D01*
X131175238Y-37862381D01*
X131651429Y-37862381D01*
X132413334Y-38338571D02*
X132080000Y-38338571D01*
X132080000Y-38862381D02*
X132080000Y-37862381D01*
X132556191Y-37862381D01*
X133080000Y-37862381D02*
X133080000Y-38100476D01*
X132841905Y-38005238D02*
X133080000Y-38100476D01*
X133318096Y-38005238D01*
X132937143Y-38290952D02*
X133080000Y-38100476D01*
X133222858Y-38290952D01*
X133841905Y-37862381D02*
X133841905Y-38100476D01*
X133603810Y-38005238D02*
X133841905Y-38100476D01*
X134080001Y-38005238D01*
X133699048Y-38290952D02*
X133841905Y-38100476D01*
X133984763Y-38290952D01*
X120586667Y-49022381D02*
X120253333Y-48546190D01*
X120015238Y-49022381D02*
X120015238Y-48022381D01*
X120396191Y-48022381D01*
X120491429Y-48070000D01*
X120539048Y-48117619D01*
X120586667Y-48212857D01*
X120586667Y-48355714D01*
X120539048Y-48450952D01*
X120491429Y-48498571D01*
X120396191Y-48546190D01*
X120015238Y-48546190D01*
X121015238Y-48498571D02*
X121348572Y-48498571D01*
X121491429Y-49022381D02*
X121015238Y-49022381D01*
X121015238Y-48022381D01*
X121491429Y-48022381D01*
X122253334Y-48498571D02*
X121920000Y-48498571D01*
X121920000Y-49022381D02*
X121920000Y-48022381D01*
X122396191Y-48022381D01*
X122920000Y-48022381D02*
X122920000Y-48260476D01*
X122681905Y-48165238D02*
X122920000Y-48260476D01*
X123158096Y-48165238D01*
X122777143Y-48450952D02*
X122920000Y-48260476D01*
X123062858Y-48450952D01*
X123681905Y-48022381D02*
X123681905Y-48260476D01*
X123443810Y-48165238D02*
X123681905Y-48260476D01*
X123920001Y-48165238D01*
X123539048Y-48450952D02*
X123681905Y-48260476D01*
X123824763Y-48450952D01*
X130746667Y-49022381D02*
X130413333Y-48546190D01*
X130175238Y-49022381D02*
X130175238Y-48022381D01*
X130556191Y-48022381D01*
X130651429Y-48070000D01*
X130699048Y-48117619D01*
X130746667Y-48212857D01*
X130746667Y-48355714D01*
X130699048Y-48450952D01*
X130651429Y-48498571D01*
X130556191Y-48546190D01*
X130175238Y-48546190D01*
X131175238Y-48498571D02*
X131508572Y-48498571D01*
X131651429Y-49022381D02*
X131175238Y-49022381D01*
X131175238Y-48022381D01*
X131651429Y-48022381D01*
X132413334Y-48498571D02*
X132080000Y-48498571D01*
X132080000Y-49022381D02*
X132080000Y-48022381D01*
X132556191Y-48022381D01*
X133080000Y-48022381D02*
X133080000Y-48260476D01*
X132841905Y-48165238D02*
X133080000Y-48260476D01*
X133318096Y-48165238D01*
X132937143Y-48450952D02*
X133080000Y-48260476D01*
X133222858Y-48450952D01*
X133841905Y-48022381D02*
X133841905Y-48260476D01*
X133603810Y-48165238D02*
X133841905Y-48260476D01*
X134080001Y-48165238D01*
X133699048Y-48450952D02*
X133841905Y-48260476D01*
X133984763Y-48450952D01*
X120586667Y-59182381D02*
X120253333Y-58706190D01*
X120015238Y-59182381D02*
X120015238Y-58182381D01*
X120396191Y-58182381D01*
X120491429Y-58230000D01*
X120539048Y-58277619D01*
X120586667Y-58372857D01*
X120586667Y-58515714D01*
X120539048Y-58610952D01*
X120491429Y-58658571D01*
X120396191Y-58706190D01*
X120015238Y-58706190D01*
X121015238Y-58658571D02*
X121348572Y-58658571D01*
X121491429Y-59182381D02*
X121015238Y-59182381D01*
X121015238Y-58182381D01*
X121491429Y-58182381D01*
X122253334Y-58658571D02*
X121920000Y-58658571D01*
X121920000Y-59182381D02*
X121920000Y-58182381D01*
X122396191Y-58182381D01*
X122920000Y-58182381D02*
X122920000Y-58420476D01*
X122681905Y-58325238D02*
X122920000Y-58420476D01*
X123158096Y-58325238D01*
X122777143Y-58610952D02*
X122920000Y-58420476D01*
X123062858Y-58610952D01*
X123681905Y-58182381D02*
X123681905Y-58420476D01*
X123443810Y-58325238D02*
X123681905Y-58420476D01*
X123920001Y-58325238D01*
X123539048Y-58610952D02*
X123681905Y-58420476D01*
X123824763Y-58610952D01*
X130746667Y-59182381D02*
X130413333Y-58706190D01*
X130175238Y-59182381D02*
X130175238Y-58182381D01*
X130556191Y-58182381D01*
X130651429Y-58230000D01*
X130699048Y-58277619D01*
X130746667Y-58372857D01*
X130746667Y-58515714D01*
X130699048Y-58610952D01*
X130651429Y-58658571D01*
X130556191Y-58706190D01*
X130175238Y-58706190D01*
X131175238Y-58658571D02*
X131508572Y-58658571D01*
X131651429Y-59182381D02*
X131175238Y-59182381D01*
X131175238Y-58182381D01*
X131651429Y-58182381D01*
X132413334Y-58658571D02*
X132080000Y-58658571D01*
X132080000Y-59182381D02*
X132080000Y-58182381D01*
X132556191Y-58182381D01*
X133080000Y-58182381D02*
X133080000Y-58420476D01*
X132841905Y-58325238D02*
X133080000Y-58420476D01*
X133318096Y-58325238D01*
X132937143Y-58610952D02*
X133080000Y-58420476D01*
X133222858Y-58610952D01*
X133841905Y-58182381D02*
X133841905Y-58420476D01*
X133603810Y-58325238D02*
X133841905Y-58420476D01*
X134080001Y-58325238D01*
X133699048Y-58610952D02*
X133841905Y-58420476D01*
X133984763Y-58610952D01*
X110426667Y-69342381D02*
X110093333Y-68866190D01*
X109855238Y-69342381D02*
X109855238Y-68342381D01*
X110236191Y-68342381D01*
X110331429Y-68390000D01*
X110379048Y-68437619D01*
X110426667Y-68532857D01*
X110426667Y-68675714D01*
X110379048Y-68770952D01*
X110331429Y-68818571D01*
X110236191Y-68866190D01*
X109855238Y-68866190D01*
X110855238Y-68818571D02*
X111188572Y-68818571D01*
X111331429Y-69342381D02*
X110855238Y-69342381D01*
X110855238Y-68342381D01*
X111331429Y-68342381D01*
X112093334Y-68818571D02*
X111760000Y-68818571D01*
X111760000Y-69342381D02*
X111760000Y-68342381D01*
X112236191Y-68342381D01*
X112760000Y-68342381D02*
X112760000Y-68580476D01*
X112521905Y-68485238D02*
X112760000Y-68580476D01*
X112998096Y-68485238D01*
X112617143Y-68770952D02*
X112760000Y-68580476D01*
X112902858Y-68770952D01*
X113521905Y-68342381D02*
X113521905Y-68580476D01*
X113283810Y-68485238D02*
X113521905Y-68580476D01*
X113760001Y-68485238D01*
X113379048Y-68770952D02*
X113521905Y-68580476D01*
X113664763Y-68770952D01*
X120586667Y-69342381D02*
X120253333Y-68866190D01*
X120015238Y-69342381D02*
X120015238Y-68342381D01*
X120396191Y-68342381D01*
X120491429Y-68390000D01*
X120539048Y-68437619D01*
X120586667Y-68532857D01*
X120586667Y-68675714D01*
X120539048Y-68770952D01*
X120491429Y-68818571D01*
X120396191Y-68866190D01*
X120015238Y-68866190D01*
X121015238Y-68818571D02*
X121348572Y-68818571D01*
X121491429Y-69342381D02*
X121015238Y-69342381D01*
X121015238Y-68342381D01*
X121491429Y-68342381D01*
X122253334Y-68818571D02*
X121920000Y-68818571D01*
X121920000Y-69342381D02*
X121920000Y-68342381D01*
X122396191Y-68342381D01*
X122920000Y-68342381D02*
X122920000Y-68580476D01*
X122681905Y-68485238D02*
X122920000Y-68580476D01*
X123158096Y-68485238D01*
X122777143Y-68770952D02*
X122920000Y-68580476D01*
X123062858Y-68770952D01*
X123681905Y-68342381D02*
X123681905Y-68580476D01*
X123443810Y-68485238D02*
X123681905Y-68580476D01*
X123920001Y-68485238D01*
X123539048Y-68770952D02*
X123681905Y-68580476D01*
X123824763Y-68770952D01*
X130746667Y-69342381D02*
X130413333Y-68866190D01*
X130175238Y-69342381D02*
X130175238Y-68342381D01*
X130556191Y-68342381D01*
X130651429Y-68390000D01*
X130699048Y-68437619D01*
X130746667Y-68532857D01*
X130746667Y-68675714D01*
X130699048Y-68770952D01*
X130651429Y-68818571D01*
X130556191Y-68866190D01*
X130175238Y-68866190D01*
X131175238Y-68818571D02*
X131508572Y-68818571D01*
X131651429Y-69342381D02*
X131175238Y-69342381D01*
X131175238Y-68342381D01*
X131651429Y-68342381D01*
X132413334Y-68818571D02*
X132080000Y-68818571D01*
X132080000Y-69342381D02*
X132080000Y-68342381D01*
X132556191Y-68342381D01*
X133080000Y-68342381D02*
X133080000Y-68580476D01*
X132841905Y-68485238D02*
X133080000Y-68580476D01*
X133318096Y-68485238D01*
X132937143Y-68770952D02*
X133080000Y-68580476D01*
X133222858Y-68770952D01*
X133841905Y-68342381D02*
X133841905Y-68580476D01*
X133603810Y-68485238D02*
X133841905Y-68580476D01*
X134080001Y-68485238D01*
X133699048Y-68770952D02*
X133841905Y-68580476D01*
X133984763Y-68770952D01*
X140906667Y-38862381D02*
X140573333Y-38386190D01*
X140335238Y-38862381D02*
X140335238Y-37862381D01*
X140716191Y-37862381D01*
X140811429Y-37910000D01*
X140859048Y-37957619D01*
X140906667Y-38052857D01*
X140906667Y-38195714D01*
X140859048Y-38290952D01*
X140811429Y-38338571D01*
X140716191Y-38386190D01*
X140335238Y-38386190D01*
X141335238Y-38338571D02*
X141668572Y-38338571D01*
X141811429Y-38862381D02*
X141335238Y-38862381D01*
X141335238Y-37862381D01*
X141811429Y-37862381D01*
X142573334Y-38338571D02*
X142240000Y-38338571D01*
X142240000Y-38862381D02*
X142240000Y-37862381D01*
X142716191Y-37862381D01*
X143240000Y-37862381D02*
X143240000Y-38100476D01*
X143001905Y-38005238D02*
X143240000Y-38100476D01*
X143478096Y-38005238D01*
X143097143Y-38290952D02*
X143240000Y-38100476D01*
X143382858Y-38290952D01*
X144001905Y-37862381D02*
X144001905Y-38100476D01*
X143763810Y-38005238D02*
X144001905Y-38100476D01*
X144240001Y-38005238D01*
X143859048Y-38290952D02*
X144001905Y-38100476D01*
X144144763Y-38290952D01*
X151066667Y-38862381D02*
X150733333Y-38386190D01*
X150495238Y-38862381D02*
X150495238Y-37862381D01*
X150876191Y-37862381D01*
X150971429Y-37910000D01*
X151019048Y-37957619D01*
X151066667Y-38052857D01*
X151066667Y-38195714D01*
X151019048Y-38290952D01*
X150971429Y-38338571D01*
X150876191Y-38386190D01*
X150495238Y-38386190D01*
X151495238Y-38338571D02*
X151828572Y-38338571D01*
X151971429Y-38862381D02*
X151495238Y-38862381D01*
X151495238Y-37862381D01*
X151971429Y-37862381D01*
X152733334Y-38338571D02*
X152400000Y-38338571D01*
X152400000Y-38862381D02*
X152400000Y-37862381D01*
X152876191Y-37862381D01*
X153400000Y-37862381D02*
X153400000Y-38100476D01*
X153161905Y-38005238D02*
X153400000Y-38100476D01*
X153638096Y-38005238D01*
X153257143Y-38290952D02*
X153400000Y-38100476D01*
X153542858Y-38290952D01*
X154161905Y-37862381D02*
X154161905Y-38100476D01*
X153923810Y-38005238D02*
X154161905Y-38100476D01*
X154400001Y-38005238D01*
X154019048Y-38290952D02*
X154161905Y-38100476D01*
X154304763Y-38290952D01*
X161226667Y-38862381D02*
X160893333Y-38386190D01*
X160655238Y-38862381D02*
X160655238Y-37862381D01*
X161036191Y-37862381D01*
X161131429Y-37910000D01*
X161179048Y-37957619D01*
X161226667Y-38052857D01*
X161226667Y-38195714D01*
X161179048Y-38290952D01*
X161131429Y-38338571D01*
X161036191Y-38386190D01*
X160655238Y-38386190D01*
X161655238Y-38338571D02*
X161988572Y-38338571D01*
X162131429Y-38862381D02*
X161655238Y-38862381D01*
X161655238Y-37862381D01*
X162131429Y-37862381D01*
X162893334Y-38338571D02*
X162560000Y-38338571D01*
X162560000Y-38862381D02*
X162560000Y-37862381D01*
X163036191Y-37862381D01*
X163560000Y-37862381D02*
X163560000Y-38100476D01*
X163321905Y-38005238D02*
X163560000Y-38100476D01*
X163798096Y-38005238D01*
X163417143Y-38290952D02*
X163560000Y-38100476D01*
X163702858Y-38290952D01*
X164321905Y-37862381D02*
X164321905Y-38100476D01*
X164083810Y-38005238D02*
X164321905Y-38100476D01*
X164560001Y-38005238D01*
X164179048Y-38290952D02*
X164321905Y-38100476D01*
X164464763Y-38290952D01*
X171386667Y-38862381D02*
X171053333Y-38386190D01*
X170815238Y-38862381D02*
X170815238Y-37862381D01*
X171196191Y-37862381D01*
X171291429Y-37910000D01*
X171339048Y-37957619D01*
X171386667Y-38052857D01*
X171386667Y-38195714D01*
X171339048Y-38290952D01*
X171291429Y-38338571D01*
X171196191Y-38386190D01*
X170815238Y-38386190D01*
X171815238Y-38338571D02*
X172148572Y-38338571D01*
X172291429Y-38862381D02*
X171815238Y-38862381D01*
X171815238Y-37862381D01*
X172291429Y-37862381D01*
X173053334Y-38338571D02*
X172720000Y-38338571D01*
X172720000Y-38862381D02*
X172720000Y-37862381D01*
X173196191Y-37862381D01*
X173720000Y-37862381D02*
X173720000Y-38100476D01*
X173481905Y-38005238D02*
X173720000Y-38100476D01*
X173958096Y-38005238D01*
X173577143Y-38290952D02*
X173720000Y-38100476D01*
X173862858Y-38290952D01*
X174481905Y-37862381D02*
X174481905Y-38100476D01*
X174243810Y-38005238D02*
X174481905Y-38100476D01*
X174720001Y-38005238D01*
X174339048Y-38290952D02*
X174481905Y-38100476D01*
X174624763Y-38290952D01*
X181546667Y-38862381D02*
X181213333Y-38386190D01*
X180975238Y-38862381D02*
X180975238Y-37862381D01*
X181356191Y-37862381D01*
X181451429Y-37910000D01*
X181499048Y-37957619D01*
X181546667Y-38052857D01*
X181546667Y-38195714D01*
X181499048Y-38290952D01*
X181451429Y-38338571D01*
X181356191Y-38386190D01*
X180975238Y-38386190D01*
X181975238Y-38338571D02*
X182308572Y-38338571D01*
X182451429Y-38862381D02*
X181975238Y-38862381D01*
X181975238Y-37862381D01*
X182451429Y-37862381D01*
X183213334Y-38338571D02*
X182880000Y-38338571D01*
X182880000Y-38862381D02*
X182880000Y-37862381D01*
X183356191Y-37862381D01*
X183880000Y-37862381D02*
X183880000Y-38100476D01*
X183641905Y-38005238D02*
X183880000Y-38100476D01*
X184118096Y-38005238D01*
X183737143Y-38290952D02*
X183880000Y-38100476D01*
X184022858Y-38290952D01*
X184641905Y-37862381D02*
X184641905Y-38100476D01*
X184403810Y-38005238D02*
X184641905Y-38100476D01*
X184880001Y-38005238D01*
X184499048Y-38290952D02*
X184641905Y-38100476D01*
X184784763Y-38290952D01*
X191706667Y-38862381D02*
X191373333Y-38386190D01*
X191135238Y-38862381D02*
X191135238Y-37862381D01*
X191516191Y-37862381D01*
X191611429Y-37910000D01*
X191659048Y-37957619D01*
X191706667Y-38052857D01*
X191706667Y-38195714D01*
X191659048Y-38290952D01*
X191611429Y-38338571D01*
X191516191Y-38386190D01*
X191135238Y-38386190D01*
X192135238Y-38338571D02*
X192468572Y-38338571D01*
X192611429Y-38862381D02*
X192135238Y-38862381D01*
X192135238Y-37862381D01*
X192611429Y-37862381D01*
X193373334Y-38338571D02*
X193040000Y-38338571D01*
X193040000Y-38862381D02*
X193040000Y-37862381D01*
X193516191Y-37862381D01*
X194040000Y-37862381D02*
X194040000Y-38100476D01*
X193801905Y-38005238D02*
X194040000Y-38100476D01*
X194278096Y-38005238D01*
X193897143Y-38290952D02*
X194040000Y-38100476D01*
X194182858Y-38290952D01*
X194801905Y-37862381D02*
X194801905Y-38100476D01*
X194563810Y-38005238D02*
X194801905Y-38100476D01*
X195040001Y-38005238D01*
X194659048Y-38290952D02*
X194801905Y-38100476D01*
X194944763Y-38290952D01*
X140906667Y-49022381D02*
X140573333Y-48546190D01*
X140335238Y-49022381D02*
X140335238Y-48022381D01*
X140716191Y-48022381D01*
X140811429Y-48070000D01*
X140859048Y-48117619D01*
X140906667Y-48212857D01*
X140906667Y-48355714D01*
X140859048Y-48450952D01*
X140811429Y-48498571D01*
X140716191Y-48546190D01*
X140335238Y-48546190D01*
X141335238Y-48498571D02*
X141668572Y-48498571D01*
X141811429Y-49022381D02*
X141335238Y-49022381D01*
X141335238Y-48022381D01*
X141811429Y-48022381D01*
X142573334Y-48498571D02*
X142240000Y-48498571D01*
X142240000Y-49022381D02*
X142240000Y-48022381D01*
X142716191Y-48022381D01*
X143240000Y-48022381D02*
X143240000Y-48260476D01*
X143001905Y-48165238D02*
X143240000Y-48260476D01*
X143478096Y-48165238D01*
X143097143Y-48450952D02*
X143240000Y-48260476D01*
X143382858Y-48450952D01*
X144001905Y-48022381D02*
X144001905Y-48260476D01*
X143763810Y-48165238D02*
X144001905Y-48260476D01*
X144240001Y-48165238D01*
X143859048Y-48450952D02*
X144001905Y-48260476D01*
X144144763Y-48450952D01*
X151066667Y-49022381D02*
X150733333Y-48546190D01*
X150495238Y-49022381D02*
X150495238Y-48022381D01*
X150876191Y-48022381D01*
X150971429Y-48070000D01*
X151019048Y-48117619D01*
X151066667Y-48212857D01*
X151066667Y-48355714D01*
X151019048Y-48450952D01*
X150971429Y-48498571D01*
X150876191Y-48546190D01*
X150495238Y-48546190D01*
X151495238Y-48498571D02*
X151828572Y-48498571D01*
X151971429Y-49022381D02*
X151495238Y-49022381D01*
X151495238Y-48022381D01*
X151971429Y-48022381D01*
X152733334Y-48498571D02*
X152400000Y-48498571D01*
X152400000Y-49022381D02*
X152400000Y-48022381D01*
X152876191Y-48022381D01*
X153400000Y-48022381D02*
X153400000Y-48260476D01*
X153161905Y-48165238D02*
X153400000Y-48260476D01*
X153638096Y-48165238D01*
X153257143Y-48450952D02*
X153400000Y-48260476D01*
X153542858Y-48450952D01*
X154161905Y-48022381D02*
X154161905Y-48260476D01*
X153923810Y-48165238D02*
X154161905Y-48260476D01*
X154400001Y-48165238D01*
X154019048Y-48450952D02*
X154161905Y-48260476D01*
X154304763Y-48450952D01*
X161226667Y-49022381D02*
X160893333Y-48546190D01*
X160655238Y-49022381D02*
X160655238Y-48022381D01*
X161036191Y-48022381D01*
X161131429Y-48070000D01*
X161179048Y-48117619D01*
X161226667Y-48212857D01*
X161226667Y-48355714D01*
X161179048Y-48450952D01*
X161131429Y-48498571D01*
X161036191Y-48546190D01*
X160655238Y-48546190D01*
X161655238Y-48498571D02*
X161988572Y-48498571D01*
X162131429Y-49022381D02*
X161655238Y-49022381D01*
X161655238Y-48022381D01*
X162131429Y-48022381D01*
X162893334Y-48498571D02*
X162560000Y-48498571D01*
X162560000Y-49022381D02*
X162560000Y-48022381D01*
X163036191Y-48022381D01*
X163560000Y-48022381D02*
X163560000Y-48260476D01*
X163321905Y-48165238D02*
X163560000Y-48260476D01*
X163798096Y-48165238D01*
X163417143Y-48450952D02*
X163560000Y-48260476D01*
X163702858Y-48450952D01*
X164321905Y-48022381D02*
X164321905Y-48260476D01*
X164083810Y-48165238D02*
X164321905Y-48260476D01*
X164560001Y-48165238D01*
X164179048Y-48450952D02*
X164321905Y-48260476D01*
X164464763Y-48450952D01*
X171386667Y-49022381D02*
X171053333Y-48546190D01*
X170815238Y-49022381D02*
X170815238Y-48022381D01*
X171196191Y-48022381D01*
X171291429Y-48070000D01*
X171339048Y-48117619D01*
X171386667Y-48212857D01*
X171386667Y-48355714D01*
X171339048Y-48450952D01*
X171291429Y-48498571D01*
X171196191Y-48546190D01*
X170815238Y-48546190D01*
X171815238Y-48498571D02*
X172148572Y-48498571D01*
X172291429Y-49022381D02*
X171815238Y-49022381D01*
X171815238Y-48022381D01*
X172291429Y-48022381D01*
X173053334Y-48498571D02*
X172720000Y-48498571D01*
X172720000Y-49022381D02*
X172720000Y-48022381D01*
X173196191Y-48022381D01*
X173720000Y-48022381D02*
X173720000Y-48260476D01*
X173481905Y-48165238D02*
X173720000Y-48260476D01*
X173958096Y-48165238D01*
X173577143Y-48450952D02*
X173720000Y-48260476D01*
X173862858Y-48450952D01*
X174481905Y-48022381D02*
X174481905Y-48260476D01*
X174243810Y-48165238D02*
X174481905Y-48260476D01*
X174720001Y-48165238D01*
X174339048Y-48450952D02*
X174481905Y-48260476D01*
X174624763Y-48450952D01*
X181546667Y-49022381D02*
X181213333Y-48546190D01*
X180975238Y-49022381D02*
X180975238Y-48022381D01*
X181356191Y-48022381D01*
X181451429Y-48070000D01*
X181499048Y-48117619D01*
X181546667Y-48212857D01*
X181546667Y-48355714D01*
X181499048Y-48450952D01*
X181451429Y-48498571D01*
X181356191Y-48546190D01*
X180975238Y-48546190D01*
X181975238Y-48498571D02*
X182308572Y-48498571D01*
X182451429Y-49022381D02*
X181975238Y-49022381D01*
X181975238Y-48022381D01*
X182451429Y-48022381D01*
X183213334Y-48498571D02*
X182880000Y-48498571D01*
X182880000Y-49022381D02*
X182880000Y-48022381D01*
X183356191Y-48022381D01*
X183880000Y-48022381D02*
X183880000Y-48260476D01*
X183641905Y-48165238D02*
X183880000Y-48260476D01*
X184118096Y-48165238D01*
X183737143Y-48450952D02*
X183880000Y-48260476D01*
X184022858Y-48450952D01*
X184641905Y-48022381D02*
X184641905Y-48260476D01*
X184403810Y-48165238D02*
X184641905Y-48260476D01*
X184880001Y-48165238D01*
X184499048Y-48450952D02*
X184641905Y-48260476D01*
X184784763Y-48450952D01*
X191706667Y-49022381D02*
X191373333Y-48546190D01*
X191135238Y-49022381D02*
X191135238Y-48022381D01*
X191516191Y-48022381D01*
X191611429Y-48070000D01*
X191659048Y-48117619D01*
X191706667Y-48212857D01*
X191706667Y-48355714D01*
X191659048Y-48450952D01*
X191611429Y-48498571D01*
X191516191Y-48546190D01*
X191135238Y-48546190D01*
X192135238Y-48498571D02*
X192468572Y-48498571D01*
X192611429Y-49022381D02*
X192135238Y-49022381D01*
X192135238Y-48022381D01*
X192611429Y-48022381D01*
X193373334Y-48498571D02*
X193040000Y-48498571D01*
X193040000Y-49022381D02*
X193040000Y-48022381D01*
X193516191Y-48022381D01*
X194040000Y-48022381D02*
X194040000Y-48260476D01*
X193801905Y-48165238D02*
X194040000Y-48260476D01*
X194278096Y-48165238D01*
X193897143Y-48450952D02*
X194040000Y-48260476D01*
X194182858Y-48450952D01*
X194801905Y-48022381D02*
X194801905Y-48260476D01*
X194563810Y-48165238D02*
X194801905Y-48260476D01*
X195040001Y-48165238D01*
X194659048Y-48450952D02*
X194801905Y-48260476D01*
X194944763Y-48450952D01*
X140906667Y-59182381D02*
X140573333Y-58706190D01*
X140335238Y-59182381D02*
X140335238Y-58182381D01*
X140716191Y-58182381D01*
X140811429Y-58230000D01*
X140859048Y-58277619D01*
X140906667Y-58372857D01*
X140906667Y-58515714D01*
X140859048Y-58610952D01*
X140811429Y-58658571D01*
X140716191Y-58706190D01*
X140335238Y-58706190D01*
X141335238Y-58658571D02*
X141668572Y-58658571D01*
X141811429Y-59182381D02*
X141335238Y-59182381D01*
X141335238Y-58182381D01*
X141811429Y-58182381D01*
X142573334Y-58658571D02*
X142240000Y-58658571D01*
X142240000Y-59182381D02*
X142240000Y-58182381D01*
X142716191Y-58182381D01*
X143240000Y-58182381D02*
X143240000Y-58420476D01*
X143001905Y-58325238D02*
X143240000Y-58420476D01*
X143478096Y-58325238D01*
X143097143Y-58610952D02*
X143240000Y-58420476D01*
X143382858Y-58610952D01*
X144001905Y-58182381D02*
X144001905Y-58420476D01*
X143763810Y-58325238D02*
X144001905Y-58420476D01*
X144240001Y-58325238D01*
X143859048Y-58610952D02*
X144001905Y-58420476D01*
X144144763Y-58610952D01*
X151066667Y-59182381D02*
X150733333Y-58706190D01*
X150495238Y-59182381D02*
X150495238Y-58182381D01*
X150876191Y-58182381D01*
X150971429Y-58230000D01*
X151019048Y-58277619D01*
X151066667Y-58372857D01*
X151066667Y-58515714D01*
X151019048Y-58610952D01*
X150971429Y-58658571D01*
X150876191Y-58706190D01*
X150495238Y-58706190D01*
X151495238Y-58658571D02*
X151828572Y-58658571D01*
X151971429Y-59182381D02*
X151495238Y-59182381D01*
X151495238Y-58182381D01*
X151971429Y-58182381D01*
X152733334Y-58658571D02*
X152400000Y-58658571D01*
X152400000Y-59182381D02*
X152400000Y-58182381D01*
X152876191Y-58182381D01*
X153400000Y-58182381D02*
X153400000Y-58420476D01*
X153161905Y-58325238D02*
X153400000Y-58420476D01*
X153638096Y-58325238D01*
X153257143Y-58610952D02*
X153400000Y-58420476D01*
X153542858Y-58610952D01*
X154161905Y-58182381D02*
X154161905Y-58420476D01*
X153923810Y-58325238D02*
X154161905Y-58420476D01*
X154400001Y-58325238D01*
X154019048Y-58610952D02*
X154161905Y-58420476D01*
X154304763Y-58610952D01*
X161226667Y-59182381D02*
X160893333Y-58706190D01*
X160655238Y-59182381D02*
X160655238Y-58182381D01*
X161036191Y-58182381D01*
X161131429Y-58230000D01*
X161179048Y-58277619D01*
X161226667Y-58372857D01*
X161226667Y-58515714D01*
X161179048Y-58610952D01*
X161131429Y-58658571D01*
X161036191Y-58706190D01*
X160655238Y-58706190D01*
X161655238Y-58658571D02*
X161988572Y-58658571D01*
X162131429Y-59182381D02*
X161655238Y-59182381D01*
X161655238Y-58182381D01*
X162131429Y-58182381D01*
X162893334Y-58658571D02*
X162560000Y-58658571D01*
X162560000Y-59182381D02*
X162560000Y-58182381D01*
X163036191Y-58182381D01*
X163560000Y-58182381D02*
X163560000Y-58420476D01*
X163321905Y-58325238D02*
X163560000Y-58420476D01*
X163798096Y-58325238D01*
X163417143Y-58610952D02*
X163560000Y-58420476D01*
X163702858Y-58610952D01*
X164321905Y-58182381D02*
X164321905Y-58420476D01*
X164083810Y-58325238D02*
X164321905Y-58420476D01*
X164560001Y-58325238D01*
X164179048Y-58610952D02*
X164321905Y-58420476D01*
X164464763Y-58610952D01*
X171386667Y-59182381D02*
X171053333Y-58706190D01*
X170815238Y-59182381D02*
X170815238Y-58182381D01*
X171196191Y-58182381D01*
X171291429Y-58230000D01*
X171339048Y-58277619D01*
X171386667Y-58372857D01*
X171386667Y-58515714D01*
X171339048Y-58610952D01*
X171291429Y-58658571D01*
X171196191Y-58706190D01*
X170815238Y-58706190D01*
X171815238Y-58658571D02*
X172148572Y-58658571D01*
X172291429Y-59182381D02*
X171815238Y-59182381D01*
X171815238Y-58182381D01*
X172291429Y-58182381D01*
X173053334Y-58658571D02*
X172720000Y-58658571D01*
X172720000Y-59182381D02*
X172720000Y-58182381D01*
X173196191Y-58182381D01*
X173720000Y-58182381D02*
X173720000Y-58420476D01*
X173481905Y-58325238D02*
X173720000Y-58420476D01*
X173958096Y-58325238D01*
X173577143Y-58610952D02*
X173720000Y-58420476D01*
X173862858Y-58610952D01*
X174481905Y-58182381D02*
X174481905Y-58420476D01*
X174243810Y-58325238D02*
X174481905Y-58420476D01*
X174720001Y-58325238D01*
X174339048Y-58610952D02*
X174481905Y-58420476D01*
X174624763Y-58610952D01*
X181546667Y-59182381D02*
X181213333Y-58706190D01*
X180975238Y-59182381D02*
X180975238Y-58182381D01*
X181356191Y-58182381D01*
X181451429Y-58230000D01*
X181499048Y-58277619D01*
X181546667Y-58372857D01*
X181546667Y-58515714D01*
X181499048Y-58610952D01*
X181451429Y-58658571D01*
X181356191Y-58706190D01*
X180975238Y-58706190D01*
X181975238Y-58658571D02*
X182308572Y-58658571D01*
X182451429Y-59182381D02*
X181975238Y-59182381D01*
X181975238Y-58182381D01*
X182451429Y-58182381D01*
X183213334Y-58658571D02*
X182880000Y-58658571D01*
X182880000Y-59182381D02*
X182880000Y-58182381D01*
X183356191Y-58182381D01*
X183880000Y-58182381D02*
X183880000Y-58420476D01*
X183641905Y-58325238D02*
X183880000Y-58420476D01*
X184118096Y-58325238D01*
X183737143Y-58610952D02*
X183880000Y-58420476D01*
X184022858Y-58610952D01*
X184641905Y-58182381D02*
X184641905Y-58420476D01*
X184403810Y-58325238D02*
X184641905Y-58420476D01*
X184880001Y-58325238D01*
X184499048Y-58610952D02*
X184641905Y-58420476D01*
X184784763Y-58610952D01*
X191706667Y-59182381D02*
X191373333Y-58706190D01*
X191135238Y-59182381D02*
X191135238Y-58182381D01*
X191516191Y-58182381D01*
X191611429Y-58230000D01*
X191659048Y-58277619D01*
X191706667Y-58372857D01*
X191706667Y-58515714D01*
X191659048Y-58610952D01*
X191611429Y-58658571D01*
X191516191Y-58706190D01*
X191135238Y-58706190D01*
X192135238Y-58658571D02*
X192468572Y-58658571D01*
X192611429Y-59182381D02*
X192135238Y-59182381D01*
X192135238Y-58182381D01*
X192611429Y-58182381D01*
X193373334Y-58658571D02*
X193040000Y-58658571D01*
X193040000Y-59182381D02*
X193040000Y-58182381D01*
X193516191Y-58182381D01*
X194040000Y-58182381D02*
X194040000Y-58420476D01*
X193801905Y-58325238D02*
X194040000Y-58420476D01*
X194278096Y-58325238D01*
X193897143Y-58610952D02*
X194040000Y-58420476D01*
X194182858Y-58610952D01*
X194801905Y-58182381D02*
X194801905Y-58420476D01*
X194563810Y-58325238D02*
X194801905Y-58420476D01*
X195040001Y-58325238D01*
X194659048Y-58610952D02*
X194801905Y-58420476D01*
X194944763Y-58610952D01*
X110426667Y-79502381D02*
X110093333Y-79026190D01*
X109855238Y-79502381D02*
X109855238Y-78502381D01*
X110236191Y-78502381D01*
X110331429Y-78550000D01*
X110379048Y-78597619D01*
X110426667Y-78692857D01*
X110426667Y-78835714D01*
X110379048Y-78930952D01*
X110331429Y-78978571D01*
X110236191Y-79026190D01*
X109855238Y-79026190D01*
X110855238Y-78978571D02*
X111188572Y-78978571D01*
X111331429Y-79502381D02*
X110855238Y-79502381D01*
X110855238Y-78502381D01*
X111331429Y-78502381D01*
X112093334Y-78978571D02*
X111760000Y-78978571D01*
X111760000Y-79502381D02*
X111760000Y-78502381D01*
X112236191Y-78502381D01*
X112760000Y-78502381D02*
X112760000Y-78740476D01*
X112521905Y-78645238D02*
X112760000Y-78740476D01*
X112998096Y-78645238D01*
X112617143Y-78930952D02*
X112760000Y-78740476D01*
X112902858Y-78930952D01*
X113521905Y-78502381D02*
X113521905Y-78740476D01*
X113283810Y-78645238D02*
X113521905Y-78740476D01*
X113760001Y-78645238D01*
X113379048Y-78930952D02*
X113521905Y-78740476D01*
X113664763Y-78930952D01*
X110426667Y-89662381D02*
X110093333Y-89186190D01*
X109855238Y-89662381D02*
X109855238Y-88662381D01*
X110236191Y-88662381D01*
X110331429Y-88710000D01*
X110379048Y-88757619D01*
X110426667Y-88852857D01*
X110426667Y-88995714D01*
X110379048Y-89090952D01*
X110331429Y-89138571D01*
X110236191Y-89186190D01*
X109855238Y-89186190D01*
X110855238Y-89138571D02*
X111188572Y-89138571D01*
X111331429Y-89662381D02*
X110855238Y-89662381D01*
X110855238Y-88662381D01*
X111331429Y-88662381D01*
X112093334Y-89138571D02*
X111760000Y-89138571D01*
X111760000Y-89662381D02*
X111760000Y-88662381D01*
X112236191Y-88662381D01*
X112760000Y-88662381D02*
X112760000Y-88900476D01*
X112521905Y-88805238D02*
X112760000Y-88900476D01*
X112998096Y-88805238D01*
X112617143Y-89090952D02*
X112760000Y-88900476D01*
X112902858Y-89090952D01*
X113521905Y-88662381D02*
X113521905Y-88900476D01*
X113283810Y-88805238D02*
X113521905Y-88900476D01*
X113760001Y-88805238D01*
X113379048Y-89090952D02*
X113521905Y-88900476D01*
X113664763Y-89090952D01*
X110426667Y-99822381D02*
X110093333Y-99346190D01*
X109855238Y-99822381D02*
X109855238Y-98822381D01*
X110236191Y-98822381D01*
X110331429Y-98870000D01*
X110379048Y-98917619D01*
X110426667Y-99012857D01*
X110426667Y-99155714D01*
X110379048Y-99250952D01*
X110331429Y-99298571D01*
X110236191Y-99346190D01*
X109855238Y-99346190D01*
X110855238Y-99298571D02*
X111188572Y-99298571D01*
X111331429Y-99822381D02*
X110855238Y-99822381D01*
X110855238Y-98822381D01*
X111331429Y-98822381D01*
X112093334Y-99298571D02*
X111760000Y-99298571D01*
X111760000Y-99822381D02*
X111760000Y-98822381D01*
X112236191Y-98822381D01*
X112760000Y-98822381D02*
X112760000Y-99060476D01*
X112521905Y-98965238D02*
X112760000Y-99060476D01*
X112998096Y-98965238D01*
X112617143Y-99250952D02*
X112760000Y-99060476D01*
X112902858Y-99250952D01*
X113521905Y-98822381D02*
X113521905Y-99060476D01*
X113283810Y-98965238D02*
X113521905Y-99060476D01*
X113760001Y-98965238D01*
X113379048Y-99250952D02*
X113521905Y-99060476D01*
X113664763Y-99250952D01*
X110426667Y-109982381D02*
X110093333Y-109506190D01*
X109855238Y-109982381D02*
X109855238Y-108982381D01*
X110236191Y-108982381D01*
X110331429Y-109030000D01*
X110379048Y-109077619D01*
X110426667Y-109172857D01*
X110426667Y-109315714D01*
X110379048Y-109410952D01*
X110331429Y-109458571D01*
X110236191Y-109506190D01*
X109855238Y-109506190D01*
X110855238Y-109458571D02*
X111188572Y-109458571D01*
X111331429Y-109982381D02*
X110855238Y-109982381D01*
X110855238Y-108982381D01*
X111331429Y-108982381D01*
X112093334Y-109458571D02*
X111760000Y-109458571D01*
X111760000Y-109982381D02*
X111760000Y-108982381D01*
X112236191Y-108982381D01*
X112760000Y-108982381D02*
X112760000Y-109220476D01*
X112521905Y-109125238D02*
X112760000Y-109220476D01*
X112998096Y-109125238D01*
X112617143Y-109410952D02*
X112760000Y-109220476D01*
X112902858Y-109410952D01*
X113521905Y-108982381D02*
X113521905Y-109220476D01*
X113283810Y-109125238D02*
X113521905Y-109220476D01*
X113760001Y-109125238D01*
X113379048Y-109410952D02*
X113521905Y-109220476D01*
X113664763Y-109410952D01*
X140906667Y-69342381D02*
X140573333Y-68866190D01*
X140335238Y-69342381D02*
X140335238Y-68342381D01*
X140716191Y-68342381D01*
X140811429Y-68390000D01*
X140859048Y-68437619D01*
X140906667Y-68532857D01*
X140906667Y-68675714D01*
X140859048Y-68770952D01*
X140811429Y-68818571D01*
X140716191Y-68866190D01*
X140335238Y-68866190D01*
X141335238Y-68818571D02*
X141668572Y-68818571D01*
X141811429Y-69342381D02*
X141335238Y-69342381D01*
X141335238Y-68342381D01*
X141811429Y-68342381D01*
X142573334Y-68818571D02*
X142240000Y-68818571D01*
X142240000Y-69342381D02*
X142240000Y-68342381D01*
X142716191Y-68342381D01*
X143240000Y-68342381D02*
X143240000Y-68580476D01*
X143001905Y-68485238D02*
X143240000Y-68580476D01*
X143478096Y-68485238D01*
X143097143Y-68770952D02*
X143240000Y-68580476D01*
X143382858Y-68770952D01*
X144001905Y-68342381D02*
X144001905Y-68580476D01*
X143763810Y-68485238D02*
X144001905Y-68580476D01*
X144240001Y-68485238D01*
X143859048Y-68770952D02*
X144001905Y-68580476D01*
X144144763Y-68770952D01*
X151066667Y-69342381D02*
X150733333Y-68866190D01*
X150495238Y-69342381D02*
X150495238Y-68342381D01*
X150876191Y-68342381D01*
X150971429Y-68390000D01*
X151019048Y-68437619D01*
X151066667Y-68532857D01*
X151066667Y-68675714D01*
X151019048Y-68770952D01*
X150971429Y-68818571D01*
X150876191Y-68866190D01*
X150495238Y-68866190D01*
X151495238Y-68818571D02*
X151828572Y-68818571D01*
X151971429Y-69342381D02*
X151495238Y-69342381D01*
X151495238Y-68342381D01*
X151971429Y-68342381D01*
X152733334Y-68818571D02*
X152400000Y-68818571D01*
X152400000Y-69342381D02*
X152400000Y-68342381D01*
X152876191Y-68342381D01*
X153400000Y-68342381D02*
X153400000Y-68580476D01*
X153161905Y-68485238D02*
X153400000Y-68580476D01*
X153638096Y-68485238D01*
X153257143Y-68770952D02*
X153400000Y-68580476D01*
X153542858Y-68770952D01*
X154161905Y-68342381D02*
X154161905Y-68580476D01*
X153923810Y-68485238D02*
X154161905Y-68580476D01*
X154400001Y-68485238D01*
X154019048Y-68770952D02*
X154161905Y-68580476D01*
X154304763Y-68770952D01*
X120586667Y-79502381D02*
X120253333Y-79026190D01*
X120015238Y-79502381D02*
X120015238Y-78502381D01*
X120396191Y-78502381D01*
X120491429Y-78550000D01*
X120539048Y-78597619D01*
X120586667Y-78692857D01*
X120586667Y-78835714D01*
X120539048Y-78930952D01*
X120491429Y-78978571D01*
X120396191Y-79026190D01*
X120015238Y-79026190D01*
X121015238Y-78978571D02*
X121348572Y-78978571D01*
X121491429Y-79502381D02*
X121015238Y-79502381D01*
X121015238Y-78502381D01*
X121491429Y-78502381D01*
X122253334Y-78978571D02*
X121920000Y-78978571D01*
X121920000Y-79502381D02*
X121920000Y-78502381D01*
X122396191Y-78502381D01*
X122920000Y-78502381D02*
X122920000Y-78740476D01*
X122681905Y-78645238D02*
X122920000Y-78740476D01*
X123158096Y-78645238D01*
X122777143Y-78930952D02*
X122920000Y-78740476D01*
X123062858Y-78930952D01*
X123681905Y-78502381D02*
X123681905Y-78740476D01*
X123443810Y-78645238D02*
X123681905Y-78740476D01*
X123920001Y-78645238D01*
X123539048Y-78930952D02*
X123681905Y-78740476D01*
X123824763Y-78930952D01*
X130746667Y-79502381D02*
X130413333Y-79026190D01*
X130175238Y-79502381D02*
X130175238Y-78502381D01*
X130556191Y-78502381D01*
X130651429Y-78550000D01*
X130699048Y-78597619D01*
X130746667Y-78692857D01*
X130746667Y-78835714D01*
X130699048Y-78930952D01*
X130651429Y-78978571D01*
X130556191Y-79026190D01*
X130175238Y-79026190D01*
X131175238Y-78978571D02*
X131508572Y-78978571D01*
X131651429Y-79502381D02*
X131175238Y-79502381D01*
X131175238Y-78502381D01*
X131651429Y-78502381D01*
X132413334Y-78978571D02*
X132080000Y-78978571D01*
X132080000Y-79502381D02*
X132080000Y-78502381D01*
X132556191Y-78502381D01*
X133080000Y-78502381D02*
X133080000Y-78740476D01*
X132841905Y-78645238D02*
X133080000Y-78740476D01*
X133318096Y-78645238D01*
X132937143Y-78930952D02*
X133080000Y-78740476D01*
X133222858Y-78930952D01*
X133841905Y-78502381D02*
X133841905Y-78740476D01*
X133603810Y-78645238D02*
X133841905Y-78740476D01*
X134080001Y-78645238D01*
X133699048Y-78930952D02*
X133841905Y-78740476D01*
X133984763Y-78930952D01*
X140906667Y-79502381D02*
X140573333Y-79026190D01*
X140335238Y-79502381D02*
X140335238Y-78502381D01*
X140716191Y-78502381D01*
X140811429Y-78550000D01*
X140859048Y-78597619D01*
X140906667Y-78692857D01*
X140906667Y-78835714D01*
X140859048Y-78930952D01*
X140811429Y-78978571D01*
X140716191Y-79026190D01*
X140335238Y-79026190D01*
X141335238Y-78978571D02*
X141668572Y-78978571D01*
X141811429Y-79502381D02*
X141335238Y-79502381D01*
X141335238Y-78502381D01*
X141811429Y-78502381D01*
X142573334Y-78978571D02*
X142240000Y-78978571D01*
X142240000Y-79502381D02*
X142240000Y-78502381D01*
X142716191Y-78502381D01*
X143240000Y-78502381D02*
X143240000Y-78740476D01*
X143001905Y-78645238D02*
X143240000Y-78740476D01*
X143478096Y-78645238D01*
X143097143Y-78930952D02*
X143240000Y-78740476D01*
X143382858Y-78930952D01*
X144001905Y-78502381D02*
X144001905Y-78740476D01*
X143763810Y-78645238D02*
X144001905Y-78740476D01*
X144240001Y-78645238D01*
X143859048Y-78930952D02*
X144001905Y-78740476D01*
X144144763Y-78930952D01*
X151066667Y-79502381D02*
X150733333Y-79026190D01*
X150495238Y-79502381D02*
X150495238Y-78502381D01*
X150876191Y-78502381D01*
X150971429Y-78550000D01*
X151019048Y-78597619D01*
X151066667Y-78692857D01*
X151066667Y-78835714D01*
X151019048Y-78930952D01*
X150971429Y-78978571D01*
X150876191Y-79026190D01*
X150495238Y-79026190D01*
X151495238Y-78978571D02*
X151828572Y-78978571D01*
X151971429Y-79502381D02*
X151495238Y-79502381D01*
X151495238Y-78502381D01*
X151971429Y-78502381D01*
X152733334Y-78978571D02*
X152400000Y-78978571D01*
X152400000Y-79502381D02*
X152400000Y-78502381D01*
X152876191Y-78502381D01*
X153400000Y-78502381D02*
X153400000Y-78740476D01*
X153161905Y-78645238D02*
X153400000Y-78740476D01*
X153638096Y-78645238D01*
X153257143Y-78930952D02*
X153400000Y-78740476D01*
X153542858Y-78930952D01*
X154161905Y-78502381D02*
X154161905Y-78740476D01*
X153923810Y-78645238D02*
X154161905Y-78740476D01*
X154400001Y-78645238D01*
X154019048Y-78930952D02*
X154161905Y-78740476D01*
X154304763Y-78930952D01*
X161226667Y-69342381D02*
X160893333Y-68866190D01*
X160655238Y-69342381D02*
X160655238Y-68342381D01*
X161036191Y-68342381D01*
X161131429Y-68390000D01*
X161179048Y-68437619D01*
X161226667Y-68532857D01*
X161226667Y-68675714D01*
X161179048Y-68770952D01*
X161131429Y-68818571D01*
X161036191Y-68866190D01*
X160655238Y-68866190D01*
X161655238Y-68818571D02*
X161988572Y-68818571D01*
X162131429Y-69342381D02*
X161655238Y-69342381D01*
X161655238Y-68342381D01*
X162131429Y-68342381D01*
X162893334Y-68818571D02*
X162560000Y-68818571D01*
X162560000Y-69342381D02*
X162560000Y-68342381D01*
X163036191Y-68342381D01*
X163560000Y-68342381D02*
X163560000Y-68580476D01*
X163321905Y-68485238D02*
X163560000Y-68580476D01*
X163798096Y-68485238D01*
X163417143Y-68770952D02*
X163560000Y-68580476D01*
X163702858Y-68770952D01*
X164321905Y-68342381D02*
X164321905Y-68580476D01*
X164083810Y-68485238D02*
X164321905Y-68580476D01*
X164560001Y-68485238D01*
X164179048Y-68770952D02*
X164321905Y-68580476D01*
X164464763Y-68770952D01*
X171386667Y-69342381D02*
X171053333Y-68866190D01*
X170815238Y-69342381D02*
X170815238Y-68342381D01*
X171196191Y-68342381D01*
X171291429Y-68390000D01*
X171339048Y-68437619D01*
X171386667Y-68532857D01*
X171386667Y-68675714D01*
X171339048Y-68770952D01*
X171291429Y-68818571D01*
X171196191Y-68866190D01*
X170815238Y-68866190D01*
X171815238Y-68818571D02*
X172148572Y-68818571D01*
X172291429Y-69342381D02*
X171815238Y-69342381D01*
X171815238Y-68342381D01*
X172291429Y-68342381D01*
X173053334Y-68818571D02*
X172720000Y-68818571D01*
X172720000Y-69342381D02*
X172720000Y-68342381D01*
X173196191Y-68342381D01*
X173720000Y-68342381D02*
X173720000Y-68580476D01*
X173481905Y-68485238D02*
X173720000Y-68580476D01*
X173958096Y-68485238D01*
X173577143Y-68770952D02*
X173720000Y-68580476D01*
X173862858Y-68770952D01*
X174481905Y-68342381D02*
X174481905Y-68580476D01*
X174243810Y-68485238D02*
X174481905Y-68580476D01*
X174720001Y-68485238D01*
X174339048Y-68770952D02*
X174481905Y-68580476D01*
X174624763Y-68770952D01*
X181546667Y-69342381D02*
X181213333Y-68866190D01*
X180975238Y-69342381D02*
X180975238Y-68342381D01*
X181356191Y-68342381D01*
X181451429Y-68390000D01*
X181499048Y-68437619D01*
X181546667Y-68532857D01*
X181546667Y-68675714D01*
X181499048Y-68770952D01*
X181451429Y-68818571D01*
X181356191Y-68866190D01*
X180975238Y-68866190D01*
X181975238Y-68818571D02*
X182308572Y-68818571D01*
X182451429Y-69342381D02*
X181975238Y-69342381D01*
X181975238Y-68342381D01*
X182451429Y-68342381D01*
X183213334Y-68818571D02*
X182880000Y-68818571D01*
X182880000Y-69342381D02*
X182880000Y-68342381D01*
X183356191Y-68342381D01*
X183880000Y-68342381D02*
X183880000Y-68580476D01*
X183641905Y-68485238D02*
X183880000Y-68580476D01*
X184118096Y-68485238D01*
X183737143Y-68770952D02*
X183880000Y-68580476D01*
X184022858Y-68770952D01*
X184641905Y-68342381D02*
X184641905Y-68580476D01*
X184403810Y-68485238D02*
X184641905Y-68580476D01*
X184880001Y-68485238D01*
X184499048Y-68770952D02*
X184641905Y-68580476D01*
X184784763Y-68770952D01*
X191706667Y-69342381D02*
X191373333Y-68866190D01*
X191135238Y-69342381D02*
X191135238Y-68342381D01*
X191516191Y-68342381D01*
X191611429Y-68390000D01*
X191659048Y-68437619D01*
X191706667Y-68532857D01*
X191706667Y-68675714D01*
X191659048Y-68770952D01*
X191611429Y-68818571D01*
X191516191Y-68866190D01*
X191135238Y-68866190D01*
X192135238Y-68818571D02*
X192468572Y-68818571D01*
X192611429Y-69342381D02*
X192135238Y-69342381D01*
X192135238Y-68342381D01*
X192611429Y-68342381D01*
X193373334Y-68818571D02*
X193040000Y-68818571D01*
X193040000Y-69342381D02*
X193040000Y-68342381D01*
X193516191Y-68342381D01*
X194040000Y-68342381D02*
X194040000Y-68580476D01*
X193801905Y-68485238D02*
X194040000Y-68580476D01*
X194278096Y-68485238D01*
X193897143Y-68770952D02*
X194040000Y-68580476D01*
X194182858Y-68770952D01*
X194801905Y-68342381D02*
X194801905Y-68580476D01*
X194563810Y-68485238D02*
X194801905Y-68580476D01*
X195040001Y-68485238D01*
X194659048Y-68770952D02*
X194801905Y-68580476D01*
X194944763Y-68770952D01*
X161226667Y-79502381D02*
X160893333Y-79026190D01*
X160655238Y-79502381D02*
X160655238Y-78502381D01*
X161036191Y-78502381D01*
X161131429Y-78550000D01*
X161179048Y-78597619D01*
X161226667Y-78692857D01*
X161226667Y-78835714D01*
X161179048Y-78930952D01*
X161131429Y-78978571D01*
X161036191Y-79026190D01*
X160655238Y-79026190D01*
X161655238Y-78978571D02*
X161988572Y-78978571D01*
X162131429Y-79502381D02*
X161655238Y-79502381D01*
X161655238Y-78502381D01*
X162131429Y-78502381D01*
X162893334Y-78978571D02*
X162560000Y-78978571D01*
X162560000Y-79502381D02*
X162560000Y-78502381D01*
X163036191Y-78502381D01*
X163560000Y-78502381D02*
X163560000Y-78740476D01*
X163321905Y-78645238D02*
X163560000Y-78740476D01*
X163798096Y-78645238D01*
X163417143Y-78930952D02*
X163560000Y-78740476D01*
X163702858Y-78930952D01*
X164321905Y-78502381D02*
X164321905Y-78740476D01*
X164083810Y-78645238D02*
X164321905Y-78740476D01*
X164560001Y-78645238D01*
X164179048Y-78930952D02*
X164321905Y-78740476D01*
X164464763Y-78930952D01*
X171386667Y-79502381D02*
X171053333Y-79026190D01*
X170815238Y-79502381D02*
X170815238Y-78502381D01*
X171196191Y-78502381D01*
X171291429Y-78550000D01*
X171339048Y-78597619D01*
X171386667Y-78692857D01*
X171386667Y-78835714D01*
X171339048Y-78930952D01*
X171291429Y-78978571D01*
X171196191Y-79026190D01*
X170815238Y-79026190D01*
X171815238Y-78978571D02*
X172148572Y-78978571D01*
X172291429Y-79502381D02*
X171815238Y-79502381D01*
X171815238Y-78502381D01*
X172291429Y-78502381D01*
X173053334Y-78978571D02*
X172720000Y-78978571D01*
X172720000Y-79502381D02*
X172720000Y-78502381D01*
X173196191Y-78502381D01*
X173720000Y-78502381D02*
X173720000Y-78740476D01*
X173481905Y-78645238D02*
X173720000Y-78740476D01*
X173958096Y-78645238D01*
X173577143Y-78930952D02*
X173720000Y-78740476D01*
X173862858Y-78930952D01*
X174481905Y-78502381D02*
X174481905Y-78740476D01*
X174243810Y-78645238D02*
X174481905Y-78740476D01*
X174720001Y-78645238D01*
X174339048Y-78930952D02*
X174481905Y-78740476D01*
X174624763Y-78930952D01*
X181546667Y-79502381D02*
X181213333Y-79026190D01*
X180975238Y-79502381D02*
X180975238Y-78502381D01*
X181356191Y-78502381D01*
X181451429Y-78550000D01*
X181499048Y-78597619D01*
X181546667Y-78692857D01*
X181546667Y-78835714D01*
X181499048Y-78930952D01*
X181451429Y-78978571D01*
X181356191Y-79026190D01*
X180975238Y-79026190D01*
X181975238Y-78978571D02*
X182308572Y-78978571D01*
X182451429Y-79502381D02*
X181975238Y-79502381D01*
X181975238Y-78502381D01*
X182451429Y-78502381D01*
X183213334Y-78978571D02*
X182880000Y-78978571D01*
X182880000Y-79502381D02*
X182880000Y-78502381D01*
X183356191Y-78502381D01*
X183880000Y-78502381D02*
X183880000Y-78740476D01*
X183641905Y-78645238D02*
X183880000Y-78740476D01*
X184118096Y-78645238D01*
X183737143Y-78930952D02*
X183880000Y-78740476D01*
X184022858Y-78930952D01*
X184641905Y-78502381D02*
X184641905Y-78740476D01*
X184403810Y-78645238D02*
X184641905Y-78740476D01*
X184880001Y-78645238D01*
X184499048Y-78930952D02*
X184641905Y-78740476D01*
X184784763Y-78930952D01*
X191706667Y-79502381D02*
X191373333Y-79026190D01*
X191135238Y-79502381D02*
X191135238Y-78502381D01*
X191516191Y-78502381D01*
X191611429Y-78550000D01*
X191659048Y-78597619D01*
X191706667Y-78692857D01*
X191706667Y-78835714D01*
X191659048Y-78930952D01*
X191611429Y-78978571D01*
X191516191Y-79026190D01*
X191135238Y-79026190D01*
X192135238Y-78978571D02*
X192468572Y-78978571D01*
X192611429Y-79502381D02*
X192135238Y-79502381D01*
X192135238Y-78502381D01*
X192611429Y-78502381D01*
X193373334Y-78978571D02*
X193040000Y-78978571D01*
X193040000Y-79502381D02*
X193040000Y-78502381D01*
X193516191Y-78502381D01*
X194040000Y-78502381D02*
X194040000Y-78740476D01*
X193801905Y-78645238D02*
X194040000Y-78740476D01*
X194278096Y-78645238D01*
X193897143Y-78930952D02*
X194040000Y-78740476D01*
X194182858Y-78930952D01*
X194801905Y-78502381D02*
X194801905Y-78740476D01*
X194563810Y-78645238D02*
X194801905Y-78740476D01*
X195040001Y-78645238D01*
X194659048Y-78930952D02*
X194801905Y-78740476D01*
X194944763Y-78930952D01*
X120586667Y-89662381D02*
X120253333Y-89186190D01*
X120015238Y-89662381D02*
X120015238Y-88662381D01*
X120396191Y-88662381D01*
X120491429Y-88710000D01*
X120539048Y-88757619D01*
X120586667Y-88852857D01*
X120586667Y-88995714D01*
X120539048Y-89090952D01*
X120491429Y-89138571D01*
X120396191Y-89186190D01*
X120015238Y-89186190D01*
X121015238Y-89138571D02*
X121348572Y-89138571D01*
X121491429Y-89662381D02*
X121015238Y-89662381D01*
X121015238Y-88662381D01*
X121491429Y-88662381D01*
X122253334Y-89138571D02*
X121920000Y-89138571D01*
X121920000Y-89662381D02*
X121920000Y-88662381D01*
X122396191Y-88662381D01*
X122920000Y-88662381D02*
X122920000Y-88900476D01*
X122681905Y-88805238D02*
X122920000Y-88900476D01*
X123158096Y-88805238D01*
X122777143Y-89090952D02*
X122920000Y-88900476D01*
X123062858Y-89090952D01*
X123681905Y-88662381D02*
X123681905Y-88900476D01*
X123443810Y-88805238D02*
X123681905Y-88900476D01*
X123920001Y-88805238D01*
X123539048Y-89090952D02*
X123681905Y-88900476D01*
X123824763Y-89090952D01*
X130746667Y-89662381D02*
X130413333Y-89186190D01*
X130175238Y-89662381D02*
X130175238Y-88662381D01*
X130556191Y-88662381D01*
X130651429Y-88710000D01*
X130699048Y-88757619D01*
X130746667Y-88852857D01*
X130746667Y-88995714D01*
X130699048Y-89090952D01*
X130651429Y-89138571D01*
X130556191Y-89186190D01*
X130175238Y-89186190D01*
X131175238Y-89138571D02*
X131508572Y-89138571D01*
X131651429Y-89662381D02*
X131175238Y-89662381D01*
X131175238Y-88662381D01*
X131651429Y-88662381D01*
X132413334Y-89138571D02*
X132080000Y-89138571D01*
X132080000Y-89662381D02*
X132080000Y-88662381D01*
X132556191Y-88662381D01*
X133080000Y-88662381D02*
X133080000Y-88900476D01*
X132841905Y-88805238D02*
X133080000Y-88900476D01*
X133318096Y-88805238D01*
X132937143Y-89090952D02*
X133080000Y-88900476D01*
X133222858Y-89090952D01*
X133841905Y-88662381D02*
X133841905Y-88900476D01*
X133603810Y-88805238D02*
X133841905Y-88900476D01*
X134080001Y-88805238D01*
X133699048Y-89090952D02*
X133841905Y-88900476D01*
X133984763Y-89090952D01*
X140906667Y-89662381D02*
X140573333Y-89186190D01*
X140335238Y-89662381D02*
X140335238Y-88662381D01*
X140716191Y-88662381D01*
X140811429Y-88710000D01*
X140859048Y-88757619D01*
X140906667Y-88852857D01*
X140906667Y-88995714D01*
X140859048Y-89090952D01*
X140811429Y-89138571D01*
X140716191Y-89186190D01*
X140335238Y-89186190D01*
X141335238Y-89138571D02*
X141668572Y-89138571D01*
X141811429Y-89662381D02*
X141335238Y-89662381D01*
X141335238Y-88662381D01*
X141811429Y-88662381D01*
X142573334Y-89138571D02*
X142240000Y-89138571D01*
X142240000Y-89662381D02*
X142240000Y-88662381D01*
X142716191Y-88662381D01*
X143240000Y-88662381D02*
X143240000Y-88900476D01*
X143001905Y-88805238D02*
X143240000Y-88900476D01*
X143478096Y-88805238D01*
X143097143Y-89090952D02*
X143240000Y-88900476D01*
X143382858Y-89090952D01*
X144001905Y-88662381D02*
X144001905Y-88900476D01*
X143763810Y-88805238D02*
X144001905Y-88900476D01*
X144240001Y-88805238D01*
X143859048Y-89090952D02*
X144001905Y-88900476D01*
X144144763Y-89090952D01*
X151066667Y-89662381D02*
X150733333Y-89186190D01*
X150495238Y-89662381D02*
X150495238Y-88662381D01*
X150876191Y-88662381D01*
X150971429Y-88710000D01*
X151019048Y-88757619D01*
X151066667Y-88852857D01*
X151066667Y-88995714D01*
X151019048Y-89090952D01*
X150971429Y-89138571D01*
X150876191Y-89186190D01*
X150495238Y-89186190D01*
X151495238Y-89138571D02*
X151828572Y-89138571D01*
X151971429Y-89662381D02*
X151495238Y-89662381D01*
X151495238Y-88662381D01*
X151971429Y-88662381D01*
X152733334Y-89138571D02*
X152400000Y-89138571D01*
X152400000Y-89662381D02*
X152400000Y-88662381D01*
X152876191Y-88662381D01*
X153400000Y-88662381D02*
X153400000Y-88900476D01*
X153161905Y-88805238D02*
X153400000Y-88900476D01*
X153638096Y-88805238D01*
X153257143Y-89090952D02*
X153400000Y-88900476D01*
X153542858Y-89090952D01*
X154161905Y-88662381D02*
X154161905Y-88900476D01*
X153923810Y-88805238D02*
X154161905Y-88900476D01*
X154400001Y-88805238D01*
X154019048Y-89090952D02*
X154161905Y-88900476D01*
X154304763Y-89090952D01*
X120586667Y-99822381D02*
X120253333Y-99346190D01*
X120015238Y-99822381D02*
X120015238Y-98822381D01*
X120396191Y-98822381D01*
X120491429Y-98870000D01*
X120539048Y-98917619D01*
X120586667Y-99012857D01*
X120586667Y-99155714D01*
X120539048Y-99250952D01*
X120491429Y-99298571D01*
X120396191Y-99346190D01*
X120015238Y-99346190D01*
X121015238Y-99298571D02*
X121348572Y-99298571D01*
X121491429Y-99822381D02*
X121015238Y-99822381D01*
X121015238Y-98822381D01*
X121491429Y-98822381D01*
X122253334Y-99298571D02*
X121920000Y-99298571D01*
X121920000Y-99822381D02*
X121920000Y-98822381D01*
X122396191Y-98822381D01*
X122920000Y-98822381D02*
X122920000Y-99060476D01*
X122681905Y-98965238D02*
X122920000Y-99060476D01*
X123158096Y-98965238D01*
X122777143Y-99250952D02*
X122920000Y-99060476D01*
X123062858Y-99250952D01*
X123681905Y-98822381D02*
X123681905Y-99060476D01*
X123443810Y-98965238D02*
X123681905Y-99060476D01*
X123920001Y-98965238D01*
X123539048Y-99250952D02*
X123681905Y-99060476D01*
X123824763Y-99250952D01*
X130746667Y-99822381D02*
X130413333Y-99346190D01*
X130175238Y-99822381D02*
X130175238Y-98822381D01*
X130556191Y-98822381D01*
X130651429Y-98870000D01*
X130699048Y-98917619D01*
X130746667Y-99012857D01*
X130746667Y-99155714D01*
X130699048Y-99250952D01*
X130651429Y-99298571D01*
X130556191Y-99346190D01*
X130175238Y-99346190D01*
X131175238Y-99298571D02*
X131508572Y-99298571D01*
X131651429Y-99822381D02*
X131175238Y-99822381D01*
X131175238Y-98822381D01*
X131651429Y-98822381D01*
X132413334Y-99298571D02*
X132080000Y-99298571D01*
X132080000Y-99822381D02*
X132080000Y-98822381D01*
X132556191Y-98822381D01*
X133080000Y-98822381D02*
X133080000Y-99060476D01*
X132841905Y-98965238D02*
X133080000Y-99060476D01*
X133318096Y-98965238D01*
X132937143Y-99250952D02*
X133080000Y-99060476D01*
X133222858Y-99250952D01*
X133841905Y-98822381D02*
X133841905Y-99060476D01*
X133603810Y-98965238D02*
X133841905Y-99060476D01*
X134080001Y-98965238D01*
X133699048Y-99250952D02*
X133841905Y-99060476D01*
X133984763Y-99250952D01*
X130746667Y-109982381D02*
X130413333Y-109506190D01*
X130175238Y-109982381D02*
X130175238Y-108982381D01*
X130556191Y-108982381D01*
X130651429Y-109030000D01*
X130699048Y-109077619D01*
X130746667Y-109172857D01*
X130746667Y-109315714D01*
X130699048Y-109410952D01*
X130651429Y-109458571D01*
X130556191Y-109506190D01*
X130175238Y-109506190D01*
X131175238Y-109458571D02*
X131508572Y-109458571D01*
X131651429Y-109982381D02*
X131175238Y-109982381D01*
X131175238Y-108982381D01*
X131651429Y-108982381D01*
X132413334Y-109458571D02*
X132080000Y-109458571D01*
X132080000Y-109982381D02*
X132080000Y-108982381D01*
X132556191Y-108982381D01*
X133080000Y-108982381D02*
X133080000Y-109220476D01*
X132841905Y-109125238D02*
X133080000Y-109220476D01*
X133318096Y-109125238D01*
X132937143Y-109410952D02*
X133080000Y-109220476D01*
X133222858Y-109410952D01*
X133841905Y-108982381D02*
X133841905Y-109220476D01*
X133603810Y-109125238D02*
X133841905Y-109220476D01*
X134080001Y-109125238D01*
X133699048Y-109410952D02*
X133841905Y-109220476D01*
X133984763Y-109410952D01*
X140906667Y-99822381D02*
X140573333Y-99346190D01*
X140335238Y-99822381D02*
X140335238Y-98822381D01*
X140716191Y-98822381D01*
X140811429Y-98870000D01*
X140859048Y-98917619D01*
X140906667Y-99012857D01*
X140906667Y-99155714D01*
X140859048Y-99250952D01*
X140811429Y-99298571D01*
X140716191Y-99346190D01*
X140335238Y-99346190D01*
X141335238Y-99298571D02*
X141668572Y-99298571D01*
X141811429Y-99822381D02*
X141335238Y-99822381D01*
X141335238Y-98822381D01*
X141811429Y-98822381D01*
X142573334Y-99298571D02*
X142240000Y-99298571D01*
X142240000Y-99822381D02*
X142240000Y-98822381D01*
X142716191Y-98822381D01*
X143240000Y-98822381D02*
X143240000Y-99060476D01*
X143001905Y-98965238D02*
X143240000Y-99060476D01*
X143478096Y-98965238D01*
X143097143Y-99250952D02*
X143240000Y-99060476D01*
X143382858Y-99250952D01*
X144001905Y-98822381D02*
X144001905Y-99060476D01*
X143763810Y-98965238D02*
X144001905Y-99060476D01*
X144240001Y-98965238D01*
X143859048Y-99250952D02*
X144001905Y-99060476D01*
X144144763Y-99250952D01*
X140906667Y-109982381D02*
X140573333Y-109506190D01*
X140335238Y-109982381D02*
X140335238Y-108982381D01*
X140716191Y-108982381D01*
X140811429Y-109030000D01*
X140859048Y-109077619D01*
X140906667Y-109172857D01*
X140906667Y-109315714D01*
X140859048Y-109410952D01*
X140811429Y-109458571D01*
X140716191Y-109506190D01*
X140335238Y-109506190D01*
X141335238Y-109458571D02*
X141668572Y-109458571D01*
X141811429Y-109982381D02*
X141335238Y-109982381D01*
X141335238Y-108982381D01*
X141811429Y-108982381D01*
X142573334Y-109458571D02*
X142240000Y-109458571D01*
X142240000Y-109982381D02*
X142240000Y-108982381D01*
X142716191Y-108982381D01*
X143240000Y-108982381D02*
X143240000Y-109220476D01*
X143001905Y-109125238D02*
X143240000Y-109220476D01*
X143478096Y-109125238D01*
X143097143Y-109410952D02*
X143240000Y-109220476D01*
X143382858Y-109410952D01*
X144001905Y-108982381D02*
X144001905Y-109220476D01*
X143763810Y-109125238D02*
X144001905Y-109220476D01*
X144240001Y-109125238D01*
X143859048Y-109410952D02*
X144001905Y-109220476D01*
X144144763Y-109410952D01*
X161226667Y-89662381D02*
X160893333Y-89186190D01*
X160655238Y-89662381D02*
X160655238Y-88662381D01*
X161036191Y-88662381D01*
X161131429Y-88710000D01*
X161179048Y-88757619D01*
X161226667Y-88852857D01*
X161226667Y-88995714D01*
X161179048Y-89090952D01*
X161131429Y-89138571D01*
X161036191Y-89186190D01*
X160655238Y-89186190D01*
X161655238Y-89138571D02*
X161988572Y-89138571D01*
X162131429Y-89662381D02*
X161655238Y-89662381D01*
X161655238Y-88662381D01*
X162131429Y-88662381D01*
X162893334Y-89138571D02*
X162560000Y-89138571D01*
X162560000Y-89662381D02*
X162560000Y-88662381D01*
X163036191Y-88662381D01*
X163560000Y-88662381D02*
X163560000Y-88900476D01*
X163321905Y-88805238D02*
X163560000Y-88900476D01*
X163798096Y-88805238D01*
X163417143Y-89090952D02*
X163560000Y-88900476D01*
X163702858Y-89090952D01*
X164321905Y-88662381D02*
X164321905Y-88900476D01*
X164083810Y-88805238D02*
X164321905Y-88900476D01*
X164560001Y-88805238D01*
X164179048Y-89090952D02*
X164321905Y-88900476D01*
X164464763Y-89090952D01*
X171386667Y-89662381D02*
X171053333Y-89186190D01*
X170815238Y-89662381D02*
X170815238Y-88662381D01*
X171196191Y-88662381D01*
X171291429Y-88710000D01*
X171339048Y-88757619D01*
X171386667Y-88852857D01*
X171386667Y-88995714D01*
X171339048Y-89090952D01*
X171291429Y-89138571D01*
X171196191Y-89186190D01*
X170815238Y-89186190D01*
X171815238Y-89138571D02*
X172148572Y-89138571D01*
X172291429Y-89662381D02*
X171815238Y-89662381D01*
X171815238Y-88662381D01*
X172291429Y-88662381D01*
X173053334Y-89138571D02*
X172720000Y-89138571D01*
X172720000Y-89662381D02*
X172720000Y-88662381D01*
X173196191Y-88662381D01*
X173720000Y-88662381D02*
X173720000Y-88900476D01*
X173481905Y-88805238D02*
X173720000Y-88900476D01*
X173958096Y-88805238D01*
X173577143Y-89090952D02*
X173720000Y-88900476D01*
X173862858Y-89090952D01*
X174481905Y-88662381D02*
X174481905Y-88900476D01*
X174243810Y-88805238D02*
X174481905Y-88900476D01*
X174720001Y-88805238D01*
X174339048Y-89090952D02*
X174481905Y-88900476D01*
X174624763Y-89090952D01*
X181546667Y-89662381D02*
X181213333Y-89186190D01*
X180975238Y-89662381D02*
X180975238Y-88662381D01*
X181356191Y-88662381D01*
X181451429Y-88710000D01*
X181499048Y-88757619D01*
X181546667Y-88852857D01*
X181546667Y-88995714D01*
X181499048Y-89090952D01*
X181451429Y-89138571D01*
X181356191Y-89186190D01*
X180975238Y-89186190D01*
X181975238Y-89138571D02*
X182308572Y-89138571D01*
X182451429Y-89662381D02*
X181975238Y-89662381D01*
X181975238Y-88662381D01*
X182451429Y-88662381D01*
X183213334Y-89138571D02*
X182880000Y-89138571D01*
X182880000Y-89662381D02*
X182880000Y-88662381D01*
X183356191Y-88662381D01*
X183880000Y-88662381D02*
X183880000Y-88900476D01*
X183641905Y-88805238D02*
X183880000Y-88900476D01*
X184118096Y-88805238D01*
X183737143Y-89090952D02*
X183880000Y-88900476D01*
X184022858Y-89090952D01*
X184641905Y-88662381D02*
X184641905Y-88900476D01*
X184403810Y-88805238D02*
X184641905Y-88900476D01*
X184880001Y-88805238D01*
X184499048Y-89090952D02*
X184641905Y-88900476D01*
X184784763Y-89090952D01*
X191706667Y-89662381D02*
X191373333Y-89186190D01*
X191135238Y-89662381D02*
X191135238Y-88662381D01*
X191516191Y-88662381D01*
X191611429Y-88710000D01*
X191659048Y-88757619D01*
X191706667Y-88852857D01*
X191706667Y-88995714D01*
X191659048Y-89090952D01*
X191611429Y-89138571D01*
X191516191Y-89186190D01*
X191135238Y-89186190D01*
X192135238Y-89138571D02*
X192468572Y-89138571D01*
X192611429Y-89662381D02*
X192135238Y-89662381D01*
X192135238Y-88662381D01*
X192611429Y-88662381D01*
X193373334Y-89138571D02*
X193040000Y-89138571D01*
X193040000Y-89662381D02*
X193040000Y-88662381D01*
X193516191Y-88662381D01*
X194040000Y-88662381D02*
X194040000Y-88900476D01*
X193801905Y-88805238D02*
X194040000Y-88900476D01*
X194278096Y-88805238D01*
X193897143Y-89090952D02*
X194040000Y-88900476D01*
X194182858Y-89090952D01*
X194801905Y-88662381D02*
X194801905Y-88900476D01*
X194563810Y-88805238D02*
X194801905Y-88900476D01*
X195040001Y-88805238D01*
X194659048Y-89090952D02*
X194801905Y-88900476D01*
X194944763Y-89090952D01*
X151066667Y-99822381D02*
X150733333Y-99346190D01*
X150495238Y-99822381D02*
X150495238Y-98822381D01*
X150876191Y-98822381D01*
X150971429Y-98870000D01*
X151019048Y-98917619D01*
X151066667Y-99012857D01*
X151066667Y-99155714D01*
X151019048Y-99250952D01*
X150971429Y-99298571D01*
X150876191Y-99346190D01*
X150495238Y-99346190D01*
X151495238Y-99298571D02*
X151828572Y-99298571D01*
X151971429Y-99822381D02*
X151495238Y-99822381D01*
X151495238Y-98822381D01*
X151971429Y-98822381D01*
X152733334Y-99298571D02*
X152400000Y-99298571D01*
X152400000Y-99822381D02*
X152400000Y-98822381D01*
X152876191Y-98822381D01*
X153400000Y-98822381D02*
X153400000Y-99060476D01*
X153161905Y-98965238D02*
X153400000Y-99060476D01*
X153638096Y-98965238D01*
X153257143Y-99250952D02*
X153400000Y-99060476D01*
X153542858Y-99250952D01*
X154161905Y-98822381D02*
X154161905Y-99060476D01*
X153923810Y-98965238D02*
X154161905Y-99060476D01*
X154400001Y-98965238D01*
X154019048Y-99250952D02*
X154161905Y-99060476D01*
X154304763Y-99250952D01*
X161226667Y-99822381D02*
X160893333Y-99346190D01*
X160655238Y-99822381D02*
X160655238Y-98822381D01*
X161036191Y-98822381D01*
X161131429Y-98870000D01*
X161179048Y-98917619D01*
X161226667Y-99012857D01*
X161226667Y-99155714D01*
X161179048Y-99250952D01*
X161131429Y-99298571D01*
X161036191Y-99346190D01*
X160655238Y-99346190D01*
X161655238Y-99298571D02*
X161988572Y-99298571D01*
X162131429Y-99822381D02*
X161655238Y-99822381D01*
X161655238Y-98822381D01*
X162131429Y-98822381D01*
X162893334Y-99298571D02*
X162560000Y-99298571D01*
X162560000Y-99822381D02*
X162560000Y-98822381D01*
X163036191Y-98822381D01*
X163560000Y-98822381D02*
X163560000Y-99060476D01*
X163321905Y-98965238D02*
X163560000Y-99060476D01*
X163798096Y-98965238D01*
X163417143Y-99250952D02*
X163560000Y-99060476D01*
X163702858Y-99250952D01*
X164321905Y-98822381D02*
X164321905Y-99060476D01*
X164083810Y-98965238D02*
X164321905Y-99060476D01*
X164560001Y-98965238D01*
X164179048Y-99250952D02*
X164321905Y-99060476D01*
X164464763Y-99250952D01*
X171386667Y-99822381D02*
X171053333Y-99346190D01*
X170815238Y-99822381D02*
X170815238Y-98822381D01*
X171196191Y-98822381D01*
X171291429Y-98870000D01*
X171339048Y-98917619D01*
X171386667Y-99012857D01*
X171386667Y-99155714D01*
X171339048Y-99250952D01*
X171291429Y-99298571D01*
X171196191Y-99346190D01*
X170815238Y-99346190D01*
X171815238Y-99298571D02*
X172148572Y-99298571D01*
X172291429Y-99822381D02*
X171815238Y-99822381D01*
X171815238Y-98822381D01*
X172291429Y-98822381D01*
X173053334Y-99298571D02*
X172720000Y-99298571D01*
X172720000Y-99822381D02*
X172720000Y-98822381D01*
X173196191Y-98822381D01*
X173720000Y-98822381D02*
X173720000Y-99060476D01*
X173481905Y-98965238D02*
X173720000Y-99060476D01*
X173958096Y-98965238D01*
X173577143Y-99250952D02*
X173720000Y-99060476D01*
X173862858Y-99250952D01*
X174481905Y-98822381D02*
X174481905Y-99060476D01*
X174243810Y-98965238D02*
X174481905Y-99060476D01*
X174720001Y-98965238D01*
X174339048Y-99250952D02*
X174481905Y-99060476D01*
X174624763Y-99250952D01*
X181546667Y-99822381D02*
X181213333Y-99346190D01*
X180975238Y-99822381D02*
X180975238Y-98822381D01*
X181356191Y-98822381D01*
X181451429Y-98870000D01*
X181499048Y-98917619D01*
X181546667Y-99012857D01*
X181546667Y-99155714D01*
X181499048Y-99250952D01*
X181451429Y-99298571D01*
X181356191Y-99346190D01*
X180975238Y-99346190D01*
X181975238Y-99298571D02*
X182308572Y-99298571D01*
X182451429Y-99822381D02*
X181975238Y-99822381D01*
X181975238Y-98822381D01*
X182451429Y-98822381D01*
X183213334Y-99298571D02*
X182880000Y-99298571D01*
X182880000Y-99822381D02*
X182880000Y-98822381D01*
X183356191Y-98822381D01*
X183880000Y-98822381D02*
X183880000Y-99060476D01*
X183641905Y-98965238D02*
X183880000Y-99060476D01*
X184118096Y-98965238D01*
X183737143Y-99250952D02*
X183880000Y-99060476D01*
X184022858Y-99250952D01*
X184641905Y-98822381D02*
X184641905Y-99060476D01*
X184403810Y-98965238D02*
X184641905Y-99060476D01*
X184880001Y-98965238D01*
X184499048Y-99250952D02*
X184641905Y-99060476D01*
X184784763Y-99250952D01*
X191706667Y-99822381D02*
X191373333Y-99346190D01*
X191135238Y-99822381D02*
X191135238Y-98822381D01*
X191516191Y-98822381D01*
X191611429Y-98870000D01*
X191659048Y-98917619D01*
X191706667Y-99012857D01*
X191706667Y-99155714D01*
X191659048Y-99250952D01*
X191611429Y-99298571D01*
X191516191Y-99346190D01*
X191135238Y-99346190D01*
X192135238Y-99298571D02*
X192468572Y-99298571D01*
X192611429Y-99822381D02*
X192135238Y-99822381D01*
X192135238Y-98822381D01*
X192611429Y-98822381D01*
X193373334Y-99298571D02*
X193040000Y-99298571D01*
X193040000Y-99822381D02*
X193040000Y-98822381D01*
X193516191Y-98822381D01*
X194040000Y-98822381D02*
X194040000Y-99060476D01*
X193801905Y-98965238D02*
X194040000Y-99060476D01*
X194278096Y-98965238D01*
X193897143Y-99250952D02*
X194040000Y-99060476D01*
X194182858Y-99250952D01*
X194801905Y-98822381D02*
X194801905Y-99060476D01*
X194563810Y-98965238D02*
X194801905Y-99060476D01*
X195040001Y-98965238D01*
X194659048Y-99250952D02*
X194801905Y-99060476D01*
X194944763Y-99250952D01*
X151066667Y-109982381D02*
X150733333Y-109506190D01*
X150495238Y-109982381D02*
X150495238Y-108982381D01*
X150876191Y-108982381D01*
X150971429Y-109030000D01*
X151019048Y-109077619D01*
X151066667Y-109172857D01*
X151066667Y-109315714D01*
X151019048Y-109410952D01*
X150971429Y-109458571D01*
X150876191Y-109506190D01*
X150495238Y-109506190D01*
X151495238Y-109458571D02*
X151828572Y-109458571D01*
X151971429Y-109982381D02*
X151495238Y-109982381D01*
X151495238Y-108982381D01*
X151971429Y-108982381D01*
X152733334Y-109458571D02*
X152400000Y-109458571D01*
X152400000Y-109982381D02*
X152400000Y-108982381D01*
X152876191Y-108982381D01*
X153400000Y-108982381D02*
X153400000Y-109220476D01*
X153161905Y-109125238D02*
X153400000Y-109220476D01*
X153638096Y-109125238D01*
X153257143Y-109410952D02*
X153400000Y-109220476D01*
X153542858Y-109410952D01*
X154161905Y-108982381D02*
X154161905Y-109220476D01*
X153923810Y-109125238D02*
X154161905Y-109220476D01*
X154400001Y-109125238D01*
X154019048Y-109410952D02*
X154161905Y-109220476D01*
X154304763Y-109410952D01*
X161226667Y-109982381D02*
X160893333Y-109506190D01*
X160655238Y-109982381D02*
X160655238Y-108982381D01*
X161036191Y-108982381D01*
X161131429Y-109030000D01*
X161179048Y-109077619D01*
X161226667Y-109172857D01*
X161226667Y-109315714D01*
X161179048Y-109410952D01*
X161131429Y-109458571D01*
X161036191Y-109506190D01*
X160655238Y-109506190D01*
X161655238Y-109458571D02*
X161988572Y-109458571D01*
X162131429Y-109982381D02*
X161655238Y-109982381D01*
X161655238Y-108982381D01*
X162131429Y-108982381D01*
X162893334Y-109458571D02*
X162560000Y-109458571D01*
X162560000Y-109982381D02*
X162560000Y-108982381D01*
X163036191Y-108982381D01*
X163560000Y-108982381D02*
X163560000Y-109220476D01*
X163321905Y-109125238D02*
X163560000Y-109220476D01*
X163798096Y-109125238D01*
X163417143Y-109410952D02*
X163560000Y-109220476D01*
X163702858Y-109410952D01*
X164321905Y-108982381D02*
X164321905Y-109220476D01*
X164083810Y-109125238D02*
X164321905Y-109220476D01*
X164560001Y-109125238D01*
X164179048Y-109410952D02*
X164321905Y-109220476D01*
X164464763Y-109410952D01*
X171386667Y-109982381D02*
X171053333Y-109506190D01*
X170815238Y-109982381D02*
X170815238Y-108982381D01*
X171196191Y-108982381D01*
X171291429Y-109030000D01*
X171339048Y-109077619D01*
X171386667Y-109172857D01*
X171386667Y-109315714D01*
X171339048Y-109410952D01*
X171291429Y-109458571D01*
X171196191Y-109506190D01*
X170815238Y-109506190D01*
X171815238Y-109458571D02*
X172148572Y-109458571D01*
X172291429Y-109982381D02*
X171815238Y-109982381D01*
X171815238Y-108982381D01*
X172291429Y-108982381D01*
X173053334Y-109458571D02*
X172720000Y-109458571D01*
X172720000Y-109982381D02*
X172720000Y-108982381D01*
X173196191Y-108982381D01*
X173720000Y-108982381D02*
X173720000Y-109220476D01*
X173481905Y-109125238D02*
X173720000Y-109220476D01*
X173958096Y-109125238D01*
X173577143Y-109410952D02*
X173720000Y-109220476D01*
X173862858Y-109410952D01*
X174481905Y-108982381D02*
X174481905Y-109220476D01*
X174243810Y-109125238D02*
X174481905Y-109220476D01*
X174720001Y-109125238D01*
X174339048Y-109410952D02*
X174481905Y-109220476D01*
X174624763Y-109410952D01*
X181546667Y-109982381D02*
X181213333Y-109506190D01*
X180975238Y-109982381D02*
X180975238Y-108982381D01*
X181356191Y-108982381D01*
X181451429Y-109030000D01*
X181499048Y-109077619D01*
X181546667Y-109172857D01*
X181546667Y-109315714D01*
X181499048Y-109410952D01*
X181451429Y-109458571D01*
X181356191Y-109506190D01*
X180975238Y-109506190D01*
X181975238Y-109458571D02*
X182308572Y-109458571D01*
X182451429Y-109982381D02*
X181975238Y-109982381D01*
X181975238Y-108982381D01*
X182451429Y-108982381D01*
X183213334Y-109458571D02*
X182880000Y-109458571D01*
X182880000Y-109982381D02*
X182880000Y-108982381D01*
X183356191Y-108982381D01*
X183880000Y-108982381D02*
X183880000Y-109220476D01*
X183641905Y-109125238D02*
X183880000Y-109220476D01*
X184118096Y-109125238D01*
X183737143Y-109410952D02*
X183880000Y-109220476D01*
X184022858Y-109410952D01*
X184641905Y-108982381D02*
X184641905Y-109220476D01*
X184403810Y-109125238D02*
X184641905Y-109220476D01*
X184880001Y-109125238D01*
X184499048Y-109410952D02*
X184641905Y-109220476D01*
X184784763Y-109410952D01*
X191706667Y-109982381D02*
X191373333Y-109506190D01*
X191135238Y-109982381D02*
X191135238Y-108982381D01*
X191516191Y-108982381D01*
X191611429Y-109030000D01*
X191659048Y-109077619D01*
X191706667Y-109172857D01*
X191706667Y-109315714D01*
X191659048Y-109410952D01*
X191611429Y-109458571D01*
X191516191Y-109506190D01*
X191135238Y-109506190D01*
X192135238Y-109458571D02*
X192468572Y-109458571D01*
X192611429Y-109982381D02*
X192135238Y-109982381D01*
X192135238Y-108982381D01*
X192611429Y-108982381D01*
X193373334Y-109458571D02*
X193040000Y-109458571D01*
X193040000Y-109982381D02*
X193040000Y-108982381D01*
X193516191Y-108982381D01*
X194040000Y-108982381D02*
X194040000Y-109220476D01*
X193801905Y-109125238D02*
X194040000Y-109220476D01*
X194278096Y-109125238D01*
X193897143Y-109410952D02*
X194040000Y-109220476D01*
X194182858Y-109410952D01*
X194801905Y-108982381D02*
X194801905Y-109220476D01*
X194563810Y-109125238D02*
X194801905Y-109220476D01*
X195040001Y-109125238D01*
X194659048Y-109410952D02*
X194801905Y-109220476D01*
X194944763Y-109410952D01*
X152955810Y-133040381D02*
X152384381Y-133040381D01*
X152670095Y-133040381D02*
X152670095Y-132040381D01*
X152574857Y-132183238D01*
X152479619Y-132278476D01*
X152384381Y-132326095D01*
X153384381Y-133040381D02*
X153384381Y-132040381D01*
X153955810Y-133040381D02*
X153527238Y-132468952D01*
X153955810Y-132040381D02*
X153384381Y-132611810D01*
X155051048Y-133040381D02*
X155574858Y-132373714D01*
X155051048Y-132373714D02*
X155574858Y-133040381D01*
X155860572Y-132040381D02*
X156479620Y-132040381D01*
X156146286Y-132421333D01*
X156289144Y-132421333D01*
X156384382Y-132468952D01*
X156432001Y-132516571D01*
X156479620Y-132611810D01*
X156479620Y-132849905D01*
X156432001Y-132945143D01*
X156384382Y-132992762D01*
X156289144Y-133040381D01*
X156003429Y-133040381D01*
X155908191Y-132992762D01*
X155860572Y-132945143D01*
X161846191Y-126436381D02*
X161370000Y-126436381D01*
X161370000Y-125436381D01*
X162179524Y-126436381D02*
X162179524Y-125436381D01*
X162655714Y-126436381D02*
X162655714Y-125436381D01*
X163227143Y-126436381D01*
X163227143Y-125436381D01*
X163703333Y-125912571D02*
X164036667Y-125912571D01*
X164179524Y-126436381D02*
X163703333Y-126436381D01*
X163703333Y-125436381D01*
X164179524Y-125436381D01*
X165941429Y-126341143D02*
X165893810Y-126388762D01*
X165750953Y-126436381D01*
X165655715Y-126436381D01*
X165512857Y-126388762D01*
X165417619Y-126293524D01*
X165370000Y-126198286D01*
X165322381Y-126007810D01*
X165322381Y-125864952D01*
X165370000Y-125674476D01*
X165417619Y-125579238D01*
X165512857Y-125484000D01*
X165655715Y-125436381D01*
X165750953Y-125436381D01*
X165893810Y-125484000D01*
X165941429Y-125531619D01*
X166846191Y-126436381D02*
X166370000Y-126436381D01*
X166370000Y-125436381D01*
X167179524Y-125912571D02*
X167512858Y-125912571D01*
X167655715Y-126436381D02*
X167179524Y-126436381D01*
X167179524Y-125436381D01*
X167655715Y-125436381D01*
X168036667Y-126150667D02*
X168512858Y-126150667D01*
X167941429Y-126436381D02*
X168274762Y-125436381D01*
X168608096Y-126436381D01*
X169512858Y-126436381D02*
X169179524Y-125960190D01*
X168941429Y-126436381D02*
X168941429Y-125436381D01*
X169322382Y-125436381D01*
X169417620Y-125484000D01*
X169465239Y-125531619D01*
X169512858Y-125626857D01*
X169512858Y-125769714D01*
X169465239Y-125864952D01*
X169417620Y-125912571D01*
X169322382Y-125960190D01*
X168941429Y-125960190D01*
X169941429Y-125912571D02*
X170274763Y-125912571D01*
X170417620Y-126436381D02*
X169941429Y-126436381D01*
X169941429Y-125436381D01*
X170417620Y-125436381D01*
X170846191Y-126436381D02*
X170846191Y-125436381D01*
X171084286Y-125436381D01*
X171227144Y-125484000D01*
X171322382Y-125579238D01*
X171370001Y-125674476D01*
X171417620Y-125864952D01*
X171417620Y-126007810D01*
X171370001Y-126198286D01*
X171322382Y-126293524D01*
X171227144Y-126388762D01*
X171084286Y-126436381D01*
X170846191Y-126436381D01*
X161949191Y-128754143D02*
X161901572Y-128801762D01*
X161758715Y-128849381D01*
X161663477Y-128849381D01*
X161520619Y-128801762D01*
X161425381Y-128706524D01*
X161377762Y-128611286D01*
X161330143Y-128420810D01*
X161330143Y-128277952D01*
X161377762Y-128087476D01*
X161425381Y-127992238D01*
X161520619Y-127897000D01*
X161663477Y-127849381D01*
X161758715Y-127849381D01*
X161901572Y-127897000D01*
X161949191Y-127944619D01*
X162568238Y-127849381D02*
X162758715Y-127849381D01*
X162853953Y-127897000D01*
X162949191Y-127992238D01*
X162996810Y-128182714D01*
X162996810Y-128516048D01*
X162949191Y-128706524D01*
X162853953Y-128801762D01*
X162758715Y-128849381D01*
X162568238Y-128849381D01*
X162473000Y-128801762D01*
X162377762Y-128706524D01*
X162330143Y-128516048D01*
X162330143Y-128182714D01*
X162377762Y-127992238D01*
X162473000Y-127897000D01*
X162568238Y-127849381D01*
X163901572Y-128849381D02*
X163425381Y-128849381D01*
X163425381Y-127849381D01*
X164711096Y-128849381D02*
X164234905Y-128849381D01*
X164234905Y-127849381D01*
X165044429Y-128849381D02*
X165044429Y-127849381D01*
X165473000Y-128801762D02*
X165615857Y-128849381D01*
X165853953Y-128849381D01*
X165949191Y-128801762D01*
X165996810Y-128754143D01*
X166044429Y-128658905D01*
X166044429Y-128563667D01*
X165996810Y-128468429D01*
X165949191Y-128420810D01*
X165853953Y-128373190D01*
X165663476Y-128325571D01*
X165568238Y-128277952D01*
X165520619Y-128230333D01*
X165473000Y-128135095D01*
X165473000Y-128039857D01*
X165520619Y-127944619D01*
X165568238Y-127897000D01*
X165663476Y-127849381D01*
X165901572Y-127849381D01*
X166044429Y-127897000D01*
X166473000Y-128849381D02*
X166473000Y-127849381D01*
X167139666Y-127849381D02*
X167330143Y-127849381D01*
X167425381Y-127897000D01*
X167520619Y-127992238D01*
X167568238Y-128182714D01*
X167568238Y-128516048D01*
X167520619Y-128706524D01*
X167425381Y-128801762D01*
X167330143Y-128849381D01*
X167139666Y-128849381D01*
X167044428Y-128801762D01*
X166949190Y-128706524D01*
X166901571Y-128516048D01*
X166901571Y-128182714D01*
X166949190Y-127992238D01*
X167044428Y-127897000D01*
X167139666Y-127849381D01*
X167996809Y-128849381D02*
X167996809Y-127849381D01*
X168568238Y-128849381D01*
X168568238Y-127849381D01*
X161377809Y-131389381D02*
X161377809Y-130389381D01*
X161758762Y-130389381D01*
X161854000Y-130437000D01*
X161901619Y-130484619D01*
X161949238Y-130579857D01*
X161949238Y-130722714D01*
X161901619Y-130817952D01*
X161854000Y-130865571D01*
X161758762Y-130913190D01*
X161377809Y-130913190D01*
X162854000Y-131389381D02*
X162377809Y-131389381D01*
X162377809Y-130389381D01*
X163139714Y-131103667D02*
X163615905Y-131103667D01*
X163044476Y-131389381D02*
X163377809Y-130389381D01*
X163711143Y-131389381D01*
X164615905Y-131294143D02*
X164568286Y-131341762D01*
X164425429Y-131389381D01*
X164330191Y-131389381D01*
X164187333Y-131341762D01*
X164092095Y-131246524D01*
X164044476Y-131151286D01*
X163996857Y-130960810D01*
X163996857Y-130817952D01*
X164044476Y-130627476D01*
X164092095Y-130532238D01*
X164187333Y-130437000D01*
X164330191Y-130389381D01*
X164425429Y-130389381D01*
X164568286Y-130437000D01*
X164615905Y-130484619D01*
X165044476Y-130865571D02*
X165377810Y-130865571D01*
X165520667Y-131389381D02*
X165044476Y-131389381D01*
X165044476Y-130389381D01*
X165520667Y-130389381D01*
X165949238Y-131389381D02*
X165949238Y-130389381D01*
X166282572Y-131103667D01*
X166615905Y-130389381D01*
X166615905Y-131389381D01*
X167092095Y-130865571D02*
X167425429Y-130865571D01*
X167568286Y-131389381D02*
X167092095Y-131389381D01*
X167092095Y-130389381D01*
X167568286Y-130389381D01*
X167996857Y-131389381D02*
X167996857Y-130389381D01*
X168568286Y-131389381D01*
X168568286Y-130389381D01*
X168901619Y-130389381D02*
X169473048Y-130389381D01*
X169187333Y-131389381D02*
X169187333Y-130389381D01*
X177340095Y-154828762D02*
X177340095Y-152828762D01*
X177816286Y-152828762D01*
X178102000Y-152924000D01*
X178292476Y-153114476D01*
X178387715Y-153304952D01*
X178482953Y-153685905D01*
X178482953Y-153971619D01*
X178387715Y-154352571D01*
X178292476Y-154543048D01*
X178102000Y-154733524D01*
X177816286Y-154828762D01*
X177340095Y-154828762D01*
X179721048Y-152828762D02*
X180102000Y-152828762D01*
X180292476Y-152924000D01*
X180482953Y-153114476D01*
X180578191Y-153495429D01*
X180578191Y-154162095D01*
X180482953Y-154543048D01*
X180292476Y-154733524D01*
X180102000Y-154828762D01*
X179721048Y-154828762D01*
X179530572Y-154733524D01*
X179340095Y-154543048D01*
X179244857Y-154162095D01*
X179244857Y-153495429D01*
X179340095Y-153114476D01*
X179530572Y-152924000D01*
X179721048Y-152828762D01*
X181244857Y-152828762D02*
X181721048Y-154828762D01*
X182102000Y-153400190D01*
X182482953Y-154828762D01*
X182959143Y-152828762D01*
X183721047Y-154828762D02*
X183721047Y-152828762D01*
X184863905Y-154828762D01*
X184863905Y-152828762D01*
X175335237Y-138604762D02*
X174382856Y-138604762D01*
X174382856Y-136604762D01*
X176001904Y-137557143D02*
X176668571Y-137557143D01*
X176954285Y-138604762D02*
X176001904Y-138604762D01*
X176001904Y-136604762D01*
X176954285Y-136604762D01*
X178478095Y-137557143D02*
X177811428Y-137557143D01*
X177811428Y-138604762D02*
X177811428Y-136604762D01*
X178763809Y-136604762D01*
X179240000Y-136604762D02*
X180382857Y-136604762D01*
X179811429Y-138604762D02*
X179811429Y-136604762D01*
X184733334Y-138604762D02*
X184066667Y-137652381D01*
X183590476Y-138604762D02*
X183590476Y-136604762D01*
X184352381Y-136604762D01*
X184542857Y-136700000D01*
X184638096Y-136795238D01*
X184733334Y-136985714D01*
X184733334Y-137271429D01*
X184638096Y-137461905D01*
X184542857Y-137557143D01*
X184352381Y-137652381D01*
X183590476Y-137652381D01*
X185590476Y-138604762D02*
X185590476Y-136604762D01*
X187590477Y-136700000D02*
X187400000Y-136604762D01*
X187114286Y-136604762D01*
X186828572Y-136700000D01*
X186638096Y-136890476D01*
X186542857Y-137080952D01*
X186447619Y-137461905D01*
X186447619Y-137747619D01*
X186542857Y-138128571D01*
X186638096Y-138319048D01*
X186828572Y-138509524D01*
X187114286Y-138604762D01*
X187304762Y-138604762D01*
X187590477Y-138509524D01*
X187685715Y-138414286D01*
X187685715Y-137747619D01*
X187304762Y-137747619D01*
X188542857Y-138604762D02*
X188542857Y-136604762D01*
X188542857Y-137557143D02*
X189685715Y-137557143D01*
X189685715Y-138604762D02*
X189685715Y-136604762D01*
X190352381Y-136604762D02*
X191495238Y-136604762D01*
X190923810Y-138604762D02*
X190923810Y-136604762D01*
X104425715Y-138378571D02*
X103925715Y-137664286D01*
X103568572Y-138378571D02*
X103568572Y-136878571D01*
X104140000Y-136878571D01*
X104282858Y-136950000D01*
X104354286Y-137021429D01*
X104425715Y-137164286D01*
X104425715Y-137378571D01*
X104354286Y-137521429D01*
X104282858Y-137592857D01*
X104140000Y-137664286D01*
X103568572Y-137664286D01*
X105068572Y-138235714D02*
X105140000Y-138307143D01*
X105068572Y-138378571D01*
X104997143Y-138307143D01*
X105068572Y-138235714D01*
X105068572Y-138378571D01*
X107640001Y-138378571D02*
X106925715Y-138378571D01*
X106925715Y-136878571D01*
X108140001Y-137592857D02*
X108640001Y-137592857D01*
X108854287Y-138378571D02*
X108140001Y-138378571D01*
X108140001Y-136878571D01*
X108854287Y-136878571D01*
X109997144Y-137592857D02*
X109497144Y-137592857D01*
X109497144Y-138378571D02*
X109497144Y-136878571D01*
X110211430Y-136878571D01*
X110568572Y-136878571D02*
X111425715Y-136878571D01*
X110997144Y-138378571D02*
X110997144Y-136878571D01*
X113871429Y-138378571D02*
X113371429Y-137664286D01*
X113014286Y-138378571D02*
X113014286Y-136878571D01*
X113585714Y-136878571D01*
X113728572Y-136950000D01*
X113800000Y-137021429D01*
X113871429Y-137164286D01*
X113871429Y-137378571D01*
X113800000Y-137521429D01*
X113728572Y-137592857D01*
X113585714Y-137664286D01*
X113014286Y-137664286D01*
X114514286Y-138235714D02*
X114585714Y-138307143D01*
X114514286Y-138378571D01*
X114442857Y-138307143D01*
X114514286Y-138235714D01*
X114514286Y-138378571D01*
X117228572Y-138378571D02*
X116728572Y-137664286D01*
X116371429Y-138378571D02*
X116371429Y-136878571D01*
X116942857Y-136878571D01*
X117085715Y-136950000D01*
X117157143Y-137021429D01*
X117228572Y-137164286D01*
X117228572Y-137378571D01*
X117157143Y-137521429D01*
X117085715Y-137592857D01*
X116942857Y-137664286D01*
X116371429Y-137664286D01*
X117871429Y-138378571D02*
X117871429Y-136878571D01*
X119371429Y-136950000D02*
X119228572Y-136878571D01*
X119014286Y-136878571D01*
X118800001Y-136950000D01*
X118657143Y-137092857D01*
X118585715Y-137235714D01*
X118514286Y-137521429D01*
X118514286Y-137735714D01*
X118585715Y-138021429D01*
X118657143Y-138164286D01*
X118800001Y-138307143D01*
X119014286Y-138378571D01*
X119157143Y-138378571D01*
X119371429Y-138307143D01*
X119442858Y-138235714D01*
X119442858Y-137735714D01*
X119157143Y-137735714D01*
X120085715Y-138378571D02*
X120085715Y-136878571D01*
X120085715Y-137592857D02*
X120942858Y-137592857D01*
X120942858Y-138378571D02*
X120942858Y-136878571D01*
X121442858Y-136878571D02*
X122300001Y-136878571D01*
X121871430Y-138378571D02*
X121871430Y-136878571D01*
X154820953Y-119402381D02*
X154249524Y-119402381D01*
X154535238Y-119402381D02*
X154535238Y-118402381D01*
X154440000Y-118545238D01*
X154344762Y-118640476D01*
X154249524Y-118688095D01*
X155249524Y-119402381D02*
X155249524Y-118402381D01*
X155344762Y-119021429D02*
X155630477Y-119402381D01*
X155630477Y-118735714D02*
X155249524Y-119116667D01*
X164567381Y-143141428D02*
X164567381Y-143712857D01*
X164567381Y-143427143D02*
X163567381Y-143427143D01*
X163710238Y-143522381D01*
X163805476Y-143617619D01*
X163853095Y-143712857D01*
X163567381Y-142284285D02*
X163567381Y-142474762D01*
X163615000Y-142570000D01*
X163662619Y-142617619D01*
X163805476Y-142712857D01*
X163995952Y-142760476D01*
X164376905Y-142760476D01*
X164472143Y-142712857D01*
X164519762Y-142665238D01*
X164567381Y-142570000D01*
X164567381Y-142379523D01*
X164519762Y-142284285D01*
X164472143Y-142236666D01*
X164376905Y-142189047D01*
X164138810Y-142189047D01*
X164043571Y-142236666D01*
X163995952Y-142284285D01*
X163948333Y-142379523D01*
X163948333Y-142570000D01*
X163995952Y-142665238D01*
X164043571Y-142712857D01*
X164138810Y-142760476D01*
X164567381Y-141760476D02*
X163567381Y-141760476D01*
X164281667Y-141427142D01*
X163567381Y-141093809D01*
X164567381Y-141093809D01*
X164567381Y-140617619D02*
X163567381Y-140617619D01*
X164043571Y-140617619D02*
X164043571Y-140046190D01*
X164567381Y-140046190D02*
X163567381Y-140046190D01*
X163900714Y-139665238D02*
X163900714Y-139141428D01*
X164567381Y-139665238D01*
X164567381Y-139141428D01*
X155017619Y-140112857D02*
X154970000Y-140065238D01*
X154922381Y-139970000D01*
X154922381Y-139731904D01*
X154970000Y-139636666D01*
X155017619Y-139589047D01*
X155112857Y-139541428D01*
X155208095Y-139541428D01*
X155350952Y-139589047D01*
X155922381Y-140160476D01*
X155922381Y-139541428D01*
X155017619Y-139160476D02*
X154970000Y-139112857D01*
X154922381Y-139017619D01*
X154922381Y-138779523D01*
X154970000Y-138684285D01*
X155017619Y-138636666D01*
X155112857Y-138589047D01*
X155208095Y-138589047D01*
X155350952Y-138636666D01*
X155922381Y-139208095D01*
X155922381Y-138589047D01*
X155255714Y-137731904D02*
X155922381Y-137731904D01*
X155255714Y-138160476D02*
X155779524Y-138160476D01*
X155874762Y-138112857D01*
X155922381Y-138017619D01*
X155922381Y-137874761D01*
X155874762Y-137779523D01*
X155827143Y-137731904D01*
X155398571Y-136922380D02*
X155398571Y-137255714D01*
X155922381Y-137255714D02*
X154922381Y-137255714D01*
X154922381Y-136779523D01*
X162758572Y-119352381D02*
X162187143Y-119352381D01*
X162472857Y-119352381D02*
X162472857Y-118352381D01*
X162377619Y-118495238D01*
X162282381Y-118590476D01*
X162187143Y-118638095D01*
X163377619Y-118352381D02*
X163472858Y-118352381D01*
X163568096Y-118400000D01*
X163615715Y-118447619D01*
X163663334Y-118542857D01*
X163710953Y-118733333D01*
X163710953Y-118971429D01*
X163663334Y-119161905D01*
X163615715Y-119257143D01*
X163568096Y-119304762D01*
X163472858Y-119352381D01*
X163377619Y-119352381D01*
X163282381Y-119304762D01*
X163234762Y-119257143D01*
X163187143Y-119161905D01*
X163139524Y-118971429D01*
X163139524Y-118733333D01*
X163187143Y-118542857D01*
X163234762Y-118447619D01*
X163282381Y-118400000D01*
X163377619Y-118352381D01*
X164568096Y-118685714D02*
X164568096Y-119352381D01*
X164139524Y-118685714D02*
X164139524Y-119209524D01*
X164187143Y-119304762D01*
X164282381Y-119352381D01*
X164425239Y-119352381D01*
X164520477Y-119304762D01*
X164568096Y-119257143D01*
X165377620Y-118828571D02*
X165044286Y-118828571D01*
X165044286Y-119352381D02*
X165044286Y-118352381D01*
X165520477Y-118352381D01*
X129885238Y-142414762D02*
X129218571Y-141462381D01*
X128742380Y-142414762D02*
X128742380Y-140414762D01*
X129504285Y-140414762D01*
X129694761Y-140510000D01*
X129790000Y-140605238D01*
X129885238Y-140795714D01*
X129885238Y-141081429D01*
X129790000Y-141271905D01*
X129694761Y-141367143D01*
X129504285Y-141462381D01*
X128742380Y-141462381D01*
X130742380Y-141367143D02*
X131409047Y-141367143D01*
X131694761Y-142414762D02*
X130742380Y-142414762D01*
X130742380Y-140414762D01*
X131694761Y-140414762D01*
X132456666Y-142319524D02*
X132742381Y-142414762D01*
X133218571Y-142414762D01*
X133409047Y-142319524D01*
X133504285Y-142224286D01*
X133599524Y-142033810D01*
X133599524Y-141843333D01*
X133504285Y-141652857D01*
X133409047Y-141557619D01*
X133218571Y-141462381D01*
X132837619Y-141367143D01*
X132647143Y-141271905D01*
X132551904Y-141176667D01*
X132456666Y-140986190D01*
X132456666Y-140795714D01*
X132551904Y-140605238D01*
X132647143Y-140510000D01*
X132837619Y-140414762D01*
X133313809Y-140414762D01*
X133599524Y-140510000D01*
X134456666Y-141367143D02*
X135123333Y-141367143D01*
X135409047Y-142414762D02*
X134456666Y-142414762D01*
X134456666Y-140414762D01*
X135409047Y-140414762D01*
X135980476Y-140414762D02*
X137123333Y-140414762D01*
X136551905Y-142414762D02*
X136551905Y-140414762D01*
X121729524Y-126452381D02*
X121253333Y-126452381D01*
X121205714Y-126928571D01*
X121253333Y-126880952D01*
X121348571Y-126833333D01*
X121586667Y-126833333D01*
X121681905Y-126880952D01*
X121729524Y-126928571D01*
X121777143Y-127023810D01*
X121777143Y-127261905D01*
X121729524Y-127357143D01*
X121681905Y-127404762D01*
X121586667Y-127452381D01*
X121348571Y-127452381D01*
X121253333Y-127404762D01*
X121205714Y-127357143D01*
X122062857Y-126452381D02*
X122396190Y-127452381D01*
X122729524Y-126452381D01*
X155995715Y-144802381D02*
X155424286Y-144802381D01*
X155710000Y-144802381D02*
X155710000Y-143802381D01*
X155614762Y-143945238D01*
X155519524Y-144040476D01*
X155424286Y-144088095D01*
X156424286Y-144802381D02*
X156424286Y-143802381D01*
X156995715Y-144802381D02*
X156567143Y-144230952D01*
X156995715Y-143802381D02*
X156424286Y-144373810D01*
X170216143Y-133957143D02*
X170430429Y-134028571D01*
X170787572Y-134028571D01*
X170930429Y-133957143D01*
X171001858Y-133885714D01*
X171073286Y-133742857D01*
X171073286Y-133600000D01*
X171001858Y-133457143D01*
X170930429Y-133385714D01*
X170787572Y-133314286D01*
X170501858Y-133242857D01*
X170359000Y-133171429D01*
X170287572Y-133100000D01*
X170216143Y-132957143D01*
X170216143Y-132814286D01*
X170287572Y-132671429D01*
X170359000Y-132600000D01*
X170501858Y-132528571D01*
X170859000Y-132528571D01*
X171073286Y-132600000D01*
X172573286Y-133885714D02*
X172501857Y-133957143D01*
X172287571Y-134028571D01*
X172144714Y-134028571D01*
X171930429Y-133957143D01*
X171787571Y-133814286D01*
X171716143Y-133671429D01*
X171644714Y-133385714D01*
X171644714Y-133171429D01*
X171716143Y-132885714D01*
X171787571Y-132742857D01*
X171930429Y-132600000D01*
X172144714Y-132528571D01*
X172287571Y-132528571D01*
X172501857Y-132600000D01*
X172573286Y-132671429D01*
X173501857Y-132528571D02*
X173787571Y-132528571D01*
X173930429Y-132600000D01*
X174073286Y-132742857D01*
X174144714Y-133028571D01*
X174144714Y-133528571D01*
X174073286Y-133814286D01*
X173930429Y-133957143D01*
X173787571Y-134028571D01*
X173501857Y-134028571D01*
X173359000Y-133957143D01*
X173216143Y-133814286D01*
X173144714Y-133528571D01*
X173144714Y-133028571D01*
X173216143Y-132742857D01*
X173359000Y-132600000D01*
X173501857Y-132528571D01*
X175644715Y-134028571D02*
X175144715Y-133314286D01*
X174787572Y-134028571D02*
X174787572Y-132528571D01*
X175359000Y-132528571D01*
X175501858Y-132600000D01*
X175573286Y-132671429D01*
X175644715Y-132814286D01*
X175644715Y-133028571D01*
X175573286Y-133171429D01*
X175501858Y-133242857D01*
X175359000Y-133314286D01*
X174787572Y-133314286D01*
X176287572Y-133242857D02*
X176787572Y-133242857D01*
X177001858Y-134028571D02*
X176287572Y-134028571D01*
X176287572Y-132528571D01*
X177001858Y-132528571D01*
X141366762Y-130349048D02*
X139366762Y-130349048D01*
X139366762Y-129587143D01*
X139462000Y-129396667D01*
X139557238Y-129301428D01*
X139747714Y-129206190D01*
X140033429Y-129206190D01*
X140223905Y-129301428D01*
X140319143Y-129396667D01*
X140414381Y-129587143D01*
X140414381Y-130349048D01*
X139366762Y-127968095D02*
X139366762Y-127587143D01*
X139462000Y-127396667D01*
X139652476Y-127206190D01*
X140033429Y-127110952D01*
X140700095Y-127110952D01*
X141081048Y-127206190D01*
X141271524Y-127396667D01*
X141366762Y-127587143D01*
X141366762Y-127968095D01*
X141271524Y-128158571D01*
X141081048Y-128349048D01*
X140700095Y-128444286D01*
X140033429Y-128444286D01*
X139652476Y-128349048D01*
X139462000Y-128158571D01*
X139366762Y-127968095D01*
X139366762Y-126444286D02*
X141366762Y-125968095D01*
X139938190Y-125587143D01*
X141366762Y-125206190D01*
X139366762Y-124730000D01*
X140319143Y-123968096D02*
X140319143Y-123301429D01*
X141366762Y-123015715D02*
X141366762Y-123968096D01*
X139366762Y-123968096D01*
X139366762Y-123015715D01*
X141366762Y-121015714D02*
X140414381Y-121682381D01*
X141366762Y-122158572D02*
X139366762Y-122158572D01*
X139366762Y-121396667D01*
X139462000Y-121206191D01*
X139557238Y-121110952D01*
X139747714Y-121015714D01*
X140033429Y-121015714D01*
X140223905Y-121110952D01*
X140319143Y-121206191D01*
X140414381Y-121396667D01*
X140414381Y-122158572D01*
M02*
