M48
;DRILL file {KiCad 4.0.6} date 11/05/17 12:45:24
;FORMAT={-:-/ absolute / metric / decimal}
FMAT,2
METRIC,TZ
T1C0.800
T2C0.800
T3C1.000
T4C1.100
%
G90
G05
M71
T1
X143.51Y-120.65
X143.51Y-123.19
X143.51Y-125.73
X143.51Y-128.27
X143.51Y-130.81
X143.51Y-133.35
X143.51Y-135.89
X143.51Y-138.43
X143.51Y-140.97
X143.51Y-143.51
X143.51Y-146.05
X143.51Y-148.59
X143.51Y-151.13
X143.51Y-153.67
X151.13Y-120.65
X151.13Y-123.19
X151.13Y-125.73
X151.13Y-128.27
X151.13Y-130.81
X151.13Y-133.35
X151.13Y-135.89
X151.13Y-138.43
X151.13Y-140.97
X151.13Y-143.51
X151.13Y-146.05
X151.13Y-148.59
X151.13Y-151.13
X151.13Y-153.67
X157.48Y-135.97
X157.48Y-140.97
X160.02Y-138.51
X160.02Y-143.51
X167.64Y-138.63
X167.64Y-143.51
T2
X120.015Y-130.81
X123.825Y-130.81
T3
X137.16Y-123.19
X137.16Y-125.73
X137.16Y-128.27
T4
X104.14Y-139.7
X104.14Y-144.2
X110.64Y-139.7
X110.64Y-144.2
X114.3Y-139.7
X114.3Y-144.2
X120.8Y-139.7
X120.8Y-144.2
X129.54Y-143.51
X129.54Y-148.01
X136.04Y-143.51
X136.04Y-148.01
X173.99Y-139.7
X173.99Y-144.2
X177.8Y-147.32
X177.8Y-151.82
X180.49Y-139.7
X180.49Y-144.2
X184.15Y-139.7
X184.15Y-144.2
X184.3Y-147.32
X184.3Y-151.82
X190.65Y-139.7
X190.65Y-144.2
T0
M30
