M48
;DRILL file {KiCad 4.0.6} date 04/14/18 17:05:06
;FORMAT={-:-/ absolute / metric / decimal}
FMAT,2
METRIC,TZ
T1C0.400
T2C0.800
T3C0.800
T4C1.000
T5C1.100
%
G90
G05
M71
T1
X59.96Y-160.709
X60.833Y-74.422
X60.833Y-82.423
X60.833Y-90.424
X60.833Y-98.425
X60.833Y-106.426
X60.833Y-114.427
X60.833Y-122.428
X60.833Y-130.429
X60.833Y-138.43
X63.968Y-163.46
X65.278Y-66.929
X65.278Y-68.58
X65.278Y-70.231
X65.278Y-74.93
X65.278Y-76.581
X65.278Y-78.232
X65.278Y-82.931
X65.278Y-84.582
X65.278Y-86.233
X65.278Y-90.932
X65.278Y-92.583
X65.278Y-94.234
X65.278Y-98.933
X65.278Y-100.584
X65.278Y-102.235
X65.278Y-106.934
X65.278Y-108.585
X65.278Y-110.236
X65.278Y-114.935
X65.278Y-116.586
X65.278Y-118.237
X65.278Y-122.936
X65.278Y-124.587
X65.278Y-126.238
X65.278Y-130.937
X65.278Y-132.588
X65.278Y-134.239
X65.278Y-138.938
X65.278Y-142.24
X68.168Y-161.63
X68.339Y-158.585
X69.959Y-155.487
X70.95Y-155.464
X71.07Y-161.61
X71.12Y-163.389
X72.39Y-145.5
X73.279Y-66.929
X73.279Y-70.231
X73.279Y-74.93
X73.279Y-78.232
X73.279Y-82.931
X73.279Y-86.233
X73.279Y-90.932
X73.279Y-94.234
X73.279Y-98.933
X73.279Y-102.235
X73.279Y-106.934
X73.279Y-110.236
X73.279Y-114.935
X73.279Y-118.237
X73.279Y-122.936
X73.279Y-126.238
X73.279Y-130.937
X73.279Y-134.239
X73.279Y-138.938
X73.279Y-142.24
X76.291Y-159.308
X78.4Y-155.5
X79.814Y-159.364
X81.153Y-66.929
X81.153Y-74.93
X81.153Y-82.931
X81.153Y-90.932
X81.153Y-98.933
X81.153Y-106.934
X81.153Y-114.935
X81.153Y-122.936
X81.153Y-130.937
X81.153Y-138.938
X81.28Y-70.231
X81.28Y-78.232
X81.28Y-86.233
X81.28Y-94.234
X81.28Y-102.235
X81.28Y-110.236
X81.28Y-118.237
X81.28Y-126.238
X81.28Y-134.239
X81.28Y-142.24
X81.28Y-149.301
X81.28Y-155.188
X82.72Y-155.427
X84.16Y-155.459
X86.115Y-156.746
X86.282Y-159.3
X87.29Y-149.331
X89.281Y-66.929
X89.281Y-70.231
X89.281Y-74.93
X89.281Y-78.232
X89.281Y-82.931
X89.281Y-86.233
X89.281Y-90.932
X89.281Y-94.234
X89.281Y-98.933
X89.281Y-102.235
X89.281Y-106.934
X89.281Y-110.236
X89.281Y-114.935
X89.281Y-118.237
X89.281Y-122.936
X89.281Y-126.238
X89.281Y-130.937
X89.281Y-134.239
X89.281Y-138.938
X89.281Y-142.24
X89.453Y-150.218
X91.61Y-154.549
X93.077Y-155.447
X95.608Y-159.794
X96.441Y-159.047
X97.231Y-66.98
X97.231Y-74.981
X97.231Y-82.982
X97.231Y-90.983
X97.231Y-98.984
X97.231Y-106.985
X97.231Y-114.986
X97.231Y-122.987
X97.231Y-130.988
X97.231Y-138.989
X97.282Y-70.231
X97.282Y-78.232
X97.282Y-86.233
X97.282Y-94.234
X97.282Y-102.235
X97.282Y-110.236
X97.282Y-118.237
X97.282Y-126.238
X97.282Y-134.239
X97.282Y-142.24
X101.139Y-157.683
X102.058Y-157.538
X105.156Y-66.929
X105.156Y-70.231
X105.156Y-74.93
X105.156Y-78.232
X105.156Y-82.931
X105.156Y-86.233
X105.156Y-90.932
X105.156Y-94.234
X105.156Y-98.933
X105.156Y-102.235
X105.156Y-106.934
X105.156Y-110.236
X105.156Y-114.935
X105.156Y-118.237
X105.156Y-122.936
X105.156Y-126.238
X105.156Y-130.937
X105.156Y-134.239
X105.156Y-138.938
X105.156Y-142.24
X105.199Y-165.353
X107.006Y-158.091
X109.601Y-159.386
X112.141Y-159.132
X112.2Y-157.192
X113.157Y-66.929
X113.157Y-74.93
X113.157Y-82.931
X113.157Y-90.932
X113.157Y-98.933
X113.157Y-106.934
X113.157Y-114.935
X113.157Y-122.936
X113.157Y-130.937
X113.157Y-138.938
X113.284Y-70.231
X113.284Y-78.232
X113.284Y-86.233
X113.284Y-94.234
X113.284Y-102.235
X113.284Y-110.236
X113.284Y-118.237
X113.284Y-126.238
X113.284Y-134.239
X113.284Y-142.24
X114.741Y-156.897
X116.843Y-173.791
X119.702Y-157.047
X119.888Y-153.416
X121.031Y-67.056
X121.031Y-75.057
X121.031Y-83.058
X121.031Y-91.059
X121.031Y-99.06
X121.031Y-107.061
X121.031Y-115.062
X121.031Y-123.063
X121.031Y-131.064
X121.031Y-139.065
X121.158Y-70.231
X121.158Y-78.232
X121.158Y-86.233
X121.158Y-94.234
X121.158Y-102.235
X121.158Y-110.236
X121.158Y-118.237
X121.158Y-126.238
X121.158Y-134.239
X121.158Y-142.24
X129.159Y-66.929
X129.159Y-74.93
X129.159Y-82.931
X129.159Y-90.932
X129.159Y-98.933
X129.159Y-106.934
X129.159Y-114.935
X129.159Y-122.936
X129.159Y-130.937
X129.159Y-138.938
X129.286Y-70.231
X129.286Y-78.232
X129.286Y-86.233
X129.286Y-94.234
X129.286Y-102.235
X129.286Y-110.236
X129.286Y-118.237
X129.286Y-126.238
X129.286Y-134.239
X129.286Y-142.24
X137.287Y-70.231
X137.287Y-78.232
X137.287Y-86.233
X137.287Y-94.234
X137.287Y-102.235
X137.287Y-110.236
X137.287Y-118.237
X137.287Y-126.238
X137.287Y-134.239
X137.287Y-142.24
X137.414Y-67.056
X137.414Y-75.057
X137.414Y-83.058
X137.414Y-91.059
X137.414Y-99.06
X137.414Y-107.061
X137.414Y-115.062
X137.414Y-123.063
X137.414Y-131.064
X137.414Y-139.065
X139.827Y-72.771
X139.827Y-80.772
X139.827Y-88.773
X139.827Y-96.774
X139.827Y-104.775
X139.827Y-112.776
X139.827Y-120.777
X139.827Y-128.778
X139.827Y-136.779
T2
X85.471Y-163.703
X85.471Y-171.323
X88.011Y-163.703
X88.011Y-171.323
X90.551Y-163.703
X90.551Y-171.323
X93.091Y-163.703
X93.091Y-171.323
X95.631Y-163.703
X95.631Y-171.323
X98.171Y-163.703
X98.171Y-171.323
X100.711Y-163.703
X100.711Y-171.323
X103.251Y-163.703
X103.251Y-171.323
X105.791Y-163.703
X105.791Y-171.323
X108.331Y-163.703
X108.331Y-171.323
X110.871Y-163.703
X110.871Y-171.323
X113.411Y-163.703
X113.411Y-171.323
X115.951Y-163.703
X115.951Y-171.323
X118.491Y-163.703
X118.491Y-171.323
T3
X142.24Y-67.437
T4
X89.408Y-178.816
X89.408Y-181.356
X91.948Y-178.816
X91.948Y-181.356
X94.488Y-178.816
X94.488Y-181.356
X97.028Y-178.816
X97.028Y-181.356
X99.568Y-178.816
X99.568Y-181.356
X129.54Y-146.05
X132.08Y-146.05
X136.017Y-146.05
X138.557Y-146.05
X141.097Y-146.05
T5
X62.23Y-169.672
X62.23Y-174.172
X68.73Y-169.672
X68.73Y-174.172
X73.66Y-169.672
X73.66Y-174.172
X80.16Y-169.672
X80.16Y-174.172
X123.444Y-164.084
X123.444Y-168.584
X129.794Y-155.194
X129.794Y-159.694
X129.794Y-172.974
X129.794Y-177.474
X129.944Y-164.084
X129.944Y-168.584
X136.144Y-164.084
X136.144Y-168.584
X136.294Y-155.194
X136.294Y-159.694
X136.294Y-172.974
X136.294Y-177.474
X142.644Y-164.084
X142.644Y-168.584
T0
M30
