G04 #@! TF.FileFunction,Soldermask,Bot*
%FSLAX46Y46*%
G04 Gerber Fmt 4.6, Leading zero omitted, Abs format (unit mm)*
G04 Created by KiCad (PCBNEW 4.0.6) date 04/14/18 17:05:04*
%MOMM*%
%LPD*%
G01*
G04 APERTURE LIST*
%ADD10C,0.100000*%
%ADD11R,2.000000X2.800000*%
%ADD12O,2.000000X2.800000*%
%ADD13C,2.398980*%
%ADD14R,2.100000X2.100000*%
%ADD15O,2.100000X2.100000*%
%ADD16C,2.400000*%
G04 APERTURE END LIST*
D10*
D11*
X118491000Y-163703000D03*
D12*
X85471000Y-171323000D03*
X115951000Y-163703000D03*
X88011000Y-171323000D03*
X113411000Y-163703000D03*
X90551000Y-171323000D03*
X110871000Y-163703000D03*
X93091000Y-171323000D03*
X108331000Y-163703000D03*
X95631000Y-171323000D03*
X105791000Y-163703000D03*
X98171000Y-171323000D03*
X103251000Y-163703000D03*
X100711000Y-171323000D03*
X100711000Y-163703000D03*
X103251000Y-171323000D03*
X98171000Y-163703000D03*
X105791000Y-171323000D03*
X95631000Y-163703000D03*
X108331000Y-171323000D03*
X93091000Y-163703000D03*
X110871000Y-171323000D03*
X90551000Y-163703000D03*
X113411000Y-171323000D03*
X88011000Y-163703000D03*
X115951000Y-171323000D03*
X85471000Y-163703000D03*
X118491000Y-171323000D03*
D13*
X142240000Y-67437000D03*
D14*
X136017000Y-146050000D03*
D15*
X138557000Y-146050000D03*
X141097000Y-146050000D03*
D16*
X123444000Y-168584000D03*
X123444000Y-164084000D03*
X129944000Y-168584000D03*
X129944000Y-164084000D03*
X136144000Y-168584000D03*
X136144000Y-164084000D03*
X142644000Y-168584000D03*
X142644000Y-164084000D03*
X129794000Y-159694000D03*
X129794000Y-155194000D03*
X136294000Y-159694000D03*
X136294000Y-155194000D03*
X129794000Y-177474000D03*
X129794000Y-172974000D03*
X136294000Y-177474000D03*
X136294000Y-172974000D03*
X62230000Y-174172000D03*
X62230000Y-169672000D03*
X68730000Y-174172000D03*
X68730000Y-169672000D03*
X73660000Y-174172000D03*
X73660000Y-169672000D03*
X80160000Y-174172000D03*
X80160000Y-169672000D03*
D14*
X129540000Y-146050000D03*
D15*
X132080000Y-146050000D03*
D14*
X99568000Y-178816000D03*
D15*
X99568000Y-181356000D03*
X97028000Y-178816000D03*
X97028000Y-181356000D03*
X94488000Y-178816000D03*
X94488000Y-181356000D03*
X91948000Y-178816000D03*
X91948000Y-181356000D03*
X89408000Y-178816000D03*
X89408000Y-181356000D03*
M02*
