G04 #@! TF.FileFunction,Copper,L2,Bot,Signal*
%FSLAX46Y46*%
G04 Gerber Fmt 4.6, Leading zero omitted, Abs format (unit mm)*
G04 Created by KiCad (PCBNEW 4.0.6) date 04/14/18 17:05:02*
%MOMM*%
%LPD*%
G01*
G04 APERTURE LIST*
%ADD10C,0.100000*%
%ADD11C,0.150000*%
%ADD12C,0.381000*%
%ADD13R,1.600000X2.400000*%
%ADD14O,1.600000X2.400000*%
%ADD15C,1.998980*%
%ADD16R,1.700000X1.700000*%
%ADD17O,1.700000X1.700000*%
%ADD18C,2.000000*%
%ADD19C,0.600000*%
%ADD20C,0.500000*%
%ADD21C,0.200000*%
G04 APERTURE END LIST*
D10*
D11*
X74120476Y-183682143D02*
X74168095Y-183729762D01*
X74310952Y-183777381D01*
X74406190Y-183777381D01*
X74549048Y-183729762D01*
X74644286Y-183634524D01*
X74691905Y-183539286D01*
X74739524Y-183348810D01*
X74739524Y-183205952D01*
X74691905Y-183015476D01*
X74644286Y-182920238D01*
X74549048Y-182825000D01*
X74406190Y-182777381D01*
X74310952Y-182777381D01*
X74168095Y-182825000D01*
X74120476Y-182872619D01*
X73549048Y-183777381D02*
X73644286Y-183729762D01*
X73691905Y-183682143D01*
X73739524Y-183586905D01*
X73739524Y-183301190D01*
X73691905Y-183205952D01*
X73644286Y-183158333D01*
X73549048Y-183110714D01*
X73406190Y-183110714D01*
X73310952Y-183158333D01*
X73263333Y-183205952D01*
X73215714Y-183301190D01*
X73215714Y-183586905D01*
X73263333Y-183682143D01*
X73310952Y-183729762D01*
X73406190Y-183777381D01*
X73549048Y-183777381D01*
X72787143Y-183110714D02*
X72787143Y-183777381D01*
X72787143Y-183205952D02*
X72739524Y-183158333D01*
X72644286Y-183110714D01*
X72501428Y-183110714D01*
X72406190Y-183158333D01*
X72358571Y-183253571D01*
X72358571Y-183777381D01*
X72025238Y-183110714D02*
X71644286Y-183110714D01*
X71882381Y-182777381D02*
X71882381Y-183634524D01*
X71834762Y-183729762D01*
X71739524Y-183777381D01*
X71644286Y-183777381D01*
X70882380Y-183777381D02*
X70882380Y-183253571D01*
X70929999Y-183158333D01*
X71025237Y-183110714D01*
X71215714Y-183110714D01*
X71310952Y-183158333D01*
X70882380Y-183729762D02*
X70977618Y-183777381D01*
X71215714Y-183777381D01*
X71310952Y-183729762D01*
X71358571Y-183634524D01*
X71358571Y-183539286D01*
X71310952Y-183444048D01*
X71215714Y-183396429D01*
X70977618Y-183396429D01*
X70882380Y-183348810D01*
X70406190Y-183777381D02*
X70406190Y-183110714D01*
X70406190Y-182777381D02*
X70453809Y-182825000D01*
X70406190Y-182872619D01*
X70358571Y-182825000D01*
X70406190Y-182777381D01*
X70406190Y-182872619D01*
X69930000Y-183110714D02*
X69930000Y-183777381D01*
X69930000Y-183205952D02*
X69882381Y-183158333D01*
X69787143Y-183110714D01*
X69644285Y-183110714D01*
X69549047Y-183158333D01*
X69501428Y-183253571D01*
X69501428Y-183777381D01*
X69072857Y-183729762D02*
X68977619Y-183777381D01*
X68787143Y-183777381D01*
X68691904Y-183729762D01*
X68644285Y-183634524D01*
X68644285Y-183586905D01*
X68691904Y-183491667D01*
X68787143Y-183444048D01*
X68930000Y-183444048D01*
X69025238Y-183396429D01*
X69072857Y-183301190D01*
X69072857Y-183253571D01*
X69025238Y-183158333D01*
X68930000Y-183110714D01*
X68787143Y-183110714D01*
X68691904Y-183158333D01*
X74215714Y-185427381D02*
X74691905Y-185427381D01*
X74691905Y-184427381D01*
X73501428Y-185379762D02*
X73596666Y-185427381D01*
X73787143Y-185427381D01*
X73882381Y-185379762D01*
X73930000Y-185284524D01*
X73930000Y-184903571D01*
X73882381Y-184808333D01*
X73787143Y-184760714D01*
X73596666Y-184760714D01*
X73501428Y-184808333D01*
X73453809Y-184903571D01*
X73453809Y-184998810D01*
X73930000Y-185094048D01*
X72596666Y-185427381D02*
X72596666Y-184903571D01*
X72644285Y-184808333D01*
X72739523Y-184760714D01*
X72930000Y-184760714D01*
X73025238Y-184808333D01*
X72596666Y-185379762D02*
X72691904Y-185427381D01*
X72930000Y-185427381D01*
X73025238Y-185379762D01*
X73072857Y-185284524D01*
X73072857Y-185189286D01*
X73025238Y-185094048D01*
X72930000Y-185046429D01*
X72691904Y-185046429D01*
X72596666Y-184998810D01*
X71691904Y-185427381D02*
X71691904Y-184427381D01*
X71691904Y-185379762D02*
X71787142Y-185427381D01*
X71977619Y-185427381D01*
X72072857Y-185379762D01*
X72120476Y-185332143D01*
X72168095Y-185236905D01*
X72168095Y-184951190D01*
X72120476Y-184855952D01*
X72072857Y-184808333D01*
X71977619Y-184760714D01*
X71787142Y-184760714D01*
X71691904Y-184808333D01*
D12*
X67056000Y-182753000D02*
X62357000Y-189738000D01*
X62357000Y-189738000D02*
X71755000Y-189738000D01*
X71755000Y-189738000D02*
X67056000Y-182753000D01*
X67183000Y-188849000D02*
G75*
G03X67183000Y-188849000I-127000J0D01*
G01*
X67415210Y-188849000D02*
G75*
G03X67415210Y-188849000I-359210J0D01*
G01*
X67056000Y-187960000D02*
X67183000Y-184404000D01*
X67056000Y-187833000D02*
X66929000Y-184404000D01*
X67056000Y-184404000D02*
X66548000Y-184404000D01*
X66548000Y-184404000D02*
X67056000Y-187960000D01*
X67056000Y-187960000D02*
X67564000Y-184404000D01*
X67564000Y-184404000D02*
X67056000Y-184404000D01*
D13*
X118491000Y-163703000D03*
D14*
X85471000Y-171323000D03*
X115951000Y-163703000D03*
X88011000Y-171323000D03*
X113411000Y-163703000D03*
X90551000Y-171323000D03*
X110871000Y-163703000D03*
X93091000Y-171323000D03*
X108331000Y-163703000D03*
X95631000Y-171323000D03*
X105791000Y-163703000D03*
X98171000Y-171323000D03*
X103251000Y-163703000D03*
X100711000Y-171323000D03*
X100711000Y-163703000D03*
X103251000Y-171323000D03*
X98171000Y-163703000D03*
X105791000Y-171323000D03*
X95631000Y-163703000D03*
X108331000Y-171323000D03*
X93091000Y-163703000D03*
X110871000Y-171323000D03*
X90551000Y-163703000D03*
X113411000Y-171323000D03*
X88011000Y-163703000D03*
X115951000Y-171323000D03*
X85471000Y-163703000D03*
X118491000Y-171323000D03*
D15*
X142240000Y-67437000D03*
D16*
X136017000Y-146050000D03*
D17*
X138557000Y-146050000D03*
X141097000Y-146050000D03*
D18*
X123444000Y-168584000D03*
X123444000Y-164084000D03*
X129944000Y-168584000D03*
X129944000Y-164084000D03*
X136144000Y-168584000D03*
X136144000Y-164084000D03*
X142644000Y-168584000D03*
X142644000Y-164084000D03*
X129794000Y-159694000D03*
X129794000Y-155194000D03*
X136294000Y-159694000D03*
X136294000Y-155194000D03*
X129794000Y-177474000D03*
X129794000Y-172974000D03*
X136294000Y-177474000D03*
X136294000Y-172974000D03*
X62230000Y-174172000D03*
X62230000Y-169672000D03*
X68730000Y-174172000D03*
X68730000Y-169672000D03*
X73660000Y-174172000D03*
X73660000Y-169672000D03*
X80160000Y-174172000D03*
X80160000Y-169672000D03*
D16*
X129540000Y-146050000D03*
D17*
X132080000Y-146050000D03*
D16*
X99568000Y-178816000D03*
D17*
X99568000Y-181356000D03*
X97028000Y-178816000D03*
X97028000Y-181356000D03*
X94488000Y-178816000D03*
X94488000Y-181356000D03*
X91948000Y-178816000D03*
X91948000Y-181356000D03*
X89408000Y-178816000D03*
X89408000Y-181356000D03*
D19*
X60833000Y-138430000D03*
X139827000Y-136779000D03*
X65278000Y-132588000D03*
X65278000Y-134239000D03*
X73279000Y-134239000D03*
X81280000Y-134239000D03*
X89281000Y-134239000D03*
X97282000Y-134239000D03*
X105156000Y-134239000D03*
X113284000Y-134239000D03*
X121158000Y-134239000D03*
X129286000Y-134239000D03*
X137287000Y-134239000D03*
X65278000Y-130937000D03*
X73279000Y-130937000D03*
X81153000Y-130937000D03*
X89281000Y-130937000D03*
X97231000Y-130988000D03*
X105156000Y-130937000D03*
X113157000Y-130937000D03*
X121031000Y-131064000D03*
X129159000Y-130937000D03*
X137414000Y-131064000D03*
X60833000Y-130429000D03*
X139827000Y-128778000D03*
X65278000Y-124587000D03*
X65278000Y-126238000D03*
X73279000Y-126238000D03*
X81280000Y-126238000D03*
X89281000Y-126238000D03*
X97282000Y-126238000D03*
X105156000Y-126238000D03*
X113284000Y-126238000D03*
X121158000Y-126238000D03*
X129286000Y-126238000D03*
X137287000Y-126238000D03*
X65278000Y-122936000D03*
X73279000Y-122936000D03*
X81153000Y-122936000D03*
X89281000Y-122936000D03*
X97231000Y-122987000D03*
X105156000Y-122936000D03*
X113157000Y-122936000D03*
X121031000Y-123063000D03*
X129159000Y-122936000D03*
X137414000Y-123063000D03*
X60833000Y-122428000D03*
X139827000Y-120777000D03*
X65278000Y-116586000D03*
X65278000Y-118237000D03*
X73279000Y-118237000D03*
X81280000Y-118237000D03*
X89281000Y-118237000D03*
X97282000Y-118237000D03*
X105156000Y-118237000D03*
X113284000Y-118237000D03*
X121158000Y-118237000D03*
X129286000Y-118237000D03*
X137287000Y-118237000D03*
X65278000Y-114935000D03*
X73279000Y-114935000D03*
X81153000Y-114935000D03*
X89281000Y-114935000D03*
X97231000Y-114986000D03*
X105156000Y-114935000D03*
X113157000Y-114935000D03*
X121031000Y-115062000D03*
X129159000Y-114935000D03*
X137414000Y-115062000D03*
X60833000Y-114427000D03*
X139827000Y-112776000D03*
X65278000Y-108585000D03*
X65278000Y-110236000D03*
X73279000Y-110236000D03*
X81280000Y-110236000D03*
X89281000Y-110236000D03*
X97282000Y-110236000D03*
X105156000Y-110236000D03*
X113284000Y-110236000D03*
X121158000Y-110236000D03*
X129286000Y-110236000D03*
X137287000Y-110236000D03*
X65278000Y-106934000D03*
X73279000Y-106934000D03*
X81153000Y-106934000D03*
X89281000Y-106934000D03*
X97231000Y-106985000D03*
X105156000Y-106934000D03*
X113157000Y-106934000D03*
X121031000Y-107061000D03*
X129159000Y-106934000D03*
X137414000Y-107061000D03*
X60833000Y-106426000D03*
X139827000Y-104775000D03*
X65278000Y-100584000D03*
X65278000Y-102235000D03*
X73279000Y-102235000D03*
X81280000Y-102235000D03*
X89281000Y-102235000D03*
X97282000Y-102235000D03*
X105156000Y-102235000D03*
X113284000Y-102235000D03*
X121158000Y-102235000D03*
X129286000Y-102235000D03*
X137287000Y-102235000D03*
X65278000Y-98933000D03*
X73279000Y-98933000D03*
X81153000Y-98933000D03*
X89281000Y-98933000D03*
X97231000Y-98984000D03*
X105156000Y-98933000D03*
X113157000Y-98933000D03*
X121031000Y-99060000D03*
X129159000Y-98933000D03*
X137414000Y-99060000D03*
X60833000Y-98425000D03*
X139827000Y-96774000D03*
X65278000Y-92583000D03*
X65278000Y-94234000D03*
X73279000Y-94234000D03*
X81280000Y-94234000D03*
X89281000Y-94234000D03*
X97282000Y-94234000D03*
X105156000Y-94234000D03*
X113284000Y-94234000D03*
X121158000Y-94234000D03*
X129286000Y-94234000D03*
X137287000Y-94234000D03*
X65278000Y-90932000D03*
X73279000Y-90932000D03*
X81153000Y-90932000D03*
X89281000Y-90932000D03*
X97231000Y-90983000D03*
X105156000Y-90932000D03*
X113157000Y-90932000D03*
X121031000Y-91059000D03*
X129159000Y-90932000D03*
X137414000Y-91059000D03*
X60833000Y-90424000D03*
X139827000Y-88773000D03*
X65278000Y-84582000D03*
X65278000Y-86233000D03*
X73279000Y-86233000D03*
X81280000Y-86233000D03*
X89281000Y-86233000D03*
X97282000Y-86233000D03*
X105156000Y-86233000D03*
X113284000Y-86233000D03*
X121158000Y-86233000D03*
X129286000Y-86233000D03*
X137287000Y-86233000D03*
X65278000Y-82931000D03*
X73279000Y-82931000D03*
X81153000Y-82931000D03*
X89281000Y-82931000D03*
X97231000Y-82982000D03*
X105156000Y-82931000D03*
X113157000Y-82931000D03*
X121031000Y-83058000D03*
X129159000Y-82931000D03*
X137414000Y-83058000D03*
X60833000Y-82423000D03*
X139827000Y-80772000D03*
X65278000Y-76581000D03*
X65278000Y-78232000D03*
X73279000Y-78232000D03*
X81280000Y-78232000D03*
X89281000Y-78232000D03*
X97282000Y-78232000D03*
X105156000Y-78232000D03*
X113284000Y-78232000D03*
X121158000Y-78232000D03*
X129286000Y-78232000D03*
X137287000Y-78232000D03*
X65278000Y-74930000D03*
X73279000Y-74930000D03*
X81153000Y-74930000D03*
X89281000Y-74930000D03*
X97231000Y-74981000D03*
X105156000Y-74930000D03*
X113157000Y-74930000D03*
X121031000Y-75057000D03*
X129159000Y-74930000D03*
X137414000Y-75057000D03*
X137414000Y-139065000D03*
X129159000Y-138938000D03*
X121031000Y-139065000D03*
X113157000Y-138938000D03*
X105156000Y-138938000D03*
X97231000Y-138989000D03*
X89281000Y-138938000D03*
X81153000Y-138938000D03*
X73279000Y-138938000D03*
X65278000Y-138938000D03*
X137287000Y-142240000D03*
X129286000Y-142240000D03*
X121158000Y-142240000D03*
X113284000Y-142240000D03*
X105156000Y-142240000D03*
X97282000Y-142240000D03*
X89281000Y-142240000D03*
X81280000Y-142240000D03*
X73279000Y-142240000D03*
X65278000Y-142240000D03*
X60833000Y-74422000D03*
X139827000Y-72771000D03*
X65278000Y-68580000D03*
X65278000Y-70231000D03*
X73279000Y-70231000D03*
X81280000Y-70231000D03*
X89281000Y-70231000D03*
X97282000Y-70231000D03*
X105156000Y-70231000D03*
X113284000Y-70231000D03*
X121158000Y-70231000D03*
X129286000Y-70231000D03*
X137287000Y-70231000D03*
X65278000Y-66929000D03*
X73279000Y-66929000D03*
X81153000Y-66929000D03*
X89281000Y-66929000D03*
X97231000Y-66980000D03*
X105156000Y-66929000D03*
X113157000Y-66929000D03*
X121031000Y-67056000D03*
X129159000Y-66929000D03*
X137414000Y-67056000D03*
X95608500Y-159793800D03*
X119888000Y-153416000D03*
X116843100Y-173790800D03*
X96441200Y-159047400D03*
X119702200Y-157046700D03*
X105199200Y-165353400D03*
X59960000Y-160709400D03*
X107006000Y-158091400D03*
X68167800Y-161630300D03*
X68338900Y-158585300D03*
X72390000Y-145499600D03*
X63967800Y-163460000D03*
X101139300Y-157682600D03*
X71070300Y-161609700D03*
X71120000Y-163389200D03*
X81280000Y-155187600D03*
X81280000Y-149301200D03*
X102058300Y-157537800D03*
X76290900Y-159307900D03*
X91610000Y-154548900D03*
X82720000Y-155427400D03*
X79813600Y-159363700D03*
X70950000Y-155463700D03*
X86282000Y-159300000D03*
X78400000Y-155499600D03*
X69958600Y-155486900D03*
X86114900Y-156745700D03*
X109601000Y-159385600D03*
X89453200Y-150218100D03*
X112141000Y-159132000D03*
X87290000Y-149331300D03*
X114741000Y-156897300D03*
X93076900Y-155447400D03*
X112199800Y-157192500D03*
X84160000Y-155458700D03*
D20*
X62738000Y-130937000D02*
X65278000Y-130937000D01*
X62357000Y-130937000D02*
X62738000Y-130937000D01*
X60833000Y-132461000D02*
X62357000Y-130937000D01*
X60833000Y-138430000D02*
X60833000Y-132461000D01*
X139827000Y-132588000D02*
X139827000Y-136779000D01*
X137287000Y-132588000D02*
X139827000Y-132588000D01*
X65278000Y-132588000D02*
X137287000Y-132588000D01*
X65278000Y-134239000D02*
X73279000Y-134239000D01*
X73279000Y-134239000D02*
X81280000Y-134239000D01*
X81280000Y-134239000D02*
X89281000Y-134239000D01*
X89281000Y-134239000D02*
X97282000Y-134239000D01*
X97282000Y-134239000D02*
X105156000Y-134239000D01*
X105156000Y-134239000D02*
X113284000Y-134239000D01*
X113284000Y-134239000D02*
X121158000Y-134239000D01*
X121158000Y-134239000D02*
X129286000Y-134239000D01*
X129286000Y-134239000D02*
X137287000Y-134239000D01*
X97231000Y-130988000D02*
X97282000Y-130937000D01*
X121031000Y-131064000D02*
X121158000Y-130937000D01*
X137287000Y-130937000D02*
X135001000Y-130937000D01*
X137414000Y-131064000D02*
X137287000Y-130937000D01*
X65278000Y-130937000D02*
X73279000Y-130937000D01*
X73279000Y-130937000D02*
X81153000Y-130937000D01*
X81153000Y-130937000D02*
X89281000Y-130937000D01*
X89281000Y-130937000D02*
X97282000Y-130937000D01*
X97282000Y-130937000D02*
X105156000Y-130937000D01*
X105156000Y-130937000D02*
X113157000Y-130937000D01*
X113157000Y-130937000D02*
X121158000Y-130937000D01*
X121158000Y-130937000D02*
X129159000Y-130937000D01*
X129159000Y-130937000D02*
X134747000Y-130937000D01*
X62738000Y-122936000D02*
X65278000Y-122936000D01*
X62357000Y-122936000D02*
X62738000Y-122936000D01*
X60833000Y-124460000D02*
X62357000Y-122936000D01*
X60833000Y-130429000D02*
X60833000Y-124460000D01*
X139827000Y-124587000D02*
X139827000Y-128778000D01*
X137287000Y-124587000D02*
X139827000Y-124587000D01*
X65278000Y-124587000D02*
X137287000Y-124587000D01*
X65278000Y-126238000D02*
X73279000Y-126238000D01*
X73279000Y-126238000D02*
X81280000Y-126238000D01*
X81280000Y-126238000D02*
X89281000Y-126238000D01*
X89281000Y-126238000D02*
X97282000Y-126238000D01*
X97282000Y-126238000D02*
X105156000Y-126238000D01*
X105156000Y-126238000D02*
X113284000Y-126238000D01*
X113284000Y-126238000D02*
X121158000Y-126238000D01*
X121158000Y-126238000D02*
X129286000Y-126238000D01*
X129286000Y-126238000D02*
X137287000Y-126238000D01*
X97231000Y-122987000D02*
X97282000Y-122936000D01*
X121031000Y-123063000D02*
X121158000Y-122936000D01*
X137287000Y-122936000D02*
X135001000Y-122936000D01*
X137414000Y-123063000D02*
X137287000Y-122936000D01*
X65278000Y-122936000D02*
X73279000Y-122936000D01*
X73279000Y-122936000D02*
X81153000Y-122936000D01*
X81153000Y-122936000D02*
X89281000Y-122936000D01*
X89281000Y-122936000D02*
X97282000Y-122936000D01*
X97282000Y-122936000D02*
X105156000Y-122936000D01*
X105156000Y-122936000D02*
X113157000Y-122936000D01*
X113157000Y-122936000D02*
X121158000Y-122936000D01*
X121158000Y-122936000D02*
X129159000Y-122936000D01*
X129159000Y-122936000D02*
X134747000Y-122936000D01*
X62738000Y-114935000D02*
X65278000Y-114935000D01*
X62357000Y-114935000D02*
X62738000Y-114935000D01*
X60833000Y-116459000D02*
X62357000Y-114935000D01*
X60833000Y-122428000D02*
X60833000Y-116459000D01*
X139827000Y-116586000D02*
X139827000Y-120777000D01*
X137287000Y-116586000D02*
X139827000Y-116586000D01*
X65278000Y-116586000D02*
X137287000Y-116586000D01*
X65278000Y-118237000D02*
X73279000Y-118237000D01*
X73279000Y-118237000D02*
X81280000Y-118237000D01*
X81280000Y-118237000D02*
X89281000Y-118237000D01*
X89281000Y-118237000D02*
X97282000Y-118237000D01*
X97282000Y-118237000D02*
X105156000Y-118237000D01*
X105156000Y-118237000D02*
X113284000Y-118237000D01*
X113284000Y-118237000D02*
X121158000Y-118237000D01*
X121158000Y-118237000D02*
X129286000Y-118237000D01*
X129286000Y-118237000D02*
X137287000Y-118237000D01*
X97231000Y-114986000D02*
X97282000Y-114935000D01*
X121031000Y-115062000D02*
X121158000Y-114935000D01*
X137287000Y-114935000D02*
X135001000Y-114935000D01*
X137414000Y-115062000D02*
X137287000Y-114935000D01*
X65278000Y-114935000D02*
X73279000Y-114935000D01*
X73279000Y-114935000D02*
X81153000Y-114935000D01*
X81153000Y-114935000D02*
X89281000Y-114935000D01*
X89281000Y-114935000D02*
X97282000Y-114935000D01*
X97282000Y-114935000D02*
X105156000Y-114935000D01*
X105156000Y-114935000D02*
X113157000Y-114935000D01*
X113157000Y-114935000D02*
X121158000Y-114935000D01*
X121158000Y-114935000D02*
X129159000Y-114935000D01*
X129159000Y-114935000D02*
X134747000Y-114935000D01*
X62738000Y-106934000D02*
X65278000Y-106934000D01*
X62357000Y-106934000D02*
X62738000Y-106934000D01*
X60833000Y-108458000D02*
X62357000Y-106934000D01*
X60833000Y-114427000D02*
X60833000Y-108458000D01*
X139827000Y-108585000D02*
X139827000Y-112776000D01*
X137287000Y-108585000D02*
X139827000Y-108585000D01*
X65278000Y-108585000D02*
X137287000Y-108585000D01*
X65278000Y-110236000D02*
X73279000Y-110236000D01*
X73279000Y-110236000D02*
X81280000Y-110236000D01*
X81280000Y-110236000D02*
X89281000Y-110236000D01*
X89281000Y-110236000D02*
X97282000Y-110236000D01*
X97282000Y-110236000D02*
X105156000Y-110236000D01*
X105156000Y-110236000D02*
X113284000Y-110236000D01*
X113284000Y-110236000D02*
X121158000Y-110236000D01*
X121158000Y-110236000D02*
X129286000Y-110236000D01*
X129286000Y-110236000D02*
X137287000Y-110236000D01*
X97231000Y-106985000D02*
X97282000Y-106934000D01*
X121031000Y-107061000D02*
X121158000Y-106934000D01*
X137287000Y-106934000D02*
X135001000Y-106934000D01*
X137414000Y-107061000D02*
X137287000Y-106934000D01*
X65278000Y-106934000D02*
X73279000Y-106934000D01*
X73279000Y-106934000D02*
X81153000Y-106934000D01*
X81153000Y-106934000D02*
X89281000Y-106934000D01*
X89281000Y-106934000D02*
X97282000Y-106934000D01*
X97282000Y-106934000D02*
X105156000Y-106934000D01*
X105156000Y-106934000D02*
X113157000Y-106934000D01*
X113157000Y-106934000D02*
X121158000Y-106934000D01*
X121158000Y-106934000D02*
X129159000Y-106934000D01*
X129159000Y-106934000D02*
X134747000Y-106934000D01*
X62738000Y-98933000D02*
X65278000Y-98933000D01*
X62357000Y-98933000D02*
X62738000Y-98933000D01*
X60833000Y-100457000D02*
X62357000Y-98933000D01*
X60833000Y-106426000D02*
X60833000Y-100457000D01*
X139827000Y-100584000D02*
X139827000Y-104775000D01*
X137287000Y-100584000D02*
X139827000Y-100584000D01*
X65278000Y-100584000D02*
X137287000Y-100584000D01*
X65278000Y-102235000D02*
X73279000Y-102235000D01*
X73279000Y-102235000D02*
X81280000Y-102235000D01*
X81280000Y-102235000D02*
X89281000Y-102235000D01*
X89281000Y-102235000D02*
X97282000Y-102235000D01*
X97282000Y-102235000D02*
X105156000Y-102235000D01*
X105156000Y-102235000D02*
X113284000Y-102235000D01*
X113284000Y-102235000D02*
X121158000Y-102235000D01*
X121158000Y-102235000D02*
X129286000Y-102235000D01*
X129286000Y-102235000D02*
X137287000Y-102235000D01*
X97231000Y-98984000D02*
X97282000Y-98933000D01*
X121031000Y-99060000D02*
X121158000Y-98933000D01*
X137287000Y-98933000D02*
X135001000Y-98933000D01*
X137414000Y-99060000D02*
X137287000Y-98933000D01*
X65278000Y-98933000D02*
X73279000Y-98933000D01*
X73279000Y-98933000D02*
X81153000Y-98933000D01*
X81153000Y-98933000D02*
X89281000Y-98933000D01*
X89281000Y-98933000D02*
X97282000Y-98933000D01*
X97282000Y-98933000D02*
X105156000Y-98933000D01*
X105156000Y-98933000D02*
X113157000Y-98933000D01*
X113157000Y-98933000D02*
X121158000Y-98933000D01*
X121158000Y-98933000D02*
X129159000Y-98933000D01*
X129159000Y-98933000D02*
X134747000Y-98933000D01*
X62738000Y-90932000D02*
X65278000Y-90932000D01*
X62357000Y-90932000D02*
X62738000Y-90932000D01*
X60833000Y-92456000D02*
X62357000Y-90932000D01*
X60833000Y-98425000D02*
X60833000Y-92456000D01*
X139827000Y-92583000D02*
X139827000Y-96774000D01*
X137287000Y-92583000D02*
X139827000Y-92583000D01*
X65278000Y-92583000D02*
X137287000Y-92583000D01*
X65278000Y-94234000D02*
X73279000Y-94234000D01*
X73279000Y-94234000D02*
X81280000Y-94234000D01*
X81280000Y-94234000D02*
X89281000Y-94234000D01*
X89281000Y-94234000D02*
X97282000Y-94234000D01*
X97282000Y-94234000D02*
X105156000Y-94234000D01*
X105156000Y-94234000D02*
X113284000Y-94234000D01*
X113284000Y-94234000D02*
X121158000Y-94234000D01*
X121158000Y-94234000D02*
X129286000Y-94234000D01*
X129286000Y-94234000D02*
X137287000Y-94234000D01*
X97231000Y-90983000D02*
X97282000Y-90932000D01*
X121031000Y-91059000D02*
X121158000Y-90932000D01*
X137287000Y-90932000D02*
X135001000Y-90932000D01*
X137414000Y-91059000D02*
X137287000Y-90932000D01*
X65278000Y-90932000D02*
X73279000Y-90932000D01*
X73279000Y-90932000D02*
X81153000Y-90932000D01*
X81153000Y-90932000D02*
X89281000Y-90932000D01*
X89281000Y-90932000D02*
X97282000Y-90932000D01*
X97282000Y-90932000D02*
X105156000Y-90932000D01*
X105156000Y-90932000D02*
X113157000Y-90932000D01*
X113157000Y-90932000D02*
X121158000Y-90932000D01*
X121158000Y-90932000D02*
X129159000Y-90932000D01*
X129159000Y-90932000D02*
X134747000Y-90932000D01*
X62738000Y-82931000D02*
X65278000Y-82931000D01*
X62357000Y-82931000D02*
X62738000Y-82931000D01*
X60833000Y-84455000D02*
X62357000Y-82931000D01*
X60833000Y-90424000D02*
X60833000Y-84455000D01*
X139827000Y-84582000D02*
X139827000Y-88773000D01*
X137287000Y-84582000D02*
X139827000Y-84582000D01*
X65278000Y-84582000D02*
X137287000Y-84582000D01*
X65278000Y-86233000D02*
X73279000Y-86233000D01*
X73279000Y-86233000D02*
X81280000Y-86233000D01*
X81280000Y-86233000D02*
X89281000Y-86233000D01*
X89281000Y-86233000D02*
X97282000Y-86233000D01*
X97282000Y-86233000D02*
X105156000Y-86233000D01*
X105156000Y-86233000D02*
X113284000Y-86233000D01*
X113284000Y-86233000D02*
X121158000Y-86233000D01*
X121158000Y-86233000D02*
X129286000Y-86233000D01*
X129286000Y-86233000D02*
X137287000Y-86233000D01*
X97231000Y-82982000D02*
X97282000Y-82931000D01*
X121031000Y-83058000D02*
X121158000Y-82931000D01*
X137287000Y-82931000D02*
X135001000Y-82931000D01*
X137414000Y-83058000D02*
X137287000Y-82931000D01*
X65278000Y-82931000D02*
X73279000Y-82931000D01*
X73279000Y-82931000D02*
X81153000Y-82931000D01*
X81153000Y-82931000D02*
X89281000Y-82931000D01*
X89281000Y-82931000D02*
X97282000Y-82931000D01*
X97282000Y-82931000D02*
X105156000Y-82931000D01*
X105156000Y-82931000D02*
X113157000Y-82931000D01*
X113157000Y-82931000D02*
X121158000Y-82931000D01*
X121158000Y-82931000D02*
X129159000Y-82931000D01*
X129159000Y-82931000D02*
X134747000Y-82931000D01*
X62738000Y-74930000D02*
X65278000Y-74930000D01*
X62357000Y-74930000D02*
X62738000Y-74930000D01*
X60833000Y-76454000D02*
X62357000Y-74930000D01*
X60833000Y-82423000D02*
X60833000Y-76454000D01*
X139827000Y-76581000D02*
X139827000Y-80772000D01*
X137287000Y-76581000D02*
X139827000Y-76581000D01*
X65278000Y-76581000D02*
X137287000Y-76581000D01*
X65278000Y-78232000D02*
X73279000Y-78232000D01*
X73279000Y-78232000D02*
X81280000Y-78232000D01*
X81280000Y-78232000D02*
X89281000Y-78232000D01*
X89281000Y-78232000D02*
X97282000Y-78232000D01*
X97282000Y-78232000D02*
X105156000Y-78232000D01*
X105156000Y-78232000D02*
X113284000Y-78232000D01*
X113284000Y-78232000D02*
X121158000Y-78232000D01*
X121158000Y-78232000D02*
X129286000Y-78232000D01*
X129286000Y-78232000D02*
X137287000Y-78232000D01*
X97231000Y-74981000D02*
X97282000Y-74930000D01*
X121031000Y-75057000D02*
X121158000Y-74930000D01*
X137287000Y-74930000D02*
X135001000Y-74930000D01*
X137414000Y-75057000D02*
X137287000Y-74930000D01*
X65278000Y-74930000D02*
X73279000Y-74930000D01*
X73279000Y-74930000D02*
X81153000Y-74930000D01*
X81153000Y-74930000D02*
X89281000Y-74930000D01*
X89281000Y-74930000D02*
X97282000Y-74930000D01*
X97282000Y-74930000D02*
X105156000Y-74930000D01*
X105156000Y-74930000D02*
X113157000Y-74930000D01*
X113157000Y-74930000D02*
X121158000Y-74930000D01*
X121158000Y-74930000D02*
X129159000Y-74930000D01*
X129159000Y-74930000D02*
X134747000Y-74930000D01*
X129159000Y-138938000D02*
X134747000Y-138938000D01*
X121158000Y-138938000D02*
X129159000Y-138938000D01*
X113157000Y-138938000D02*
X121158000Y-138938000D01*
X105156000Y-138938000D02*
X113157000Y-138938000D01*
X97282000Y-138938000D02*
X105156000Y-138938000D01*
X89281000Y-138938000D02*
X97282000Y-138938000D01*
X81153000Y-138938000D02*
X89281000Y-138938000D01*
X73279000Y-138938000D02*
X81153000Y-138938000D01*
X65278000Y-138938000D02*
X73279000Y-138938000D01*
X137414000Y-139065000D02*
X137287000Y-138938000D01*
X137287000Y-138938000D02*
X135001000Y-138938000D01*
X121031000Y-139065000D02*
X121158000Y-138938000D01*
X97231000Y-138989000D02*
X97282000Y-138938000D01*
X129286000Y-142240000D02*
X137287000Y-142240000D01*
X121158000Y-142240000D02*
X129286000Y-142240000D01*
X113284000Y-142240000D02*
X121158000Y-142240000D01*
X105156000Y-142240000D02*
X113284000Y-142240000D01*
X97282000Y-142240000D02*
X105156000Y-142240000D01*
X89281000Y-142240000D02*
X97282000Y-142240000D01*
X81280000Y-142240000D02*
X89281000Y-142240000D01*
X73279000Y-142240000D02*
X81280000Y-142240000D01*
X65278000Y-142240000D02*
X73279000Y-142240000D01*
X62738000Y-66929000D02*
X65278000Y-66929000D01*
X62357000Y-66929000D02*
X62738000Y-66929000D01*
X60833000Y-68453000D02*
X62357000Y-66929000D01*
X60833000Y-74422000D02*
X60833000Y-68453000D01*
X139827000Y-68580000D02*
X139827000Y-72771000D01*
X137287000Y-68580000D02*
X139827000Y-68580000D01*
X65278000Y-68580000D02*
X137287000Y-68580000D01*
X65278000Y-70231000D02*
X73279000Y-70231000D01*
X73279000Y-70231000D02*
X81280000Y-70231000D01*
X81280000Y-70231000D02*
X89281000Y-70231000D01*
X89281000Y-70231000D02*
X97282000Y-70231000D01*
X97282000Y-70231000D02*
X105156000Y-70231000D01*
X105156000Y-70231000D02*
X113284000Y-70231000D01*
X113284000Y-70231000D02*
X121158000Y-70231000D01*
X121158000Y-70231000D02*
X129286000Y-70231000D01*
X129286000Y-70231000D02*
X137287000Y-70231000D01*
X97231000Y-66980000D02*
X97282000Y-66929000D01*
X121031000Y-67056000D02*
X121158000Y-66929000D01*
X137287000Y-66929000D02*
X135001000Y-66929000D01*
X137414000Y-67056000D02*
X137287000Y-66929000D01*
X65278000Y-66929000D02*
X73279000Y-66929000D01*
X73279000Y-66929000D02*
X81153000Y-66929000D01*
X81153000Y-66929000D02*
X89281000Y-66929000D01*
X89281000Y-66929000D02*
X97282000Y-66929000D01*
X97282000Y-66929000D02*
X105156000Y-66929000D01*
X105156000Y-66929000D02*
X113157000Y-66929000D01*
X113157000Y-66929000D02*
X121158000Y-66929000D01*
X121158000Y-66929000D02*
X129159000Y-66929000D01*
X129159000Y-66929000D02*
X134747000Y-66929000D01*
X104511400Y-160742600D02*
X103251000Y-162003000D01*
X112436400Y-160742600D02*
X104511400Y-160742600D01*
X128429400Y-144749600D02*
X119888000Y-153291000D01*
X119888000Y-153291000D02*
X112436400Y-160742600D01*
X133366600Y-144749600D02*
X128429400Y-144749600D01*
X134667000Y-146050000D02*
X133366600Y-144749600D01*
X136017000Y-146050000D02*
X134667000Y-146050000D01*
X103251000Y-163703000D02*
X103251000Y-162003000D01*
X97817700Y-162003000D02*
X95608500Y-159793800D01*
X98171000Y-162003000D02*
X97817700Y-162003000D01*
X98171000Y-163703000D02*
X98171000Y-162003000D01*
X115038300Y-168855700D02*
X118491000Y-165403000D01*
X100998200Y-168855700D02*
X115038300Y-168855700D01*
X99440900Y-170413000D02*
X100998200Y-168855700D01*
X99440900Y-172513100D02*
X99440900Y-170413000D01*
X94488000Y-177466000D02*
X99440900Y-172513100D01*
X94488000Y-178816000D02*
X94488000Y-177466000D01*
X118491000Y-163703000D02*
X118491000Y-165403000D01*
X85471000Y-171323000D02*
X85471000Y-169623000D01*
X142644000Y-164084000D02*
X137754000Y-164084000D01*
X137754000Y-164084000D02*
X136144000Y-164084000D01*
X88260800Y-166833200D02*
X85471000Y-169623000D01*
X112481900Y-166833200D02*
X88260800Y-166833200D01*
X114681000Y-164634100D02*
X112481900Y-166833200D01*
X114681000Y-162795600D02*
X114681000Y-164634100D01*
X119679600Y-157797000D02*
X114681000Y-162795600D01*
X120013100Y-157797000D02*
X119679600Y-157797000D01*
X124070100Y-153740000D02*
X120013100Y-157797000D01*
X136895000Y-153740000D02*
X124070100Y-153740000D01*
X137754000Y-154599000D02*
X136895000Y-153740000D01*
X137754000Y-164084000D02*
X137754000Y-154599000D01*
X88011000Y-171323000D02*
X88011000Y-169623000D01*
X136294000Y-155194000D02*
X129794000Y-155194000D01*
X90037300Y-167596700D02*
X88011000Y-169623000D01*
X114227900Y-167596700D02*
X90037300Y-167596700D01*
X117240600Y-164584000D02*
X114227900Y-167596700D01*
X117240600Y-162307200D02*
X117240600Y-164584000D01*
X124353800Y-155194000D02*
X117240600Y-162307200D01*
X129794000Y-155194000D02*
X124353800Y-155194000D01*
X129794000Y-172974000D02*
X136294000Y-172974000D01*
X99568000Y-178816000D02*
X100918000Y-178816000D01*
X106760000Y-172974000D02*
X100918000Y-178816000D01*
X129794000Y-172974000D02*
X106760000Y-172974000D01*
X68730000Y-169672000D02*
X62230000Y-169672000D01*
X71779600Y-172721600D02*
X68730000Y-169672000D01*
X81278000Y-172721600D02*
X71779600Y-172721600D01*
X87372400Y-178816000D02*
X81278000Y-172721600D01*
X89408000Y-178816000D02*
X87372400Y-178816000D01*
X95631000Y-171323000D02*
X95631000Y-173023000D01*
X91948000Y-178816000D02*
X91948000Y-176706000D01*
X91948000Y-176706000D02*
X95631000Y-173023000D01*
X87194000Y-176706000D02*
X80160000Y-169672000D01*
X91948000Y-176706000D02*
X87194000Y-176706000D01*
X80160000Y-169672000D02*
X73660000Y-169672000D01*
X119888000Y-153416000D02*
X119825500Y-153353500D01*
X119825500Y-153353500D02*
X119888000Y-153416000D01*
X119888000Y-153416000D02*
X119888000Y-153291000D01*
X137256600Y-147350400D02*
X138557000Y-146050000D01*
X130840400Y-147350400D02*
X137256600Y-147350400D01*
X129540000Y-146050000D02*
X130840400Y-147350400D01*
X109277900Y-181356000D02*
X116843100Y-173790800D01*
X99568000Y-181356000D02*
X109277900Y-181356000D01*
X91948000Y-181356000D02*
X94488000Y-181356000D01*
X94488000Y-181356000D02*
X97028000Y-181356000D01*
X73660000Y-174172000D02*
X68730000Y-174172000D01*
X136294000Y-177474000D02*
X129794000Y-177474000D01*
X103251000Y-171323000D02*
X103251000Y-169623000D01*
X122405000Y-169623000D02*
X123444000Y-168584000D01*
X103251000Y-169623000D02*
X122405000Y-169623000D01*
X80160000Y-174172000D02*
X73660000Y-174172000D01*
X123444000Y-168584000D02*
X129944000Y-168584000D01*
X133087800Y-159694000D02*
X134690900Y-161297100D01*
X129794000Y-159694000D02*
X133087800Y-159694000D01*
X134690900Y-161297100D02*
X136294000Y-159694000D01*
X134690900Y-161297100D02*
X134690900Y-168584000D01*
X129944000Y-168584000D02*
X134690900Y-168584000D01*
X134690900Y-168584000D02*
X136144000Y-168584000D01*
X91948000Y-181356000D02*
X89408000Y-181356000D01*
X87344000Y-181356000D02*
X80160000Y-174172000D01*
X89408000Y-181356000D02*
X87344000Y-181356000D01*
X99396800Y-162003000D02*
X96441200Y-159047400D01*
X100711000Y-162003000D02*
X99396800Y-162003000D01*
X100711000Y-163703000D02*
X100711000Y-162003000D01*
X129944000Y-164084000D02*
X123444000Y-164084000D01*
X87121300Y-165353300D02*
X85471000Y-163703000D01*
X103829700Y-165353300D02*
X87121300Y-165353300D01*
X104521000Y-164662000D02*
X103829700Y-165353300D01*
X104521000Y-162804000D02*
X104521000Y-164662000D01*
X105601500Y-161723500D02*
X104521000Y-162804000D01*
X114762600Y-161723500D02*
X105601500Y-161723500D01*
X119439400Y-157046700D02*
X114762600Y-161723500D01*
X119702200Y-157046700D02*
X119439400Y-157046700D01*
X104498900Y-166053700D02*
X105199200Y-165353400D01*
X65304300Y-166053700D02*
X104498900Y-166053700D01*
X59960000Y-160709400D02*
X65304300Y-166053700D01*
X70699400Y-164161900D02*
X68167800Y-161630300D01*
X82368800Y-164161900D02*
X70699400Y-164161900D01*
X85695000Y-160835700D02*
X82368800Y-164161900D01*
X92404800Y-160835700D02*
X85695000Y-160835700D01*
X94943400Y-158297100D02*
X92404800Y-160835700D01*
X96752100Y-158297100D02*
X94943400Y-158297100D01*
X96931200Y-158476200D02*
X96752100Y-158297100D01*
X106621200Y-158476200D02*
X96931200Y-158476200D01*
X107006000Y-158091400D02*
X106621200Y-158476200D01*
X68338900Y-149550700D02*
X72390000Y-145499600D01*
X68338900Y-158585300D02*
X68338900Y-149550700D01*
X63967800Y-162956400D02*
X63967800Y-163460000D01*
X68338900Y-158585300D02*
X63967800Y-162956400D01*
X77594000Y-161609700D02*
X71070300Y-161609700D01*
X79068400Y-160135300D02*
X77594000Y-161609700D01*
X92114700Y-160135300D02*
X79068400Y-160135300D01*
X94653200Y-157596800D02*
X92114700Y-160135300D01*
X101053500Y-157596800D02*
X94653200Y-157596800D01*
X101139300Y-157682600D02*
X101053500Y-157596800D01*
X70348600Y-153968700D02*
X80061100Y-153968700D01*
X69207500Y-155109800D02*
X70348600Y-153968700D01*
X69207500Y-161476700D02*
X69207500Y-155109800D01*
X71120000Y-163389200D02*
X69207500Y-161476700D01*
X80061100Y-153968700D02*
X81280000Y-155187600D01*
X80061100Y-150520100D02*
X81280000Y-149301200D01*
X80061100Y-153968700D02*
X80061100Y-150520100D01*
X77968300Y-157630500D02*
X76290900Y-159307900D01*
X93629000Y-157630500D02*
X77968300Y-157630500D01*
X94373300Y-156886200D02*
X93629000Y-157630500D01*
X101406700Y-156886200D02*
X94373300Y-156886200D01*
X102058300Y-157537800D02*
X101406700Y-156886200D01*
X83598500Y-154548900D02*
X91610000Y-154548900D01*
X82720000Y-155427400D02*
X83598500Y-154548900D01*
X75604500Y-160118200D02*
X70950000Y-155463700D01*
X78095000Y-160118200D02*
X75604500Y-160118200D01*
X78849500Y-159363700D02*
X78095000Y-160118200D01*
X79813600Y-159363700D02*
X78849500Y-159363700D01*
X86218300Y-159363700D02*
X86282000Y-159300000D01*
X79813600Y-159363700D02*
X86218300Y-159363700D01*
X77569500Y-154669100D02*
X78400000Y-155499600D01*
X70649900Y-154669100D02*
X77569500Y-154669100D01*
X69958600Y-155360400D02*
X70649900Y-154669100D01*
X69958600Y-155486900D02*
X69958600Y-155360400D01*
X79646100Y-156745700D02*
X86114900Y-156745700D01*
X78400000Y-155499600D02*
X79646100Y-156745700D01*
X93523300Y-156745700D02*
X86114900Y-156745700D01*
X94083100Y-156185900D02*
X93523300Y-156745700D01*
X106401300Y-156185900D02*
X94083100Y-156185900D01*
X109601000Y-159385600D02*
X106401300Y-156185900D01*
X112957000Y-158316000D02*
X112141000Y-159132000D01*
X112957000Y-156857300D02*
X112957000Y-158316000D01*
X106317800Y-150218100D02*
X112957000Y-156857300D01*
X89453200Y-150218100D02*
X106317800Y-150218100D01*
X107175000Y-149331300D02*
X114741000Y-156897300D01*
X87290000Y-149331300D02*
X107175000Y-149331300D01*
X110454700Y-155447400D02*
X93076900Y-155447400D01*
X112199800Y-157192500D02*
X110454700Y-155447400D01*
X84171300Y-155447400D02*
X84160000Y-155458700D01*
X93076900Y-155447400D02*
X84171300Y-155447400D01*
D21*
G36*
X141820570Y-63723518D02*
X143079974Y-64565025D01*
X143921482Y-65824430D01*
X144002282Y-66230639D01*
X143430818Y-65658177D01*
X142659446Y-65337876D01*
X141824218Y-65337147D01*
X141052288Y-65656102D01*
X140461177Y-66246182D01*
X140140876Y-67017554D01*
X140140636Y-67292386D01*
X139827000Y-67230000D01*
X138813849Y-67230000D01*
X138814243Y-66778744D01*
X138601555Y-66264000D01*
X138208072Y-65869830D01*
X137883185Y-65734925D01*
X137803623Y-65681763D01*
X137710593Y-65663258D01*
X137693699Y-65656243D01*
X137675245Y-65656227D01*
X137287000Y-65579000D01*
X135001000Y-65579000D01*
X134874000Y-65604262D01*
X134747000Y-65579000D01*
X129558527Y-65579000D01*
X129438699Y-65529243D01*
X128881744Y-65528757D01*
X128760147Y-65579000D01*
X113556527Y-65579000D01*
X113436699Y-65529243D01*
X112879744Y-65528757D01*
X112758147Y-65579000D01*
X105555527Y-65579000D01*
X105435699Y-65529243D01*
X104878744Y-65528757D01*
X104757147Y-65579000D01*
X89680527Y-65579000D01*
X89560699Y-65529243D01*
X89003744Y-65528757D01*
X88882147Y-65579000D01*
X81552527Y-65579000D01*
X81432699Y-65529243D01*
X80875744Y-65528757D01*
X80754147Y-65579000D01*
X73678527Y-65579000D01*
X73558699Y-65529243D01*
X73001744Y-65528757D01*
X72880147Y-65579000D01*
X65677527Y-65579000D01*
X65557699Y-65529243D01*
X65000744Y-65528757D01*
X64879147Y-65579000D01*
X62357000Y-65579000D01*
X61840377Y-65681763D01*
X61560988Y-65868445D01*
X61402406Y-65974406D01*
X59878406Y-67498406D01*
X59585763Y-67936377D01*
X59483000Y-68453000D01*
X59483000Y-74022473D01*
X59433243Y-74142301D01*
X59432757Y-74699256D01*
X59645445Y-75214000D01*
X59904402Y-75473410D01*
X59878406Y-75499406D01*
X59585763Y-75937377D01*
X59483000Y-76454000D01*
X59483000Y-82023473D01*
X59433243Y-82143301D01*
X59432757Y-82700256D01*
X59645445Y-83215000D01*
X59904402Y-83474410D01*
X59878406Y-83500406D01*
X59585763Y-83938377D01*
X59483000Y-84455000D01*
X59483000Y-90024473D01*
X59433243Y-90144301D01*
X59432757Y-90701256D01*
X59645445Y-91216000D01*
X59904402Y-91475410D01*
X59878406Y-91501406D01*
X59585763Y-91939377D01*
X59483000Y-92456000D01*
X59483000Y-98025473D01*
X59433243Y-98145301D01*
X59432757Y-98702256D01*
X59645445Y-99217000D01*
X59904402Y-99476410D01*
X59878406Y-99502406D01*
X59585763Y-99940377D01*
X59483000Y-100457000D01*
X59483000Y-106026473D01*
X59433243Y-106146301D01*
X59432757Y-106703256D01*
X59645445Y-107218000D01*
X59904402Y-107477410D01*
X59878406Y-107503406D01*
X59585763Y-107941377D01*
X59483000Y-108458000D01*
X59483000Y-114027473D01*
X59433243Y-114147301D01*
X59432757Y-114704256D01*
X59645445Y-115219000D01*
X59904402Y-115478410D01*
X59878406Y-115504406D01*
X59585763Y-115942377D01*
X59483000Y-116459000D01*
X59483000Y-122028473D01*
X59433243Y-122148301D01*
X59432757Y-122705256D01*
X59645445Y-123220000D01*
X59904402Y-123479410D01*
X59878406Y-123505406D01*
X59585763Y-123943377D01*
X59483000Y-124460000D01*
X59483000Y-130029473D01*
X59433243Y-130149301D01*
X59432757Y-130706256D01*
X59645445Y-131221000D01*
X59904402Y-131480410D01*
X59878406Y-131506406D01*
X59585763Y-131944377D01*
X59483000Y-132461000D01*
X59483000Y-138030473D01*
X59433243Y-138150301D01*
X59432757Y-138707256D01*
X59645445Y-139222000D01*
X60038928Y-139616170D01*
X60553301Y-139829757D01*
X61110256Y-139830243D01*
X61625000Y-139617555D01*
X62019170Y-139224072D01*
X62022830Y-139215256D01*
X63877757Y-139215256D01*
X64090445Y-139730000D01*
X64483928Y-140124170D01*
X64998301Y-140337757D01*
X65555256Y-140338243D01*
X65676853Y-140288000D01*
X72879473Y-140288000D01*
X72999301Y-140337757D01*
X73556256Y-140338243D01*
X73677853Y-140288000D01*
X80753473Y-140288000D01*
X80873301Y-140337757D01*
X81430256Y-140338243D01*
X81551853Y-140288000D01*
X88881473Y-140288000D01*
X89001301Y-140337757D01*
X89558256Y-140338243D01*
X89679853Y-140288000D01*
X96708652Y-140288000D01*
X96951301Y-140388757D01*
X97508256Y-140389243D01*
X97753283Y-140288000D01*
X104756473Y-140288000D01*
X104876301Y-140337757D01*
X105433256Y-140338243D01*
X105554853Y-140288000D01*
X112757473Y-140288000D01*
X112877301Y-140337757D01*
X113434256Y-140338243D01*
X113555853Y-140288000D01*
X120325624Y-140288000D01*
X120751301Y-140464757D01*
X121308256Y-140465243D01*
X121737217Y-140288000D01*
X128759473Y-140288000D01*
X128879301Y-140337757D01*
X129436256Y-140338243D01*
X129557853Y-140288000D01*
X134747000Y-140288000D01*
X134874000Y-140262738D01*
X135001000Y-140288000D01*
X136708624Y-140288000D01*
X137134301Y-140464757D01*
X137691256Y-140465243D01*
X138206000Y-140252555D01*
X138600170Y-139859072D01*
X138813757Y-139344699D01*
X138814243Y-138787744D01*
X138601555Y-138273000D01*
X138208072Y-137878830D01*
X137883185Y-137743925D01*
X137803623Y-137690763D01*
X137710593Y-137672258D01*
X137693699Y-137665243D01*
X137675245Y-137665227D01*
X137287000Y-137588000D01*
X135001000Y-137588000D01*
X134874000Y-137613262D01*
X134747000Y-137588000D01*
X129558527Y-137588000D01*
X129438699Y-137538243D01*
X128881744Y-137537757D01*
X128760147Y-137588000D01*
X113556527Y-137588000D01*
X113436699Y-137538243D01*
X112879744Y-137537757D01*
X112758147Y-137588000D01*
X105555527Y-137588000D01*
X105435699Y-137538243D01*
X104878744Y-137537757D01*
X104757147Y-137588000D01*
X89680527Y-137588000D01*
X89560699Y-137538243D01*
X89003744Y-137537757D01*
X88882147Y-137588000D01*
X81552527Y-137588000D01*
X81432699Y-137538243D01*
X80875744Y-137537757D01*
X80754147Y-137588000D01*
X73678527Y-137588000D01*
X73558699Y-137538243D01*
X73001744Y-137537757D01*
X72880147Y-137588000D01*
X65677527Y-137588000D01*
X65557699Y-137538243D01*
X65000744Y-137537757D01*
X64486000Y-137750445D01*
X64091830Y-138143928D01*
X63878243Y-138658301D01*
X63877757Y-139215256D01*
X62022830Y-139215256D01*
X62232757Y-138709699D01*
X62233243Y-138152744D01*
X62183000Y-138031147D01*
X62183000Y-133020188D01*
X62916188Y-132287000D01*
X63887088Y-132287000D01*
X63878243Y-132308301D01*
X63877757Y-132865256D01*
X64090445Y-133380000D01*
X64123600Y-133413213D01*
X64091830Y-133444928D01*
X63878243Y-133959301D01*
X63877757Y-134516256D01*
X64090445Y-135031000D01*
X64483928Y-135425170D01*
X64998301Y-135638757D01*
X65555256Y-135639243D01*
X65676853Y-135589000D01*
X72879473Y-135589000D01*
X72999301Y-135638757D01*
X73556256Y-135639243D01*
X73677853Y-135589000D01*
X80880473Y-135589000D01*
X81000301Y-135638757D01*
X81557256Y-135639243D01*
X81678853Y-135589000D01*
X88881473Y-135589000D01*
X89001301Y-135638757D01*
X89558256Y-135639243D01*
X89679853Y-135589000D01*
X96882473Y-135589000D01*
X97002301Y-135638757D01*
X97559256Y-135639243D01*
X97680853Y-135589000D01*
X104756473Y-135589000D01*
X104876301Y-135638757D01*
X105433256Y-135639243D01*
X105554853Y-135589000D01*
X112884473Y-135589000D01*
X113004301Y-135638757D01*
X113561256Y-135639243D01*
X113682853Y-135589000D01*
X120758473Y-135589000D01*
X120878301Y-135638757D01*
X121435256Y-135639243D01*
X121556853Y-135589000D01*
X128886473Y-135589000D01*
X129006301Y-135638757D01*
X129563256Y-135639243D01*
X129684853Y-135589000D01*
X136887473Y-135589000D01*
X137007301Y-135638757D01*
X137564256Y-135639243D01*
X138079000Y-135426555D01*
X138473170Y-135033072D01*
X138477000Y-135023848D01*
X138477000Y-136379473D01*
X138427243Y-136499301D01*
X138426757Y-137056256D01*
X138639445Y-137571000D01*
X139032928Y-137965170D01*
X139547301Y-138178757D01*
X140104256Y-138179243D01*
X140619000Y-137966555D01*
X141013170Y-137573072D01*
X141226757Y-137058699D01*
X141227243Y-136501744D01*
X141177000Y-136380147D01*
X141177000Y-132588000D01*
X141074237Y-132071377D01*
X140781594Y-131633406D01*
X140343623Y-131340763D01*
X139827000Y-131238000D01*
X138813849Y-131238000D01*
X138814243Y-130786744D01*
X138601555Y-130272000D01*
X138208072Y-129877830D01*
X137883185Y-129742925D01*
X137803623Y-129689763D01*
X137710593Y-129671258D01*
X137693699Y-129664243D01*
X137675245Y-129664227D01*
X137287000Y-129587000D01*
X135001000Y-129587000D01*
X134874000Y-129612262D01*
X134747000Y-129587000D01*
X129558527Y-129587000D01*
X129438699Y-129537243D01*
X128881744Y-129536757D01*
X128760147Y-129587000D01*
X113556527Y-129587000D01*
X113436699Y-129537243D01*
X112879744Y-129536757D01*
X112758147Y-129587000D01*
X105555527Y-129587000D01*
X105435699Y-129537243D01*
X104878744Y-129536757D01*
X104757147Y-129587000D01*
X89680527Y-129587000D01*
X89560699Y-129537243D01*
X89003744Y-129536757D01*
X88882147Y-129587000D01*
X81552527Y-129587000D01*
X81432699Y-129537243D01*
X80875744Y-129536757D01*
X80754147Y-129587000D01*
X73678527Y-129587000D01*
X73558699Y-129537243D01*
X73001744Y-129536757D01*
X72880147Y-129587000D01*
X65677527Y-129587000D01*
X65557699Y-129537243D01*
X65000744Y-129536757D01*
X64879147Y-129587000D01*
X62357000Y-129587000D01*
X62183000Y-129621611D01*
X62183000Y-125019188D01*
X62916188Y-124286000D01*
X63887088Y-124286000D01*
X63878243Y-124307301D01*
X63877757Y-124864256D01*
X64090445Y-125379000D01*
X64123600Y-125412213D01*
X64091830Y-125443928D01*
X63878243Y-125958301D01*
X63877757Y-126515256D01*
X64090445Y-127030000D01*
X64483928Y-127424170D01*
X64998301Y-127637757D01*
X65555256Y-127638243D01*
X65676853Y-127588000D01*
X72879473Y-127588000D01*
X72999301Y-127637757D01*
X73556256Y-127638243D01*
X73677853Y-127588000D01*
X80880473Y-127588000D01*
X81000301Y-127637757D01*
X81557256Y-127638243D01*
X81678853Y-127588000D01*
X88881473Y-127588000D01*
X89001301Y-127637757D01*
X89558256Y-127638243D01*
X89679853Y-127588000D01*
X96882473Y-127588000D01*
X97002301Y-127637757D01*
X97559256Y-127638243D01*
X97680853Y-127588000D01*
X104756473Y-127588000D01*
X104876301Y-127637757D01*
X105433256Y-127638243D01*
X105554853Y-127588000D01*
X112884473Y-127588000D01*
X113004301Y-127637757D01*
X113561256Y-127638243D01*
X113682853Y-127588000D01*
X120758473Y-127588000D01*
X120878301Y-127637757D01*
X121435256Y-127638243D01*
X121556853Y-127588000D01*
X128886473Y-127588000D01*
X129006301Y-127637757D01*
X129563256Y-127638243D01*
X129684853Y-127588000D01*
X136887473Y-127588000D01*
X137007301Y-127637757D01*
X137564256Y-127638243D01*
X138079000Y-127425555D01*
X138473170Y-127032072D01*
X138477000Y-127022848D01*
X138477000Y-128378473D01*
X138427243Y-128498301D01*
X138426757Y-129055256D01*
X138639445Y-129570000D01*
X139032928Y-129964170D01*
X139547301Y-130177757D01*
X140104256Y-130178243D01*
X140619000Y-129965555D01*
X141013170Y-129572072D01*
X141226757Y-129057699D01*
X141227243Y-128500744D01*
X141177000Y-128379147D01*
X141177000Y-124587000D01*
X141074237Y-124070377D01*
X140781594Y-123632406D01*
X140343623Y-123339763D01*
X139827000Y-123237000D01*
X138813849Y-123237000D01*
X138814243Y-122785744D01*
X138601555Y-122271000D01*
X138208072Y-121876830D01*
X137883185Y-121741925D01*
X137803623Y-121688763D01*
X137710593Y-121670258D01*
X137693699Y-121663243D01*
X137675245Y-121663227D01*
X137287000Y-121586000D01*
X135001000Y-121586000D01*
X134874000Y-121611262D01*
X134747000Y-121586000D01*
X129558527Y-121586000D01*
X129438699Y-121536243D01*
X128881744Y-121535757D01*
X128760147Y-121586000D01*
X113556527Y-121586000D01*
X113436699Y-121536243D01*
X112879744Y-121535757D01*
X112758147Y-121586000D01*
X105555527Y-121586000D01*
X105435699Y-121536243D01*
X104878744Y-121535757D01*
X104757147Y-121586000D01*
X89680527Y-121586000D01*
X89560699Y-121536243D01*
X89003744Y-121535757D01*
X88882147Y-121586000D01*
X81552527Y-121586000D01*
X81432699Y-121536243D01*
X80875744Y-121535757D01*
X80754147Y-121586000D01*
X73678527Y-121586000D01*
X73558699Y-121536243D01*
X73001744Y-121535757D01*
X72880147Y-121586000D01*
X65677527Y-121586000D01*
X65557699Y-121536243D01*
X65000744Y-121535757D01*
X64879147Y-121586000D01*
X62357000Y-121586000D01*
X62183000Y-121620611D01*
X62183000Y-117018188D01*
X62916188Y-116285000D01*
X63887088Y-116285000D01*
X63878243Y-116306301D01*
X63877757Y-116863256D01*
X64090445Y-117378000D01*
X64123600Y-117411213D01*
X64091830Y-117442928D01*
X63878243Y-117957301D01*
X63877757Y-118514256D01*
X64090445Y-119029000D01*
X64483928Y-119423170D01*
X64998301Y-119636757D01*
X65555256Y-119637243D01*
X65676853Y-119587000D01*
X72879473Y-119587000D01*
X72999301Y-119636757D01*
X73556256Y-119637243D01*
X73677853Y-119587000D01*
X80880473Y-119587000D01*
X81000301Y-119636757D01*
X81557256Y-119637243D01*
X81678853Y-119587000D01*
X88881473Y-119587000D01*
X89001301Y-119636757D01*
X89558256Y-119637243D01*
X89679853Y-119587000D01*
X96882473Y-119587000D01*
X97002301Y-119636757D01*
X97559256Y-119637243D01*
X97680853Y-119587000D01*
X104756473Y-119587000D01*
X104876301Y-119636757D01*
X105433256Y-119637243D01*
X105554853Y-119587000D01*
X112884473Y-119587000D01*
X113004301Y-119636757D01*
X113561256Y-119637243D01*
X113682853Y-119587000D01*
X120758473Y-119587000D01*
X120878301Y-119636757D01*
X121435256Y-119637243D01*
X121556853Y-119587000D01*
X128886473Y-119587000D01*
X129006301Y-119636757D01*
X129563256Y-119637243D01*
X129684853Y-119587000D01*
X136887473Y-119587000D01*
X137007301Y-119636757D01*
X137564256Y-119637243D01*
X138079000Y-119424555D01*
X138473170Y-119031072D01*
X138477000Y-119021848D01*
X138477000Y-120377473D01*
X138427243Y-120497301D01*
X138426757Y-121054256D01*
X138639445Y-121569000D01*
X139032928Y-121963170D01*
X139547301Y-122176757D01*
X140104256Y-122177243D01*
X140619000Y-121964555D01*
X141013170Y-121571072D01*
X141226757Y-121056699D01*
X141227243Y-120499744D01*
X141177000Y-120378147D01*
X141177000Y-116586000D01*
X141074237Y-116069377D01*
X140781594Y-115631406D01*
X140343623Y-115338763D01*
X139827000Y-115236000D01*
X138813849Y-115236000D01*
X138814243Y-114784744D01*
X138601555Y-114270000D01*
X138208072Y-113875830D01*
X137883185Y-113740925D01*
X137803623Y-113687763D01*
X137710593Y-113669258D01*
X137693699Y-113662243D01*
X137675245Y-113662227D01*
X137287000Y-113585000D01*
X135001000Y-113585000D01*
X134874000Y-113610262D01*
X134747000Y-113585000D01*
X129558527Y-113585000D01*
X129438699Y-113535243D01*
X128881744Y-113534757D01*
X128760147Y-113585000D01*
X113556527Y-113585000D01*
X113436699Y-113535243D01*
X112879744Y-113534757D01*
X112758147Y-113585000D01*
X105555527Y-113585000D01*
X105435699Y-113535243D01*
X104878744Y-113534757D01*
X104757147Y-113585000D01*
X89680527Y-113585000D01*
X89560699Y-113535243D01*
X89003744Y-113534757D01*
X88882147Y-113585000D01*
X81552527Y-113585000D01*
X81432699Y-113535243D01*
X80875744Y-113534757D01*
X80754147Y-113585000D01*
X73678527Y-113585000D01*
X73558699Y-113535243D01*
X73001744Y-113534757D01*
X72880147Y-113585000D01*
X65677527Y-113585000D01*
X65557699Y-113535243D01*
X65000744Y-113534757D01*
X64879147Y-113585000D01*
X62357000Y-113585000D01*
X62183000Y-113619611D01*
X62183000Y-109017188D01*
X62916188Y-108284000D01*
X63887088Y-108284000D01*
X63878243Y-108305301D01*
X63877757Y-108862256D01*
X64090445Y-109377000D01*
X64123600Y-109410213D01*
X64091830Y-109441928D01*
X63878243Y-109956301D01*
X63877757Y-110513256D01*
X64090445Y-111028000D01*
X64483928Y-111422170D01*
X64998301Y-111635757D01*
X65555256Y-111636243D01*
X65676853Y-111586000D01*
X72879473Y-111586000D01*
X72999301Y-111635757D01*
X73556256Y-111636243D01*
X73677853Y-111586000D01*
X80880473Y-111586000D01*
X81000301Y-111635757D01*
X81557256Y-111636243D01*
X81678853Y-111586000D01*
X88881473Y-111586000D01*
X89001301Y-111635757D01*
X89558256Y-111636243D01*
X89679853Y-111586000D01*
X96882473Y-111586000D01*
X97002301Y-111635757D01*
X97559256Y-111636243D01*
X97680853Y-111586000D01*
X104756473Y-111586000D01*
X104876301Y-111635757D01*
X105433256Y-111636243D01*
X105554853Y-111586000D01*
X112884473Y-111586000D01*
X113004301Y-111635757D01*
X113561256Y-111636243D01*
X113682853Y-111586000D01*
X120758473Y-111586000D01*
X120878301Y-111635757D01*
X121435256Y-111636243D01*
X121556853Y-111586000D01*
X128886473Y-111586000D01*
X129006301Y-111635757D01*
X129563256Y-111636243D01*
X129684853Y-111586000D01*
X136887473Y-111586000D01*
X137007301Y-111635757D01*
X137564256Y-111636243D01*
X138079000Y-111423555D01*
X138473170Y-111030072D01*
X138477000Y-111020848D01*
X138477000Y-112376473D01*
X138427243Y-112496301D01*
X138426757Y-113053256D01*
X138639445Y-113568000D01*
X139032928Y-113962170D01*
X139547301Y-114175757D01*
X140104256Y-114176243D01*
X140619000Y-113963555D01*
X141013170Y-113570072D01*
X141226757Y-113055699D01*
X141227243Y-112498744D01*
X141177000Y-112377147D01*
X141177000Y-108585000D01*
X141074237Y-108068377D01*
X140781594Y-107630406D01*
X140343623Y-107337763D01*
X139827000Y-107235000D01*
X138813849Y-107235000D01*
X138814243Y-106783744D01*
X138601555Y-106269000D01*
X138208072Y-105874830D01*
X137883185Y-105739925D01*
X137803623Y-105686763D01*
X137710593Y-105668258D01*
X137693699Y-105661243D01*
X137675245Y-105661227D01*
X137287000Y-105584000D01*
X135001000Y-105584000D01*
X134874000Y-105609262D01*
X134747000Y-105584000D01*
X129558527Y-105584000D01*
X129438699Y-105534243D01*
X128881744Y-105533757D01*
X128760147Y-105584000D01*
X113556527Y-105584000D01*
X113436699Y-105534243D01*
X112879744Y-105533757D01*
X112758147Y-105584000D01*
X105555527Y-105584000D01*
X105435699Y-105534243D01*
X104878744Y-105533757D01*
X104757147Y-105584000D01*
X89680527Y-105584000D01*
X89560699Y-105534243D01*
X89003744Y-105533757D01*
X88882147Y-105584000D01*
X81552527Y-105584000D01*
X81432699Y-105534243D01*
X80875744Y-105533757D01*
X80754147Y-105584000D01*
X73678527Y-105584000D01*
X73558699Y-105534243D01*
X73001744Y-105533757D01*
X72880147Y-105584000D01*
X65677527Y-105584000D01*
X65557699Y-105534243D01*
X65000744Y-105533757D01*
X64879147Y-105584000D01*
X62357000Y-105584000D01*
X62183000Y-105618611D01*
X62183000Y-101016188D01*
X62916188Y-100283000D01*
X63887088Y-100283000D01*
X63878243Y-100304301D01*
X63877757Y-100861256D01*
X64090445Y-101376000D01*
X64123600Y-101409213D01*
X64091830Y-101440928D01*
X63878243Y-101955301D01*
X63877757Y-102512256D01*
X64090445Y-103027000D01*
X64483928Y-103421170D01*
X64998301Y-103634757D01*
X65555256Y-103635243D01*
X65676853Y-103585000D01*
X72879473Y-103585000D01*
X72999301Y-103634757D01*
X73556256Y-103635243D01*
X73677853Y-103585000D01*
X80880473Y-103585000D01*
X81000301Y-103634757D01*
X81557256Y-103635243D01*
X81678853Y-103585000D01*
X88881473Y-103585000D01*
X89001301Y-103634757D01*
X89558256Y-103635243D01*
X89679853Y-103585000D01*
X96882473Y-103585000D01*
X97002301Y-103634757D01*
X97559256Y-103635243D01*
X97680853Y-103585000D01*
X104756473Y-103585000D01*
X104876301Y-103634757D01*
X105433256Y-103635243D01*
X105554853Y-103585000D01*
X112884473Y-103585000D01*
X113004301Y-103634757D01*
X113561256Y-103635243D01*
X113682853Y-103585000D01*
X120758473Y-103585000D01*
X120878301Y-103634757D01*
X121435256Y-103635243D01*
X121556853Y-103585000D01*
X128886473Y-103585000D01*
X129006301Y-103634757D01*
X129563256Y-103635243D01*
X129684853Y-103585000D01*
X136887473Y-103585000D01*
X137007301Y-103634757D01*
X137564256Y-103635243D01*
X138079000Y-103422555D01*
X138473170Y-103029072D01*
X138477000Y-103019848D01*
X138477000Y-104375473D01*
X138427243Y-104495301D01*
X138426757Y-105052256D01*
X138639445Y-105567000D01*
X139032928Y-105961170D01*
X139547301Y-106174757D01*
X140104256Y-106175243D01*
X140619000Y-105962555D01*
X141013170Y-105569072D01*
X141226757Y-105054699D01*
X141227243Y-104497744D01*
X141177000Y-104376147D01*
X141177000Y-100584000D01*
X141074237Y-100067377D01*
X140781594Y-99629406D01*
X140343623Y-99336763D01*
X139827000Y-99234000D01*
X138813849Y-99234000D01*
X138814243Y-98782744D01*
X138601555Y-98268000D01*
X138208072Y-97873830D01*
X137883185Y-97738925D01*
X137803623Y-97685763D01*
X137710593Y-97667258D01*
X137693699Y-97660243D01*
X137675245Y-97660227D01*
X137287000Y-97583000D01*
X135001000Y-97583000D01*
X134874000Y-97608262D01*
X134747000Y-97583000D01*
X129558527Y-97583000D01*
X129438699Y-97533243D01*
X128881744Y-97532757D01*
X128760147Y-97583000D01*
X113556527Y-97583000D01*
X113436699Y-97533243D01*
X112879744Y-97532757D01*
X112758147Y-97583000D01*
X105555527Y-97583000D01*
X105435699Y-97533243D01*
X104878744Y-97532757D01*
X104757147Y-97583000D01*
X89680527Y-97583000D01*
X89560699Y-97533243D01*
X89003744Y-97532757D01*
X88882147Y-97583000D01*
X81552527Y-97583000D01*
X81432699Y-97533243D01*
X80875744Y-97532757D01*
X80754147Y-97583000D01*
X73678527Y-97583000D01*
X73558699Y-97533243D01*
X73001744Y-97532757D01*
X72880147Y-97583000D01*
X65677527Y-97583000D01*
X65557699Y-97533243D01*
X65000744Y-97532757D01*
X64879147Y-97583000D01*
X62357000Y-97583000D01*
X62183000Y-97617611D01*
X62183000Y-93015188D01*
X62916188Y-92282000D01*
X63887088Y-92282000D01*
X63878243Y-92303301D01*
X63877757Y-92860256D01*
X64090445Y-93375000D01*
X64123600Y-93408213D01*
X64091830Y-93439928D01*
X63878243Y-93954301D01*
X63877757Y-94511256D01*
X64090445Y-95026000D01*
X64483928Y-95420170D01*
X64998301Y-95633757D01*
X65555256Y-95634243D01*
X65676853Y-95584000D01*
X72879473Y-95584000D01*
X72999301Y-95633757D01*
X73556256Y-95634243D01*
X73677853Y-95584000D01*
X80880473Y-95584000D01*
X81000301Y-95633757D01*
X81557256Y-95634243D01*
X81678853Y-95584000D01*
X88881473Y-95584000D01*
X89001301Y-95633757D01*
X89558256Y-95634243D01*
X89679853Y-95584000D01*
X96882473Y-95584000D01*
X97002301Y-95633757D01*
X97559256Y-95634243D01*
X97680853Y-95584000D01*
X104756473Y-95584000D01*
X104876301Y-95633757D01*
X105433256Y-95634243D01*
X105554853Y-95584000D01*
X112884473Y-95584000D01*
X113004301Y-95633757D01*
X113561256Y-95634243D01*
X113682853Y-95584000D01*
X120758473Y-95584000D01*
X120878301Y-95633757D01*
X121435256Y-95634243D01*
X121556853Y-95584000D01*
X128886473Y-95584000D01*
X129006301Y-95633757D01*
X129563256Y-95634243D01*
X129684853Y-95584000D01*
X136887473Y-95584000D01*
X137007301Y-95633757D01*
X137564256Y-95634243D01*
X138079000Y-95421555D01*
X138473170Y-95028072D01*
X138477000Y-95018848D01*
X138477000Y-96374473D01*
X138427243Y-96494301D01*
X138426757Y-97051256D01*
X138639445Y-97566000D01*
X139032928Y-97960170D01*
X139547301Y-98173757D01*
X140104256Y-98174243D01*
X140619000Y-97961555D01*
X141013170Y-97568072D01*
X141226757Y-97053699D01*
X141227243Y-96496744D01*
X141177000Y-96375147D01*
X141177000Y-92583000D01*
X141074237Y-92066377D01*
X140781594Y-91628406D01*
X140343623Y-91335763D01*
X139827000Y-91233000D01*
X138813849Y-91233000D01*
X138814243Y-90781744D01*
X138601555Y-90267000D01*
X138208072Y-89872830D01*
X137883185Y-89737925D01*
X137803623Y-89684763D01*
X137710593Y-89666258D01*
X137693699Y-89659243D01*
X137675245Y-89659227D01*
X137287000Y-89582000D01*
X135001000Y-89582000D01*
X134874000Y-89607262D01*
X134747000Y-89582000D01*
X129558527Y-89582000D01*
X129438699Y-89532243D01*
X128881744Y-89531757D01*
X128760147Y-89582000D01*
X113556527Y-89582000D01*
X113436699Y-89532243D01*
X112879744Y-89531757D01*
X112758147Y-89582000D01*
X105555527Y-89582000D01*
X105435699Y-89532243D01*
X104878744Y-89531757D01*
X104757147Y-89582000D01*
X89680527Y-89582000D01*
X89560699Y-89532243D01*
X89003744Y-89531757D01*
X88882147Y-89582000D01*
X81552527Y-89582000D01*
X81432699Y-89532243D01*
X80875744Y-89531757D01*
X80754147Y-89582000D01*
X73678527Y-89582000D01*
X73558699Y-89532243D01*
X73001744Y-89531757D01*
X72880147Y-89582000D01*
X65677527Y-89582000D01*
X65557699Y-89532243D01*
X65000744Y-89531757D01*
X64879147Y-89582000D01*
X62357000Y-89582000D01*
X62183000Y-89616611D01*
X62183000Y-85014188D01*
X62916188Y-84281000D01*
X63887088Y-84281000D01*
X63878243Y-84302301D01*
X63877757Y-84859256D01*
X64090445Y-85374000D01*
X64123600Y-85407213D01*
X64091830Y-85438928D01*
X63878243Y-85953301D01*
X63877757Y-86510256D01*
X64090445Y-87025000D01*
X64483928Y-87419170D01*
X64998301Y-87632757D01*
X65555256Y-87633243D01*
X65676853Y-87583000D01*
X72879473Y-87583000D01*
X72999301Y-87632757D01*
X73556256Y-87633243D01*
X73677853Y-87583000D01*
X80880473Y-87583000D01*
X81000301Y-87632757D01*
X81557256Y-87633243D01*
X81678853Y-87583000D01*
X88881473Y-87583000D01*
X89001301Y-87632757D01*
X89558256Y-87633243D01*
X89679853Y-87583000D01*
X96882473Y-87583000D01*
X97002301Y-87632757D01*
X97559256Y-87633243D01*
X97680853Y-87583000D01*
X104756473Y-87583000D01*
X104876301Y-87632757D01*
X105433256Y-87633243D01*
X105554853Y-87583000D01*
X112884473Y-87583000D01*
X113004301Y-87632757D01*
X113561256Y-87633243D01*
X113682853Y-87583000D01*
X120758473Y-87583000D01*
X120878301Y-87632757D01*
X121435256Y-87633243D01*
X121556853Y-87583000D01*
X128886473Y-87583000D01*
X129006301Y-87632757D01*
X129563256Y-87633243D01*
X129684853Y-87583000D01*
X136887473Y-87583000D01*
X137007301Y-87632757D01*
X137564256Y-87633243D01*
X138079000Y-87420555D01*
X138473170Y-87027072D01*
X138477000Y-87017848D01*
X138477000Y-88373473D01*
X138427243Y-88493301D01*
X138426757Y-89050256D01*
X138639445Y-89565000D01*
X139032928Y-89959170D01*
X139547301Y-90172757D01*
X140104256Y-90173243D01*
X140619000Y-89960555D01*
X141013170Y-89567072D01*
X141226757Y-89052699D01*
X141227243Y-88495744D01*
X141177000Y-88374147D01*
X141177000Y-84582000D01*
X141074237Y-84065377D01*
X140781594Y-83627406D01*
X140343623Y-83334763D01*
X139827000Y-83232000D01*
X138813849Y-83232000D01*
X138814243Y-82780744D01*
X138601555Y-82266000D01*
X138208072Y-81871830D01*
X137883185Y-81736925D01*
X137803623Y-81683763D01*
X137710593Y-81665258D01*
X137693699Y-81658243D01*
X137675245Y-81658227D01*
X137287000Y-81581000D01*
X135001000Y-81581000D01*
X134874000Y-81606262D01*
X134747000Y-81581000D01*
X129558527Y-81581000D01*
X129438699Y-81531243D01*
X128881744Y-81530757D01*
X128760147Y-81581000D01*
X113556527Y-81581000D01*
X113436699Y-81531243D01*
X112879744Y-81530757D01*
X112758147Y-81581000D01*
X105555527Y-81581000D01*
X105435699Y-81531243D01*
X104878744Y-81530757D01*
X104757147Y-81581000D01*
X89680527Y-81581000D01*
X89560699Y-81531243D01*
X89003744Y-81530757D01*
X88882147Y-81581000D01*
X81552527Y-81581000D01*
X81432699Y-81531243D01*
X80875744Y-81530757D01*
X80754147Y-81581000D01*
X73678527Y-81581000D01*
X73558699Y-81531243D01*
X73001744Y-81530757D01*
X72880147Y-81581000D01*
X65677527Y-81581000D01*
X65557699Y-81531243D01*
X65000744Y-81530757D01*
X64879147Y-81581000D01*
X62357000Y-81581000D01*
X62183000Y-81615611D01*
X62183000Y-77013188D01*
X62916188Y-76280000D01*
X63887088Y-76280000D01*
X63878243Y-76301301D01*
X63877757Y-76858256D01*
X64090445Y-77373000D01*
X64123600Y-77406213D01*
X64091830Y-77437928D01*
X63878243Y-77952301D01*
X63877757Y-78509256D01*
X64090445Y-79024000D01*
X64483928Y-79418170D01*
X64998301Y-79631757D01*
X65555256Y-79632243D01*
X65676853Y-79582000D01*
X72879473Y-79582000D01*
X72999301Y-79631757D01*
X73556256Y-79632243D01*
X73677853Y-79582000D01*
X80880473Y-79582000D01*
X81000301Y-79631757D01*
X81557256Y-79632243D01*
X81678853Y-79582000D01*
X88881473Y-79582000D01*
X89001301Y-79631757D01*
X89558256Y-79632243D01*
X89679853Y-79582000D01*
X96882473Y-79582000D01*
X97002301Y-79631757D01*
X97559256Y-79632243D01*
X97680853Y-79582000D01*
X104756473Y-79582000D01*
X104876301Y-79631757D01*
X105433256Y-79632243D01*
X105554853Y-79582000D01*
X112884473Y-79582000D01*
X113004301Y-79631757D01*
X113561256Y-79632243D01*
X113682853Y-79582000D01*
X120758473Y-79582000D01*
X120878301Y-79631757D01*
X121435256Y-79632243D01*
X121556853Y-79582000D01*
X128886473Y-79582000D01*
X129006301Y-79631757D01*
X129563256Y-79632243D01*
X129684853Y-79582000D01*
X136887473Y-79582000D01*
X137007301Y-79631757D01*
X137564256Y-79632243D01*
X138079000Y-79419555D01*
X138473170Y-79026072D01*
X138477000Y-79016848D01*
X138477000Y-80372473D01*
X138427243Y-80492301D01*
X138426757Y-81049256D01*
X138639445Y-81564000D01*
X139032928Y-81958170D01*
X139547301Y-82171757D01*
X140104256Y-82172243D01*
X140619000Y-81959555D01*
X141013170Y-81566072D01*
X141226757Y-81051699D01*
X141227243Y-80494744D01*
X141177000Y-80373147D01*
X141177000Y-76581000D01*
X141074237Y-76064377D01*
X140781594Y-75626406D01*
X140343623Y-75333763D01*
X139827000Y-75231000D01*
X138813849Y-75231000D01*
X138814243Y-74779744D01*
X138601555Y-74265000D01*
X138208072Y-73870830D01*
X137883185Y-73735925D01*
X137803623Y-73682763D01*
X137710593Y-73664258D01*
X137693699Y-73657243D01*
X137675245Y-73657227D01*
X137287000Y-73580000D01*
X135001000Y-73580000D01*
X134874000Y-73605262D01*
X134747000Y-73580000D01*
X129558527Y-73580000D01*
X129438699Y-73530243D01*
X128881744Y-73529757D01*
X128760147Y-73580000D01*
X113556527Y-73580000D01*
X113436699Y-73530243D01*
X112879744Y-73529757D01*
X112758147Y-73580000D01*
X105555527Y-73580000D01*
X105435699Y-73530243D01*
X104878744Y-73529757D01*
X104757147Y-73580000D01*
X89680527Y-73580000D01*
X89560699Y-73530243D01*
X89003744Y-73529757D01*
X88882147Y-73580000D01*
X81552527Y-73580000D01*
X81432699Y-73530243D01*
X80875744Y-73529757D01*
X80754147Y-73580000D01*
X73678527Y-73580000D01*
X73558699Y-73530243D01*
X73001744Y-73529757D01*
X72880147Y-73580000D01*
X65677527Y-73580000D01*
X65557699Y-73530243D01*
X65000744Y-73529757D01*
X64879147Y-73580000D01*
X62357000Y-73580000D01*
X62183000Y-73614611D01*
X62183000Y-69012188D01*
X62916188Y-68279000D01*
X63887088Y-68279000D01*
X63878243Y-68300301D01*
X63877757Y-68857256D01*
X64090445Y-69372000D01*
X64123600Y-69405213D01*
X64091830Y-69436928D01*
X63878243Y-69951301D01*
X63877757Y-70508256D01*
X64090445Y-71023000D01*
X64483928Y-71417170D01*
X64998301Y-71630757D01*
X65555256Y-71631243D01*
X65676853Y-71581000D01*
X72879473Y-71581000D01*
X72999301Y-71630757D01*
X73556256Y-71631243D01*
X73677853Y-71581000D01*
X80880473Y-71581000D01*
X81000301Y-71630757D01*
X81557256Y-71631243D01*
X81678853Y-71581000D01*
X88881473Y-71581000D01*
X89001301Y-71630757D01*
X89558256Y-71631243D01*
X89679853Y-71581000D01*
X96882473Y-71581000D01*
X97002301Y-71630757D01*
X97559256Y-71631243D01*
X97680853Y-71581000D01*
X104756473Y-71581000D01*
X104876301Y-71630757D01*
X105433256Y-71631243D01*
X105554853Y-71581000D01*
X112884473Y-71581000D01*
X113004301Y-71630757D01*
X113561256Y-71631243D01*
X113682853Y-71581000D01*
X120758473Y-71581000D01*
X120878301Y-71630757D01*
X121435256Y-71631243D01*
X121556853Y-71581000D01*
X128886473Y-71581000D01*
X129006301Y-71630757D01*
X129563256Y-71631243D01*
X129684853Y-71581000D01*
X136887473Y-71581000D01*
X137007301Y-71630757D01*
X137564256Y-71631243D01*
X138079000Y-71418555D01*
X138473170Y-71025072D01*
X138477000Y-71015848D01*
X138477000Y-72371473D01*
X138427243Y-72491301D01*
X138426757Y-73048256D01*
X138639445Y-73563000D01*
X139032928Y-73957170D01*
X139547301Y-74170757D01*
X140104256Y-74171243D01*
X140619000Y-73958555D01*
X141013170Y-73565072D01*
X141226757Y-73050699D01*
X141227243Y-72493744D01*
X141177000Y-72372147D01*
X141177000Y-69268898D01*
X141820554Y-69536124D01*
X142655782Y-69536853D01*
X143427712Y-69217898D01*
X144018823Y-68627818D01*
X144240000Y-68095164D01*
X144240000Y-162710345D01*
X143835107Y-162304745D01*
X143063548Y-161984366D01*
X142228117Y-161983637D01*
X141456000Y-162302669D01*
X141023916Y-162734000D01*
X139104000Y-162734000D01*
X139104000Y-154599000D01*
X139001237Y-154082377D01*
X138708594Y-153644406D01*
X137849594Y-152785406D01*
X137411623Y-152492763D01*
X136895000Y-152390000D01*
X124070100Y-152390000D01*
X123553477Y-152492763D01*
X123115506Y-152785406D01*
X120174142Y-155726770D01*
X119981899Y-155646943D01*
X119441717Y-155646472D01*
X127698166Y-147390023D01*
X127886064Y-147682024D01*
X128253654Y-147933188D01*
X128690000Y-148021550D01*
X129602362Y-148021550D01*
X129885806Y-148304994D01*
X130323777Y-148597637D01*
X130840400Y-148700400D01*
X137256600Y-148700400D01*
X137773223Y-148597637D01*
X138211194Y-148304994D01*
X138491094Y-148025094D01*
X138557000Y-148038203D01*
X139303233Y-147889768D01*
X139827000Y-147539798D01*
X140350767Y-147889768D01*
X141097000Y-148038203D01*
X141843233Y-147889768D01*
X142475858Y-147467061D01*
X142898565Y-146834436D01*
X143047000Y-146088203D01*
X143047000Y-146011797D01*
X142898565Y-145265564D01*
X142475858Y-144632939D01*
X141843233Y-144210232D01*
X141097000Y-144061797D01*
X140350767Y-144210232D01*
X139827000Y-144560202D01*
X139303233Y-144210232D01*
X138557000Y-144061797D01*
X137810767Y-144210232D01*
X137586352Y-144360182D01*
X137303346Y-144166812D01*
X136867000Y-144078450D01*
X135167000Y-144078450D01*
X134759364Y-144155152D01*
X134711889Y-144185701D01*
X134321193Y-143795005D01*
X134014381Y-143590000D01*
X136887473Y-143590000D01*
X137007301Y-143639757D01*
X137564256Y-143640243D01*
X138079000Y-143427555D01*
X138473170Y-143034072D01*
X138686757Y-142519699D01*
X138687243Y-141962744D01*
X138474555Y-141448000D01*
X138081072Y-141053830D01*
X137566699Y-140840243D01*
X137009744Y-140839757D01*
X136888147Y-140890000D01*
X129685527Y-140890000D01*
X129565699Y-140840243D01*
X129008744Y-140839757D01*
X128887147Y-140890000D01*
X121557527Y-140890000D01*
X121437699Y-140840243D01*
X120880744Y-140839757D01*
X120759147Y-140890000D01*
X113683527Y-140890000D01*
X113563699Y-140840243D01*
X113006744Y-140839757D01*
X112885147Y-140890000D01*
X105555527Y-140890000D01*
X105435699Y-140840243D01*
X104878744Y-140839757D01*
X104757147Y-140890000D01*
X97681527Y-140890000D01*
X97561699Y-140840243D01*
X97004744Y-140839757D01*
X96883147Y-140890000D01*
X89680527Y-140890000D01*
X89560699Y-140840243D01*
X89003744Y-140839757D01*
X88882147Y-140890000D01*
X81679527Y-140890000D01*
X81559699Y-140840243D01*
X81002744Y-140839757D01*
X80881147Y-140890000D01*
X73678527Y-140890000D01*
X73558699Y-140840243D01*
X73001744Y-140839757D01*
X72880147Y-140890000D01*
X65677527Y-140890000D01*
X65557699Y-140840243D01*
X65000744Y-140839757D01*
X64486000Y-141052445D01*
X64091830Y-141445928D01*
X63878243Y-141960301D01*
X63877757Y-142517256D01*
X64090445Y-143032000D01*
X64483928Y-143426170D01*
X64998301Y-143639757D01*
X65555256Y-143640243D01*
X65676853Y-143590000D01*
X72879473Y-143590000D01*
X72999301Y-143639757D01*
X73556256Y-143640243D01*
X73677853Y-143590000D01*
X80880473Y-143590000D01*
X81000301Y-143639757D01*
X81557256Y-143640243D01*
X81678853Y-143590000D01*
X88881473Y-143590000D01*
X89001301Y-143639757D01*
X89558256Y-143640243D01*
X89679853Y-143590000D01*
X96882473Y-143590000D01*
X97002301Y-143639757D01*
X97559256Y-143640243D01*
X97680853Y-143590000D01*
X104756473Y-143590000D01*
X104876301Y-143639757D01*
X105433256Y-143640243D01*
X105554853Y-143590000D01*
X112884473Y-143590000D01*
X113004301Y-143639757D01*
X113561256Y-143640243D01*
X113682853Y-143590000D01*
X120758473Y-143590000D01*
X120878301Y-143639757D01*
X121435256Y-143640243D01*
X121556853Y-143590000D01*
X127781618Y-143590000D01*
X127474806Y-143795005D01*
X115546867Y-155722945D01*
X115535072Y-155711130D01*
X115413563Y-155660675D01*
X108129594Y-148376706D01*
X108019978Y-148303463D01*
X107691623Y-148084063D01*
X107175000Y-147981300D01*
X87689527Y-147981300D01*
X87569699Y-147931543D01*
X87012744Y-147931057D01*
X86498000Y-148143745D01*
X86103830Y-148537228D01*
X85890243Y-149051601D01*
X85889757Y-149608556D01*
X86102445Y-150123300D01*
X86495928Y-150517470D01*
X87010301Y-150731057D01*
X87567256Y-150731543D01*
X87688853Y-150681300D01*
X88129788Y-150681300D01*
X88265645Y-151010100D01*
X88659128Y-151404270D01*
X89173501Y-151617857D01*
X89730456Y-151618343D01*
X89852053Y-151568100D01*
X105758612Y-151568100D01*
X108287912Y-154097400D01*
X93476427Y-154097400D01*
X93356599Y-154047643D01*
X92917529Y-154047260D01*
X92797555Y-153756900D01*
X92404072Y-153362730D01*
X91889699Y-153149143D01*
X91332744Y-153148657D01*
X91211147Y-153198900D01*
X83598500Y-153198900D01*
X83081878Y-153301662D01*
X82643906Y-153594306D01*
X82155356Y-154082856D01*
X82074072Y-154001430D01*
X81952563Y-153950975D01*
X81411100Y-153409512D01*
X81411100Y-151079288D01*
X81952085Y-150538303D01*
X82072000Y-150488755D01*
X82466170Y-150095272D01*
X82679757Y-149580899D01*
X82680243Y-149023944D01*
X82467555Y-148509200D01*
X82074072Y-148115030D01*
X81559699Y-147901443D01*
X81002744Y-147900957D01*
X80488000Y-148113645D01*
X80093830Y-148507128D01*
X80043375Y-148628637D01*
X79106506Y-149565506D01*
X78813863Y-150003477D01*
X78711100Y-150520100D01*
X78711100Y-152618700D01*
X70348600Y-152618700D01*
X69831977Y-152721463D01*
X69736280Y-152785406D01*
X69688900Y-152817064D01*
X69688900Y-150109888D01*
X73062085Y-146736703D01*
X73182000Y-146687155D01*
X73576170Y-146293672D01*
X73789757Y-145779299D01*
X73790243Y-145222344D01*
X73577555Y-144707600D01*
X73184072Y-144313430D01*
X72669699Y-144099843D01*
X72112744Y-144099357D01*
X71598000Y-144312045D01*
X71203830Y-144705528D01*
X71153375Y-144827037D01*
X67384306Y-148596106D01*
X67091663Y-149034077D01*
X66988900Y-149550700D01*
X66988900Y-158026112D01*
X63087400Y-161927612D01*
X61197103Y-160037315D01*
X61147555Y-159917400D01*
X60754072Y-159523230D01*
X60239699Y-159309643D01*
X59682744Y-159309157D01*
X59168000Y-159521845D01*
X58773830Y-159915328D01*
X58560243Y-160429701D01*
X58559757Y-160986656D01*
X58772445Y-161501400D01*
X59165928Y-161895570D01*
X59287437Y-161946025D01*
X64349706Y-167008294D01*
X64787678Y-167300938D01*
X65304300Y-167403700D01*
X85781112Y-167403700D01*
X84516406Y-168668406D01*
X84223763Y-169106377D01*
X84140321Y-169525868D01*
X84127497Y-169534437D01*
X83715629Y-170150841D01*
X83571000Y-170877940D01*
X83571000Y-171173812D01*
X82259834Y-169862646D01*
X82260363Y-169256117D01*
X81941331Y-168484000D01*
X81351107Y-167892745D01*
X80579548Y-167572366D01*
X79744117Y-167571637D01*
X78972000Y-167890669D01*
X78539916Y-168322000D01*
X75279613Y-168322000D01*
X74851107Y-167892745D01*
X74079548Y-167572366D01*
X73244117Y-167571637D01*
X72472000Y-167890669D01*
X71880745Y-168480893D01*
X71560366Y-169252452D01*
X71559637Y-170087883D01*
X71878669Y-170860000D01*
X72389377Y-171371600D01*
X72338788Y-171371600D01*
X70829834Y-169862646D01*
X70830363Y-169256117D01*
X70511331Y-168484000D01*
X69921107Y-167892745D01*
X69149548Y-167572366D01*
X68314117Y-167571637D01*
X67542000Y-167890669D01*
X67109916Y-168322000D01*
X63849613Y-168322000D01*
X63421107Y-167892745D01*
X62649548Y-167572366D01*
X61814117Y-167571637D01*
X61042000Y-167890669D01*
X60450745Y-168480893D01*
X60130366Y-169252452D01*
X60129637Y-170087883D01*
X60448669Y-170860000D01*
X61038893Y-171451255D01*
X61810452Y-171771634D01*
X62645883Y-171772363D01*
X63418000Y-171453331D01*
X63850084Y-171022000D01*
X67110387Y-171022000D01*
X67538893Y-171451255D01*
X68310452Y-171771634D01*
X68920979Y-171772167D01*
X69272042Y-172123230D01*
X69149548Y-172072366D01*
X68314117Y-172071637D01*
X67542000Y-172390669D01*
X66950745Y-172980893D01*
X66630366Y-173752452D01*
X66629637Y-174587883D01*
X66948669Y-175360000D01*
X67538893Y-175951255D01*
X68310452Y-176271634D01*
X69145883Y-176272363D01*
X69918000Y-175953331D01*
X70350084Y-175522000D01*
X72040387Y-175522000D01*
X72468893Y-175951255D01*
X73240452Y-176271634D01*
X74075883Y-176272363D01*
X74848000Y-175953331D01*
X75280084Y-175522000D01*
X78540387Y-175522000D01*
X78968893Y-175951255D01*
X79740452Y-176271634D01*
X80350979Y-176272167D01*
X86389406Y-182310594D01*
X86827377Y-182603237D01*
X87344000Y-182706000D01*
X87984333Y-182706000D01*
X88029142Y-182773061D01*
X88661767Y-183195768D01*
X89408000Y-183344203D01*
X90154233Y-183195768D01*
X90678000Y-182845798D01*
X91201767Y-183195768D01*
X91948000Y-183344203D01*
X92694233Y-183195768D01*
X93218000Y-182845798D01*
X93741767Y-183195768D01*
X94488000Y-183344203D01*
X95234233Y-183195768D01*
X95758000Y-182845798D01*
X96281767Y-183195768D01*
X97028000Y-183344203D01*
X97774233Y-183195768D01*
X98298000Y-182845798D01*
X98821767Y-183195768D01*
X99568000Y-183344203D01*
X100314233Y-183195768D01*
X100946858Y-182773061D01*
X100991667Y-182706000D01*
X109277900Y-182706000D01*
X109794523Y-182603237D01*
X110232494Y-182310594D01*
X114653205Y-177889883D01*
X127693637Y-177889883D01*
X128012669Y-178662000D01*
X128602893Y-179253255D01*
X129374452Y-179573634D01*
X130209883Y-179574363D01*
X130982000Y-179255331D01*
X131414084Y-178824000D01*
X134674387Y-178824000D01*
X135102893Y-179253255D01*
X135874452Y-179573634D01*
X136709883Y-179574363D01*
X137482000Y-179255331D01*
X138073255Y-178665107D01*
X138393634Y-177893548D01*
X138394363Y-177058117D01*
X138075331Y-176286000D01*
X137485107Y-175694745D01*
X136713548Y-175374366D01*
X135878117Y-175373637D01*
X135106000Y-175692669D01*
X134673916Y-176124000D01*
X131413613Y-176124000D01*
X130985107Y-175694745D01*
X130213548Y-175374366D01*
X129378117Y-175373637D01*
X128606000Y-175692669D01*
X128014745Y-176282893D01*
X127694366Y-177054452D01*
X127693637Y-177889883D01*
X114653205Y-177889883D01*
X117515185Y-175027903D01*
X117635100Y-174978355D01*
X118029270Y-174584872D01*
X118137594Y-174324000D01*
X128174387Y-174324000D01*
X128602893Y-174753255D01*
X129374452Y-175073634D01*
X130209883Y-175074363D01*
X130982000Y-174755331D01*
X131414084Y-174324000D01*
X134674387Y-174324000D01*
X135102893Y-174753255D01*
X135874452Y-175073634D01*
X136709883Y-175074363D01*
X137482000Y-174755331D01*
X138073255Y-174165107D01*
X138393634Y-173393548D01*
X138394363Y-172558117D01*
X138075331Y-171786000D01*
X137485107Y-171194745D01*
X136713548Y-170874366D01*
X135878117Y-170873637D01*
X135106000Y-171192669D01*
X134673916Y-171624000D01*
X131413613Y-171624000D01*
X130985107Y-171194745D01*
X130213548Y-170874366D01*
X129378117Y-170873637D01*
X128606000Y-171192669D01*
X128173916Y-171624000D01*
X120391000Y-171624000D01*
X120391000Y-170973000D01*
X122405000Y-170973000D01*
X122921623Y-170870237D01*
X123200664Y-170683788D01*
X123859883Y-170684363D01*
X124632000Y-170365331D01*
X125064084Y-169934000D01*
X128324387Y-169934000D01*
X128752893Y-170363255D01*
X129524452Y-170683634D01*
X130359883Y-170684363D01*
X131132000Y-170365331D01*
X131564084Y-169934000D01*
X134524387Y-169934000D01*
X134952893Y-170363255D01*
X135724452Y-170683634D01*
X136559883Y-170684363D01*
X137332000Y-170365331D01*
X137923255Y-169775107D01*
X138243634Y-169003548D01*
X138244363Y-168168117D01*
X137925331Y-167396000D01*
X137335107Y-166804745D01*
X136563548Y-166484366D01*
X136040900Y-166483910D01*
X136040900Y-166183910D01*
X136559883Y-166184363D01*
X137332000Y-165865331D01*
X137764084Y-165434000D01*
X141024387Y-165434000D01*
X141452893Y-165863255D01*
X142224452Y-166183634D01*
X143059883Y-166184363D01*
X143832000Y-165865331D01*
X144240000Y-165458042D01*
X144240000Y-167210345D01*
X143835107Y-166804745D01*
X143063548Y-166484366D01*
X142228117Y-166483637D01*
X141456000Y-166802669D01*
X140864745Y-167392893D01*
X140544366Y-168164452D01*
X140543637Y-168999883D01*
X140862669Y-169772000D01*
X141452893Y-170363255D01*
X142224452Y-170683634D01*
X143059883Y-170684363D01*
X143832000Y-170365331D01*
X144240000Y-169958042D01*
X144240000Y-186462080D01*
X143958971Y-188086042D01*
X143148871Y-189366607D01*
X141910384Y-190239684D01*
X140331426Y-190595000D01*
X72704619Y-190595000D01*
X72739249Y-190543173D01*
X72830256Y-190451593D01*
X72877766Y-190335869D01*
X72947267Y-190231853D01*
X72972455Y-190105223D01*
X73021487Y-189985791D01*
X73021094Y-189860695D01*
X73045500Y-189738000D01*
X73020312Y-189611371D01*
X73019907Y-189482265D01*
X72971673Y-189366843D01*
X72947267Y-189244147D01*
X72875537Y-189136796D01*
X72825756Y-189017673D01*
X71434776Y-186950000D01*
X76030000Y-186950000D01*
X76030000Y-181450000D01*
X67353809Y-181450000D01*
X67353809Y-181505676D01*
X67311735Y-181488093D01*
X67307608Y-181488080D01*
X67303791Y-181486513D01*
X67055922Y-181487290D01*
X66808209Y-181486513D01*
X66804394Y-181488079D01*
X66800265Y-181488092D01*
X66571576Y-181583661D01*
X66342407Y-181677744D01*
X66339479Y-181680653D01*
X66335673Y-181682244D01*
X66161048Y-181857968D01*
X65985243Y-182032673D01*
X61286244Y-189017673D01*
X61236463Y-189136797D01*
X61164733Y-189244147D01*
X61140328Y-189366840D01*
X61092092Y-189482265D01*
X61091687Y-189611375D01*
X61066500Y-189738000D01*
X61090905Y-189860694D01*
X61090513Y-189985791D01*
X61139545Y-190105223D01*
X61164733Y-190231853D01*
X61234234Y-190335869D01*
X61251241Y-190377293D01*
X60744430Y-190276482D01*
X59485025Y-189434974D01*
X58643518Y-188175570D01*
X58325000Y-186574271D01*
X58325000Y-174587883D01*
X60129637Y-174587883D01*
X60448669Y-175360000D01*
X61038893Y-175951255D01*
X61810452Y-176271634D01*
X62645883Y-176272363D01*
X63418000Y-175953331D01*
X64009255Y-175363107D01*
X64329634Y-174591548D01*
X64330363Y-173756117D01*
X64011331Y-172984000D01*
X63421107Y-172392745D01*
X62649548Y-172072366D01*
X61814117Y-172071637D01*
X61042000Y-172390669D01*
X60450745Y-172980893D01*
X60130366Y-173752452D01*
X60129637Y-174587883D01*
X58325000Y-174587883D01*
X58325000Y-67425729D01*
X58643518Y-65824430D01*
X59485025Y-64565026D01*
X60744430Y-63723518D01*
X62345729Y-63405000D01*
X140219271Y-63405000D01*
X141820570Y-63723518D01*
X141820570Y-63723518D01*
G37*
X141820570Y-63723518D02*
X143079974Y-64565025D01*
X143921482Y-65824430D01*
X144002282Y-66230639D01*
X143430818Y-65658177D01*
X142659446Y-65337876D01*
X141824218Y-65337147D01*
X141052288Y-65656102D01*
X140461177Y-66246182D01*
X140140876Y-67017554D01*
X140140636Y-67292386D01*
X139827000Y-67230000D01*
X138813849Y-67230000D01*
X138814243Y-66778744D01*
X138601555Y-66264000D01*
X138208072Y-65869830D01*
X137883185Y-65734925D01*
X137803623Y-65681763D01*
X137710593Y-65663258D01*
X137693699Y-65656243D01*
X137675245Y-65656227D01*
X137287000Y-65579000D01*
X135001000Y-65579000D01*
X134874000Y-65604262D01*
X134747000Y-65579000D01*
X129558527Y-65579000D01*
X129438699Y-65529243D01*
X128881744Y-65528757D01*
X128760147Y-65579000D01*
X113556527Y-65579000D01*
X113436699Y-65529243D01*
X112879744Y-65528757D01*
X112758147Y-65579000D01*
X105555527Y-65579000D01*
X105435699Y-65529243D01*
X104878744Y-65528757D01*
X104757147Y-65579000D01*
X89680527Y-65579000D01*
X89560699Y-65529243D01*
X89003744Y-65528757D01*
X88882147Y-65579000D01*
X81552527Y-65579000D01*
X81432699Y-65529243D01*
X80875744Y-65528757D01*
X80754147Y-65579000D01*
X73678527Y-65579000D01*
X73558699Y-65529243D01*
X73001744Y-65528757D01*
X72880147Y-65579000D01*
X65677527Y-65579000D01*
X65557699Y-65529243D01*
X65000744Y-65528757D01*
X64879147Y-65579000D01*
X62357000Y-65579000D01*
X61840377Y-65681763D01*
X61560988Y-65868445D01*
X61402406Y-65974406D01*
X59878406Y-67498406D01*
X59585763Y-67936377D01*
X59483000Y-68453000D01*
X59483000Y-74022473D01*
X59433243Y-74142301D01*
X59432757Y-74699256D01*
X59645445Y-75214000D01*
X59904402Y-75473410D01*
X59878406Y-75499406D01*
X59585763Y-75937377D01*
X59483000Y-76454000D01*
X59483000Y-82023473D01*
X59433243Y-82143301D01*
X59432757Y-82700256D01*
X59645445Y-83215000D01*
X59904402Y-83474410D01*
X59878406Y-83500406D01*
X59585763Y-83938377D01*
X59483000Y-84455000D01*
X59483000Y-90024473D01*
X59433243Y-90144301D01*
X59432757Y-90701256D01*
X59645445Y-91216000D01*
X59904402Y-91475410D01*
X59878406Y-91501406D01*
X59585763Y-91939377D01*
X59483000Y-92456000D01*
X59483000Y-98025473D01*
X59433243Y-98145301D01*
X59432757Y-98702256D01*
X59645445Y-99217000D01*
X59904402Y-99476410D01*
X59878406Y-99502406D01*
X59585763Y-99940377D01*
X59483000Y-100457000D01*
X59483000Y-106026473D01*
X59433243Y-106146301D01*
X59432757Y-106703256D01*
X59645445Y-107218000D01*
X59904402Y-107477410D01*
X59878406Y-107503406D01*
X59585763Y-107941377D01*
X59483000Y-108458000D01*
X59483000Y-114027473D01*
X59433243Y-114147301D01*
X59432757Y-114704256D01*
X59645445Y-115219000D01*
X59904402Y-115478410D01*
X59878406Y-115504406D01*
X59585763Y-115942377D01*
X59483000Y-116459000D01*
X59483000Y-122028473D01*
X59433243Y-122148301D01*
X59432757Y-122705256D01*
X59645445Y-123220000D01*
X59904402Y-123479410D01*
X59878406Y-123505406D01*
X59585763Y-123943377D01*
X59483000Y-124460000D01*
X59483000Y-130029473D01*
X59433243Y-130149301D01*
X59432757Y-130706256D01*
X59645445Y-131221000D01*
X59904402Y-131480410D01*
X59878406Y-131506406D01*
X59585763Y-131944377D01*
X59483000Y-132461000D01*
X59483000Y-138030473D01*
X59433243Y-138150301D01*
X59432757Y-138707256D01*
X59645445Y-139222000D01*
X60038928Y-139616170D01*
X60553301Y-139829757D01*
X61110256Y-139830243D01*
X61625000Y-139617555D01*
X62019170Y-139224072D01*
X62022830Y-139215256D01*
X63877757Y-139215256D01*
X64090445Y-139730000D01*
X64483928Y-140124170D01*
X64998301Y-140337757D01*
X65555256Y-140338243D01*
X65676853Y-140288000D01*
X72879473Y-140288000D01*
X72999301Y-140337757D01*
X73556256Y-140338243D01*
X73677853Y-140288000D01*
X80753473Y-140288000D01*
X80873301Y-140337757D01*
X81430256Y-140338243D01*
X81551853Y-140288000D01*
X88881473Y-140288000D01*
X89001301Y-140337757D01*
X89558256Y-140338243D01*
X89679853Y-140288000D01*
X96708652Y-140288000D01*
X96951301Y-140388757D01*
X97508256Y-140389243D01*
X97753283Y-140288000D01*
X104756473Y-140288000D01*
X104876301Y-140337757D01*
X105433256Y-140338243D01*
X105554853Y-140288000D01*
X112757473Y-140288000D01*
X112877301Y-140337757D01*
X113434256Y-140338243D01*
X113555853Y-140288000D01*
X120325624Y-140288000D01*
X120751301Y-140464757D01*
X121308256Y-140465243D01*
X121737217Y-140288000D01*
X128759473Y-140288000D01*
X128879301Y-140337757D01*
X129436256Y-140338243D01*
X129557853Y-140288000D01*
X134747000Y-140288000D01*
X134874000Y-140262738D01*
X135001000Y-140288000D01*
X136708624Y-140288000D01*
X137134301Y-140464757D01*
X137691256Y-140465243D01*
X138206000Y-140252555D01*
X138600170Y-139859072D01*
X138813757Y-139344699D01*
X138814243Y-138787744D01*
X138601555Y-138273000D01*
X138208072Y-137878830D01*
X137883185Y-137743925D01*
X137803623Y-137690763D01*
X137710593Y-137672258D01*
X137693699Y-137665243D01*
X137675245Y-137665227D01*
X137287000Y-137588000D01*
X135001000Y-137588000D01*
X134874000Y-137613262D01*
X134747000Y-137588000D01*
X129558527Y-137588000D01*
X129438699Y-137538243D01*
X128881744Y-137537757D01*
X128760147Y-137588000D01*
X113556527Y-137588000D01*
X113436699Y-137538243D01*
X112879744Y-137537757D01*
X112758147Y-137588000D01*
X105555527Y-137588000D01*
X105435699Y-137538243D01*
X104878744Y-137537757D01*
X104757147Y-137588000D01*
X89680527Y-137588000D01*
X89560699Y-137538243D01*
X89003744Y-137537757D01*
X88882147Y-137588000D01*
X81552527Y-137588000D01*
X81432699Y-137538243D01*
X80875744Y-137537757D01*
X80754147Y-137588000D01*
X73678527Y-137588000D01*
X73558699Y-137538243D01*
X73001744Y-137537757D01*
X72880147Y-137588000D01*
X65677527Y-137588000D01*
X65557699Y-137538243D01*
X65000744Y-137537757D01*
X64486000Y-137750445D01*
X64091830Y-138143928D01*
X63878243Y-138658301D01*
X63877757Y-139215256D01*
X62022830Y-139215256D01*
X62232757Y-138709699D01*
X62233243Y-138152744D01*
X62183000Y-138031147D01*
X62183000Y-133020188D01*
X62916188Y-132287000D01*
X63887088Y-132287000D01*
X63878243Y-132308301D01*
X63877757Y-132865256D01*
X64090445Y-133380000D01*
X64123600Y-133413213D01*
X64091830Y-133444928D01*
X63878243Y-133959301D01*
X63877757Y-134516256D01*
X64090445Y-135031000D01*
X64483928Y-135425170D01*
X64998301Y-135638757D01*
X65555256Y-135639243D01*
X65676853Y-135589000D01*
X72879473Y-135589000D01*
X72999301Y-135638757D01*
X73556256Y-135639243D01*
X73677853Y-135589000D01*
X80880473Y-135589000D01*
X81000301Y-135638757D01*
X81557256Y-135639243D01*
X81678853Y-135589000D01*
X88881473Y-135589000D01*
X89001301Y-135638757D01*
X89558256Y-135639243D01*
X89679853Y-135589000D01*
X96882473Y-135589000D01*
X97002301Y-135638757D01*
X97559256Y-135639243D01*
X97680853Y-135589000D01*
X104756473Y-135589000D01*
X104876301Y-135638757D01*
X105433256Y-135639243D01*
X105554853Y-135589000D01*
X112884473Y-135589000D01*
X113004301Y-135638757D01*
X113561256Y-135639243D01*
X113682853Y-135589000D01*
X120758473Y-135589000D01*
X120878301Y-135638757D01*
X121435256Y-135639243D01*
X121556853Y-135589000D01*
X128886473Y-135589000D01*
X129006301Y-135638757D01*
X129563256Y-135639243D01*
X129684853Y-135589000D01*
X136887473Y-135589000D01*
X137007301Y-135638757D01*
X137564256Y-135639243D01*
X138079000Y-135426555D01*
X138473170Y-135033072D01*
X138477000Y-135023848D01*
X138477000Y-136379473D01*
X138427243Y-136499301D01*
X138426757Y-137056256D01*
X138639445Y-137571000D01*
X139032928Y-137965170D01*
X139547301Y-138178757D01*
X140104256Y-138179243D01*
X140619000Y-137966555D01*
X141013170Y-137573072D01*
X141226757Y-137058699D01*
X141227243Y-136501744D01*
X141177000Y-136380147D01*
X141177000Y-132588000D01*
X141074237Y-132071377D01*
X140781594Y-131633406D01*
X140343623Y-131340763D01*
X139827000Y-131238000D01*
X138813849Y-131238000D01*
X138814243Y-130786744D01*
X138601555Y-130272000D01*
X138208072Y-129877830D01*
X137883185Y-129742925D01*
X137803623Y-129689763D01*
X137710593Y-129671258D01*
X137693699Y-129664243D01*
X137675245Y-129664227D01*
X137287000Y-129587000D01*
X135001000Y-129587000D01*
X134874000Y-129612262D01*
X134747000Y-129587000D01*
X129558527Y-129587000D01*
X129438699Y-129537243D01*
X128881744Y-129536757D01*
X128760147Y-129587000D01*
X113556527Y-129587000D01*
X113436699Y-129537243D01*
X112879744Y-129536757D01*
X112758147Y-129587000D01*
X105555527Y-129587000D01*
X105435699Y-129537243D01*
X104878744Y-129536757D01*
X104757147Y-129587000D01*
X89680527Y-129587000D01*
X89560699Y-129537243D01*
X89003744Y-129536757D01*
X88882147Y-129587000D01*
X81552527Y-129587000D01*
X81432699Y-129537243D01*
X80875744Y-129536757D01*
X80754147Y-129587000D01*
X73678527Y-129587000D01*
X73558699Y-129537243D01*
X73001744Y-129536757D01*
X72880147Y-129587000D01*
X65677527Y-129587000D01*
X65557699Y-129537243D01*
X65000744Y-129536757D01*
X64879147Y-129587000D01*
X62357000Y-129587000D01*
X62183000Y-129621611D01*
X62183000Y-125019188D01*
X62916188Y-124286000D01*
X63887088Y-124286000D01*
X63878243Y-124307301D01*
X63877757Y-124864256D01*
X64090445Y-125379000D01*
X64123600Y-125412213D01*
X64091830Y-125443928D01*
X63878243Y-125958301D01*
X63877757Y-126515256D01*
X64090445Y-127030000D01*
X64483928Y-127424170D01*
X64998301Y-127637757D01*
X65555256Y-127638243D01*
X65676853Y-127588000D01*
X72879473Y-127588000D01*
X72999301Y-127637757D01*
X73556256Y-127638243D01*
X73677853Y-127588000D01*
X80880473Y-127588000D01*
X81000301Y-127637757D01*
X81557256Y-127638243D01*
X81678853Y-127588000D01*
X88881473Y-127588000D01*
X89001301Y-127637757D01*
X89558256Y-127638243D01*
X89679853Y-127588000D01*
X96882473Y-127588000D01*
X97002301Y-127637757D01*
X97559256Y-127638243D01*
X97680853Y-127588000D01*
X104756473Y-127588000D01*
X104876301Y-127637757D01*
X105433256Y-127638243D01*
X105554853Y-127588000D01*
X112884473Y-127588000D01*
X113004301Y-127637757D01*
X113561256Y-127638243D01*
X113682853Y-127588000D01*
X120758473Y-127588000D01*
X120878301Y-127637757D01*
X121435256Y-127638243D01*
X121556853Y-127588000D01*
X128886473Y-127588000D01*
X129006301Y-127637757D01*
X129563256Y-127638243D01*
X129684853Y-127588000D01*
X136887473Y-127588000D01*
X137007301Y-127637757D01*
X137564256Y-127638243D01*
X138079000Y-127425555D01*
X138473170Y-127032072D01*
X138477000Y-127022848D01*
X138477000Y-128378473D01*
X138427243Y-128498301D01*
X138426757Y-129055256D01*
X138639445Y-129570000D01*
X139032928Y-129964170D01*
X139547301Y-130177757D01*
X140104256Y-130178243D01*
X140619000Y-129965555D01*
X141013170Y-129572072D01*
X141226757Y-129057699D01*
X141227243Y-128500744D01*
X141177000Y-128379147D01*
X141177000Y-124587000D01*
X141074237Y-124070377D01*
X140781594Y-123632406D01*
X140343623Y-123339763D01*
X139827000Y-123237000D01*
X138813849Y-123237000D01*
X138814243Y-122785744D01*
X138601555Y-122271000D01*
X138208072Y-121876830D01*
X137883185Y-121741925D01*
X137803623Y-121688763D01*
X137710593Y-121670258D01*
X137693699Y-121663243D01*
X137675245Y-121663227D01*
X137287000Y-121586000D01*
X135001000Y-121586000D01*
X134874000Y-121611262D01*
X134747000Y-121586000D01*
X129558527Y-121586000D01*
X129438699Y-121536243D01*
X128881744Y-121535757D01*
X128760147Y-121586000D01*
X113556527Y-121586000D01*
X113436699Y-121536243D01*
X112879744Y-121535757D01*
X112758147Y-121586000D01*
X105555527Y-121586000D01*
X105435699Y-121536243D01*
X104878744Y-121535757D01*
X104757147Y-121586000D01*
X89680527Y-121586000D01*
X89560699Y-121536243D01*
X89003744Y-121535757D01*
X88882147Y-121586000D01*
X81552527Y-121586000D01*
X81432699Y-121536243D01*
X80875744Y-121535757D01*
X80754147Y-121586000D01*
X73678527Y-121586000D01*
X73558699Y-121536243D01*
X73001744Y-121535757D01*
X72880147Y-121586000D01*
X65677527Y-121586000D01*
X65557699Y-121536243D01*
X65000744Y-121535757D01*
X64879147Y-121586000D01*
X62357000Y-121586000D01*
X62183000Y-121620611D01*
X62183000Y-117018188D01*
X62916188Y-116285000D01*
X63887088Y-116285000D01*
X63878243Y-116306301D01*
X63877757Y-116863256D01*
X64090445Y-117378000D01*
X64123600Y-117411213D01*
X64091830Y-117442928D01*
X63878243Y-117957301D01*
X63877757Y-118514256D01*
X64090445Y-119029000D01*
X64483928Y-119423170D01*
X64998301Y-119636757D01*
X65555256Y-119637243D01*
X65676853Y-119587000D01*
X72879473Y-119587000D01*
X72999301Y-119636757D01*
X73556256Y-119637243D01*
X73677853Y-119587000D01*
X80880473Y-119587000D01*
X81000301Y-119636757D01*
X81557256Y-119637243D01*
X81678853Y-119587000D01*
X88881473Y-119587000D01*
X89001301Y-119636757D01*
X89558256Y-119637243D01*
X89679853Y-119587000D01*
X96882473Y-119587000D01*
X97002301Y-119636757D01*
X97559256Y-119637243D01*
X97680853Y-119587000D01*
X104756473Y-119587000D01*
X104876301Y-119636757D01*
X105433256Y-119637243D01*
X105554853Y-119587000D01*
X112884473Y-119587000D01*
X113004301Y-119636757D01*
X113561256Y-119637243D01*
X113682853Y-119587000D01*
X120758473Y-119587000D01*
X120878301Y-119636757D01*
X121435256Y-119637243D01*
X121556853Y-119587000D01*
X128886473Y-119587000D01*
X129006301Y-119636757D01*
X129563256Y-119637243D01*
X129684853Y-119587000D01*
X136887473Y-119587000D01*
X137007301Y-119636757D01*
X137564256Y-119637243D01*
X138079000Y-119424555D01*
X138473170Y-119031072D01*
X138477000Y-119021848D01*
X138477000Y-120377473D01*
X138427243Y-120497301D01*
X138426757Y-121054256D01*
X138639445Y-121569000D01*
X139032928Y-121963170D01*
X139547301Y-122176757D01*
X140104256Y-122177243D01*
X140619000Y-121964555D01*
X141013170Y-121571072D01*
X141226757Y-121056699D01*
X141227243Y-120499744D01*
X141177000Y-120378147D01*
X141177000Y-116586000D01*
X141074237Y-116069377D01*
X140781594Y-115631406D01*
X140343623Y-115338763D01*
X139827000Y-115236000D01*
X138813849Y-115236000D01*
X138814243Y-114784744D01*
X138601555Y-114270000D01*
X138208072Y-113875830D01*
X137883185Y-113740925D01*
X137803623Y-113687763D01*
X137710593Y-113669258D01*
X137693699Y-113662243D01*
X137675245Y-113662227D01*
X137287000Y-113585000D01*
X135001000Y-113585000D01*
X134874000Y-113610262D01*
X134747000Y-113585000D01*
X129558527Y-113585000D01*
X129438699Y-113535243D01*
X128881744Y-113534757D01*
X128760147Y-113585000D01*
X113556527Y-113585000D01*
X113436699Y-113535243D01*
X112879744Y-113534757D01*
X112758147Y-113585000D01*
X105555527Y-113585000D01*
X105435699Y-113535243D01*
X104878744Y-113534757D01*
X104757147Y-113585000D01*
X89680527Y-113585000D01*
X89560699Y-113535243D01*
X89003744Y-113534757D01*
X88882147Y-113585000D01*
X81552527Y-113585000D01*
X81432699Y-113535243D01*
X80875744Y-113534757D01*
X80754147Y-113585000D01*
X73678527Y-113585000D01*
X73558699Y-113535243D01*
X73001744Y-113534757D01*
X72880147Y-113585000D01*
X65677527Y-113585000D01*
X65557699Y-113535243D01*
X65000744Y-113534757D01*
X64879147Y-113585000D01*
X62357000Y-113585000D01*
X62183000Y-113619611D01*
X62183000Y-109017188D01*
X62916188Y-108284000D01*
X63887088Y-108284000D01*
X63878243Y-108305301D01*
X63877757Y-108862256D01*
X64090445Y-109377000D01*
X64123600Y-109410213D01*
X64091830Y-109441928D01*
X63878243Y-109956301D01*
X63877757Y-110513256D01*
X64090445Y-111028000D01*
X64483928Y-111422170D01*
X64998301Y-111635757D01*
X65555256Y-111636243D01*
X65676853Y-111586000D01*
X72879473Y-111586000D01*
X72999301Y-111635757D01*
X73556256Y-111636243D01*
X73677853Y-111586000D01*
X80880473Y-111586000D01*
X81000301Y-111635757D01*
X81557256Y-111636243D01*
X81678853Y-111586000D01*
X88881473Y-111586000D01*
X89001301Y-111635757D01*
X89558256Y-111636243D01*
X89679853Y-111586000D01*
X96882473Y-111586000D01*
X97002301Y-111635757D01*
X97559256Y-111636243D01*
X97680853Y-111586000D01*
X104756473Y-111586000D01*
X104876301Y-111635757D01*
X105433256Y-111636243D01*
X105554853Y-111586000D01*
X112884473Y-111586000D01*
X113004301Y-111635757D01*
X113561256Y-111636243D01*
X113682853Y-111586000D01*
X120758473Y-111586000D01*
X120878301Y-111635757D01*
X121435256Y-111636243D01*
X121556853Y-111586000D01*
X128886473Y-111586000D01*
X129006301Y-111635757D01*
X129563256Y-111636243D01*
X129684853Y-111586000D01*
X136887473Y-111586000D01*
X137007301Y-111635757D01*
X137564256Y-111636243D01*
X138079000Y-111423555D01*
X138473170Y-111030072D01*
X138477000Y-111020848D01*
X138477000Y-112376473D01*
X138427243Y-112496301D01*
X138426757Y-113053256D01*
X138639445Y-113568000D01*
X139032928Y-113962170D01*
X139547301Y-114175757D01*
X140104256Y-114176243D01*
X140619000Y-113963555D01*
X141013170Y-113570072D01*
X141226757Y-113055699D01*
X141227243Y-112498744D01*
X141177000Y-112377147D01*
X141177000Y-108585000D01*
X141074237Y-108068377D01*
X140781594Y-107630406D01*
X140343623Y-107337763D01*
X139827000Y-107235000D01*
X138813849Y-107235000D01*
X138814243Y-106783744D01*
X138601555Y-106269000D01*
X138208072Y-105874830D01*
X137883185Y-105739925D01*
X137803623Y-105686763D01*
X137710593Y-105668258D01*
X137693699Y-105661243D01*
X137675245Y-105661227D01*
X137287000Y-105584000D01*
X135001000Y-105584000D01*
X134874000Y-105609262D01*
X134747000Y-105584000D01*
X129558527Y-105584000D01*
X129438699Y-105534243D01*
X128881744Y-105533757D01*
X128760147Y-105584000D01*
X113556527Y-105584000D01*
X113436699Y-105534243D01*
X112879744Y-105533757D01*
X112758147Y-105584000D01*
X105555527Y-105584000D01*
X105435699Y-105534243D01*
X104878744Y-105533757D01*
X104757147Y-105584000D01*
X89680527Y-105584000D01*
X89560699Y-105534243D01*
X89003744Y-105533757D01*
X88882147Y-105584000D01*
X81552527Y-105584000D01*
X81432699Y-105534243D01*
X80875744Y-105533757D01*
X80754147Y-105584000D01*
X73678527Y-105584000D01*
X73558699Y-105534243D01*
X73001744Y-105533757D01*
X72880147Y-105584000D01*
X65677527Y-105584000D01*
X65557699Y-105534243D01*
X65000744Y-105533757D01*
X64879147Y-105584000D01*
X62357000Y-105584000D01*
X62183000Y-105618611D01*
X62183000Y-101016188D01*
X62916188Y-100283000D01*
X63887088Y-100283000D01*
X63878243Y-100304301D01*
X63877757Y-100861256D01*
X64090445Y-101376000D01*
X64123600Y-101409213D01*
X64091830Y-101440928D01*
X63878243Y-101955301D01*
X63877757Y-102512256D01*
X64090445Y-103027000D01*
X64483928Y-103421170D01*
X64998301Y-103634757D01*
X65555256Y-103635243D01*
X65676853Y-103585000D01*
X72879473Y-103585000D01*
X72999301Y-103634757D01*
X73556256Y-103635243D01*
X73677853Y-103585000D01*
X80880473Y-103585000D01*
X81000301Y-103634757D01*
X81557256Y-103635243D01*
X81678853Y-103585000D01*
X88881473Y-103585000D01*
X89001301Y-103634757D01*
X89558256Y-103635243D01*
X89679853Y-103585000D01*
X96882473Y-103585000D01*
X97002301Y-103634757D01*
X97559256Y-103635243D01*
X97680853Y-103585000D01*
X104756473Y-103585000D01*
X104876301Y-103634757D01*
X105433256Y-103635243D01*
X105554853Y-103585000D01*
X112884473Y-103585000D01*
X113004301Y-103634757D01*
X113561256Y-103635243D01*
X113682853Y-103585000D01*
X120758473Y-103585000D01*
X120878301Y-103634757D01*
X121435256Y-103635243D01*
X121556853Y-103585000D01*
X128886473Y-103585000D01*
X129006301Y-103634757D01*
X129563256Y-103635243D01*
X129684853Y-103585000D01*
X136887473Y-103585000D01*
X137007301Y-103634757D01*
X137564256Y-103635243D01*
X138079000Y-103422555D01*
X138473170Y-103029072D01*
X138477000Y-103019848D01*
X138477000Y-104375473D01*
X138427243Y-104495301D01*
X138426757Y-105052256D01*
X138639445Y-105567000D01*
X139032928Y-105961170D01*
X139547301Y-106174757D01*
X140104256Y-106175243D01*
X140619000Y-105962555D01*
X141013170Y-105569072D01*
X141226757Y-105054699D01*
X141227243Y-104497744D01*
X141177000Y-104376147D01*
X141177000Y-100584000D01*
X141074237Y-100067377D01*
X140781594Y-99629406D01*
X140343623Y-99336763D01*
X139827000Y-99234000D01*
X138813849Y-99234000D01*
X138814243Y-98782744D01*
X138601555Y-98268000D01*
X138208072Y-97873830D01*
X137883185Y-97738925D01*
X137803623Y-97685763D01*
X137710593Y-97667258D01*
X137693699Y-97660243D01*
X137675245Y-97660227D01*
X137287000Y-97583000D01*
X135001000Y-97583000D01*
X134874000Y-97608262D01*
X134747000Y-97583000D01*
X129558527Y-97583000D01*
X129438699Y-97533243D01*
X128881744Y-97532757D01*
X128760147Y-97583000D01*
X113556527Y-97583000D01*
X113436699Y-97533243D01*
X112879744Y-97532757D01*
X112758147Y-97583000D01*
X105555527Y-97583000D01*
X105435699Y-97533243D01*
X104878744Y-97532757D01*
X104757147Y-97583000D01*
X89680527Y-97583000D01*
X89560699Y-97533243D01*
X89003744Y-97532757D01*
X88882147Y-97583000D01*
X81552527Y-97583000D01*
X81432699Y-97533243D01*
X80875744Y-97532757D01*
X80754147Y-97583000D01*
X73678527Y-97583000D01*
X73558699Y-97533243D01*
X73001744Y-97532757D01*
X72880147Y-97583000D01*
X65677527Y-97583000D01*
X65557699Y-97533243D01*
X65000744Y-97532757D01*
X64879147Y-97583000D01*
X62357000Y-97583000D01*
X62183000Y-97617611D01*
X62183000Y-93015188D01*
X62916188Y-92282000D01*
X63887088Y-92282000D01*
X63878243Y-92303301D01*
X63877757Y-92860256D01*
X64090445Y-93375000D01*
X64123600Y-93408213D01*
X64091830Y-93439928D01*
X63878243Y-93954301D01*
X63877757Y-94511256D01*
X64090445Y-95026000D01*
X64483928Y-95420170D01*
X64998301Y-95633757D01*
X65555256Y-95634243D01*
X65676853Y-95584000D01*
X72879473Y-95584000D01*
X72999301Y-95633757D01*
X73556256Y-95634243D01*
X73677853Y-95584000D01*
X80880473Y-95584000D01*
X81000301Y-95633757D01*
X81557256Y-95634243D01*
X81678853Y-95584000D01*
X88881473Y-95584000D01*
X89001301Y-95633757D01*
X89558256Y-95634243D01*
X89679853Y-95584000D01*
X96882473Y-95584000D01*
X97002301Y-95633757D01*
X97559256Y-95634243D01*
X97680853Y-95584000D01*
X104756473Y-95584000D01*
X104876301Y-95633757D01*
X105433256Y-95634243D01*
X105554853Y-95584000D01*
X112884473Y-95584000D01*
X113004301Y-95633757D01*
X113561256Y-95634243D01*
X113682853Y-95584000D01*
X120758473Y-95584000D01*
X120878301Y-95633757D01*
X121435256Y-95634243D01*
X121556853Y-95584000D01*
X128886473Y-95584000D01*
X129006301Y-95633757D01*
X129563256Y-95634243D01*
X129684853Y-95584000D01*
X136887473Y-95584000D01*
X137007301Y-95633757D01*
X137564256Y-95634243D01*
X138079000Y-95421555D01*
X138473170Y-95028072D01*
X138477000Y-95018848D01*
X138477000Y-96374473D01*
X138427243Y-96494301D01*
X138426757Y-97051256D01*
X138639445Y-97566000D01*
X139032928Y-97960170D01*
X139547301Y-98173757D01*
X140104256Y-98174243D01*
X140619000Y-97961555D01*
X141013170Y-97568072D01*
X141226757Y-97053699D01*
X141227243Y-96496744D01*
X141177000Y-96375147D01*
X141177000Y-92583000D01*
X141074237Y-92066377D01*
X140781594Y-91628406D01*
X140343623Y-91335763D01*
X139827000Y-91233000D01*
X138813849Y-91233000D01*
X138814243Y-90781744D01*
X138601555Y-90267000D01*
X138208072Y-89872830D01*
X137883185Y-89737925D01*
X137803623Y-89684763D01*
X137710593Y-89666258D01*
X137693699Y-89659243D01*
X137675245Y-89659227D01*
X137287000Y-89582000D01*
X135001000Y-89582000D01*
X134874000Y-89607262D01*
X134747000Y-89582000D01*
X129558527Y-89582000D01*
X129438699Y-89532243D01*
X128881744Y-89531757D01*
X128760147Y-89582000D01*
X113556527Y-89582000D01*
X113436699Y-89532243D01*
X112879744Y-89531757D01*
X112758147Y-89582000D01*
X105555527Y-89582000D01*
X105435699Y-89532243D01*
X104878744Y-89531757D01*
X104757147Y-89582000D01*
X89680527Y-89582000D01*
X89560699Y-89532243D01*
X89003744Y-89531757D01*
X88882147Y-89582000D01*
X81552527Y-89582000D01*
X81432699Y-89532243D01*
X80875744Y-89531757D01*
X80754147Y-89582000D01*
X73678527Y-89582000D01*
X73558699Y-89532243D01*
X73001744Y-89531757D01*
X72880147Y-89582000D01*
X65677527Y-89582000D01*
X65557699Y-89532243D01*
X65000744Y-89531757D01*
X64879147Y-89582000D01*
X62357000Y-89582000D01*
X62183000Y-89616611D01*
X62183000Y-85014188D01*
X62916188Y-84281000D01*
X63887088Y-84281000D01*
X63878243Y-84302301D01*
X63877757Y-84859256D01*
X64090445Y-85374000D01*
X64123600Y-85407213D01*
X64091830Y-85438928D01*
X63878243Y-85953301D01*
X63877757Y-86510256D01*
X64090445Y-87025000D01*
X64483928Y-87419170D01*
X64998301Y-87632757D01*
X65555256Y-87633243D01*
X65676853Y-87583000D01*
X72879473Y-87583000D01*
X72999301Y-87632757D01*
X73556256Y-87633243D01*
X73677853Y-87583000D01*
X80880473Y-87583000D01*
X81000301Y-87632757D01*
X81557256Y-87633243D01*
X81678853Y-87583000D01*
X88881473Y-87583000D01*
X89001301Y-87632757D01*
X89558256Y-87633243D01*
X89679853Y-87583000D01*
X96882473Y-87583000D01*
X97002301Y-87632757D01*
X97559256Y-87633243D01*
X97680853Y-87583000D01*
X104756473Y-87583000D01*
X104876301Y-87632757D01*
X105433256Y-87633243D01*
X105554853Y-87583000D01*
X112884473Y-87583000D01*
X113004301Y-87632757D01*
X113561256Y-87633243D01*
X113682853Y-87583000D01*
X120758473Y-87583000D01*
X120878301Y-87632757D01*
X121435256Y-87633243D01*
X121556853Y-87583000D01*
X128886473Y-87583000D01*
X129006301Y-87632757D01*
X129563256Y-87633243D01*
X129684853Y-87583000D01*
X136887473Y-87583000D01*
X137007301Y-87632757D01*
X137564256Y-87633243D01*
X138079000Y-87420555D01*
X138473170Y-87027072D01*
X138477000Y-87017848D01*
X138477000Y-88373473D01*
X138427243Y-88493301D01*
X138426757Y-89050256D01*
X138639445Y-89565000D01*
X139032928Y-89959170D01*
X139547301Y-90172757D01*
X140104256Y-90173243D01*
X140619000Y-89960555D01*
X141013170Y-89567072D01*
X141226757Y-89052699D01*
X141227243Y-88495744D01*
X141177000Y-88374147D01*
X141177000Y-84582000D01*
X141074237Y-84065377D01*
X140781594Y-83627406D01*
X140343623Y-83334763D01*
X139827000Y-83232000D01*
X138813849Y-83232000D01*
X138814243Y-82780744D01*
X138601555Y-82266000D01*
X138208072Y-81871830D01*
X137883185Y-81736925D01*
X137803623Y-81683763D01*
X137710593Y-81665258D01*
X137693699Y-81658243D01*
X137675245Y-81658227D01*
X137287000Y-81581000D01*
X135001000Y-81581000D01*
X134874000Y-81606262D01*
X134747000Y-81581000D01*
X129558527Y-81581000D01*
X129438699Y-81531243D01*
X128881744Y-81530757D01*
X128760147Y-81581000D01*
X113556527Y-81581000D01*
X113436699Y-81531243D01*
X112879744Y-81530757D01*
X112758147Y-81581000D01*
X105555527Y-81581000D01*
X105435699Y-81531243D01*
X104878744Y-81530757D01*
X104757147Y-81581000D01*
X89680527Y-81581000D01*
X89560699Y-81531243D01*
X89003744Y-81530757D01*
X88882147Y-81581000D01*
X81552527Y-81581000D01*
X81432699Y-81531243D01*
X80875744Y-81530757D01*
X80754147Y-81581000D01*
X73678527Y-81581000D01*
X73558699Y-81531243D01*
X73001744Y-81530757D01*
X72880147Y-81581000D01*
X65677527Y-81581000D01*
X65557699Y-81531243D01*
X65000744Y-81530757D01*
X64879147Y-81581000D01*
X62357000Y-81581000D01*
X62183000Y-81615611D01*
X62183000Y-77013188D01*
X62916188Y-76280000D01*
X63887088Y-76280000D01*
X63878243Y-76301301D01*
X63877757Y-76858256D01*
X64090445Y-77373000D01*
X64123600Y-77406213D01*
X64091830Y-77437928D01*
X63878243Y-77952301D01*
X63877757Y-78509256D01*
X64090445Y-79024000D01*
X64483928Y-79418170D01*
X64998301Y-79631757D01*
X65555256Y-79632243D01*
X65676853Y-79582000D01*
X72879473Y-79582000D01*
X72999301Y-79631757D01*
X73556256Y-79632243D01*
X73677853Y-79582000D01*
X80880473Y-79582000D01*
X81000301Y-79631757D01*
X81557256Y-79632243D01*
X81678853Y-79582000D01*
X88881473Y-79582000D01*
X89001301Y-79631757D01*
X89558256Y-79632243D01*
X89679853Y-79582000D01*
X96882473Y-79582000D01*
X97002301Y-79631757D01*
X97559256Y-79632243D01*
X97680853Y-79582000D01*
X104756473Y-79582000D01*
X104876301Y-79631757D01*
X105433256Y-79632243D01*
X105554853Y-79582000D01*
X112884473Y-79582000D01*
X113004301Y-79631757D01*
X113561256Y-79632243D01*
X113682853Y-79582000D01*
X120758473Y-79582000D01*
X120878301Y-79631757D01*
X121435256Y-79632243D01*
X121556853Y-79582000D01*
X128886473Y-79582000D01*
X129006301Y-79631757D01*
X129563256Y-79632243D01*
X129684853Y-79582000D01*
X136887473Y-79582000D01*
X137007301Y-79631757D01*
X137564256Y-79632243D01*
X138079000Y-79419555D01*
X138473170Y-79026072D01*
X138477000Y-79016848D01*
X138477000Y-80372473D01*
X138427243Y-80492301D01*
X138426757Y-81049256D01*
X138639445Y-81564000D01*
X139032928Y-81958170D01*
X139547301Y-82171757D01*
X140104256Y-82172243D01*
X140619000Y-81959555D01*
X141013170Y-81566072D01*
X141226757Y-81051699D01*
X141227243Y-80494744D01*
X141177000Y-80373147D01*
X141177000Y-76581000D01*
X141074237Y-76064377D01*
X140781594Y-75626406D01*
X140343623Y-75333763D01*
X139827000Y-75231000D01*
X138813849Y-75231000D01*
X138814243Y-74779744D01*
X138601555Y-74265000D01*
X138208072Y-73870830D01*
X137883185Y-73735925D01*
X137803623Y-73682763D01*
X137710593Y-73664258D01*
X137693699Y-73657243D01*
X137675245Y-73657227D01*
X137287000Y-73580000D01*
X135001000Y-73580000D01*
X134874000Y-73605262D01*
X134747000Y-73580000D01*
X129558527Y-73580000D01*
X129438699Y-73530243D01*
X128881744Y-73529757D01*
X128760147Y-73580000D01*
X113556527Y-73580000D01*
X113436699Y-73530243D01*
X112879744Y-73529757D01*
X112758147Y-73580000D01*
X105555527Y-73580000D01*
X105435699Y-73530243D01*
X104878744Y-73529757D01*
X104757147Y-73580000D01*
X89680527Y-73580000D01*
X89560699Y-73530243D01*
X89003744Y-73529757D01*
X88882147Y-73580000D01*
X81552527Y-73580000D01*
X81432699Y-73530243D01*
X80875744Y-73529757D01*
X80754147Y-73580000D01*
X73678527Y-73580000D01*
X73558699Y-73530243D01*
X73001744Y-73529757D01*
X72880147Y-73580000D01*
X65677527Y-73580000D01*
X65557699Y-73530243D01*
X65000744Y-73529757D01*
X64879147Y-73580000D01*
X62357000Y-73580000D01*
X62183000Y-73614611D01*
X62183000Y-69012188D01*
X62916188Y-68279000D01*
X63887088Y-68279000D01*
X63878243Y-68300301D01*
X63877757Y-68857256D01*
X64090445Y-69372000D01*
X64123600Y-69405213D01*
X64091830Y-69436928D01*
X63878243Y-69951301D01*
X63877757Y-70508256D01*
X64090445Y-71023000D01*
X64483928Y-71417170D01*
X64998301Y-71630757D01*
X65555256Y-71631243D01*
X65676853Y-71581000D01*
X72879473Y-71581000D01*
X72999301Y-71630757D01*
X73556256Y-71631243D01*
X73677853Y-71581000D01*
X80880473Y-71581000D01*
X81000301Y-71630757D01*
X81557256Y-71631243D01*
X81678853Y-71581000D01*
X88881473Y-71581000D01*
X89001301Y-71630757D01*
X89558256Y-71631243D01*
X89679853Y-71581000D01*
X96882473Y-71581000D01*
X97002301Y-71630757D01*
X97559256Y-71631243D01*
X97680853Y-71581000D01*
X104756473Y-71581000D01*
X104876301Y-71630757D01*
X105433256Y-71631243D01*
X105554853Y-71581000D01*
X112884473Y-71581000D01*
X113004301Y-71630757D01*
X113561256Y-71631243D01*
X113682853Y-71581000D01*
X120758473Y-71581000D01*
X120878301Y-71630757D01*
X121435256Y-71631243D01*
X121556853Y-71581000D01*
X128886473Y-71581000D01*
X129006301Y-71630757D01*
X129563256Y-71631243D01*
X129684853Y-71581000D01*
X136887473Y-71581000D01*
X137007301Y-71630757D01*
X137564256Y-71631243D01*
X138079000Y-71418555D01*
X138473170Y-71025072D01*
X138477000Y-71015848D01*
X138477000Y-72371473D01*
X138427243Y-72491301D01*
X138426757Y-73048256D01*
X138639445Y-73563000D01*
X139032928Y-73957170D01*
X139547301Y-74170757D01*
X140104256Y-74171243D01*
X140619000Y-73958555D01*
X141013170Y-73565072D01*
X141226757Y-73050699D01*
X141227243Y-72493744D01*
X141177000Y-72372147D01*
X141177000Y-69268898D01*
X141820554Y-69536124D01*
X142655782Y-69536853D01*
X143427712Y-69217898D01*
X144018823Y-68627818D01*
X144240000Y-68095164D01*
X144240000Y-162710345D01*
X143835107Y-162304745D01*
X143063548Y-161984366D01*
X142228117Y-161983637D01*
X141456000Y-162302669D01*
X141023916Y-162734000D01*
X139104000Y-162734000D01*
X139104000Y-154599000D01*
X139001237Y-154082377D01*
X138708594Y-153644406D01*
X137849594Y-152785406D01*
X137411623Y-152492763D01*
X136895000Y-152390000D01*
X124070100Y-152390000D01*
X123553477Y-152492763D01*
X123115506Y-152785406D01*
X120174142Y-155726770D01*
X119981899Y-155646943D01*
X119441717Y-155646472D01*
X127698166Y-147390023D01*
X127886064Y-147682024D01*
X128253654Y-147933188D01*
X128690000Y-148021550D01*
X129602362Y-148021550D01*
X129885806Y-148304994D01*
X130323777Y-148597637D01*
X130840400Y-148700400D01*
X137256600Y-148700400D01*
X137773223Y-148597637D01*
X138211194Y-148304994D01*
X138491094Y-148025094D01*
X138557000Y-148038203D01*
X139303233Y-147889768D01*
X139827000Y-147539798D01*
X140350767Y-147889768D01*
X141097000Y-148038203D01*
X141843233Y-147889768D01*
X142475858Y-147467061D01*
X142898565Y-146834436D01*
X143047000Y-146088203D01*
X143047000Y-146011797D01*
X142898565Y-145265564D01*
X142475858Y-144632939D01*
X141843233Y-144210232D01*
X141097000Y-144061797D01*
X140350767Y-144210232D01*
X139827000Y-144560202D01*
X139303233Y-144210232D01*
X138557000Y-144061797D01*
X137810767Y-144210232D01*
X137586352Y-144360182D01*
X137303346Y-144166812D01*
X136867000Y-144078450D01*
X135167000Y-144078450D01*
X134759364Y-144155152D01*
X134711889Y-144185701D01*
X134321193Y-143795005D01*
X134014381Y-143590000D01*
X136887473Y-143590000D01*
X137007301Y-143639757D01*
X137564256Y-143640243D01*
X138079000Y-143427555D01*
X138473170Y-143034072D01*
X138686757Y-142519699D01*
X138687243Y-141962744D01*
X138474555Y-141448000D01*
X138081072Y-141053830D01*
X137566699Y-140840243D01*
X137009744Y-140839757D01*
X136888147Y-140890000D01*
X129685527Y-140890000D01*
X129565699Y-140840243D01*
X129008744Y-140839757D01*
X128887147Y-140890000D01*
X121557527Y-140890000D01*
X121437699Y-140840243D01*
X120880744Y-140839757D01*
X120759147Y-140890000D01*
X113683527Y-140890000D01*
X113563699Y-140840243D01*
X113006744Y-140839757D01*
X112885147Y-140890000D01*
X105555527Y-140890000D01*
X105435699Y-140840243D01*
X104878744Y-140839757D01*
X104757147Y-140890000D01*
X97681527Y-140890000D01*
X97561699Y-140840243D01*
X97004744Y-140839757D01*
X96883147Y-140890000D01*
X89680527Y-140890000D01*
X89560699Y-140840243D01*
X89003744Y-140839757D01*
X88882147Y-140890000D01*
X81679527Y-140890000D01*
X81559699Y-140840243D01*
X81002744Y-140839757D01*
X80881147Y-140890000D01*
X73678527Y-140890000D01*
X73558699Y-140840243D01*
X73001744Y-140839757D01*
X72880147Y-140890000D01*
X65677527Y-140890000D01*
X65557699Y-140840243D01*
X65000744Y-140839757D01*
X64486000Y-141052445D01*
X64091830Y-141445928D01*
X63878243Y-141960301D01*
X63877757Y-142517256D01*
X64090445Y-143032000D01*
X64483928Y-143426170D01*
X64998301Y-143639757D01*
X65555256Y-143640243D01*
X65676853Y-143590000D01*
X72879473Y-143590000D01*
X72999301Y-143639757D01*
X73556256Y-143640243D01*
X73677853Y-143590000D01*
X80880473Y-143590000D01*
X81000301Y-143639757D01*
X81557256Y-143640243D01*
X81678853Y-143590000D01*
X88881473Y-143590000D01*
X89001301Y-143639757D01*
X89558256Y-143640243D01*
X89679853Y-143590000D01*
X96882473Y-143590000D01*
X97002301Y-143639757D01*
X97559256Y-143640243D01*
X97680853Y-143590000D01*
X104756473Y-143590000D01*
X104876301Y-143639757D01*
X105433256Y-143640243D01*
X105554853Y-143590000D01*
X112884473Y-143590000D01*
X113004301Y-143639757D01*
X113561256Y-143640243D01*
X113682853Y-143590000D01*
X120758473Y-143590000D01*
X120878301Y-143639757D01*
X121435256Y-143640243D01*
X121556853Y-143590000D01*
X127781618Y-143590000D01*
X127474806Y-143795005D01*
X115546867Y-155722945D01*
X115535072Y-155711130D01*
X115413563Y-155660675D01*
X108129594Y-148376706D01*
X108019978Y-148303463D01*
X107691623Y-148084063D01*
X107175000Y-147981300D01*
X87689527Y-147981300D01*
X87569699Y-147931543D01*
X87012744Y-147931057D01*
X86498000Y-148143745D01*
X86103830Y-148537228D01*
X85890243Y-149051601D01*
X85889757Y-149608556D01*
X86102445Y-150123300D01*
X86495928Y-150517470D01*
X87010301Y-150731057D01*
X87567256Y-150731543D01*
X87688853Y-150681300D01*
X88129788Y-150681300D01*
X88265645Y-151010100D01*
X88659128Y-151404270D01*
X89173501Y-151617857D01*
X89730456Y-151618343D01*
X89852053Y-151568100D01*
X105758612Y-151568100D01*
X108287912Y-154097400D01*
X93476427Y-154097400D01*
X93356599Y-154047643D01*
X92917529Y-154047260D01*
X92797555Y-153756900D01*
X92404072Y-153362730D01*
X91889699Y-153149143D01*
X91332744Y-153148657D01*
X91211147Y-153198900D01*
X83598500Y-153198900D01*
X83081878Y-153301662D01*
X82643906Y-153594306D01*
X82155356Y-154082856D01*
X82074072Y-154001430D01*
X81952563Y-153950975D01*
X81411100Y-153409512D01*
X81411100Y-151079288D01*
X81952085Y-150538303D01*
X82072000Y-150488755D01*
X82466170Y-150095272D01*
X82679757Y-149580899D01*
X82680243Y-149023944D01*
X82467555Y-148509200D01*
X82074072Y-148115030D01*
X81559699Y-147901443D01*
X81002744Y-147900957D01*
X80488000Y-148113645D01*
X80093830Y-148507128D01*
X80043375Y-148628637D01*
X79106506Y-149565506D01*
X78813863Y-150003477D01*
X78711100Y-150520100D01*
X78711100Y-152618700D01*
X70348600Y-152618700D01*
X69831977Y-152721463D01*
X69736280Y-152785406D01*
X69688900Y-152817064D01*
X69688900Y-150109888D01*
X73062085Y-146736703D01*
X73182000Y-146687155D01*
X73576170Y-146293672D01*
X73789757Y-145779299D01*
X73790243Y-145222344D01*
X73577555Y-144707600D01*
X73184072Y-144313430D01*
X72669699Y-144099843D01*
X72112744Y-144099357D01*
X71598000Y-144312045D01*
X71203830Y-144705528D01*
X71153375Y-144827037D01*
X67384306Y-148596106D01*
X67091663Y-149034077D01*
X66988900Y-149550700D01*
X66988900Y-158026112D01*
X63087400Y-161927612D01*
X61197103Y-160037315D01*
X61147555Y-159917400D01*
X60754072Y-159523230D01*
X60239699Y-159309643D01*
X59682744Y-159309157D01*
X59168000Y-159521845D01*
X58773830Y-159915328D01*
X58560243Y-160429701D01*
X58559757Y-160986656D01*
X58772445Y-161501400D01*
X59165928Y-161895570D01*
X59287437Y-161946025D01*
X64349706Y-167008294D01*
X64787678Y-167300938D01*
X65304300Y-167403700D01*
X85781112Y-167403700D01*
X84516406Y-168668406D01*
X84223763Y-169106377D01*
X84140321Y-169525868D01*
X84127497Y-169534437D01*
X83715629Y-170150841D01*
X83571000Y-170877940D01*
X83571000Y-171173812D01*
X82259834Y-169862646D01*
X82260363Y-169256117D01*
X81941331Y-168484000D01*
X81351107Y-167892745D01*
X80579548Y-167572366D01*
X79744117Y-167571637D01*
X78972000Y-167890669D01*
X78539916Y-168322000D01*
X75279613Y-168322000D01*
X74851107Y-167892745D01*
X74079548Y-167572366D01*
X73244117Y-167571637D01*
X72472000Y-167890669D01*
X71880745Y-168480893D01*
X71560366Y-169252452D01*
X71559637Y-170087883D01*
X71878669Y-170860000D01*
X72389377Y-171371600D01*
X72338788Y-171371600D01*
X70829834Y-169862646D01*
X70830363Y-169256117D01*
X70511331Y-168484000D01*
X69921107Y-167892745D01*
X69149548Y-167572366D01*
X68314117Y-167571637D01*
X67542000Y-167890669D01*
X67109916Y-168322000D01*
X63849613Y-168322000D01*
X63421107Y-167892745D01*
X62649548Y-167572366D01*
X61814117Y-167571637D01*
X61042000Y-167890669D01*
X60450745Y-168480893D01*
X60130366Y-169252452D01*
X60129637Y-170087883D01*
X60448669Y-170860000D01*
X61038893Y-171451255D01*
X61810452Y-171771634D01*
X62645883Y-171772363D01*
X63418000Y-171453331D01*
X63850084Y-171022000D01*
X67110387Y-171022000D01*
X67538893Y-171451255D01*
X68310452Y-171771634D01*
X68920979Y-171772167D01*
X69272042Y-172123230D01*
X69149548Y-172072366D01*
X68314117Y-172071637D01*
X67542000Y-172390669D01*
X66950745Y-172980893D01*
X66630366Y-173752452D01*
X66629637Y-174587883D01*
X66948669Y-175360000D01*
X67538893Y-175951255D01*
X68310452Y-176271634D01*
X69145883Y-176272363D01*
X69918000Y-175953331D01*
X70350084Y-175522000D01*
X72040387Y-175522000D01*
X72468893Y-175951255D01*
X73240452Y-176271634D01*
X74075883Y-176272363D01*
X74848000Y-175953331D01*
X75280084Y-175522000D01*
X78540387Y-175522000D01*
X78968893Y-175951255D01*
X79740452Y-176271634D01*
X80350979Y-176272167D01*
X86389406Y-182310594D01*
X86827377Y-182603237D01*
X87344000Y-182706000D01*
X87984333Y-182706000D01*
X88029142Y-182773061D01*
X88661767Y-183195768D01*
X89408000Y-183344203D01*
X90154233Y-183195768D01*
X90678000Y-182845798D01*
X91201767Y-183195768D01*
X91948000Y-183344203D01*
X92694233Y-183195768D01*
X93218000Y-182845798D01*
X93741767Y-183195768D01*
X94488000Y-183344203D01*
X95234233Y-183195768D01*
X95758000Y-182845798D01*
X96281767Y-183195768D01*
X97028000Y-183344203D01*
X97774233Y-183195768D01*
X98298000Y-182845798D01*
X98821767Y-183195768D01*
X99568000Y-183344203D01*
X100314233Y-183195768D01*
X100946858Y-182773061D01*
X100991667Y-182706000D01*
X109277900Y-182706000D01*
X109794523Y-182603237D01*
X110232494Y-182310594D01*
X114653205Y-177889883D01*
X127693637Y-177889883D01*
X128012669Y-178662000D01*
X128602893Y-179253255D01*
X129374452Y-179573634D01*
X130209883Y-179574363D01*
X130982000Y-179255331D01*
X131414084Y-178824000D01*
X134674387Y-178824000D01*
X135102893Y-179253255D01*
X135874452Y-179573634D01*
X136709883Y-179574363D01*
X137482000Y-179255331D01*
X138073255Y-178665107D01*
X138393634Y-177893548D01*
X138394363Y-177058117D01*
X138075331Y-176286000D01*
X137485107Y-175694745D01*
X136713548Y-175374366D01*
X135878117Y-175373637D01*
X135106000Y-175692669D01*
X134673916Y-176124000D01*
X131413613Y-176124000D01*
X130985107Y-175694745D01*
X130213548Y-175374366D01*
X129378117Y-175373637D01*
X128606000Y-175692669D01*
X128014745Y-176282893D01*
X127694366Y-177054452D01*
X127693637Y-177889883D01*
X114653205Y-177889883D01*
X117515185Y-175027903D01*
X117635100Y-174978355D01*
X118029270Y-174584872D01*
X118137594Y-174324000D01*
X128174387Y-174324000D01*
X128602893Y-174753255D01*
X129374452Y-175073634D01*
X130209883Y-175074363D01*
X130982000Y-174755331D01*
X131414084Y-174324000D01*
X134674387Y-174324000D01*
X135102893Y-174753255D01*
X135874452Y-175073634D01*
X136709883Y-175074363D01*
X137482000Y-174755331D01*
X138073255Y-174165107D01*
X138393634Y-173393548D01*
X138394363Y-172558117D01*
X138075331Y-171786000D01*
X137485107Y-171194745D01*
X136713548Y-170874366D01*
X135878117Y-170873637D01*
X135106000Y-171192669D01*
X134673916Y-171624000D01*
X131413613Y-171624000D01*
X130985107Y-171194745D01*
X130213548Y-170874366D01*
X129378117Y-170873637D01*
X128606000Y-171192669D01*
X128173916Y-171624000D01*
X120391000Y-171624000D01*
X120391000Y-170973000D01*
X122405000Y-170973000D01*
X122921623Y-170870237D01*
X123200664Y-170683788D01*
X123859883Y-170684363D01*
X124632000Y-170365331D01*
X125064084Y-169934000D01*
X128324387Y-169934000D01*
X128752893Y-170363255D01*
X129524452Y-170683634D01*
X130359883Y-170684363D01*
X131132000Y-170365331D01*
X131564084Y-169934000D01*
X134524387Y-169934000D01*
X134952893Y-170363255D01*
X135724452Y-170683634D01*
X136559883Y-170684363D01*
X137332000Y-170365331D01*
X137923255Y-169775107D01*
X138243634Y-169003548D01*
X138244363Y-168168117D01*
X137925331Y-167396000D01*
X137335107Y-166804745D01*
X136563548Y-166484366D01*
X136040900Y-166483910D01*
X136040900Y-166183910D01*
X136559883Y-166184363D01*
X137332000Y-165865331D01*
X137764084Y-165434000D01*
X141024387Y-165434000D01*
X141452893Y-165863255D01*
X142224452Y-166183634D01*
X143059883Y-166184363D01*
X143832000Y-165865331D01*
X144240000Y-165458042D01*
X144240000Y-167210345D01*
X143835107Y-166804745D01*
X143063548Y-166484366D01*
X142228117Y-166483637D01*
X141456000Y-166802669D01*
X140864745Y-167392893D01*
X140544366Y-168164452D01*
X140543637Y-168999883D01*
X140862669Y-169772000D01*
X141452893Y-170363255D01*
X142224452Y-170683634D01*
X143059883Y-170684363D01*
X143832000Y-170365331D01*
X144240000Y-169958042D01*
X144240000Y-186462080D01*
X143958971Y-188086042D01*
X143148871Y-189366607D01*
X141910384Y-190239684D01*
X140331426Y-190595000D01*
X72704619Y-190595000D01*
X72739249Y-190543173D01*
X72830256Y-190451593D01*
X72877766Y-190335869D01*
X72947267Y-190231853D01*
X72972455Y-190105223D01*
X73021487Y-189985791D01*
X73021094Y-189860695D01*
X73045500Y-189738000D01*
X73020312Y-189611371D01*
X73019907Y-189482265D01*
X72971673Y-189366843D01*
X72947267Y-189244147D01*
X72875537Y-189136796D01*
X72825756Y-189017673D01*
X71434776Y-186950000D01*
X76030000Y-186950000D01*
X76030000Y-181450000D01*
X67353809Y-181450000D01*
X67353809Y-181505676D01*
X67311735Y-181488093D01*
X67307608Y-181488080D01*
X67303791Y-181486513D01*
X67055922Y-181487290D01*
X66808209Y-181486513D01*
X66804394Y-181488079D01*
X66800265Y-181488092D01*
X66571576Y-181583661D01*
X66342407Y-181677744D01*
X66339479Y-181680653D01*
X66335673Y-181682244D01*
X66161048Y-181857968D01*
X65985243Y-182032673D01*
X61286244Y-189017673D01*
X61236463Y-189136797D01*
X61164733Y-189244147D01*
X61140328Y-189366840D01*
X61092092Y-189482265D01*
X61091687Y-189611375D01*
X61066500Y-189738000D01*
X61090905Y-189860694D01*
X61090513Y-189985791D01*
X61139545Y-190105223D01*
X61164733Y-190231853D01*
X61234234Y-190335869D01*
X61251241Y-190377293D01*
X60744430Y-190276482D01*
X59485025Y-189434974D01*
X58643518Y-188175570D01*
X58325000Y-186574271D01*
X58325000Y-174587883D01*
X60129637Y-174587883D01*
X60448669Y-175360000D01*
X61038893Y-175951255D01*
X61810452Y-176271634D01*
X62645883Y-176272363D01*
X63418000Y-175953331D01*
X64009255Y-175363107D01*
X64329634Y-174591548D01*
X64330363Y-173756117D01*
X64011331Y-172984000D01*
X63421107Y-172392745D01*
X62649548Y-172072366D01*
X61814117Y-172071637D01*
X61042000Y-172390669D01*
X60450745Y-172980893D01*
X60130366Y-173752452D01*
X60129637Y-174587883D01*
X58325000Y-174587883D01*
X58325000Y-67425729D01*
X58643518Y-65824430D01*
X59485025Y-64565026D01*
X60744430Y-63723518D01*
X62345729Y-63405000D01*
X140219271Y-63405000D01*
X141820570Y-63723518D01*
G36*
X108718712Y-180006000D02*
X101520284Y-180006000D01*
X101872594Y-179770594D01*
X107319188Y-174324000D01*
X114400712Y-174324000D01*
X108718712Y-180006000D01*
X108718712Y-180006000D01*
G37*
X108718712Y-180006000D02*
X101520284Y-180006000D01*
X101872594Y-179770594D01*
X107319188Y-174324000D01*
X114400712Y-174324000D01*
X108718712Y-180006000D01*
G36*
X104606804Y-173218008D02*
X100876716Y-176948096D01*
X100854346Y-176932812D01*
X100418000Y-176844450D01*
X98718000Y-176844450D01*
X98310364Y-176921152D01*
X97995259Y-177123917D01*
X97774233Y-176976232D01*
X97034165Y-176829023D01*
X100280717Y-173582471D01*
X100711000Y-173668060D01*
X101438099Y-173523431D01*
X101981000Y-173160676D01*
X102523901Y-173523431D01*
X103251000Y-173668060D01*
X103978099Y-173523431D01*
X104521000Y-173160676D01*
X104606804Y-173218008D01*
X104606804Y-173218008D01*
G37*
X104606804Y-173218008D02*
X100876716Y-176948096D01*
X100854346Y-176932812D01*
X100418000Y-176844450D01*
X98718000Y-176844450D01*
X98310364Y-176921152D01*
X97995259Y-177123917D01*
X97774233Y-176976232D01*
X97034165Y-176829023D01*
X100280717Y-173582471D01*
X100711000Y-173668060D01*
X101438099Y-173523431D01*
X101981000Y-173160676D01*
X102523901Y-173523431D01*
X103251000Y-173668060D01*
X103978099Y-173523431D01*
X104521000Y-173160676D01*
X104606804Y-173218008D01*
G36*
X92363901Y-173523431D02*
X93079116Y-173665696D01*
X91388812Y-175356000D01*
X87753188Y-175356000D01*
X85966656Y-173569468D01*
X86198099Y-173523431D01*
X86741000Y-173160676D01*
X87283901Y-173523431D01*
X88011000Y-173668060D01*
X88738099Y-173523431D01*
X89281000Y-173160676D01*
X89823901Y-173523431D01*
X90551000Y-173668060D01*
X91278099Y-173523431D01*
X91821000Y-173160676D01*
X92363901Y-173523431D01*
X92363901Y-173523431D01*
G37*
X92363901Y-173523431D02*
X93079116Y-173665696D01*
X91388812Y-175356000D01*
X87753188Y-175356000D01*
X85966656Y-173569468D01*
X86198099Y-173523431D01*
X86741000Y-173160676D01*
X87283901Y-173523431D01*
X88011000Y-173668060D01*
X88738099Y-173523431D01*
X89281000Y-173160676D01*
X89823901Y-173523431D01*
X90551000Y-173668060D01*
X91278099Y-173523431D01*
X91821000Y-173160676D01*
X92363901Y-173523431D01*
G36*
X78889377Y-171371600D02*
X74929874Y-171371600D01*
X75280084Y-171022000D01*
X78540387Y-171022000D01*
X78889377Y-171371600D01*
X78889377Y-171371600D01*
G37*
X78889377Y-171371600D02*
X74929874Y-171371600D01*
X75280084Y-171022000D01*
X78540387Y-171022000D01*
X78889377Y-171371600D01*
G36*
X98834745Y-169109967D02*
X98171000Y-168977940D01*
X97443901Y-169122569D01*
X96901000Y-169485324D01*
X96358099Y-169122569D01*
X95631000Y-168977940D01*
X94903901Y-169122569D01*
X94361000Y-169485324D01*
X93818099Y-169122569D01*
X93091000Y-168977940D01*
X92363901Y-169122569D01*
X91821000Y-169485324D01*
X91278099Y-169122569D01*
X90562884Y-168980304D01*
X90596488Y-168946700D01*
X98998012Y-168946700D01*
X98834745Y-169109967D01*
X98834745Y-169109967D01*
G37*
X98834745Y-169109967D02*
X98171000Y-168977940D01*
X97443901Y-169122569D01*
X96901000Y-169485324D01*
X96358099Y-169122569D01*
X95631000Y-168977940D01*
X94903901Y-169122569D01*
X94361000Y-169485324D01*
X93818099Y-169122569D01*
X93091000Y-168977940D01*
X92363901Y-169122569D01*
X91821000Y-169485324D01*
X91278099Y-169122569D01*
X90562884Y-168980304D01*
X90596488Y-168946700D01*
X98998012Y-168946700D01*
X98834745Y-169109967D01*
G36*
X128602893Y-156973255D02*
X129374452Y-157293634D01*
X130209883Y-157294363D01*
X130982000Y-156975331D01*
X131414084Y-156544000D01*
X134674387Y-156544000D01*
X135102893Y-156973255D01*
X135874452Y-157293634D01*
X136404000Y-157294096D01*
X136404000Y-157594096D01*
X135878117Y-157593637D01*
X135106000Y-157912669D01*
X134514745Y-158502893D01*
X134306761Y-159003773D01*
X134042394Y-158739406D01*
X133845177Y-158607630D01*
X133604423Y-158446763D01*
X133087800Y-158344000D01*
X131413613Y-158344000D01*
X130985107Y-157914745D01*
X130213548Y-157594366D01*
X129378117Y-157593637D01*
X128606000Y-157912669D01*
X128014745Y-158502893D01*
X127694366Y-159274452D01*
X127693637Y-160109883D01*
X128012669Y-160882000D01*
X128602893Y-161473255D01*
X129374452Y-161793634D01*
X130209883Y-161794363D01*
X130982000Y-161475331D01*
X131414084Y-161044000D01*
X132528612Y-161044000D01*
X133340900Y-161856288D01*
X133340900Y-167234000D01*
X131563613Y-167234000D01*
X131135107Y-166804745D01*
X130363548Y-166484366D01*
X129528117Y-166483637D01*
X128756000Y-166802669D01*
X128323916Y-167234000D01*
X125063613Y-167234000D01*
X124635107Y-166804745D01*
X123863548Y-166484366D01*
X123028117Y-166483637D01*
X122256000Y-166802669D01*
X121664745Y-167392893D01*
X121344366Y-168164452D01*
X121344271Y-168273000D01*
X117530188Y-168273000D01*
X119445594Y-166357594D01*
X119585993Y-166147472D01*
X119735022Y-165924434D01*
X120073024Y-165706936D01*
X120324188Y-165339346D01*
X120412550Y-164903000D01*
X120412550Y-164499883D01*
X121343637Y-164499883D01*
X121662669Y-165272000D01*
X122252893Y-165863255D01*
X123024452Y-166183634D01*
X123859883Y-166184363D01*
X124632000Y-165865331D01*
X125064084Y-165434000D01*
X128324387Y-165434000D01*
X128752893Y-165863255D01*
X129524452Y-166183634D01*
X130359883Y-166184363D01*
X131132000Y-165865331D01*
X131723255Y-165275107D01*
X132043634Y-164503548D01*
X132044363Y-163668117D01*
X131725331Y-162896000D01*
X131135107Y-162304745D01*
X130363548Y-161984366D01*
X129528117Y-161983637D01*
X128756000Y-162302669D01*
X128323916Y-162734000D01*
X125063613Y-162734000D01*
X124635107Y-162304745D01*
X123863548Y-161984366D01*
X123028117Y-161983637D01*
X122256000Y-162302669D01*
X121664745Y-162892893D01*
X121344366Y-163664452D01*
X121343637Y-164499883D01*
X120412550Y-164499883D01*
X120412550Y-162503000D01*
X120335848Y-162095364D01*
X120094936Y-161720976D01*
X119881706Y-161575282D01*
X124912988Y-156544000D01*
X128174387Y-156544000D01*
X128602893Y-156973255D01*
X128602893Y-156973255D01*
G37*
X128602893Y-156973255D02*
X129374452Y-157293634D01*
X130209883Y-157294363D01*
X130982000Y-156975331D01*
X131414084Y-156544000D01*
X134674387Y-156544000D01*
X135102893Y-156973255D01*
X135874452Y-157293634D01*
X136404000Y-157294096D01*
X136404000Y-157594096D01*
X135878117Y-157593637D01*
X135106000Y-157912669D01*
X134514745Y-158502893D01*
X134306761Y-159003773D01*
X134042394Y-158739406D01*
X133845177Y-158607630D01*
X133604423Y-158446763D01*
X133087800Y-158344000D01*
X131413613Y-158344000D01*
X130985107Y-157914745D01*
X130213548Y-157594366D01*
X129378117Y-157593637D01*
X128606000Y-157912669D01*
X128014745Y-158502893D01*
X127694366Y-159274452D01*
X127693637Y-160109883D01*
X128012669Y-160882000D01*
X128602893Y-161473255D01*
X129374452Y-161793634D01*
X130209883Y-161794363D01*
X130982000Y-161475331D01*
X131414084Y-161044000D01*
X132528612Y-161044000D01*
X133340900Y-161856288D01*
X133340900Y-167234000D01*
X131563613Y-167234000D01*
X131135107Y-166804745D01*
X130363548Y-166484366D01*
X129528117Y-166483637D01*
X128756000Y-166802669D01*
X128323916Y-167234000D01*
X125063613Y-167234000D01*
X124635107Y-166804745D01*
X123863548Y-166484366D01*
X123028117Y-166483637D01*
X122256000Y-166802669D01*
X121664745Y-167392893D01*
X121344366Y-168164452D01*
X121344271Y-168273000D01*
X117530188Y-168273000D01*
X119445594Y-166357594D01*
X119585993Y-166147472D01*
X119735022Y-165924434D01*
X120073024Y-165706936D01*
X120324188Y-165339346D01*
X120412550Y-164903000D01*
X120412550Y-164499883D01*
X121343637Y-164499883D01*
X121662669Y-165272000D01*
X122252893Y-165863255D01*
X123024452Y-166183634D01*
X123859883Y-166184363D01*
X124632000Y-165865331D01*
X125064084Y-165434000D01*
X128324387Y-165434000D01*
X128752893Y-165863255D01*
X129524452Y-166183634D01*
X130359883Y-166184363D01*
X131132000Y-165865331D01*
X131723255Y-165275107D01*
X132043634Y-164503548D01*
X132044363Y-163668117D01*
X131725331Y-162896000D01*
X131135107Y-162304745D01*
X130363548Y-161984366D01*
X129528117Y-161983637D01*
X128756000Y-162302669D01*
X128323916Y-162734000D01*
X125063613Y-162734000D01*
X124635107Y-162304745D01*
X123863548Y-161984366D01*
X123028117Y-161983637D01*
X122256000Y-162302669D01*
X121664745Y-162892893D01*
X121344366Y-163664452D01*
X121343637Y-164499883D01*
X120412550Y-164499883D01*
X120412550Y-162503000D01*
X120335848Y-162095364D01*
X120094936Y-161720976D01*
X119881706Y-161575282D01*
X124912988Y-156544000D01*
X128174387Y-156544000D01*
X128602893Y-156973255D01*
G36*
X66980245Y-162422300D02*
X67373728Y-162816470D01*
X67495237Y-162866925D01*
X69332012Y-164703700D01*
X65863488Y-164703700D01*
X65230223Y-164070435D01*
X65367557Y-163739699D01*
X65367796Y-163465592D01*
X66813834Y-162019554D01*
X66980245Y-162422300D01*
X66980245Y-162422300D01*
G37*
X66980245Y-162422300D02*
X67373728Y-162816470D01*
X67495237Y-162866925D01*
X69332012Y-164703700D01*
X65863488Y-164703700D01*
X65230223Y-164070435D01*
X65367557Y-163739699D01*
X65367796Y-163465592D01*
X66813834Y-162019554D01*
X66980245Y-162422300D01*
G36*
X81809612Y-162811900D02*
X78178026Y-162811900D01*
X78548594Y-162564294D01*
X79627588Y-161485300D01*
X83136212Y-161485300D01*
X81809612Y-162811900D01*
X81809612Y-162811900D01*
G37*
X81809612Y-162811900D02*
X78178026Y-162811900D01*
X78548594Y-162564294D01*
X79627588Y-161485300D01*
X83136212Y-161485300D01*
X81809612Y-162811900D01*
G36*
X136404000Y-161794096D02*
X136404000Y-161984227D01*
X136040900Y-161983910D01*
X136040900Y-161856288D01*
X136103354Y-161793834D01*
X136404000Y-161794096D01*
X136404000Y-161794096D01*
G37*
X136404000Y-161794096D02*
X136404000Y-161984227D01*
X136040900Y-161983910D01*
X136040900Y-161856288D01*
X136103354Y-161793834D01*
X136404000Y-161794096D01*
G36*
X94814428Y-160979970D02*
X94935937Y-161030425D01*
X95324432Y-161418920D01*
X94903901Y-161502569D01*
X94361000Y-161865324D01*
X93818099Y-161502569D01*
X93675486Y-161474202D01*
X94492354Y-160657334D01*
X94814428Y-160979970D01*
X94814428Y-160979970D01*
G37*
X94814428Y-160979970D02*
X94935937Y-161030425D01*
X95324432Y-161418920D01*
X94903901Y-161502569D01*
X94361000Y-161865324D01*
X93818099Y-161502569D01*
X93675486Y-161474202D01*
X94492354Y-160657334D01*
X94814428Y-160979970D01*
G36*
X102296406Y-161048406D02*
X102003763Y-161486377D01*
X101981000Y-161600814D01*
X101958237Y-161486377D01*
X101665594Y-161048406D01*
X101227623Y-160755763D01*
X100711000Y-160653000D01*
X99955988Y-160653000D01*
X99129188Y-159826200D01*
X103518612Y-159826200D01*
X102296406Y-161048406D01*
X102296406Y-161048406D01*
G37*
X102296406Y-161048406D02*
X102003763Y-161486377D01*
X101981000Y-161600814D01*
X101958237Y-161486377D01*
X101665594Y-161048406D01*
X101227623Y-160755763D01*
X100711000Y-160653000D01*
X99955988Y-160653000D01*
X99129188Y-159826200D01*
X103518612Y-159826200D01*
X102296406Y-161048406D01*
G36*
X73836812Y-160259700D02*
X71469827Y-160259700D01*
X71349999Y-160209943D01*
X70793044Y-160209457D01*
X70557500Y-160306782D01*
X70557500Y-156980388D01*
X73836812Y-160259700D01*
X73836812Y-160259700D01*
G37*
X73836812Y-160259700D02*
X71469827Y-160259700D01*
X71349999Y-160209943D01*
X70793044Y-160209457D01*
X70557500Y-160306782D01*
X70557500Y-156980388D01*
X73836812Y-160259700D01*
G36*
X107698812Y-159392600D02*
X107613988Y-159392600D01*
X107656400Y-159350188D01*
X107698812Y-159392600D01*
X107698812Y-159392600D01*
G37*
X107698812Y-159392600D02*
X107613988Y-159392600D01*
X107656400Y-159350188D01*
X107698812Y-159392600D01*
G36*
X110962697Y-157864585D02*
X111012245Y-157984500D01*
X111160301Y-158132815D01*
X110954830Y-158337928D01*
X110818536Y-158666159D01*
X110788555Y-158593600D01*
X110395072Y-158199430D01*
X110273563Y-158148975D01*
X108921988Y-156797400D01*
X109895512Y-156797400D01*
X110962697Y-157864585D01*
X110962697Y-157864585D01*
G37*
X110962697Y-157864585D02*
X111012245Y-157984500D01*
X111160301Y-158132815D01*
X110954830Y-158337928D01*
X110818536Y-158666159D01*
X110788555Y-158593600D01*
X110395072Y-158199430D01*
X110273563Y-158148975D01*
X108921988Y-156797400D01*
X109895512Y-156797400D01*
X110962697Y-157864585D01*
G36*
X77162897Y-156171685D02*
X77212445Y-156291600D01*
X77363058Y-156442476D01*
X77064142Y-156642206D01*
X77013706Y-156675906D01*
X75618815Y-158070797D01*
X75510882Y-158115394D01*
X73414588Y-156019100D01*
X77010312Y-156019100D01*
X77162897Y-156171685D01*
X77162897Y-156171685D01*
G37*
X77162897Y-156171685D02*
X77212445Y-156291600D01*
X77363058Y-156442476D01*
X77064142Y-156642206D01*
X77013706Y-156675906D01*
X75618815Y-158070797D01*
X75510882Y-158115394D01*
X73414588Y-156019100D01*
X77010312Y-156019100D01*
X77162897Y-156171685D01*
M02*
