G04 #@! TF.FileFunction,Soldermask,Top*
%FSLAX46Y46*%
G04 Gerber Fmt 4.6, Leading zero omitted, Abs format (unit mm)*
G04 Created by KiCad (PCBNEW 4.0.6) date 04/14/18 17:05:04*
%MOMM*%
%LPD*%
G01*
G04 APERTURE LIST*
%ADD10C,0.100000*%
%ADD11R,2.000000X1.400000*%
%ADD12R,8.275000X2.400000*%
%ADD13R,2.000000X2.800000*%
%ADD14O,2.000000X2.800000*%
%ADD15R,1.650000X1.900000*%
%ADD16C,2.398980*%
%ADD17R,2.100000X2.100000*%
%ADD18O,2.100000X2.100000*%
%ADD19R,1.300000X1.200000*%
%ADD20R,1.700000X1.900000*%
%ADD21R,1.300000X3.200000*%
%ADD22C,2.400000*%
G04 APERTURE END LIST*
D10*
D11*
X139778000Y-142180000D03*
X139778000Y-138980000D03*
X134778000Y-142180000D03*
X134778000Y-138980000D03*
X131778000Y-142180000D03*
X131778000Y-138980000D03*
X126778000Y-142180000D03*
X126778000Y-138980000D03*
X123778000Y-142180000D03*
X123778000Y-138980000D03*
X118778000Y-142180000D03*
X118778000Y-138980000D03*
X115778000Y-142180000D03*
X115778000Y-138980000D03*
X110778000Y-142180000D03*
X110778000Y-138980000D03*
X107778000Y-142180000D03*
X107778000Y-138980000D03*
X102778000Y-142180000D03*
X102778000Y-138980000D03*
X99778000Y-142180000D03*
X99778000Y-138980000D03*
X94778000Y-142180000D03*
X94778000Y-138980000D03*
X91778000Y-142180000D03*
X91778000Y-138980000D03*
X86778000Y-142180000D03*
X86778000Y-138980000D03*
X83778000Y-142180000D03*
X83778000Y-138980000D03*
X78778000Y-142180000D03*
X78778000Y-138980000D03*
X75778000Y-142180000D03*
X75778000Y-138980000D03*
X70778000Y-142180000D03*
X70778000Y-138980000D03*
X67778000Y-142180000D03*
X67778000Y-138980000D03*
X62778000Y-142180000D03*
X62778000Y-138980000D03*
X139778000Y-134180000D03*
X139778000Y-130980000D03*
X134778000Y-134180000D03*
X134778000Y-130980000D03*
X131778000Y-134180000D03*
X131778000Y-130980000D03*
X126778000Y-134180000D03*
X126778000Y-130980000D03*
X123778000Y-134180000D03*
X123778000Y-130980000D03*
X118778000Y-134180000D03*
X118778000Y-130980000D03*
X115778000Y-134180000D03*
X115778000Y-130980000D03*
X110778000Y-134180000D03*
X110778000Y-130980000D03*
X107778000Y-134180000D03*
X107778000Y-130980000D03*
X102778000Y-134180000D03*
X102778000Y-130980000D03*
X99778000Y-134180000D03*
X99778000Y-130980000D03*
X94778000Y-134180000D03*
X94778000Y-130980000D03*
X91778000Y-134180000D03*
X91778000Y-130980000D03*
X86778000Y-134180000D03*
X86778000Y-130980000D03*
X83778000Y-134180000D03*
X83778000Y-130980000D03*
X78778000Y-134180000D03*
X78778000Y-130980000D03*
X75778000Y-134180000D03*
X75778000Y-130980000D03*
X70778000Y-134180000D03*
X70778000Y-130980000D03*
X67778000Y-134180000D03*
X67778000Y-130980000D03*
X62778000Y-134180000D03*
X62778000Y-130980000D03*
X139778000Y-126180000D03*
X139778000Y-122980000D03*
X134778000Y-126180000D03*
X134778000Y-122980000D03*
X131778000Y-126180000D03*
X131778000Y-122980000D03*
X126778000Y-126180000D03*
X126778000Y-122980000D03*
X123778000Y-126180000D03*
X123778000Y-122980000D03*
X118778000Y-126180000D03*
X118778000Y-122980000D03*
X115778000Y-126180000D03*
X115778000Y-122980000D03*
X110778000Y-126180000D03*
X110778000Y-122980000D03*
X107778000Y-126180000D03*
X107778000Y-122980000D03*
X102778000Y-126180000D03*
X102778000Y-122980000D03*
X99778000Y-126180000D03*
X99778000Y-122980000D03*
X94778000Y-126180000D03*
X94778000Y-122980000D03*
X91778000Y-126180000D03*
X91778000Y-122980000D03*
X86778000Y-126180000D03*
X86778000Y-122980000D03*
X83778000Y-126180000D03*
X83778000Y-122980000D03*
X78778000Y-126180000D03*
X78778000Y-122980000D03*
X75778000Y-126180000D03*
X75778000Y-122980000D03*
X70778000Y-126180000D03*
X70778000Y-122980000D03*
X67778000Y-126180000D03*
X67778000Y-122980000D03*
X62778000Y-126180000D03*
X62778000Y-122980000D03*
X139778000Y-118180000D03*
X139778000Y-114980000D03*
X134778000Y-118180000D03*
X134778000Y-114980000D03*
X131778000Y-118180000D03*
X131778000Y-114980000D03*
X126778000Y-118180000D03*
X126778000Y-114980000D03*
X123778000Y-118180000D03*
X123778000Y-114980000D03*
X118778000Y-118180000D03*
X118778000Y-114980000D03*
X115778000Y-118180000D03*
X115778000Y-114980000D03*
X110778000Y-118180000D03*
X110778000Y-114980000D03*
X107778000Y-118180000D03*
X107778000Y-114980000D03*
X102778000Y-118180000D03*
X102778000Y-114980000D03*
X99778000Y-118180000D03*
X99778000Y-114980000D03*
X94778000Y-118180000D03*
X94778000Y-114980000D03*
X91778000Y-118180000D03*
X91778000Y-114980000D03*
X86778000Y-118180000D03*
X86778000Y-114980000D03*
X83778000Y-118180000D03*
X83778000Y-114980000D03*
X78778000Y-118180000D03*
X78778000Y-114980000D03*
X75778000Y-118180000D03*
X75778000Y-114980000D03*
X70778000Y-118180000D03*
X70778000Y-114980000D03*
X67778000Y-118180000D03*
X67778000Y-114980000D03*
X62778000Y-118180000D03*
X62778000Y-114980000D03*
X139778000Y-110180000D03*
X139778000Y-106980000D03*
X134778000Y-110180000D03*
X134778000Y-106980000D03*
X131778000Y-110180000D03*
X131778000Y-106980000D03*
X126778000Y-110180000D03*
X126778000Y-106980000D03*
X123778000Y-110180000D03*
X123778000Y-106980000D03*
X118778000Y-110180000D03*
X118778000Y-106980000D03*
X115778000Y-110180000D03*
X115778000Y-106980000D03*
X110778000Y-110180000D03*
X110778000Y-106980000D03*
X107778000Y-110180000D03*
X107778000Y-106980000D03*
X102778000Y-110180000D03*
X102778000Y-106980000D03*
X99778000Y-110180000D03*
X99778000Y-106980000D03*
X94778000Y-110180000D03*
X94778000Y-106980000D03*
X91778000Y-110180000D03*
X91778000Y-106980000D03*
X86778000Y-110180000D03*
X86778000Y-106980000D03*
X83778000Y-110180000D03*
X83778000Y-106980000D03*
X78778000Y-110180000D03*
X78778000Y-106980000D03*
X75778000Y-110180000D03*
X75778000Y-106980000D03*
X70778000Y-110180000D03*
X70778000Y-106980000D03*
X67778000Y-110180000D03*
X67778000Y-106980000D03*
X62778000Y-110180000D03*
X62778000Y-106980000D03*
X139778000Y-102180000D03*
X139778000Y-98980000D03*
X134778000Y-102180000D03*
X134778000Y-98980000D03*
X131778000Y-102180000D03*
X131778000Y-98980000D03*
X126778000Y-102180000D03*
X126778000Y-98980000D03*
X123778000Y-102180000D03*
X123778000Y-98980000D03*
X118778000Y-102180000D03*
X118778000Y-98980000D03*
X115778000Y-102180000D03*
X115778000Y-98980000D03*
X110778000Y-102180000D03*
X110778000Y-98980000D03*
X107778000Y-102180000D03*
X107778000Y-98980000D03*
X102778000Y-102180000D03*
X102778000Y-98980000D03*
X99778000Y-102180000D03*
X99778000Y-98980000D03*
X94778000Y-102180000D03*
X94778000Y-98980000D03*
X91778000Y-102180000D03*
X91778000Y-98980000D03*
X86778000Y-102180000D03*
X86778000Y-98980000D03*
X83778000Y-102180000D03*
X83778000Y-98980000D03*
X78778000Y-102180000D03*
X78778000Y-98980000D03*
X75778000Y-102180000D03*
X75778000Y-98980000D03*
X70778000Y-102180000D03*
X70778000Y-98980000D03*
X67778000Y-102180000D03*
X67778000Y-98980000D03*
X62778000Y-102180000D03*
X62778000Y-98980000D03*
X139778000Y-94180000D03*
X139778000Y-90980000D03*
X134778000Y-94180000D03*
X134778000Y-90980000D03*
X131778000Y-94180000D03*
X131778000Y-90980000D03*
X126778000Y-94180000D03*
X126778000Y-90980000D03*
X123778000Y-94180000D03*
X123778000Y-90980000D03*
X118778000Y-94180000D03*
X118778000Y-90980000D03*
X115778000Y-94180000D03*
X115778000Y-90980000D03*
X110778000Y-94180000D03*
X110778000Y-90980000D03*
X107778000Y-94180000D03*
X107778000Y-90980000D03*
X102778000Y-94180000D03*
X102778000Y-90980000D03*
X99778000Y-94180000D03*
X99778000Y-90980000D03*
X94778000Y-94180000D03*
X94778000Y-90980000D03*
X91778000Y-94180000D03*
X91778000Y-90980000D03*
X86778000Y-94180000D03*
X86778000Y-90980000D03*
X83778000Y-94180000D03*
X83778000Y-90980000D03*
X78778000Y-94180000D03*
X78778000Y-90980000D03*
X75778000Y-94180000D03*
X75778000Y-90980000D03*
X70778000Y-94180000D03*
X70778000Y-90980000D03*
X67778000Y-94180000D03*
X67778000Y-90980000D03*
X62778000Y-94180000D03*
X62778000Y-90980000D03*
X139778000Y-86180000D03*
X139778000Y-82980000D03*
X134778000Y-86180000D03*
X134778000Y-82980000D03*
X131778000Y-86180000D03*
X131778000Y-82980000D03*
X126778000Y-86180000D03*
X126778000Y-82980000D03*
X123778000Y-86180000D03*
X123778000Y-82980000D03*
X118778000Y-86180000D03*
X118778000Y-82980000D03*
X115778000Y-86180000D03*
X115778000Y-82980000D03*
X110778000Y-86180000D03*
X110778000Y-82980000D03*
X107778000Y-86180000D03*
X107778000Y-82980000D03*
X102778000Y-86180000D03*
X102778000Y-82980000D03*
X99778000Y-86180000D03*
X99778000Y-82980000D03*
X94778000Y-86180000D03*
X94778000Y-82980000D03*
X91778000Y-86180000D03*
X91778000Y-82980000D03*
X86778000Y-86180000D03*
X86778000Y-82980000D03*
X83778000Y-86180000D03*
X83778000Y-82980000D03*
X78778000Y-86180000D03*
X78778000Y-82980000D03*
X75778000Y-86180000D03*
X75778000Y-82980000D03*
X70778000Y-86180000D03*
X70778000Y-82980000D03*
X67778000Y-86180000D03*
X67778000Y-82980000D03*
X62778000Y-86180000D03*
X62778000Y-82980000D03*
X139778000Y-78180000D03*
X139778000Y-74980000D03*
X134778000Y-78180000D03*
X134778000Y-74980000D03*
X131778000Y-78180000D03*
X131778000Y-74980000D03*
X126778000Y-78180000D03*
X126778000Y-74980000D03*
X123778000Y-78180000D03*
X123778000Y-74980000D03*
X118778000Y-78180000D03*
X118778000Y-74980000D03*
X115778000Y-78180000D03*
X115778000Y-74980000D03*
X110778000Y-78180000D03*
X110778000Y-74980000D03*
X107778000Y-78180000D03*
X107778000Y-74980000D03*
X102778000Y-78180000D03*
X102778000Y-74980000D03*
X99778000Y-78180000D03*
X99778000Y-74980000D03*
X94778000Y-78180000D03*
X94778000Y-74980000D03*
X91778000Y-78180000D03*
X91778000Y-74980000D03*
X86778000Y-78180000D03*
X86778000Y-74980000D03*
X83778000Y-78180000D03*
X83778000Y-74980000D03*
X78778000Y-78180000D03*
X78778000Y-74980000D03*
X75778000Y-78180000D03*
X75778000Y-74980000D03*
X70778000Y-78180000D03*
X70778000Y-74980000D03*
X67778000Y-78180000D03*
X67778000Y-74980000D03*
X62778000Y-78180000D03*
X62778000Y-74980000D03*
X139778000Y-70180000D03*
X139778000Y-66980000D03*
X134778000Y-70180000D03*
X134778000Y-66980000D03*
X131778000Y-70180000D03*
X131778000Y-66980000D03*
X126778000Y-70180000D03*
X126778000Y-66980000D03*
X123778000Y-70180000D03*
X123778000Y-66980000D03*
X118778000Y-70180000D03*
X118778000Y-66980000D03*
X115778000Y-70180000D03*
X115778000Y-66980000D03*
X110778000Y-70180000D03*
X110778000Y-66980000D03*
X107778000Y-70180000D03*
X107778000Y-66980000D03*
X102778000Y-70180000D03*
X102778000Y-66980000D03*
X99778000Y-70180000D03*
X99778000Y-66980000D03*
X94778000Y-70180000D03*
X94778000Y-66980000D03*
X91778000Y-70180000D03*
X91778000Y-66980000D03*
X86778000Y-70180000D03*
X86778000Y-66980000D03*
X83778000Y-70180000D03*
X83778000Y-66980000D03*
X78778000Y-70180000D03*
X78778000Y-66980000D03*
X75778000Y-70180000D03*
X75778000Y-66980000D03*
X70778000Y-70180000D03*
X70778000Y-66980000D03*
D12*
X102012500Y-147320000D03*
X113887500Y-147320000D03*
D13*
X118491000Y-163703000D03*
D14*
X85471000Y-171323000D03*
X115951000Y-163703000D03*
X88011000Y-171323000D03*
X113411000Y-163703000D03*
X90551000Y-171323000D03*
X110871000Y-163703000D03*
X93091000Y-171323000D03*
X108331000Y-163703000D03*
X95631000Y-171323000D03*
X105791000Y-163703000D03*
X98171000Y-171323000D03*
X103251000Y-163703000D03*
X100711000Y-171323000D03*
X100711000Y-163703000D03*
X103251000Y-171323000D03*
X98171000Y-163703000D03*
X105791000Y-171323000D03*
X95631000Y-163703000D03*
X108331000Y-171323000D03*
X93091000Y-163703000D03*
X110871000Y-171323000D03*
X90551000Y-163703000D03*
X113411000Y-171323000D03*
X88011000Y-163703000D03*
X115951000Y-171323000D03*
X85471000Y-163703000D03*
X118491000Y-171323000D03*
D15*
X96520000Y-149840000D03*
X96520000Y-147340000D03*
X119380000Y-149840000D03*
X119380000Y-147340000D03*
D16*
X142240000Y-67437000D03*
D17*
X136017000Y-146050000D03*
D18*
X138557000Y-146050000D03*
X141097000Y-146050000D03*
D19*
X59960000Y-161610000D03*
X59960000Y-163510000D03*
X61960000Y-162560000D03*
X65040000Y-161610000D03*
X65040000Y-163510000D03*
X67040000Y-162560000D03*
X70120000Y-161610000D03*
X70120000Y-163510000D03*
X72120000Y-162560000D03*
X75200000Y-161610000D03*
X75200000Y-163510000D03*
X77200000Y-162560000D03*
D20*
X105791000Y-177753000D03*
X105791000Y-175053000D03*
X108331000Y-177753000D03*
X108331000Y-175053000D03*
X110871000Y-177753000D03*
X110871000Y-175053000D03*
X113411000Y-177753000D03*
X113411000Y-175053000D03*
X115951000Y-177753000D03*
X115951000Y-175053000D03*
X118491000Y-177753000D03*
X118491000Y-175053000D03*
X115951000Y-157273000D03*
X115951000Y-159973000D03*
X113411000Y-157273000D03*
X113411000Y-159973000D03*
X110871000Y-157273000D03*
X110871000Y-159973000D03*
X108331000Y-157273000D03*
X108331000Y-159973000D03*
X105791000Y-157273000D03*
X105791000Y-159973000D03*
X103251000Y-157273000D03*
X103251000Y-159973000D03*
X118491000Y-157273000D03*
X118491000Y-159973000D03*
D21*
X60620000Y-157400000D03*
X62060000Y-157400000D03*
X63500000Y-157400000D03*
X64940000Y-157400000D03*
X66380000Y-157400000D03*
X66380000Y-147400000D03*
X64940000Y-147400000D03*
X63500000Y-147400000D03*
X62060000Y-147400000D03*
X60620000Y-147400000D03*
X69510000Y-157400000D03*
X70950000Y-157400000D03*
X72390000Y-157400000D03*
X73830000Y-157400000D03*
X75270000Y-157400000D03*
X75270000Y-147400000D03*
X73830000Y-147400000D03*
X72390000Y-147400000D03*
X70950000Y-147400000D03*
X69510000Y-147400000D03*
X78400000Y-157400000D03*
X79840000Y-157400000D03*
X81280000Y-157400000D03*
X82720000Y-157400000D03*
X84160000Y-157400000D03*
X84160000Y-147400000D03*
X82720000Y-147400000D03*
X81280000Y-147400000D03*
X79840000Y-147400000D03*
X78400000Y-147400000D03*
X87290000Y-157400000D03*
X88730000Y-157400000D03*
X90170000Y-157400000D03*
X91610000Y-157400000D03*
X93050000Y-157400000D03*
X93050000Y-147400000D03*
X91610000Y-147400000D03*
X90170000Y-147400000D03*
X88730000Y-147400000D03*
X87290000Y-147400000D03*
D22*
X123444000Y-168584000D03*
X123444000Y-164084000D03*
X129944000Y-168584000D03*
X129944000Y-164084000D03*
X136144000Y-168584000D03*
X136144000Y-164084000D03*
X142644000Y-168584000D03*
X142644000Y-164084000D03*
X129794000Y-159694000D03*
X129794000Y-155194000D03*
X136294000Y-159694000D03*
X136294000Y-155194000D03*
X129794000Y-177474000D03*
X129794000Y-172974000D03*
X136294000Y-177474000D03*
X136294000Y-172974000D03*
X62230000Y-174172000D03*
X62230000Y-169672000D03*
X68730000Y-174172000D03*
X68730000Y-169672000D03*
X73660000Y-174172000D03*
X73660000Y-169672000D03*
X80160000Y-174172000D03*
X80160000Y-169672000D03*
D17*
X129540000Y-146050000D03*
D18*
X132080000Y-146050000D03*
D17*
X99568000Y-178816000D03*
D18*
X99568000Y-181356000D03*
X97028000Y-178816000D03*
X97028000Y-181356000D03*
X94488000Y-178816000D03*
X94488000Y-181356000D03*
X91948000Y-178816000D03*
X91948000Y-181356000D03*
X89408000Y-178816000D03*
X89408000Y-181356000D03*
D11*
X67778000Y-70180000D03*
X67778000Y-66980000D03*
X62778000Y-70180000D03*
X62778000Y-66980000D03*
M02*
